<?xml version="1.0" encoding="UTF-8" standalone="no"?>
<!-- Created with Inkscape (http://www.inkscape.org/) -->

<svg
   width="13.758188mm"
   height="11.04373mm"
   viewBox="0 0 13.758188 11.04373"
   version="1.1"
   id="svg1"
   xml:space="preserve"
   inkscape:export-filename="ビットマップ.svg"
   inkscape:export-xdpi="96"
   inkscape:export-ydpi="96"
   xmlns:inkscape="http://www.inkscape.org/namespaces/inkscape"
   xmlns:sodipodi="http://sodipodi.sourceforge.net/DTD/sodipodi-0.dtd"
   xmlns="http://www.w3.org/2000/svg"
   xmlns:svg="http://www.w3.org/2000/svg"><sodipodi:namedview
     id="namedview1"
     pagecolor="#ffffff"
     bordercolor="#111111"
     borderopacity="1"
     inkscape:showpageshadow="0"
     inkscape:pageopacity="0"
     inkscape:pagecheckerboard="1"
     inkscape:deskcolor="#d1d1d1"
     inkscape:document-units="mm"><inkscape:page
       x="0"
       y="0"
       width="13.758188"
       height="11.04373"
       id="page2"
       margin="0"
       bleed="0" /></sodipodi:namedview><defs
     id="defs1" /><g
     inkscape:label="Layer 1"
     inkscape:groupmode="layer"
     id="layer1"
     transform="translate(-68.642295,-63.112614)"><path
       style="fill:#000000;stroke:#000000;stroke-width:0.204;stroke-linecap:round;stroke-linejoin:round;stroke-dasharray:none;stroke-opacity:1"
       d="m 74.575591,74.034762 c -0.815165,-0.04586 -1.723641,-0.184092 -2.215175,-0.336831 -0.525973,-0.163313 -0.729999,-0.315677 -0.973519,-0.726818 -0.01872,-0.02433 -0.149749,-0.07861 -0.300423,-0.120359 -1.022282,-0.282359 -1.84821,-0.769027 -2.1316,-1.256114 -0.127282,-0.21872 -0.210578,-0.536645 -0.210578,-0.803 0,-0.572864 0.724385,-1.055056 2.150131,-1.430576 0.188113,-0.04961 0.374356,-0.09893 0.413667,-0.109587 0.06551,-0.01872 0.07487,-0.04024 0.07487,-0.464392 0,-0.244643 0.01872,-0.569025 0.04679,-0.720828 0.212449,-1.201514 1.001132,-2.128269 1.967163,-2.311273 0.153486,-0.02902 0.283575,-0.07487 0.292001,-0.100885 0.0073,-0.02808 -0.05616,-0.06832 -0.164717,-0.09611 -0.449232,-0.122236 -0.89285,-0.538143 -1.072072,-1.00377 -0.144121,-0.374077 -0.235846,-1.141279 -0.156301,-1.306016 0.07487,-0.14797 0.802063,0.224334 1.082458,0.551337 0.179691,0.209642 0.371553,0.675998 0.400564,0.977349 0.03743,0.421527 0.0468,0.426675 0.120732,0.240151 0.169398,-0.419657 0.401499,-0.734493 0.501638,-0.683674 0.07488,0.03931 0.05616,0.111933 -0.130081,0.371271 -0.172204,0.243895 -0.409923,0.788307 -0.409923,0.93805 0,0.05896 0.04679,0.0861 0.219934,0.127849 0.587745,0.1415 1.173058,0.610765 1.478533,1.186391 l 0.0468,0.09678 0.226485,-0.2891 c 0.409921,-0.524477 0.899399,-0.808615 1.471509,-0.854661 l 0.303233,-0.02433 -0.01872,-0.1752 c -0.03743,-0.337111 -0.176885,-0.81835 -0.291064,-1.038566 -0.111367,-0.21666 -0.12353,-0.354985 -0.02808,-0.354985 0.09453,0 0.28919,0.43491 0.392141,0.868606 l 0.05614,0.248762 0.119793,-0.313901 c 0.252694,-0.658779 0.569024,-0.914091 1.236039,-0.998294 0.280768,-0.03557 0.306974,0.0024 0.239594,0.340386 -0.14975,0.750778 -0.4614,1.210564 -0.933094,1.375292 -0.09453,0.03275 -0.222744,0.06083 -0.285447,0.06083 -0.176886,0.0018 -0.226488,0.06832 -0.07487,0.1037 0.199349,0.04679 0.633606,0.347965 0.871322,0.605057 0.506323,0.548622 0.787091,1.289394 0.829208,2.195082 l 0.01871,0.445955 0.423027,0.115022 c 1.170806,0.318111 1.843347,0.678807 2.060004,1.104779 0.166592,0.32822 0.0468,0.948261 -0.262986,1.318511 -0.351899,0.425833 -1.189247,0.852229 -2.23689,1.139259 -0.04679,0.01407 -0.104816,0.08049 -0.143181,0.171923 -0.197477,0.483299 -1.156773,0.787839 -2.903065,0.92214 -0.499768,0.03837 -1.552185,0.04586 -2.101278,0.01504 z m 2.019763,-0.228827 c 1.438847,-0.09658 2.479566,-0.358355 2.748263,-0.691442 l 0.102016,-0.126716 -0.09547,0.02714 c -0.204024,0.05896 -1.161074,0.232664 -1.516904,0.27581 -1.918027,0.232476 -4.202648,0.149831 -5.809956,-0.210016 -0.199346,-0.04492 -0.370617,-0.07112 -0.37904,-0.05896 -0.0092,0.01213 0.02808,0.06926 0.08423,0.125778 0.469823,0.496493 2.728236,0.801502 4.870315,0.657749 z m 0.309779,-0.641277 c 1.598703,-0.123077 3.074704,-0.448108 3.996002,-0.879931 0.344409,-0.161542 0.782411,-0.466264 0.953587,-0.664862 0.181566,-0.209922 0.192795,-0.288256 0.01871,-0.146272 -0.420223,0.348622 -1.334407,0.664393 -2.593842,0.896496 -3.467311,0.639217 -8.34624,0.246422 -9.958605,-0.80169 -0.319141,-0.207114 -0.337855,-0.15546 -0.04679,0.135419 0.237717,0.24118 0.712218,0.527004 1.180729,0.713153 0.787091,0.312215 2.113632,0.597383 3.273955,0.703888 0.277964,0.02527 0.563411,0.05241 0.635475,0.0599 0.325692,0.03369 2.041942,0.02247 2.540867,-0.01585 z m 0.553118,-0.769215 c 1.120361,-0.09359 2.174649,-0.273188 3.046999,-0.519047 0.954521,-0.269072 1.628836,-0.726445 1.628836,-1.104949 0,-0.409362 -0.740294,-0.859903 -1.96005,-1.192531 -0.256436,-0.0702 -0.472626,-0.118208 -0.48105,-0.107436 -0.0081,0.01116 -0.0468,0.162566 -0.08423,0.337299 l -0.06551,0.317735 0.100139,0.02808 c 0.451105,0.126344 0.898458,0.4117 0.898458,0.573049 0,0.116705 -0.07487,0.10941 -0.221802,-0.02153 -0.131022,-0.117367 -0.674785,-0.362379 -0.803939,-0.362379 -0.05616,0 -0.09453,0.03743 -0.128219,0.1212 -0.08423,0.226581 -0.341602,0.595325 -0.547503,0.79907 -0.464203,0.460368 -0.911562,0.641838 -1.502954,0.608894 -0.635475,-0.03557 -1.147692,-0.342444 -1.575211,-0.944132 l -0.201217,-0.284326 -0.240525,0.311373 c -0.703795,0.910909 -1.814985,1.125061 -2.693232,0.518674 -0.377168,-0.259993 -0.597104,-0.522323 -0.897526,-1.065612 l -0.06551,-0.118953 -0.275154,0.09171 c -0.27796,0.09265 -0.656063,0.300516 -0.751524,0.413479 -0.0468,0.05241 -0.05616,0.05241 -0.114181,0.0021 -0.05616,-0.05241 -0.05616,-0.06739 -0.0094,-0.134578 0.07487,-0.118111 0.525036,-0.38615 0.787088,-0.468509 0.131019,-0.04118 0.248013,-0.08704 0.259245,-0.101354 0.01872,-0.02433 -0.106691,-0.580258 -0.144121,-0.629018 -0.02808,-0.03182 -0.803,0.180161 -1.213296,0.331121 -1.061684,0.390644 -1.482743,0.823777 -1.197109,1.231361 0.4979,0.710439 2.527767,1.25268 5.285671,1.411904 0.720637,0.04118 2.442878,0.01872 3.175122,-0.04306 z m 0.467948,-0.791114 c 0.584935,-0.181002 1.135245,-0.76416 1.409183,-1.493307 0.299484,-0.796824 0.297613,-1.605018 -0.0065,-2.417452 -0.17595,-0.470382 -0.578388,-1.014905 -0.924665,-1.248674 -0.209644,-0.14142 -0.594296,-0.318486 -0.617694,-0.283577 -0.0053,0.0081 -0.01872,0.107355 -0.02808,0.220591 l -0.01871,0.205991 0.127283,-0.02808 c 0.102016,-0.02247 0.131035,-0.01407 0.147873,0.04586 0.02808,0.11203 -0.07487,0.189894 -0.263921,0.189894 -0.259244,-1.03e-4 -0.517553,-0.21666 -0.416476,-0.349745 0.02808,-0.04212 0.05614,-0.03743 0.134772,0.02059 0.0468,0.04024 0.102955,0.073 0.113243,0.073 0.0094,0 0.01872,-0.09621 0.01872,-0.213759 v -0.213758 l -0.187178,7.89e-4 c -0.519426,0.0021 -1.044649,0.29434 -1.449052,0.806463 l -0.257371,0.325598 0.10014,0.288818 c 0.280766,0.807306 0.263921,1.793656 -0.04679,2.61107 l -0.109507,0.292281 0.124469,0.205709 c 0.261112,0.434537 0.730936,0.823122 1.155924,0.958098 0.255501,0.08142 0.729066,0.08236 0.985312,0.0036 z m -3.695018,-0.08892 c 0.530656,-0.168554 1.068326,-0.707819 1.347787,-1.350472 0.255498,-0.588211 0.336924,-1.409835 0.207772,-2.083653 -0.202156,-1.048392 -0.849796,-1.847921 -1.681436,-2.077094 -0.152548,-0.04212 -0.283577,-0.06832 -0.29013,-0.05896 -0.0063,0.0094 -0.01872,0.108843 -0.02808,0.220497 -0.01872,0.215818 0.0094,0.25288 0.13757,0.163315 0.07487,-0.05147 0.144121,0.007 0.130097,0.107161 -0.01872,0.102194 -0.262987,0.201311 -0.424899,0.169491 -0.192794,-0.03837 -0.29106,-0.111754 -0.279833,-0.212636 0.0094,-0.08892 0.02808,-0.09359 0.196538,-0.04212 0.08424,0.02714 0.08424,0.0262 0.08424,-0.191018 0,-0.256528 -0.0023,-0.257371 -0.368744,-0.14975 -0.661682,0.194481 -1.235667,0.77848 -1.509135,1.534114 -0.173142,0.479275 -0.218064,0.776982 -0.200284,1.345484 0.02808,0.819005 0.22649,1.388263 0.693503,1.959704 0.534394,0.655034 1.255692,0.897244 1.983259,0.666078 z m 4.271248,-5.975601 c 0.308849,-0.185869 0.469824,-0.43772 0.601783,-0.94418 l 0.06551,-0.248574 -0.219935,0.02527 c -0.12167,0.01407 -0.289192,0.05616 -0.37342,0.0949 -0.248949,0.113242 -0.510066,0.456998 -0.61114,0.803187 -0.02808,0.112305 -0.02808,0.107727 0.148812,-0.07675 0.233039,-0.24848 0.455781,-0.421154 0.498829,-0.385963 0.07488,0.06177 0.02808,0.188676 -0.108567,0.29462 -0.162847,0.125034 -0.541885,0.530653 -0.541885,0.579695 0,0.0571 0.368743,-0.04024 0.538139,-0.142067 z M 73.431926,65.07542 c -0.07488,-0.146936 -0.220873,-0.374265 -0.321948,-0.505197 -0.155363,-0.200656 -0.179694,-0.252973 -0.157239,-0.333179 0.01872,-0.07488 0.03745,-0.08704 0.08422,-0.05428 0.08422,0.0599 0.368745,0.463924 0.493219,0.703235 0.05616,0.11334 0.111366,0.199908 0.117917,0.192326 0.0187,-0.02902 -0.0468,-0.435006 -0.111366,-0.61423 -0.0964,-0.285729 -0.218066,-0.471318 -0.431451,-0.658497 -0.192793,-0.169117 -0.626114,-0.385122 -0.665421,-0.332431 -0.03743,0.05053 0.05616,0.687416 0.131035,0.911283 0.08422,0.255594 0.268602,0.531403 0.434254,0.665143 0.131957,0.107161 0.460462,0.29041 0.52223,0.291906 0.01872,6.31e-4 -0.01872,-0.115297 -0.09547,-0.26617 z"
       id="path1-34"
       inkscape:export-filename="icon_fruits_24.svg"
       inkscape:export-xdpi="30.57955"
       inkscape:export-ydpi="30.57955" /></g></svg>
