<?xml version="1.0" encoding="UTF-8" standalone="no"?>
<!-- Created with Inkscape (http://www.inkscape.org/) -->

<svg
   width="117.96643mm"
   height="147.13498mm"
   viewBox="0 0 117.96643 147.13498"
   version="1.1"
   id="svg1"
   xml:space="preserve"
   xmlns:inkscape="http://www.inkscape.org/namespaces/inkscape"
   xmlns:sodipodi="http://sodipodi.sourceforge.net/DTD/sodipodi-0.dtd"
   xmlns="http://www.w3.org/2000/svg"
   xmlns:svg="http://www.w3.org/2000/svg"><sodipodi:namedview
     id="namedview1"
     pagecolor="#ffffff"
     bordercolor="#111111"
     borderopacity="1"
     inkscape:showpageshadow="0"
     inkscape:pageopacity="0"
     inkscape:pagecheckerboard="1"
     inkscape:deskcolor="#d1d1d1"
     inkscape:document-units="mm"><inkscape:page
       x="0"
       y="0"
       width="117.96643"
       height="147.13498"
       id="page2"
       margin="0"
       bleed="0" /></sodipodi:namedview><defs
     id="defs1" /><g
     inkscape:label="Layer 1"
     inkscape:groupmode="layer"
     id="layer1"
     transform="translate(-24.63855,-65.040939)"><path
       style="fill:#000000"
       d="m 41.410227,211.7126 c -7.705845,-1.65161 -13.885889,-7.6474 -16.185467,-15.70292 -0.465548,-1.63083 -0.49487,-3.57413 -0.566856,-37.56874 -0.05535,-26.13694 0.0048,-36.04389 0.222146,-36.56853 0.669972,-1.61745 3.296227,-2.86318 8.444323,-4.00543 20.580431,-4.56638 65.358746,-3.39121 75.435687,1.97974 2.55973,1.36433 2.61424,1.52553 2.6154,7.7351 l 9.9e-4,5.25859 0.8599,-0.17682 c 0.47294,-0.0973 2.1216,-0.28965 3.6637,-0.42756 17.20065,-1.53821 29.17597,11.38035 26.26985,28.33901 -1.19499,6.97332 -4.35826,13.09165 -9.59648,18.56129 -5.0877,5.31246 -11.27548,9.00415 -18.54767,11.0657 l -2.51008,0.71157 -0.29498,2.21731 c -0.41192,3.0963 -1.01545,5.01433 -2.44606,7.77356 -0.99287,1.91496 -1.72683,2.87357 -3.74818,4.89543 -3.42349,3.42435 -6.321268,5.05594 -10.565092,5.94865 -2.81145,0.59141 -50.27417,0.55925 -53.051131,-0.0359 z m 52.413852,-3.15237 c 3.343612,-0.69064 5.910917,-2.05423 8.664611,-4.60206 1.57482,-1.4571 3.62566,-4.51786 4.40267,-6.57073 1.29461,-3.42038 1.29102,-3.31531 1.30086,-38.08869 0.005,-17.93545 -0.0912,-32.6099 -0.21393,-32.6099 -0.12274,0 -0.91174,0.23691 -1.75334,0.52646 -10.52514,3.62118 -40.945745,4.99297 -61.258911,2.76242 -5.174334,-0.56818 -11.35084,-1.63242 -13.984593,-2.4096 -1.258005,-0.37122 -2.498721,-0.73561 -2.757148,-0.80976 -0.448644,-0.12873 -0.466171,1.38133 -0.388062,33.43377 0.07658,31.42249 0.112252,33.67008 0.55806,35.15608 1.986567,6.62181 6.832226,11.44912 13.13216,13.08244 1.89293,0.49076 3.097473,0.51514 26.138757,0.52904 20.924363,0.0126 24.42243,-0.0408 26.158866,-0.39947 z m 20.856801,-21.93626 c 12.93217,-4.23627 22.3019,-14.56946 24.35735,-26.86194 0.3352,-2.0046 0.4144,-3.45741 0.29471,-5.4057 -0.20583,-3.35054 -0.69215,-5.197 -2.18326,-8.28942 -2.53339,-5.25401 -7.45732,-8.99956 -13.4612,-10.23969 -2.26033,-0.46689 -7.12943,-0.53262 -9.66619,-0.13051 -2.88851,0.45788 -2.64584,0.0933 -2.64584,3.97455 0,1.88197 0.0298,3.42019 0.0661,3.41828 0.0364,-0.002 1.19724,-0.23847 2.57969,-0.52569 6.0721,-1.26154 11.33909,-0.13459 14.77716,3.16181 2.60344,2.49615 3.74367,5.52519 3.74367,9.94511 0,5.87857 -2.46984,11.69197 -7.01146,16.50324 -3.30781,3.50421 -7.57401,6.23182 -12.17083,7.78146 l -1.85209,0.62435 -0.0738,3.4816 c -0.0451,2.12769 0.0262,3.4816 0.18327,3.4816 0.1414,0 1.51961,-0.41358 3.06269,-0.91905 z m 0.29989,-10.84947 c 3.22601,-1.51106 5.38224,-3.01155 7.78295,-5.41606 4.44262,-4.44965 6.87765,-10.32279 6.53787,-15.76898 -0.17612,-2.823 -1.10327,-4.9479 -2.88683,-6.61621 -1.60563,-1.50189 -3.01591,-2.14111 -5.61542,-2.54524 -2.21396,-0.3442 -5.4417,-0.0572 -8.04231,0.7151 l -1.38058,0.40999 v 15.35341 15.35342 l 0.59531,-0.17743 c 0.32743,-0.0976 1.68148,-0.68619 3.00901,-1.308 z M 82.536871,127.46253 c 5.259292,-0.30336 13.000837,-1.12473 16.218792,-1.72079 4.294577,-0.79549 8.916627,-2.23515 8.916627,-2.77733 0,-0.10277 -0.50602,-0.39241 -1.12448,-0.64364 -4.49251,-1.82498 -13.625813,-3.1874 -25.863023,-3.85803 -6.450534,-0.3535 -24.774088,-0.18429 -30.29479,0.27976 -10.716953,0.90083 -19.641106,2.52752 -21.828124,3.97882 -0.352777,0.2341 -0.352777,0.29263 0,0.52673 3.187318,2.1151 17.768931,4.16729 32.67604,4.59877 4.400344,0.12737 16.082847,-0.0834 21.298958,-0.38429 z M 48.405622,107.10969 c -0.795531,-0.79553 -0.664017,-1.27854 0.922262,-3.38715 2.311612,-3.07279 2.780594,-5.733302 1.513319,-8.584987 -0.274907,-0.618607 -1.584977,-2.433415 -2.911267,-4.032905 -1.326291,-1.599491 -2.723738,-3.545965 -3.105438,-4.325499 -1.94911,-3.980602 -1.329832,-8.089158 1.83235,-12.156587 1.172054,-1.507581 1.94773,-1.879517 2.95891,-1.418792 1.014186,0.462094 0.878304,1.824758 -0.324616,3.255364 -2.348202,2.792663 -2.930605,5.90037 -1.628612,8.690288 0.373474,0.800282 1.556658,2.488387 2.629297,3.751344 1.072639,1.262958 2.345088,2.948624 2.827664,3.745924 2.685126,4.436305 1.965661,9.5806 -1.945358,13.90963 -1.099833,1.21738 -1.937134,1.38474 -2.768511,0.55337 z m 37.504686,0.24339 c -0.838224,-0.48822 -0.574914,-1.78737 0.689499,-3.40193 1.475661,-1.8843 1.975742,-2.87279 2.288998,-4.524581 0.503702,-2.65601 -0.529677,-4.974447 -3.946129,-8.85334 -0.897204,-1.018645 -2.073438,-2.738877 -2.613855,-3.822736 -0.938851,-1.882959 -0.982575,-2.089613 -0.982575,-4.64393 0,-2.551471 0.0448,-2.763918 0.983163,-4.662574 1.287046,-2.604159 2.909823,-4.46555 3.893107,-4.46555 0.841412,0 1.606021,0.720502 1.606021,1.513378 0,0.300119 -0.479198,1.124181 -1.064885,1.83125 -1.733526,2.092793 -2.239241,3.36811 -2.240935,5.651204 -0.0019,2.570391 0.728496,4.094945 3.422518,7.14375 4.807522,5.440639 5.533475,10.275325 2.291813,15.262979 -1.934282,2.97611 -3.02889,3.72801 -4.32674,2.97208 z m -19.604305,-1.25641 c -0.68982,-0.76225 -0.522059,-1.50337 0.645724,-2.85264 3.409998,-3.939947 4.234267,-7.806705 2.491808,-11.68942 -0.45604,-1.016193 -1.732019,-2.82464 -3.351914,-4.750673 -4.43713,-5.275685 -5.777552,-8.839345 -4.915257,-13.067749 0.526186,-2.580239 1.450657,-4.514354 3.267893,-6.83686 1.267945,-1.620489 1.563927,-1.858389 2.312102,-1.858389 1.862453,0 2.043858,1.592059 0.407094,3.572769 -1.876246,2.270518 -2.690678,4.186052 -2.826909,6.648856 -0.191553,3.462933 0.566532,5.077054 4.691119,9.988367 3.687629,4.39101 4.671523,6.787627 4.450719,10.841277 -0.188617,3.462731 -1.665447,6.695972 -4.397923,9.628412 -0.921164,0.98858 -2.078198,1.1454 -2.774456,0.37605 z"
       id="path1" /></g></svg>
