<?xml version="1.0" encoding="UTF-8" standalone="no"?>
<!-- Created with Inkscape (http://www.inkscape.org/) -->

<svg
   width="10.851371mm"
   height="13.859127mm"
   viewBox="0 0 10.851371 13.859127"
   version="1.1"
   id="svg1"
   xml:space="preserve"
   inkscape:export-filename="ビットマップ.svg"
   inkscape:export-xdpi="96"
   inkscape:export-ydpi="96"
   xmlns:inkscape="http://www.inkscape.org/namespaces/inkscape"
   xmlns:sodipodi="http://sodipodi.sourceforge.net/DTD/sodipodi-0.dtd"
   xmlns="http://www.w3.org/2000/svg"
   xmlns:svg="http://www.w3.org/2000/svg"><sodipodi:namedview
     id="namedview1"
     pagecolor="#ffffff"
     bordercolor="#111111"
     borderopacity="1"
     inkscape:showpageshadow="0"
     inkscape:pageopacity="0"
     inkscape:pagecheckerboard="1"
     inkscape:deskcolor="#d1d1d1"
     inkscape:document-units="mm"><inkscape:page
       x="8.0308665e-22"
       y="0"
       width="10.851372"
       height="13.859127"
       id="page2"
       margin="0"
       bleed="0" /></sodipodi:namedview><defs
     id="defs1" /><g
     inkscape:label="Layer 1"
     inkscape:groupmode="layer"
     id="layer1"
     transform="translate(-149.48428,-40.712245)"><path
       style="fill:#000000;stroke:#000000;stroke-width:0.205;stroke-linecap:round;stroke-linejoin:round;stroke-dasharray:none;stroke-opacity:1"
       d="m 153.81359,54.42527 c -0.0177,-0.03617 0.0176,-0.298664 0.0706,-0.583033 0.053,-0.284282 0.0935,-0.536182 0.0935,-0.559828 -1e-4,-0.02382 -0.0706,-0.06882 -0.16765,-0.09988 -0.27705,-0.09414 -0.90041,-0.241842 -1.02154,-0.241842 -0.12882,-5.3e-5 -0.0953,-0.08382 -0.32734,0.836081 -0.13235,0.523653 -0.18087,0.639325 -0.24352,0.57218 -0.0353,-0.03441 0.27705,-1.367295 0.34234,-1.481616 0.0177,-0.03 0.0795,-0.06353 0.13234,-0.07324 0.13941,-0.02559 0.11559,-0.08647 -0.0441,-0.11576 -0.55938,-0.101023 -1.14462,-0.521271 -1.3877,-0.997288 -0.0441,-0.09291 -0.10407,-0.168963 -0.12617,-0.168963 -0.15617,0 -0.86026,0.346661 -1.02252,0.503536 -0.33969,0.327338 -0.40145,0.581092 -0.40145,1.631248 0,0.742997 -0.004,0.799906 -0.0618,0.788348 -0.053,-0.01147 -0.0618,-0.08382 -0.0618,-0.909242 0.002,-0.846756 0.006,-0.908616 0.0794,-1.108662 0.11029,-0.290812 0.39704,-0.605357 0.68556,-0.752526 0.12441,-0.06353 0.45263,-0.196756 0.73056,-0.296722 0.63703,-0.229049 0.80202,-0.317457 0.93781,-0.503625 0.1394,-0.189168 0.18528,-0.434893 0.19852,-1.060409 l 0.008,-0.480949 -0.18353,-0.151141 c -0.20204,-0.165962 -0.49674,-0.57412 -0.59733,-0.829551 -0.0441,-0.107289 -0.0891,-0.163316 -0.12793,-0.163405 -0.18352,-3.64e-4 -0.5038,-0.278458 -0.60174,-0.523476 -0.20646,-0.513065 0.0353,-0.969954 0.41646,-0.789406 0.053,0.02294 0.0899,0.07324 0.0899,0.109847 0,0.07941 -0.008,0.08117 -0.16323,0.02382 -0.0988,-0.03705 -0.12617,-0.03441 -0.18528,0.02206 -0.27528,0.258253 0.0794,1.010364 0.48262,1.010364 0.0997,0 0.11823,0.02206 0.24882,0.302192 0.0794,0.166228 0.21617,0.388924 0.30615,0.494978 0.29029,0.340573 0.76586,0.64603 1.18786,0.761525 0.17559,0.04853 0.17824,0.04765 0.35029,-0.07499 0.0944,-0.06794 0.30352,-0.17461 0.46321,-0.237079 0.1597,-0.06264 0.32469,-0.12864 0.36793,-0.147081 0.11205,-0.04853 0.3591,-0.385836 0.47115,-0.641618 0.10853,-0.247489 0.16058,-0.490832 0.19588,-0.908378 0.0177,-0.237077 0.0353,-0.283576 0.0794,-0.27334 0.0441,0.0097 0.053,0.05029 0.0441,0.184932 -0.005,0.09494 0.006,0.172581 0.0265,0.172581 0.0618,0 0.21263,-0.24696 0.25235,-0.427305 0.053,-0.231606 0.0177,-0.433569 -0.0944,-0.548887 -0.0706,-0.07324 -0.0979,-0.08205 -0.15706,-0.04941 -0.0988,0.0547 -0.14117,0.01676 -0.14117,-0.128288 0,-0.222696 -0.053,-0.289576 -0.35821,-0.474773 -0.41999,-0.252518 -0.64498,-0.441775 -1.03099,-0.867226 -0.18706,-0.205491 -0.34498,-0.366778 -0.35205,-0.358396 -0.007,0.0084 -0.0353,0.09767 -0.053,0.198344 -0.10407,0.445834 -0.48086,1.059985 -0.82319,1.340368 -0.22852,0.187756 -0.53204,0.347719 -0.7932,0.418216 -0.27175,0.07324 -0.37146,0.07147 -0.35734,-0.0068 0.008,-0.04323 0.0891,-0.08117 0.26999,-0.12723 0.31674,-0.08117 0.62821,-0.249695 0.85849,-0.464539 0.36263,-0.338279 0.65997,-0.891569 0.74908,-1.392634 0.0265,-0.16667 0.0618,-0.246784 0.0979,-0.254284 0.0353,-0.0066 0.12705,0.08205 0.23116,0.219697 0.41557,0.544563 0.81261,0.902986 1.30141,1.175833 0.27352,0.15264 0.34146,0.230636 0.38205,0.434628 0.0177,0.07147 0.0441,0.104205 0.1244,0.121847 0.4138,0.09432 0.41205,0.995056 -0.002,1.295334 -0.11647,0.08382 -0.14029,0.128023 -0.18617,0.337043 -0.0706,0.310486 -0.19234,0.595474 -0.35028,0.809082 -0.11028,0.149905 -0.12352,0.188551 -0.10588,0.321957 0.0177,0.125818 0.005,0.167463 -0.0618,0.245194 -0.0441,0.05118 -0.12793,0.117173 -0.18087,0.146024 -0.0891,0.04853 -0.0971,0.06971 -0.0971,0.269635 0,0.234343 0.0795,0.407541 0.26293,0.55524 0.053,0.04059 0.09,0.103231 0.09,0.139582 0,0.03617 0.0265,0.08735 0.053,0.113377 0.0794,0.06706 0.13145,0.179992 0.15528,0.327692 l 0.0176,0.127846 0.55057,0.206551 c 0.65821,0.246695 0.93949,0.396335 1.14322,0.608002 0.32822,0.341102 0.41204,0.729232 0.39527,1.823346 -0.008,0.524536 -0.0177,0.622649 -0.0618,0.622649 -0.0441,0 -0.053,-0.13023 -0.0706,-0.860786 -0.0177,-0.764437 -0.0265,-0.884387 -0.0997,-1.071808 -0.0979,-0.267341 -0.34321,-0.532212 -0.62908,-0.682646 -0.20559,-0.107731 -0.65821,-0.296722 -0.71027,-0.296722 -0.0177,0 -0.0618,0.08647 -0.10764,0.192344 -0.13058,0.30281 -0.46056,0.614885 -0.86379,0.815611 -0.1844,0.09203 -0.33527,0.170727 -0.33616,0.174874 -2e-4,0.0042 -0.0265,0.08559 -0.053,0.181581 l -0.053,0.173992 0.10407,0.05558 c 0.13058,0.06971 0.13058,0.100499 0.003,0.778818 -0.0979,0.5233 -0.15441,0.671441 -0.20294,0.540064 z m -6e-4,-1.530355 c 0.008,-0.06529 0.0891,-0.253843 0.16852,-0.418482 0.13411,-0.272635 0.15088,-0.339779 0.19058,-0.749614 0.0353,-0.388306 0.053,-0.459156 0.12264,-0.515536 0.0891,-0.07499 0.12705,-0.08117 0.1597,-0.02559 0.008,0.02206 -0.008,0.07147 -0.053,0.111348 -0.0795,0.08029 -0.0997,0.21555 -0.0265,0.21555 0.10941,0 0.27088,-0.263018 0.27088,-0.439569 0,-0.266812 -0.10588,-0.309957 -0.44293,-0.179198 -0.13499,0.05206 -0.21087,0.06529 -0.2347,0.0397 -0.0618,-0.06176 -0.003,-0.107378 0.23647,-0.190404 0.21705,-0.07499 0.28852,-0.151581 0.17999,-0.194462 -0.0265,-0.01059 -0.20293,0.03089 -0.38998,0.09132 -0.18882,0.06088 -0.35117,0.101379 -0.36175,0.09018 -0.053,-0.05646 0.0441,-0.126524 0.28763,-0.206109 0.2947,-0.0959 0.3291,-0.122906 0.2647,-0.203637 -0.0618,-0.08205 -0.16588,-0.06617 -0.50204,0.07941 -0.30793,0.133582 -0.39704,0.139406 -0.31499,0.02118 0.0265,-0.03441 0.0795,-0.144788 0.12617,-0.245459 0.12617,-0.279253 0.23381,-0.386718 0.58675,-0.584269 0.17734,-0.09979 0.34057,-0.213431 0.36086,-0.252606 0.0353,-0.06618 0.0265,-0.06971 -0.0997,-0.04853 -0.1694,0.02824 -0.53645,0.176286 -0.73144,0.294428 -0.11029,0.06706 -0.20029,0.179109 -0.36881,0.460391 -0.40145,0.669941 -0.41909,0.762848 -0.28498,1.604117 0.0706,0.449715 0.0706,0.693057 0.008,1.063012 -0.0177,0.10623 -0.008,0.119377 0.0618,0.122111 0.0441,0.0017 0.21882,0.04147 0.38292,0.08735 0.39087,0.110024 0.37588,0.111083 0.40058,-0.02647 z m -0.95211,-0.402865 c 0.053,-0.199315 0.0177,-0.548712 -0.17735,-1.749002 -0.0265,-0.191374 -0.0944,-0.45501 -0.14205,-0.585944 -0.10764,-0.301663 -0.0794,-0.403042 0.11646,-0.403042 0.10146,0 0.15353,0.02736 0.24706,0.130848 0.0618,0.07235 0.11911,0.147081 0.11911,0.167022 0,0.06706 0.0706,-0.0086 0.13941,-0.148406 l 0.0706,-0.138611 -0.18263,-0.04323 c -0.10062,-0.02382 -0.29117,-0.09714 -0.42263,-0.16358 -0.13146,-0.06618 -0.24617,-0.112672 -0.25498,-0.102876 -0.008,0.0097 -0.0177,0.192168 -0.0177,0.405423 -6.1e-4,0.942347 -0.1641,1.246524 -0.80202,1.490096 l -0.25499,0.09758 0.0944,0.180875 c 0.23293,0.443715 0.8726,0.866344 1.42599,0.941958 0.008,0.0017 0.0353,-0.03441 0.0441,-0.07941 z m 1.54476,-0.158729 c 0.0988,-0.05206 0.25852,-0.171522 0.35645,-0.265576 0.16412,-0.159522 0.37763,-0.485538 0.37852,-0.577828 8e-5,-0.02206 -0.0795,-0.07324 -0.18883,-0.112671 l -0.18793,-0.07235 -0.11734,0.144346 c -0.0618,0.07941 -0.1694,0.167463 -0.23469,0.195609 -0.10676,0.04677 -0.11824,0.06529 -0.11912,0.206374 -6.1e-4,0.148493 -0.0265,0.316662 -0.0795,0.494007 -0.0353,0.103671 -0.0177,0.103053 0.19763,-0.01235 z m -1.50337,-2.209931 c -0.0618,-0.129436 -0.23206,-0.272635 -0.27176,-0.231872 -0.0177,0.01588 0.008,0.144523 0.0618,0.284899 0.0441,0.140376 0.0891,0.288252 0.0891,0.328574 0.002,0.04853 0.0353,0.015 0.09,-0.100939 0.0794,-0.162346 0.0794,-0.181492 0.0353,-0.280664 z m 1.01218,0.03706 0.16676,-0.05823 6.1e-4,-0.175228 c 6.1e-4,-0.169934 -0.002,-0.173992 -0.0795,-0.132876 -0.11645,0.06176 -0.27263,0.220402 -0.32909,0.333779 -0.0618,0.129436 -0.0618,0.152994 0.008,0.118847 0.0353,-0.01588 0.13676,-0.0547 0.22852,-0.08647 z m -3.59437,0.843932 c -0.28763,-0.216255 -0.50997,-0.601737 -0.59909,-1.039586 -0.0706,-0.356543 -0.0265,-0.705498 0.18264,-1.349049 0.22587,-0.696058 0.26381,-0.964527 0.26381,-1.878896 9e-5,-0.85258 0.0441,-1.278226 0.19764,-1.741149 0.3644,-1.132476 1.28721,-1.883678 2.1359,-1.73792 0.1897,0.03265 0.24353,0.02824 0.39792,-0.03352 0.24088,-0.09582 0.7588,-0.07324 1.04202,0.045 0.46675,0.194992 0.96411,0.655471 1.25898,1.166516 0.43586,0.755967 0.60879,1.501999 0.61144,2.6447 0.002,0.601122 0.0441,0.821082 0.30793,1.611644 0.20116,0.601562 0.20204,0.606325 0.20116,1.025601 -10e-4,0.346308 -0.0177,0.457039 -0.0794,0.622649 -0.14117,0.36669 -0.44998,0.72588 -0.54175,0.630414 -0.0265,-0.02824 0.008,-0.09909 0.14294,-0.251019 0.26293,-0.305633 0.33616,-0.526035 0.33616,-1.002088 9e-5,-0.37313 -0.006,-0.402687 -0.20205,-0.988968 -0.26557,-0.796288 -0.30528,-1.010019 -0.30616,-1.622249 -0.001,-1.11227 -0.15705,-1.815572 -0.56027,-2.531137 -0.54174,-0.961033 -1.48484,-1.476429 -2.19131,-1.197723 -0.15441,0.06088 -0.20646,0.06441 -0.40322,0.03 -0.67497,-0.119994 -1.39317,0.344984 -1.82922,1.184233 -0.28321,0.545005 -0.37763,1.073052 -0.37763,2.118294 -2e-4,0.926244 -0.053,1.288557 -0.26381,1.940526 -0.20381,0.621061 -0.25057,0.917739 -0.19675,1.242016 0.0618,0.353014 0.19499,0.612943 0.46763,0.900507 0.13146,0.138082 0.23822,0.26584 0.23822,0.28384 0,0.06176 -0.0953,0.03264 -0.23469,-0.07235 z m 5.7668,-5.847993 c -0.19587,-0.110378 -0.20557,-0.449187 -0.0177,-0.586474 0.11471,-0.08382 0.32028,-0.06706 0.43499,0.03529 0.0795,0.07324 0.0988,0.117436 0.0988,0.259577 0,0.142141 -0.0177,0.186169 -0.0988,0.259577 -0.11294,0.100938 -0.27529,0.113466 -0.41911,0.03264 z m 0.32911,-0.151141 c 0.0353,-0.03352 0.0618,-0.09388 0.0618,-0.134464 0,-0.191991 -0.26293,-0.282341 -0.36881,-0.126436 -0.0706,0.107555 -0.0706,0.160052 0.0176,0.248283 0.0891,0.08902 0.20205,0.09414 0.28852,0.01235 z m 0.26381,-0.403305 c -0.008,-0.01323 -0.0265,-0.1357 -0.0265,-0.271752 0,-0.24052 -0.003,-0.249343 -0.11736,-0.322399 -0.20998,-0.134905 -0.51527,-0.502565 -0.63173,-0.762142 -0.15087,-0.335191 -0.17646,-0.763643 -0.0618,-1.091704 0.21087,-0.621503 0.8082,-1.109872 1.56849,-1.283079 0.41997,-0.09564 1.06856,-0.06176 1.46472,0.07589 1.38806,0.483419 1.80284,1.942087 0.8188,2.878574 -0.26117,0.248813 -0.66262,0.466833 -1.02896,0.559299 -0.26999,0.06794 -0.88232,0.07764 -1.16641,0.01853 -0.18794,-0.03882 -0.20029,-0.03617 -0.43234,0.09159 -0.23293,0.1282 -0.33793,0.157492 -0.38646,0.107377 z m 0.38998,-0.275547 c 0.21882,-0.116377 0.22058,-0.116641 0.44998,-0.06882 0.79938,0.164905 1.60775,-0.06353 2.11923,-0.597768 0.48969,-0.512095 0.59203,-1.049503 0.30969,-1.634874 -0.22763,-0.471685 -0.70673,-0.831669 -1.32259,-0.993503 -0.40851,-0.107202 -1.05603,-0.08205 -1.4342,0.05558 -0.54261,0.197639 -0.9603,0.54527 -1.1575,0.96324 -0.0891,0.189786 -0.10062,0.253577 -0.10062,0.562034 -9e-5,0.30131 0.008,0.37613 0.0944,0.558063 0.13235,0.293458 0.2594,0.455099 0.50556,0.642325 0.225,0.171345 0.25499,0.227726 0.26029,0.475391 0.002,0.08558 0.0176,0.155728 0.0265,0.155728 0.0177,8e-6 0.12529,-0.05293 0.24529,-0.116818 z m 0.67233,-0.939726 c -0.61674,-0.50883 -0.8532,-0.995364 -0.67409,-1.3872 0.0794,-0.172933 0.23469,-0.266459 0.44557,-0.266635 0.17293,-1.32e-4 0.42969,0.106142 0.45615,0.18908 0.008,0.02912 0.0618,0.0086 0.14823,-0.06088 0.17558,-0.139405 0.47645,-0.168169 0.64144,-0.06088 0.16147,0.105702 0.23911,0.303428 0.21705,0.555769 -0.0177,0.246519 -0.0706,0.356808 -0.2841,0.612062 -0.16235,0.195786 -0.5241,0.540681 -0.62997,0.600062 -0.0441,0.02559 -0.12,-0.01588 -0.31852,-0.180787 z m 0.70232,-0.359807 c 0.39616,-0.410717 0.51174,-0.816581 0.29557,-1.040566 -0.0795,-0.08117 -0.13587,-0.107025 -0.23823,-0.106936 -0.15087,1.32e-4 -0.33969,0.103315 -0.39792,0.217666 -0.053,0.101641 -0.12881,0.09467 -0.20029,-0.01853 -0.12175,-0.191728 -0.44556,-0.264519 -0.59997,-0.134641 -0.32116,0.270252 -0.1394,0.751642 0.4897,1.295642 l 0.20733,0.17911 0.11295,-0.08294 c 0.0618,-0.04588 0.21086,-0.184668 0.32997,-0.309339 z"
       id="path1-52"
       inkscape:export-filename="icon_thanks_24.svg"
       inkscape:export-xdpi="96"
       inkscape:export-ydpi="96" /></g></svg>
