<?xml version="1.0" standalone="no"?>
<!DOCTYPE svg PUBLIC "-//W3C//DTD SVG 20010904//EN"
 "http://www.w3.org/TR/2001/REC-SVG-20010904/DTD/svg10.dtd">
<svg version="1.0" xmlns="http://www.w3.org/2000/svg" 
width="600" height="600" viewBox="0 0 600 600" preserveAspectRatio="xMidYMid meet">
<g transform="translate(0.000000,600.000000) scale(0.100000,-0.100000)"
fill="#000000" stroke="none">
<path d="M2427 3749 c7 -7 15 -10 18 -7 3 3 -2 9 -12 12 -14 6 -15 5 -6 -5z"/>
<path d="M2420 3652 c0 -140 79 -243 207 -270 49 -10 56 -32 10 -32 -83 0
-228 -75 -286 -149 -62 -78 -84 -139 -89 -238 -2 -51 -7 -93 -11 -94 -3 0 -13
-2 -21 -4 -8 -1 -42 -8 -75 -14 -90 -18 -224 -60 -276 -87 -26 -12 -59 -37
-73 -55 -23 -28 -26 -38 -21 -73 10 -60 35 -97 95 -138 63 -45 129 -71 268
-108 82 -21 109 -33 133 -58 17 -17 55 -40 85 -52 222 -82 884 -93 1204 -19
92 22 123 37 156 76 17 20 47 32 131 53 121 31 240 82 292 125 36 31 70 95 71
133 1 85 -140 158 -395 206 -65 12 -70 14 -68 37 3 44 -18 143 -42 197 -46
100 -154 191 -265 223 l-45 13 61 6 c69 8 132 39 164 82 19 26 60 128 60 150
0 13 -82 9 -136 -7 -57 -17 -115 -70 -140 -130 l-17 -40 -15 45 c-21 62 -61
125 -73 113 -6 -6 0 -27 17 -56 22 -39 58 -148 51 -152 -1 -1 -37 -6 -79 -12
-94 -13 -174 -50 -236 -109 l-45 -43 -39 44 c-48 54 -143 109 -220 126 -32 8
-58 17 -58 22 0 18 51 106 80 137 20 21 28 36 21 43 -12 12 -63 -41 -91 -93
l-19 -35 -1 31 c-1 119 -92 212 -242 248 -28 6 -28 6 -28 -42z m106 -16 c61
-28 118 -92 132 -149 10 -38 5 -69 -5 -39 -7 18 -72 94 -94 110 -37 26 -21
-18 27 -71 25 -28 50 -59 55 -70 10 -17 8 -18 -13 -12 -78 24 -160 102 -172
166 -3 16 -9 43 -12 59 -7 38 11 39 82 6z m1124 -122 c-37 -97 -82 -136 -182
-158 -43 -10 -33 7 32 55 53 38 76 69 52 69 -12 0 -53 -29 -89 -63 -36 -34
-41 -31 -19 11 33 63 111 111 183 112 31 0 32 -1 23 -26z m-225 -164 c3 -5 1
-10 -4 -10 -6 0 -11 5 -11 10 0 6 2 10 4 10 3 0 8 -4 11 -10z m-765 -60 c0
-28 -2 -29 -32 -24 l-33 5 24 -20 c25 -23 71 -27 102 -11 30 17 23 33 -11 25
-31 -7 -34 -4 -24 33 16 60 204 -18 288 -121 63 -77 80 -128 81 -242 0 -93 -2
-105 -32 -166 -97 -197 -319 -277 -518 -185 -105 48 -186 152 -215 275 -32
136 33 305 149 385 53 37 149 75 189 76 29 0 32 -3 32 -30z m720 -20 c0 -30
-21 -42 -35 -20 -4 6 -11 8 -16 5 -18 -12 -9 -26 25 -40 41 -17 96 -10 96 12
0 11 -7 13 -25 9 -23 -6 -25 -4 -25 28 l0 35 45 -13 c108 -33 216 -131 256
-234 32 -80 32 -195 -1 -277 -28 -72 -119 -168 -195 -205 -44 -22 -63 -25
-160 -25 -134 1 -178 17 -265 101 l-59 56 20 39 c54 106 61 230 19 342 -25 65
-20 79 37 125 75 58 155 89 241 91 40 1 42 0 42 -29z m-1107 -452 c3 -13 8
-33 12 -45 6 -19 1 -23 -51 -38 -78 -22 -134 -52 -134 -70 0 -19 2 -19 44 6
44 26 158 61 166 51 3 -4 23 -29 45 -56 145 -183 444 -196 609 -27 l40 41 58
-56 c31 -30 83 -67 115 -82 52 -24 70 -27 168 -27 98 0 116 3 167 27 55 25
163 120 185 162 10 17 14 18 64 6 30 -7 71 -24 91 -37 44 -27 48 -28 48 -8 0
8 -10 21 -22 29 -19 12 -103 42 -145 52 -8 2 -8 12 1 43 6 22 14 43 18 46 3 4
50 -3 105 -15 237 -51 365 -120 333 -179 -40 -75 -288 -149 -625 -186 -294
-33 -877 -33 -1125 0 -19 2 -73 9 -120 15 -301 38 -510 118 -510 194 0 45 102
97 274 141 160 41 182 43 189 13z m1865 -272 c-87 -80 -288 -144 -588 -188
-141 -20 -191 -23 -550 -22 -375 0 -404 1 -570 26 -296 45 -481 104 -562 179
-48 44 -47 45 34 6 106 -51 285 -90 578 -124 222 -25 839 -25 1055 1 184 22
346 50 445 77 70 19 164 59 185 80 5 5 11 9 15 9 3 -1 -16 -20 -42 -44z
m-1658 -219 c203 -29 812 -32 1020 -4 74 10 150 22 168 27 44 12 41 -5 -7 -29
-211 -108 -1111 -108 -1321 -1 -39 20 -57 49 -22 35 9 -3 82 -16 162 -28z"/>
<path d="M2795 3260 c10 -11 20 -20 23 -20 3 0 -3 9 -13 20 -10 11 -20 20 -23
20 -3 0 3 -9 13 -20z"/>
<path d="M2899 2683 c-13 -16 -12 -17 4 -4 16 13 21 21 13 21 -2 0 -10 -8 -17
-17z"/>
<path d="M3084 2706 c1 -8 5 -18 8 -22 4 -3 5 1 4 10 -1 8 -5 18 -8 22 -4 3
-5 -1 -4 -10z"/>
<path d="M3795 2650 c-3 -6 1 -7 9 -4 18 7 21 14 7 14 -6 0 -13 -4 -16 -10z"/>
<path d="M2320 2616 c0 -2 8 -10 18 -17 15 -13 16 -12 3 4 -13 16 -21 21 -21
13z"/>
<path d="M2990 3246 c0 -2 8 -10 18 -17 15 -13 16 -12 3 4 -13 16 -21 21 -21
13z"/>
</g>
</svg>
