<?xml version="1.0" encoding="UTF-8" standalone="no"?>
<!-- Created with Inkscape (http://www.inkscape.org/) -->

<svg
   width="13.12977mm"
   height="13.431013mm"
   viewBox="0 0 13.12977 13.431013"
   version="1.1"
   id="svg1"
   xml:space="preserve"
   inkscape:export-filename="ビットマップ.svg"
   inkscape:export-xdpi="96"
   inkscape:export-ydpi="96"
   xmlns:inkscape="http://www.inkscape.org/namespaces/inkscape"
   xmlns:sodipodi="http://sodipodi.sourceforge.net/DTD/sodipodi-0.dtd"
   xmlns="http://www.w3.org/2000/svg"
   xmlns:svg="http://www.w3.org/2000/svg"><sodipodi:namedview
     id="namedview1"
     pagecolor="#ffffff"
     bordercolor="#111111"
     borderopacity="1"
     inkscape:showpageshadow="0"
     inkscape:pageopacity="0"
     inkscape:pagecheckerboard="1"
     inkscape:deskcolor="#d1d1d1"
     inkscape:document-units="mm"><inkscape:page
       x="0"
       y="-2.907888e-22"
       width="13.12977"
       height="13.431012"
       id="page2"
       margin="0"
       bleed="0" /></sodipodi:namedview><defs
     id="defs1" /><g
     inkscape:label="Layer 1"
     inkscape:groupmode="layer"
     id="layer1"
     transform="translate(-90.887621,-77.31612)"><path
       style="fill:#000000;stroke:#000000;stroke-width:0.335;stroke-linecap:round;stroke-linejoin:round;stroke-dasharray:none;stroke-opacity:1"
       d="m 94.099565,90.542933 c -0.550317,-0.07106 -0.85415,-0.154764 -0.945867,-0.259459 -0.04132,-0.05205 -0.190879,-0.464216 -0.32226,-0.916658 -0.132209,-0.452483 -0.253674,-0.822667 -0.270202,-0.822667 -0.01653,0 -0.346219,0.360598 -0.732928,0.801265 -0.520571,0.593864 -0.716404,0.785897 -0.755243,0.742021 -0.04131,-0.04379 0.14295,-0.276977 0.701534,-0.90034 l 0.753587,-0.84107 -0.218971,-0.730203 c -0.120639,-0.401584 -0.218145,-0.802505 -0.218145,-0.89097 5.7e-4,-0.153279 0.21236,-0.602953 0.318129,-0.678311 0.03305,-0.02479 0.03305,-0.07767 -0.01653,-0.177408 -0.273508,-0.611877 0.03305,-1.275885 0.673437,-1.451103 0.09254,-0.02562 0.118988,-0.05867 0.09915,-0.12593 -0.01653,-0.0504 -0.505698,-0.628485 -1.093197,-1.284734 -0.837128,-0.93564 -1.055604,-1.207163 -1.012469,-1.258105 0.04131,-0.05123 0.275158,0.180961 1.077167,1.079591 l 1.022138,1.144553 0.110723,-0.212112 c 0.119818,-0.228638 0.410678,-0.423646 0.808958,-0.542963 l 0.216489,-0.06445 -0.0036,-0.294327 c -0.004,-0.316722 0.06611,-0.534371 0.246238,-0.721859 0.125601,-0.133531 0.32226,-0.227233 0.47595,-0.227233 0.08676,0 0.133864,-0.0628 0.242934,-0.329034 0.07437,-0.180961 0.191704,-0.404723 0.260287,-0.497104 0.121466,-0.163691 0.623858,-0.49008 0.754412,-0.49008 0.132211,0 0.03305,0.170301 -0.142948,0.237975 -0.0975,0.03884 -0.254502,0.138819 -0.346221,0.223019 -0.164434,0.150635 -0.467686,0.657655 -0.467686,0.783005 0,0.03553 0.07437,0.09213 0.165259,0.126341 0.35531,0.133861 0.571801,0.484958 0.571801,0.928865 8.4e-5,0.145593 0.01653,0.171622 0.149562,0.203765 0.08346,0.02066 0.279289,0.103618 0.437939,0.185176 l 0.28838,0.148403 0.785816,-0.873724 c 0.623858,-0.693021 0.79738,-0.860041 0.841259,-0.807546 0.04131,0.05206 -0.1099,0.248882 -0.737062,0.942787 l -0.7916,0.876583 0.09255,0.136175 c 0.04958,0.07519 0.104114,0.234339 0.118161,0.354319 0.02479,0.188809 0.04958,0.235992 0.223928,0.350765 0.44951,0.301022 0.660217,0.950099 0.455294,1.402905 -0.06611,0.147165 -0.06611,0.169558 0.0083,0.293585 0.325563,0.522141 0.323912,0.602127 -0.03305,1.775213 -0.152041,0.501731 -0.276811,0.94877 -0.276811,0.993356 0,0.04462 0.223101,0.318872 0.495781,0.609565 0.39993,0.426125 0.484213,0.541393 0.437112,0.595103 -0.04957,0.05371 -0.150387,-0.03884 -0.535443,-0.476199 l -0.476776,-0.542798 -0.179309,0.597251 c -0.204923,0.682279 -0.247064,0.725661 -0.801514,0.835425 -0.394146,0.07767 -1.997752,0.1099 -2.464117,0.04958 z m 0.969583,-1.498542 c 0.0041,-1.511042 -0.0031,-1.555918 -0.277637,-1.68692 -0.114028,-0.05371 -0.19418,-0.05867 -0.318953,-0.01901 -0.312342,0.09849 -0.316474,0.132786 -0.166087,1.495633 0.07437,0.665999 0.145428,1.286396 0.159477,1.378621 0.02479,0.184429 0.09998,0.220292 0.41563,0.208061 l 0.185092,-0.0072 z m 0.693269,1.354923 c 0.02479,-0.02148 0.116508,-0.657323 0.196659,-1.429711 l 0.145432,-1.391031 -0.09585,-0.11684 c -0.04958,-0.06445 -0.157824,-0.130967 -0.233844,-0.14832 -0.168565,-0.03884 -0.429677,0.07767 -0.497432,0.222524 -0.03305,0.06858 -0.04958,0.603779 -0.04958,1.504977 v 1.398676 l 0.242108,-9.49e-4 c 0.133036,-3.8e-4 0.265241,-0.01818 0.293337,-0.03966 z m -1.457101,-0.140472 c 0,-0.266482 -0.283424,-2.631667 -0.327219,-2.723312 -0.02479,-0.05288 -0.103286,-0.130391 -0.174349,-0.17245 -0.12725,-0.07519 -0.134687,-0.07106 -0.350353,0.178813 l -0.220622,0.255409 0.271027,1.255354 0.271029,1.255352 0.16113,0.03223 c 0.325563,0.06528 0.368529,0.05619 0.368529,-0.0818 z m 2.198625,0.05619 c 0.0075,-0.0083 0.104941,-0.440171 0.215664,-0.959172 l 0.201621,-0.94368 -0.328044,-0.382659 c -0.180961,-0.210461 -0.333,-0.364484 -0.338785,-0.342256 -0.01653,0.05784 -0.289205,2.565861 -0.289205,2.646714 0,0.0504 0.0661,0.05867 0.262765,0.0314 0.144603,-0.01901 0.269374,-0.04214 0.276811,-0.0504 z m -2.908089,-0.125929 c -0.01653,-0.0504 -0.1099,-0.483055 -0.213186,-0.960858 -0.10329,-0.477768 -0.209883,-0.959123 -0.234671,-1.069599 l -0.04958,-0.200873 -0.177655,0.174514 c -0.0975,0.09602 -0.179308,0.221945 -0.180959,0.279868 -0.0017,0.05784 0.107417,0.471573 0.241281,0.919213 0.220622,0.734088 0.257806,0.820354 0.378445,0.879509 0.191703,0.09321 0.260284,0.08668 0.231365,-0.02149 z m 3.368751,0.01488 c 0.08346,-0.02644 0.134689,-0.148736 0.265245,-0.596591 0.09007,-0.310029 0.162783,-0.599152 0.160305,-0.642534 -0.002,-0.04297 -0.08346,-0.154683 -0.176002,-0.247395 l -0.171873,-0.168565 -0.169392,0.826666 c -0.09337,0.454631 -0.169393,0.846028 -0.169393,0.869699 1.66e-4,0.02396 0.03305,0.0314 0.08346,0.01735 0.04131,-0.01404 0.126423,-0.04049 0.181787,-0.05867 z m 0.736237,-2.186606 c 0.111552,-0.359357 0.192529,-0.684095 0.17931,-0.721609 -0.05784,-0.164765 -0.481735,-0.01323 -0.585025,0.207815 -0.03305,0.06445 -0.09007,0.274829 -0.133859,0.467688 l -0.07437,0.350765 0.166086,0.19005 c 0.09089,0.104528 0.185092,0.183026 0.207401,0.174433 0.02479,-0.0083 0.132209,-0.309699 0.243762,-0.669142 z m -4.667206,-0.392823 c -0.04958,-0.191867 -0.283421,-0.397038 -0.455292,-0.397038 -0.08676,0 -0.169394,0.02148 -0.183441,0.0471 -0.01653,0.02562 0.02479,0.209549 0.09089,0.408027 0.0661,0.198479 0.127251,0.394644 0.139646,0.435875 0.01653,0.05371 0.08346,0.0091 0.228887,-0.155841 0.152865,-0.17154 0.199139,-0.258301 0.179306,-0.338206 z m 4.017485,0.227067 0.0661,-0.281852 -0.144603,-0.150717 c -0.123946,-0.128489 -0.171872,-0.146586 -0.329695,-0.12254 -0.100809,0.01569 -0.216493,0.06528 -0.25698,0.110972 -0.06611,0.07519 -0.04132,0.113368 0.248718,0.419431 0.176002,0.185175 0.32804,0.32986 0.335477,0.321597 0.0079,-0.0083 0.04132,-0.141876 0.08346,-0.296972 z m -3.732823,-0.421165 c 0.08676,-0.112378 0.08676,-0.112625 -0.01653,-0.0504 -0.05784,0.03388 -0.103286,0.08503 -0.103286,0.112956 0,0.07519 0.02479,0.06363 0.119813,-0.06197 z m 1.364887,-0.291027 c 0.09337,0.01323 0.231364,0.07437 0.306558,0.135348 l 0.13634,0.11056 0.200792,-0.130886 c 0.110725,-0.07189 0.262765,-0.131219 0.337957,-0.131549 l 0.137168,-3.79e-4 -0.141299,-0.16113 c -0.140472,-0.160303 -0.144603,-0.161295 -0.758546,-0.187984 -0.33961,-0.01488 -0.632947,-0.03801 -0.652778,-0.05206 -0.01653,-0.01404 -0.124773,0.07106 -0.232191,0.188812 l -0.196662,0.214094 0.12973,0.122045 0.129731,0.121963 0.216489,-0.126755 c 0.15452,-0.09048 0.265245,-0.11965 0.387537,-0.101884 z m -1.177979,-0.04132 c 0.08346,-0.019 0.224754,-0.112706 0.321434,-0.20831 l 0.176828,-0.173854 -0.303252,-0.06032 c -0.388362,-0.07767 -0.788293,-0.234834 -0.969751,-0.382166 -0.177654,-0.143859 -0.249543,-0.102874 -0.405712,0.230126 -0.09255,0.197816 -0.104941,0.269293 -0.06611,0.390015 0.04132,0.135183 0.06611,0.148322 0.285074,0.153444 0.179307,0.0043 0.276813,0.03884 0.389189,0.137498 0.147081,0.129233 0.15204,0.129977 0.290033,0.03966 0.07437,-0.0504 0.205748,-0.107503 0.285901,-0.126425 z m 2.850582,0.123038 c 0.196658,-0.132539 0.569322,-0.117995 0.710621,0.02809 0.08345,0.08437 0.09585,0.0818 0.265242,-0.04875 0.147081,-0.114359 0.219797,-0.135264 0.419761,-0.121052 0.264417,0.01901 0.28838,-0.0057 0.28838,-0.290611 0,-0.185423 -0.130556,-0.500987 -0.239626,-0.579817 -0.04958,-0.03636 -0.110725,-0.01818 -0.213188,0.06528 -0.07437,0.06362 -0.259459,0.161625 -0.401581,0.217481 -0.250371,0.09817 -1.082954,0.262765 -1.330019,0.262765 -0.0661,0 -0.121468,0.01735 -0.121468,0.03801 0,0.03305 0.418111,0.541476 0.444551,0.541476 0.0059,0 0.08511,-0.0504 0.176006,-0.111799 z m -1.302172,-0.901092 -0.241279,-0.275737 -0.241283,0.275737 -0.241279,0.275819 h 0.483387 0.483388 z m 1.64864,0.139397 c 0.503218,-0.11436 0.91926,-0.363407 1.048084,-0.626999 0.125597,-0.255905 0.130556,-0.508424 0.01653,-0.793498 -0.123121,-0.308294 -0.558584,-0.694756 -0.558584,-0.495286 0,0.126176 -0.386707,0.519827 -0.633772,0.646169 -0.353657,0.180135 -1.015445,0.333 -1.119807,0.258468 -0.0661,-0.04545 -0.118988,-0.0072 -0.300774,0.204095 l -0.223926,0.259461 0.298293,0.346882 0.298295,0.346882 0.414805,-0.03388 c 0.228058,-0.01818 0.570148,-0.06941 0.761026,-0.112378 z m -2.281589,-0.232521 0.274333,-0.31631 -0.528833,-0.610554 c -0.290858,-0.335809 -0.590807,-0.641129 -0.667652,-0.678395 -0.177655,-0.08742 -0.505699,-0.03223 -0.724668,0.122624 -0.312344,0.220209 -0.413152,0.769287 -0.206576,1.119854 0.133862,0.227151 0.590805,0.492808 1.024038,0.594608 0.518092,0.12188 0.525527,0.119731 0.830269,-0.231777 z m 1.423885,-1.576305 0.971817,-1.102849 -0.253675,-0.130805 c -0.139644,-0.07189 -0.325564,-0.145098 -0.414803,-0.162699 -0.147083,-0.02892 -0.170221,-0.01569 -0.265245,0.153114 -0.13634,0.243345 -0.407367,0.39803 -0.699053,0.39803 -0.298293,0 -0.450335,-0.06941 -0.657736,-0.299039 -0.167738,-0.18658 -0.169393,-0.187158 -0.392494,-0.126094 -0.320606,0.0885 -0.666001,0.320028 -0.765157,0.512803 l -0.08428,0.166666 0.141297,0.184183 c 0.122294,0.159311 0.18592,0.192694 0.469343,0.24723 0.280115,0.05371 0.915459,0.04793 1.316465,-0.01239 0.175177,-0.02644 0.136338,0.08668 -0.05784,0.160634 -0.13056,0.0504 -0.356137,0.06362 -0.778379,0.04792 l -0.594112,-0.02313 0.479256,0.54098 c 0.26359,0.297552 0.508177,0.54255 0.544533,0.544534 0.03305,0.002 0.502393,-0.492724 1.03668,-1.099297 z m 0.498261,0.456284 c 0.511483,-0.212111 0.775073,-0.528833 0.775073,-0.932722 0,-0.154023 -0.124772,-0.475785 -0.183439,-0.472728 -0.01653,9.49e-4 -0.346222,0.357625 -0.738715,0.793086 l -0.714751,0.791763 0.282596,-0.02809 c 0.155346,-0.01569 0.416456,-0.08354 0.579236,-0.151214 z m -0.803164,-1.564405 c 0.318126,-0.22112 0.440417,-0.644352 0.295815,-1.017825 -0.112378,-0.290114 -0.311517,-0.429594 -0.544533,-0.379933 -0.09585,0.02066 -0.155346,0.01239 -0.155346,-0.02148 0,-0.08627 -0.193353,-0.06445 -0.366051,0.04131 -0.303252,0.18567 -0.416457,0.685253 -0.239628,1.062914 0.17683,0.380017 0.688309,0.539494 1.009824,0.315317 z m 5.550273,6.752051 c -0.0661,-0.139563 -0.55445,-1.635717 -1.0256,-3.128871 -0.231369,-0.733261 -0.442078,-1.380578 -0.469344,-1.438503 -0.02479,-0.05784 -0.158649,-0.267226 -0.294164,-0.465126 -0.399105,-0.583699 -0.432157,-0.769287 -0.479258,-2.6149 -0.02479,-0.854241 -0.04958,-1.825634 -0.0661,-2.158643 -0.01653,-0.375472 -0.0067,-0.685501 0.02479,-0.816056 0.02479,-0.115848 0.0661,-0.427034 0.08511,-0.691616 0.02479,-0.335231 0.05784,-0.534701 0.12725,-0.65815 0.04958,-0.09742 0.104941,-0.268466 0.120642,-0.3801 0.05784,-0.427115 0.311515,-0.604193 0.471817,-0.326637 0.04131,0.07024 0.09916,0.117169 0.130556,0.103453 0.117335,-0.05123 0.218972,0.19823 0.539581,1.32401 0.18096,0.635592 0.3677,1.22944 0.41645,1.31973 0.0496,0.09032 0.0868,0.218309 0.0868,0.284578 0,0.06611 0.0744,0.38324 0.16609,0.704589 l 0.16608,0.584196 -0.0413,0.816057 c -0.0248,0.448847 -0.0413,1.068393 -0.0331,1.376778 0.007,0.810106 -0.0851,0.6189 2.34125,4.835896 0.29664,0.515366 0.51231,0.941389 0.49082,0.9668 -0.0248,0.02479 -0.0578,0.03057 -0.0851,0.01323 -0.0496,-0.03801 -2.19044,-3.747035 -2.53633,-4.402334 -0.34209,-0.64807 -0.39663,-0.941333 -0.35614,-1.937301 0.0331,-0.742598 0.0248,-0.822584 -0.0578,-1.026674 -0.0744,-0.173357 -0.10494,-0.415382 -0.14543,-1.116384 -0.0248,-0.492311 -0.0661,-0.915007 -0.0892,-0.939407 -0.0661,-0.0818 -0.2198,0.06528 -0.29995,0.292924 -0.0496,0.134109 -0.0926,0.459755 -0.11238,0.804489 -0.033,0.550318 -0.0413,0.599152 -0.227232,0.981524 -0.194182,0.401251 -0.337132,0.978252 -0.316476,1.27839 0.01653,0.215829 -0.09337,0.232935 -0.128901,0.02066 -0.04132,-0.275324 0.09006,-0.882616 0.304078,-1.3645 0.184266,-0.414473 0.198313,-0.478264 0.228891,-1.024103 0.0331,-0.620884 0.1289,-0.938647 0.32556,-1.095628 0.12064,-0.0961 0.12642,-0.06197 -0.24293,-1.349625 -0.335481,-1.17002 -0.346224,-1.198569 -0.438771,-1.093447 -0.102461,0.117418 -0.08346,0.647822 0.04958,1.48832 0.162781,1.00262 0.196658,1.417275 0.11155,1.384859 -0.04132,-0.01487 -0.07437,-0.144437 -0.100811,-0.336222 -0.01653,-0.171376 -0.08676,-0.643277 -0.149557,-1.048653 -0.130558,-0.848349 -0.144607,-1.056271 -0.09585,-1.42524 0.02479,-0.205089 0.01653,-0.281439 -0.03305,-0.329695 -0.11651,-0.110477 -0.192529,0.07519 -0.20988,0.51396 -0.01653,0.332257 0.0661,1.406739 0.20575,2.701986 0.02479,0.199304 0.01651,0.250122 -0.04132,0.250122 -0.07437,0 -0.08346,-0.0083 -0.223928,-1.541468 -0.07437,-0.756976 -0.116509,-1.06684 -0.146255,-1.005983 -0.02479,0.05619 -0.01653,0.580478 0.04131,1.44332 0.04132,0.745491 0.06611,1.397584 0.04958,1.449162 -0.0661,0.193272 -0.115682,-0.01818 -0.146254,-0.608324 -0.01653,-0.333001 -0.04958,-0.688393 -0.07437,-0.789781 -0.02479,-0.120475 -0.03305,0.007 -0.01651,0.368531 0.01651,0.30408 0.04131,1.239901 0.0661,2.079665 0.04958,1.9069 0.07437,2.050717 0.510655,2.658819 0.238803,0.336058 0.307385,0.50983 0.733761,1.869064 0.30573,0.976517 0.87538,2.729221 1.03866,3.198478 0.0248,0.06445 0.008,0.09213 -0.0413,0.09213 -0.0413,0 -0.0909,-0.04132 -0.11486,-0.09213 z m -0.15947,-8.201569 c -0.0165,-0.188975 -0.0496,-0.384396 -0.0744,-0.434387 -0.0331,-0.0661 -0.0413,-0.0038 -0.0248,0.225167 0.0331,0.395221 0.0578,0.552797 0.0958,0.552797 0.0165,0 0.0165,-0.154602 5.6e-4,-0.343577 z"
       id="path1-88"
       inkscape:export-filename="icon_snack_24.svg"
       inkscape:export-xdpi="18.217899"
       inkscape:export-ydpi="18.217899" /></g></svg>
