<?xml version="1.0" encoding="UTF-8" standalone="no"?>
<!-- Created with Inkscape (http://www.inkscape.org/) -->

<svg
   width="8.4671593mm"
   height="11.406458mm"
   viewBox="0 0 8.4671593 11.406458"
   version="1.1"
   id="svg1"
   xml:space="preserve"
   inkscape:export-filename="ビットマップ.svg"
   inkscape:export-xdpi="96"
   inkscape:export-ydpi="96"
   xmlns:inkscape="http://www.inkscape.org/namespaces/inkscape"
   xmlns:sodipodi="http://sodipodi.sourceforge.net/DTD/sodipodi-0.dtd"
   xmlns="http://www.w3.org/2000/svg"
   xmlns:svg="http://www.w3.org/2000/svg"><sodipodi:namedview
     id="namedview1"
     pagecolor="#ffffff"
     bordercolor="#111111"
     borderopacity="1"
     inkscape:showpageshadow="0"
     inkscape:pageopacity="0"
     inkscape:pagecheckerboard="1"
     inkscape:deskcolor="#d1d1d1"
     inkscape:document-units="mm"><inkscape:page
       x="0"
       y="0"
       width="8.4671593"
       height="11.406458"
       id="page2"
       margin="0"
       bleed="0" /></sodipodi:namedview><defs
     id="defs1" /><g
     inkscape:label="Layer 1"
     inkscape:groupmode="layer"
     id="layer1"
     transform="translate(-82.202041,-73.701432)"><path
       style="fill:#000000;stroke:#000000;stroke-width:0.129568;stroke-dasharray:none;stroke-opacity:1"
       d="M 83.796589,84.608863 C 83.375706,84.371316 82.862257,84.08074 82.654737,83.96313 l -0.377363,-0.213797 -0.0052,-1.623644 -0.0052,-1.623651 0.515378,-0.159897 c 0.282867,-0.08797 0.604279,-0.187004 0.713694,-0.220077 0.109416,-0.03295 0.198939,-0.06764 0.198939,-0.07678 0,-0.01741 -0.272296,-0.553736 -0.848786,-1.671825 -0.183397,-0.356039 -0.333846,-0.656058 -0.333846,-0.666745 0,-0.01057 0.05595,-0.0516 0.121851,-0.09133 l 0.12185,-0.07187 -0.04973,-0.110474 -0.04973,-0.110473 0.08704,-0.05533 c 0.04973,-0.03046 0.111903,-0.06807 0.142988,-0.08331 0.06714,-0.03357 0.06776,-0.04165 0.01244,-0.159214 -0.02487,-0.05036 -0.0373,-0.09972 -0.02487,-0.109292 0.0062,-0.0093 0.223187,-0.12614 0.47559,-0.258932 0.252405,-0.132792 0.461291,-0.24395 0.464399,-0.246934 0.0031,-0.003 -0.0031,-0.03108 -0.01244,-0.06267 -0.02487,-0.07205 -0.0019,-0.09611 0.198318,-0.206275 0.08206,-0.04538 0.153555,-0.09624 0.159773,-0.11352 0.006,-0.01741 -0.004,-0.06615 -0.02487,-0.108546 -0.02487,-0.05782 -0.04974,-0.0838 -0.11377,-0.103822 -0.04352,-0.01492 -0.09574,-0.0516 -0.113147,-0.08144 -0.03108,-0.05036 -0.03108,-0.06093 0.0052,-0.139444 0.08082,-0.180786 0.35809,-0.282059 0.46129,-0.168104 0.0373,0.04476 0.04352,0.05657 0.01865,0.150262 -0.03108,0.140812 -0.03108,0.17059 0.02487,0.244882 l 0.04352,0.06478 0.163504,-0.09294 c 0.156042,-0.08853 0.230645,-0.113147 0.232511,-0.07609 4.28e-4,0.0093 0.01244,0.03481 0.02487,0.05657 0.02487,0.03668 0.06279,0.02238 0.471238,-0.19751 0.244323,-0.130368 0.445748,-0.234251 0.448857,-0.230894 0.0027,0.0034 0.0373,0.07386 0.07336,0.156665 l 0.06838,0.15051 0.133043,-0.09748 c 0.07274,-0.05347 0.176558,-0.113892 0.230645,-0.134035 0.05595,-0.01989 0.349387,-0.07174 0.655007,-0.114701 0.824294,-0.11582 1.000915,-0.163255 1.390027,-0.37326 0.25054,-0.134906 0.793644,-0.519605 1.328293,-0.940051 0.281003,-0.220947 0.343793,-0.259554 0.325763,-0.202172 -0.01244,0.03171 -0.436422,0.367354 -0.92289,0.725575 -0.82131,0.604776 -1.061529,0.700429 -2.126416,0.846655 -0.266081,0.03668 -0.527811,0.0779 -0.582518,0.09207 -0.105687,0.02735 -0.400989,0.230832 -0.399744,0.275096 4.28e-4,0.0143 0.04973,0.153184 0.108795,0.307983 l 0.107552,0.281499 0.123093,0.0068 c 0.0945,0.0051 0.159773,0.02673 0.278515,0.09307 0.154178,0.08548 0.156043,0.08585 0.156043,0.03419 0,-0.07311 -0.0373,-0.17028 -0.08455,-0.227288 -0.0373,-0.04725 -0.02487,-0.09549 0.02487,-0.0641 0.04974,0.03295 0.109419,0.207021 0.109419,0.315008 9.99e-4,0.192909 -0.06341,0.301269 -0.40099,0.675518 -0.310219,0.343544 -0.38109,0.438848 -0.463154,0.619198 l -0.04352,0.101337 0.05595,-0.06155 c 0.08517,-0.08822 0.170963,-0.101646 0.260486,-0.04041 0.0373,0.02736 0.07211,0.05595 0.07274,0.06453 6.3e-5,0.0081 0.0062,0.02922 0.01865,0.046 0.01244,0.02363 0.05595,-0.0075 0.188371,-0.132606 0.414664,-0.397133 0.575681,-0.498343 1.089193,-0.685707 0.453208,-0.165182 0.577546,-0.241835 0.847421,-0.522837 0.338195,-0.352123 0.506051,-0.462721 1.094415,-0.725321 0.369281,-0.164498 1.022859,-0.429896 1.059103,-0.429958 0.05595,-1.9e-5 0.01865,0.04041 -0.06279,0.07442 -0.04973,0.01927 -0.284109,0.116441 -0.525945,0.215352 -0.870485,0.356723 -1.153166,0.520413 -1.465686,0.848924 -0.333846,0.350942 -0.420881,0.405961 -0.941109,0.596197 -0.333845,0.122036 -0.507295,0.201612 -0.541488,0.248674 -0.01244,0.01741 -0.04352,0.107303 -0.06838,0.199685 -0.02487,0.09232 -0.06714,0.223309 -0.0945,0.291074 l -0.04973,0.123218 0.160394,0.328125 c 0.125581,0.256571 0.428342,0.836734 0.550193,1.055599 0.0062,0.01616 0.313952,0.153929 0.677638,0.306117 0.363685,0.152189 0.739184,0.311215 0.834427,0.353366 l 0.17345,0.07665 0.0052,1.636209 0.0052,1.636215 -0.219454,0.07933 c -0.120608,0.04352 -0.62778,0.226045 -1.126557,0.405276 -0.498592,0.179295 -1.445233,0.519356 -2.102729,0.755704 -0.657556,0.236364 -1.203459,0.429026 -1.213032,0.428155 -0.01244,-9.99e-4 -0.361822,-0.196018 -0.782205,-0.433564 z m 2.691152,-0.30848 c 0.83542,-0.299155 1.780321,-0.638124 2.099929,-0.753267 l 0.581277,-0.209321 0.0053,-1.591534 c 0.0049,-1.508943 0.0035,-1.590931 -0.03108,-1.580082 -1.184747,0.378607 -1.730213,0.554605 -2.482392,0.800986 -0.347521,0.113893 -0.943344,0.308294 -1.324002,0.432072 -0.380473,0.123776 -0.699397,0.230023 -0.708473,0.23624 -0.0062,0.0062 -0.01865,0.759725 -0.01865,1.674559 v 1.663347 l 0.178424,-0.06453 c 0.09823,-0.03544 0.861906,-0.30929 1.697328,-0.608445 z m -1.937422,-1.007032 -4.28e-4,-1.660641 -1.095285,-0.52377 c -0.602414,-0.288026 -1.102125,-0.523646 -1.110581,-0.523521 -0.0062,8.1e-5 -0.01242,0.703648 -0.01242,1.563402 v 1.563186 l 0.993889,0.562563 c 1.272467,0.720278 1.195251,0.677102 1.213032,0.678322 0.0062,5.71e-4 0.01243,-0.746241 0.01243,-1.659591 z m 0.704246,-1.928693 c 1.299759,-0.422062 1.569756,-0.512206 1.579766,-0.527252 0.0056,-0.0087 0.0062,-0.157162 0.0041,-0.33055 l -0.0061,-0.315257 -0.534029,0.293 c -1.207935,0.662612 -1.552226,0.840445 -1.587163,0.819787 -0.02487,-0.0143 -0.06652,0.0019 -0.152314,0.05844 -0.06466,0.0429 -0.124337,0.07846 -0.132418,0.07846 -0.0062,0 -0.04352,-0.05347 -0.0746,-0.118244 -0.03108,-0.06503 -0.175315,-0.346218 -0.316437,-0.62485 -0.141124,-0.27864 -0.268568,-0.524331 -0.282867,-0.545903 -0.03109,-0.04414 0.04352,-0.06217 -0.92109,0.234997 -0.425855,0.131362 -0.443261,0.139134 -0.391663,0.169222 0.03109,0.01741 0.317682,0.156914 0.63984,0.310222 0.322034,0.153307 0.787177,0.375374 1.033864,0.493494 0.246808,0.118121 0.458181,0.215104 0.469371,0.215476 0.01244,2.86e-4 0.313952,-0.09462 0.67285,-0.211061 z m -0.767285,-0.02114 c 0.01865,-0.02362 -1.25e-4,-0.07908 -0.07771,-0.242084 -0.18464,-0.38731 -1.611844,-3.453677 -1.618809,-3.476543 -0.0062,-0.01989 -0.21759,0.0728 -0.21759,0.09543 0,0.0049 0.167856,0.335026 0.373011,0.733596 0.205158,0.398562 0.461292,0.896906 0.568222,1.10744 0.10693,0.210502 0.313953,0.615842 0.460048,0.900685 0.146097,0.284856 0.309598,0.606579 0.363686,0.714919 0.05595,0.108361 0.105064,0.197013 0.112526,0.197013 0.0062,0 0.02487,-0.01368 0.0373,-0.03046 z m 0.162261,-0.116877 c 0.0035,-0.0034 -0.108174,-0.262912 -0.248054,-0.576737 -0.279758,-0.62781 -0.520972,-1.205351 -1.025595,-2.458116 -0.299651,-0.743666 -0.387309,-0.956655 -0.40596,-0.979285 -0.0031,-0.0039 -0.06279,0.02425 -0.130553,0.06267 l -0.12496,0.06982 0.15107,0.320106 c 0.08331,0.176062 0.259242,0.553176 0.391039,0.838002 0.132419,0.284856 0.453209,0.973865 0.713261,1.531162 0.260487,0.55728 0.497969,1.066676 0.527811,1.131953 0.04974,0.1101 0.05595,0.116815 0.09947,0.09263 0.02487,-0.0143 0.04973,-0.0286 0.04973,-0.03233 z m 1.785916,-0.888942 c 0.660727,-0.359023 1.205511,-0.657328 1.210608,-0.662935 0.005,-0.0056 -0.06341,-0.139817 -0.152933,-0.298222 -0.265461,-0.471176 -0.635427,-1.202695 -0.764365,-1.510715 -0.04973,-0.115571 -0.08704,-0.181035 -0.100712,-0.171649 -0.01244,0.0087 -0.115013,0.106185 -0.22878,0.217343 -0.297788,0.290637 -0.389175,0.334715 -0.492997,0.236116 -0.0373,-0.03792 -0.05595,-0.07976 -0.06528,-0.158405 -0.0062,-0.09189 -6.3e-5,-0.13099 0.06465,-0.276527 0.05595,-0.131175 0.123716,-0.223869 0.287841,-0.410126 0.116255,-0.132357 0.211996,-0.247866 0.212617,-0.256756 1.24e-4,-0.0087 -0.01244,-0.04911 -0.03109,-0.09008 -0.01865,-0.04041 -0.125581,-0.332353 -0.242457,-0.648132 -0.116255,-0.315817 -0.241215,-0.646684 -0.277272,-0.735293 l -0.06528,-0.161079 -0.299032,0.156914 c -0.477454,0.250539 -0.553299,0.294119 -0.553299,0.315319 0,0.03668 0.146718,0.344724 0.187127,0.394024 0.02487,0.02673 0.0373,0.06727 0.03108,0.09008 -0.0062,0.04041 -0.209507,0.16829 -0.251782,0.15884 -0.01244,-0.0025 -0.04973,0.01679 -0.08144,0.0429 -0.123095,0.09624 -0.400366,0.235682 -0.439534,0.221694 -0.02487,-0.0093 -0.0373,-0.0031 -0.0373,0.02114 0,0.01989 -0.04974,0.06416 -0.123715,0.10407 -0.132419,0.07367 -0.181531,0.0659 -0.181531,-0.0286 0,-0.04228 -0.17656,-0.422933 -0.196455,-0.422933 -0.0062,0 -0.415908,0.210067 -0.806078,0.415472 l -0.115011,0.0603 0.162881,0.398127 c 0.09014,0.218958 0.211373,0.519729 0.270435,0.668319 0.161015,0.405401 0.438909,1.088577 0.576923,1.418581 0.06714,0.161017 0.175317,0.419389 0.239349,0.574188 0.20267,0.487279 0.502323,1.139221 0.565733,1.231585 0.01244,0.01989 0.08082,-0.0087 0.256758,-0.107365 0.131176,-0.07386 0.778536,-0.427968 1.439326,-0.786999 z m 1.071973,0.29244 c 0.955343,-0.305496 1.539356,-0.4994 1.556203,-0.516806 0.01865,-0.01803 -0.04352,-0.04601 -0.771326,-0.34945 -0.246809,-0.102827 -0.496726,-0.208203 -0.557029,-0.234127 -0.05595,-0.02611 -0.112526,-0.04725 -0.118742,-0.04725 -0.0062,0 0.01865,0.04228 0.04973,0.09344 0.03109,0.0516 0.05595,0.102454 0.04974,0.113395 -0.0062,0.01119 -0.193966,0.120981 -0.417152,0.244386 l -0.406583,0.22449 v 0.336456 0.336457 l 0.05595,-0.02052 c 0.03108,-0.01119 0.28038,-0.09257 0.555166,-0.180413 z m -1.333019,-2.596606 0.09823,-0.09804 -0.0373,-0.0603 c -0.07771,-0.131796 -0.211995,-0.11153 -0.300275,0.04538 -0.04973,0.08585 -0.04973,0.11694 -0.0056,0.170093 0.05595,0.06951 0.136149,0.05098 0.244323,-0.05657 z m 0.732159,-0.403599 c 0.03108,-0.0963 0.04973,-0.181097 0.04352,-0.188433 -0.01244,-0.01368 -0.194587,0.124896 -0.234376,0.178299 -0.01865,0.02176 -0.0062,0.06372 0.03109,0.159712 0.04973,0.125642 0.05595,0.128564 0.07771,0.07808 0.01244,-0.0286 0.04974,-0.131299 0.08082,-0.227599 z m -0.356224,-0.707901 c 0.08828,-0.11066 0.182152,-0.276712 0.182152,-0.320417 -4.28e-4,-0.101583 -0.450722,-0.29157 -0.496105,-0.209508 -0.01244,0.02052 0.113769,0.365924 0.133041,0.365924 0.0062,0 0.03108,-0.03544 0.05595,-0.07883 0.02487,-0.04352 0.05595,-0.07883 0.07398,-0.07883 0.03108,0 0.03108,0.0075 -0.05595,0.150758 -0.05595,0.09338 -0.05595,0.09537 -0.02487,0.174508 0.01865,0.04414 0.04352,0.08007 0.04973,0.08007 0.0062,0 0.04352,-0.03792 0.08144,-0.08368 z m -2.329832,-0.06528 c 0.06466,-0.04165 0.08331,-0.06416 0.06403,-0.07709 -0.03108,-0.02176 -0.181532,0.06665 -0.182153,0.1078 -6.2e-5,0.03979 0.01243,0.03606 0.117498,-0.03046 z m 0.02487,-0.215601 c 0,-0.07125 -0.05595,-0.518175 -0.06901,-0.530235 -0.006,-0.0068 -0.315817,0.165244 -0.335089,0.186257 -0.0062,0.0081 0.192723,0.428341 0.226915,0.477641 0.01244,0.02176 0.0373,0.01741 0.09885,-0.02114 0.06279,-0.03917 0.07958,-0.06229 0.07958,-0.112649 z m 0.377985,-0.01057 c 0.188371,-0.102267 0.268569,-0.175564 0.116255,-0.105314 -0.116876,0.05409 -0.351873,0.186817 -0.351873,0.199189 0,0.02611 0.05595,0.0044 0.235618,-0.09387 z m -0.04973,-0.07249 c 0.140501,-0.0787 0.257378,-0.145598 0.260485,-0.148707 0.003,-0.0031 -0.08455,-0.103697 -0.193965,-0.223558 l -0.19956,-0.217901 -0.09823,0.05036 c -0.05595,0.02798 -0.101956,0.05657 -0.106308,0.06459 -0.0043,0.0075 0.0054,0.104505 0.01865,0.214979 0.01865,0.110536 0.03109,0.249917 0.03109,0.309724 6.1e-5,0.05968 0.0062,0.105313 0.01244,0.101086 0.0062,-0.0043 0.130553,-0.07212 0.270433,-0.150821 z m 0.458182,-0.142428 c 0.105067,-0.05657 0.12185,-0.09773 0.03109,-0.07771 -0.07647,0.01678 -0.166611,0.08057 -0.151691,0.107178 0.01244,0.02673 0.01244,0.02673 0.119985,-0.02922 z m -0.06279,-0.101024 c 0.0373,-0.02114 0.07212,-0.046 0.07212,-0.05595 0,-0.04787 -0.216347,-0.491505 -0.23935,-0.491505 -0.0373,0 -0.264217,0.128875 -0.281623,0.160333 -0.0062,0.01616 0.05595,0.104132 0.168477,0.225672 0.101334,0.109727 0.189613,0.199436 0.196451,0.199436 0.0062,0 0.04352,-0.01678 0.08455,-0.03792 z M 84.30793,75.969356 c 0.04352,-0.02487 0.0802,-0.05471 0.0802,-0.06627 0,-0.01119 -0.01865,-0.05782 -0.04352,-0.103137 -0.04352,-0.07908 -0.04352,-0.08679 -0.01244,-0.193034 0.03109,-0.09785 0.03109,-0.114514 0.002,-0.144107 -0.06652,-0.07355 -0.263595,-0.0087 -0.353118,0.116629 -0.06279,0.08735 -0.04974,0.143733 0.04974,0.179916 0.106929,0.04103 0.129931,0.06559 0.157907,0.168103 0.01244,0.04787 0.02487,0.08741 0.03109,0.08741 0.0043,0 0.04352,-0.02052 0.0889,-0.04538 z"
       id="path1-89" /></g></svg>
