<?xml version="1.0" encoding="UTF-8" standalone="no"?>
<!-- Created with Inkscape (http://www.inkscape.org/) -->

<svg
   width="13.229207mm"
   height="17.822685mm"
   viewBox="0 0 13.229207 17.822685"
   version="1.1"
   id="svg1"
   xml:space="preserve"
   inkscape:export-filename="ビットマップ.svg"
   inkscape:export-xdpi="96"
   inkscape:export-ydpi="96"
   xmlns:inkscape="http://www.inkscape.org/namespaces/inkscape"
   xmlns:sodipodi="http://sodipodi.sourceforge.net/DTD/sodipodi-0.dtd"
   xmlns="http://www.w3.org/2000/svg"
   xmlns:svg="http://www.w3.org/2000/svg"><sodipodi:namedview
     id="namedview1"
     pagecolor="#ffffff"
     bordercolor="#111111"
     borderopacity="1"
     inkscape:showpageshadow="0"
     inkscape:pageopacity="0"
     inkscape:pagecheckerboard="1"
     inkscape:deskcolor="#d1d1d1"
     inkscape:document-units="mm"><inkscape:page
       x="0"
       y="0"
       width="13.229207"
       height="17.822685"
       id="page2"
       margin="0"
       bleed="0" /></sodipodi:namedview><defs
     id="defs1" /><g
     inkscape:label="Layer 1"
     inkscape:groupmode="layer"
     id="layer1"
     transform="translate(-54.682957,131.14735)"><path
       style="fill:#000000;stroke:#000000;stroke-width:0.202451;stroke-dasharray:none;stroke-opacity:1"
       d="m 57.174129,-114.10417 c -0.657642,-0.37118 -1.459921,-0.82521 -1.784172,-1.00898 l -0.589641,-0.33406 -0.008,-2.53698 -0.0079,-2.537 0.805289,-0.24984 c 0.441983,-0.13745 0.944198,-0.2922 1.115164,-0.34387 0.170963,-0.0515 0.310844,-0.10568 0.310844,-0.11997 0,-0.0272 -0.425469,-0.86523 -1.326247,-2.61227 -0.286564,-0.55632 -0.521644,-1.02511 -0.521644,-1.04181 0,-0.0165 0.08742,-0.0806 0.190395,-0.1427 l 0.190396,-0.1123 -0.07773,-0.17262 -0.07773,-0.17261 0.135995,-0.0864 c 0.07773,-0.0476 0.17485,-0.10633 0.223418,-0.13018 0.104918,-0.0525 0.105865,-0.0651 0.01946,-0.24877 -0.03887,-0.0787 -0.05831,-0.15582 -0.03887,-0.17077 0.0096,-0.0145 0.348734,-0.1971 0.743121,-0.40459 0.394388,-0.20749 0.720778,-0.38118 0.725636,-0.38584 0.0048,-0.005 -0.0048,-0.0486 -0.01946,-0.098 -0.03887,-0.11258 -0.0028,-0.15018 0.309875,-0.32231 0.128219,-0.0709 0.239936,-0.15038 0.249649,-0.17738 0.0093,-0.0272 -0.0059,-0.10339 -0.03887,-0.16961 -0.03886,-0.0903 -0.07772,-0.13094 -0.177771,-0.16222 -0.06803,-0.0233 -0.149597,-0.0806 -0.176796,-0.12725 -0.04857,-0.0787 -0.04857,-0.0952 0.008,-0.21789 0.126259,-0.28248 0.559521,-0.44072 0.720777,-0.26267 0.05831,0.07 0.06804,0.0884 0.02912,0.23479 -0.04857,0.22003 -0.04857,0.26656 0.03887,0.38264 l 0.06803,0.1012 0.255478,-0.14521 c 0.243818,-0.13833 0.36039,-0.17679 0.363308,-0.11892 6.31e-4,0.0146 0.01946,0.0544 0.03886,0.0884 0.03887,0.0573 0.09812,0.035 0.73632,-0.30861 0.381763,-0.20371 0.696491,-0.36603 0.701349,-0.36079 0.0043,0.005 0.05831,0.11541 0.114628,0.2448 l 0.106811,0.23517 0.207885,-0.15231 c 0.113679,-0.0836 0.275875,-0.17796 0.360387,-0.20943 0.08744,-0.031 0.545925,-0.11206 1.023464,-0.17923 1.287982,-0.18097 1.563956,-0.25509 2.171953,-0.58322 0.391479,-0.2108 1.24009,-0.8119 2.075492,-1.46886 0.439076,-0.34523 0.537183,-0.40556 0.509013,-0.3159 -0.01946,0.0496 -0.681922,0.574 -1.44204,1.13373 -1.283317,0.94498 -1.658667,1.09444 -3.322579,1.32292 -0.415757,0.0573 -0.824715,0.12169 -0.910195,0.14387 -0.165143,0.0427 -0.626559,0.36068 -0.624613,0.42984 6.31e-4,0.0223 0.07772,0.23935 0.169998,0.48123 l 0.168049,0.43985 0.192338,0.0104 c 0.14766,0.008 0.249652,0.0417 0.435186,0.14542 0.240907,0.13356 0.243822,0.13415 0.243822,0.0535 0,-0.11425 -0.05831,-0.26606 -0.132105,-0.35514 -0.05831,-0.0738 -0.03887,-0.14921 0.03886,-0.10016 0.07772,0.0515 0.17097,0.32348 0.17097,0.49221 0.0016,0.30143 -0.09909,0.47074 -0.626556,1.05552 -0.484729,0.53679 -0.595461,0.68571 -0.723686,0.96751 l -0.06804,0.15834 0.08742,-0.0961 c 0.133076,-0.13785 0.267131,-0.15883 0.407015,-0.0632 0.05831,0.0428 0.112657,0.0875 0.113679,0.10082 9.5e-5,0.0125 0.0096,0.0457 0.02915,0.0719 0.01946,0.0369 0.08747,-0.0116 0.294337,-0.2072 0.647921,-0.62054 0.899513,-0.77868 1.70189,-1.07144 0.70815,-0.2581 0.902431,-0.37787 1.324115,-0.81694 0.528439,-0.55021 0.790715,-0.72302 1.710052,-1.13333 0.57701,-0.25704 1.598243,-0.67173 1.654874,-0.67183 0.08742,-2e-5 0.02915,0.0632 -0.09812,0.11627 -0.07774,0.0301 -0.44393,0.18194 -0.821806,0.3365 -1.360154,0.55739 -1.801847,0.81315 -2.290172,1.32646 -0.521641,0.54836 -0.657635,0.63433 -1.470505,0.93157 -0.52164,0.19069 -0.792661,0.31503 -0.846087,0.38856 -0.01946,0.0272 -0.06803,0.16767 -0.106811,0.31202 -0.03886,0.14426 -0.104916,0.34892 -0.14766,0.4548 l -0.07772,0.19254 0.25062,0.5127 c 0.196222,0.4009 0.669294,1.30742 0.85969,1.6494 0.0096,0.0252 0.490555,0.24052 1.058826,0.47831 0.568266,0.23781 1.154992,0.48628 1.30381,0.55215 l 0.271023,0.11978 0.008,2.55662 0.0079,2.55662 -0.342898,0.12397 c -0.188459,0.068 -0.980924,0.3532 -1.760276,0.63326 -0.779065,0.28015 -2.258213,0.8115 -3.285569,1.1808 -1.027448,0.36933 -1.880434,0.67037 -1.895394,0.66901 -0.01946,-0.002 -0.565356,-0.30629 -1.222215,-0.67746 z m 4.204991,-0.48201 c 1.305367,-0.46744 2.781796,-0.99708 3.28119,-1.177 l 0.908261,-0.32707 0.0081,-2.48681 c 0.0076,-2.35776 0.0053,-2.48587 -0.04857,-2.46891 -1.851201,0.59158 -2.703503,0.86658 -3.8788,1.25155 -0.543013,0.17797 -1.474,0.48172 -2.068789,0.67513 -0.594499,0.1934 -1.092824,0.35941 -1.107007,0.36913 -0.0096,0.01 -0.02918,1.18709 -0.02918,2.61654 v 2.59902 l 0.278791,-0.10081 c 0.153486,-0.0554 1.346749,-0.48328 2.65212,-0.95071 z m -3.027271,-1.57351 -6.31e-4,-2.59479 -1.711405,-0.81841 c -0.941293,-0.45005 -1.722102,-0.81821 -1.735313,-0.81801 -0.0096,1.2e-4 -0.01943,1.09947 -0.01943,2.44285 v 2.44252 l 1.552978,0.87902 c 1.988259,1.12545 1.867608,1.05799 1.89539,1.05989 0.0096,8.9e-4 0.01943,-1.16602 0.01943,-2.59315 z m 1.100404,-3.01363 c 2.030905,-0.65948 2.452782,-0.80034 2.468422,-0.82385 0.0085,-0.0135 0.0096,-0.24557 0.0064,-0.51649 l -0.0095,-0.4926 -0.834434,0.45782 c -1.887435,1.03535 -2.425397,1.31322 -2.479984,1.28094 -0.03887,-0.0223 -0.10396,0.003 -0.237998,0.0913 -0.101017,0.067 -0.194279,0.1226 -0.206904,0.1226 -0.0096,0 -0.06804,-0.0836 -0.116534,-0.18476 -0.04858,-0.10157 -0.273935,-0.54098 -0.494441,-0.97634 -0.220509,-0.43539 -0.419643,-0.81929 -0.441987,-0.85299 -0.04859,-0.069 0.06804,-0.0971 -1.439227,0.36718 -0.665408,0.20526 -0.692606,0.2174 -0.611981,0.26442 0.04859,0.0272 0.496384,0.24518 0.999766,0.48473 0.503186,0.23954 1.229982,0.58653 1.615436,0.77109 0.385646,0.18457 0.715919,0.33611 0.733402,0.33669 0.01946,4.4e-4 0.490561,-0.14785 1.051344,-0.32979 z m -1.198906,-0.0331 c 0.02915,-0.0369 -1.96e-4,-0.12358 -0.121408,-0.37826 -0.288503,-0.60518 -2.518542,-5.39646 -2.529426,-5.43219 -0.0096,-0.031 -0.339992,0.11379 -0.339992,0.14911 0,0.008 0.262282,0.52349 0.582839,1.14627 0.320564,0.62276 0.720781,1.40144 0.887864,1.7304 0.167076,0.32891 0.490558,0.96227 0.718834,1.40734 0.228282,0.4451 0.483754,0.94779 0.568268,1.11708 0.08746,0.16932 0.164165,0.30784 0.175825,0.30784 0.0096,0 0.03887,-0.0213 0.05831,-0.0476 z m 0.253537,-0.18262 c 0.0053,-0.005 -0.16902,-0.41081 -0.387589,-0.90117 -0.437129,-0.98097 -0.814033,-1.88339 -1.602517,-3.84087 -0.468215,-1.16199 -0.605181,-1.49479 -0.634323,-1.53015 -0.0048,-0.006 -0.09812,0.0379 -0.203995,0.098 l -0.195253,0.10909 0.236052,0.50018 c 0.130177,0.2751 0.405075,0.86435 0.61101,1.3094 0.206906,0.44509 0.708149,1.52169 1.114489,2.39247 0.407015,0.87077 0.778087,1.66671 0.824715,1.76871 0.07775,0.17203 0.08744,0.18253 0.155424,0.14473 0.03887,-0.0223 0.07772,-0.0447 0.07772,-0.0505 z m 2.790541,-1.38899 c 1.032404,-0.56098 1.883643,-1.02709 1.891605,-1.03585 0.0077,-0.008 -0.09908,-0.21847 -0.238964,-0.46598 -0.414788,-0.73623 -0.992867,-1.87924 -1.194338,-2.36053 -0.07769,-0.18059 -0.135998,-0.28288 -0.157364,-0.26821 -0.01946,0.0135 -0.179711,0.16592 -0.357472,0.3396 -0.465303,0.45413 -0.608099,0.523 -0.770324,0.36894 -0.05831,-0.0593 -0.08741,-0.12463 -0.101975,-0.24751 -0.0096,-0.14358 -9.5e-5,-0.20468 0.101004,-0.43208 0.08743,-0.20497 0.19331,-0.3498 0.449757,-0.64083 0.181654,-0.20681 0.331248,-0.3873 0.332216,-0.40119 1.99e-4,-0.0135 -0.01946,-0.0767 -0.04859,-0.14075 -0.02918,-0.0632 -0.196225,-0.5193 -0.378848,-1.01272 -0.181651,-0.49347 -0.376904,-1.01046 -0.433245,-1.14891 l -0.101976,-0.25169 -0.467245,0.24518 c -0.746033,0.39147 -0.864548,0.45957 -0.864548,0.49269 0,0.0573 0.229253,0.53865 0.292393,0.61568 0.03886,0.0417 0.05831,0.10509 0.04857,0.14074 -0.0096,0.0631 -0.327358,0.26296 -0.393416,0.2482 -0.01946,-0.004 -0.07773,0.0262 -0.12724,0.067 -0.192339,0.15038 -0.625581,0.36826 -0.686787,0.34641 -0.03886,-0.0145 -0.05831,-0.005 -0.05831,0.0331 0,0.031 -0.07775,0.10025 -0.193307,0.16261 -0.20691,0.1151 -0.283649,0.103 -0.283649,-0.0447 0,-0.066 -0.275878,-0.66084 -0.306967,-0.66084 -0.0096,0 -0.649868,0.32823 -1.259516,0.64918 l -0.179704,0.0942 0.254503,0.62208 c 0.140846,0.34212 0.330273,0.81209 0.422558,1.04426 0.251591,0.63346 0.685808,1.70093 0.90146,2.21657 0.104915,0.25159 0.273935,0.65531 0.373986,0.89719 0.316677,0.76138 0.784891,1.78006 0.883974,1.92438 0.01946,0.031 0.126275,-0.0135 0.401189,-0.16776 0.204966,-0.11542 1.216483,-0.66872 2.248988,-1.22971 z m 1.674985,0.45694 c 1.492748,-0.47734 2.40528,-0.78032 2.431605,-0.80752 0.02915,-0.0282 -0.06803,-0.0719 -1.205216,-0.54602 -0.385645,-0.16067 -0.776146,-0.32532 -0.870374,-0.36583 -0.08746,-0.0408 -0.175824,-0.0738 -0.185537,-0.0738 -0.0096,0 0.02915,0.066 0.07772,0.146 0.04859,0.0806 0.08743,0.16008 0.07776,0.17718 -0.0096,0.0175 -0.303078,0.18904 -0.651808,0.38186 l -0.635298,0.35077 v 0.52572 0.52572 l 0.08743,-0.032 c 0.04858,-0.0175 0.438103,-0.14464 0.867462,-0.2819 z m -2.082877,-4.05726 0.15349,-0.15319 -0.05831,-0.0942 c -0.121408,-0.20593 -0.331249,-0.17427 -0.469189,0.0709 -0.07773,0.13415 -0.07773,0.18272 -0.0085,0.26577 0.08747,0.10862 0.212737,0.0797 0.381763,-0.0884 z m 1.14402,-0.63063 c 0.04857,-0.15047 0.07772,-0.28297 0.06803,-0.29443 -0.01946,-0.0214 -0.304046,0.19515 -0.366217,0.27859 -0.02915,0.034 -0.0096,0.0996 0.04859,0.24956 0.07772,0.19631 0.08747,0.20088 0.121408,0.12196 0.01946,-0.0447 0.07776,-0.20515 0.126275,-0.35562 z m -0.556612,-1.10612 c 0.137944,-0.17291 0.28462,-0.43237 0.28462,-0.50066 -6.31e-4,-0.15872 -0.704267,-0.45558 -0.775182,-0.32736 -0.01946,0.032 0.177768,0.57177 0.207882,0.57177 0.0096,0 0.04858,-0.0554 0.08747,-0.1232 0.03887,-0.068 0.08743,-0.1232 0.115575,-0.1232 0.04857,0 0.04857,0.0116 -0.08747,0.23556 -0.08745,0.14591 -0.08745,0.14902 -0.03886,0.27267 0.02915,0.069 0.06803,0.1251 0.07774,0.1251 0.0096,0 0.06804,-0.0593 0.127218,-0.13075 z m -3.64042,-0.10198 c 0.101013,-0.0651 0.130177,-0.10024 0.100041,-0.12044 -0.04857,-0.034 -0.283648,0.10416 -0.284617,0.16844 -9.7e-5,0.0621 0.01943,0.0563 0.183595,-0.0476 z m 0.03886,-0.33687 c 0,-0.11131 -0.08744,-0.80967 -0.107858,-0.82851 -0.0093,-0.0104 -0.49347,0.2582 -0.523587,0.29103 -0.0096,0.0125 0.301134,0.66929 0.35456,0.74633 0.01946,0.034 0.05831,0.0272 0.154459,-0.0331 0.09812,-0.0612 0.124347,-0.0973 0.124347,-0.17602 z m 0.590613,-0.0165 c 0.294333,-0.1598 0.419643,-0.27433 0.181651,-0.16456 -0.182623,0.0845 -0.549811,0.2919 -0.549811,0.31124 0,0.0408 0.08747,0.007 0.36816,-0.14667 z m -0.07773,-0.11331 c 0.219538,-0.12299 0.402161,-0.2275 0.407016,-0.23235 0.0047,-0.005 -0.132105,-0.16203 -0.303075,-0.34932 l -0.311819,-0.34047 -0.153487,0.0787 c -0.08747,0.0438 -0.159307,0.0884 -0.166108,0.10092 -0.0067,0.0116 0.0082,0.16329 0.02915,0.33591 0.02918,0.17271 0.04859,0.3905 0.04859,0.48395 9.7e-5,0.0933 0.0096,0.16455 0.01946,0.15795 0.0096,-0.007 0.203994,-0.11271 0.42256,-0.23566 z m 0.715923,-0.22254 c 0.164171,-0.0884 0.190392,-0.15271 0.04859,-0.12141 -0.119502,0.0262 -0.260333,0.12589 -0.237024,0.16747 0.01946,0.0417 0.01946,0.0417 0.187481,-0.0457 z m -0.09811,-0.15786 c 0.05831,-0.0331 0.11272,-0.0718 0.11272,-0.0875 0,-0.0748 -0.33805,-0.76799 -0.37399,-0.76799 -0.05831,0 -0.412845,0.20137 -0.440047,0.25052 -0.0096,0.0252 0.08743,0.16271 0.263251,0.35262 0.158335,0.17145 0.296273,0.31163 0.306961,0.31163 0.0096,0 0.06803,-0.0262 0.132105,-0.0593 z m -1.032975,-0.5395 c 0.06802,-0.0389 0.12531,-0.0855 0.12531,-0.10356 0,-0.0175 -0.02915,-0.0903 -0.06804,-0.16116 -0.06803,-0.12358 -0.06803,-0.13561 -0.01946,-0.30162 0.04859,-0.15289 0.04859,-0.17893 0.0032,-0.22517 -0.103957,-0.11493 -0.411874,-0.0135 -0.551755,0.18223 -0.09812,0.13649 -0.07773,0.22459 0.07775,0.28113 0.167077,0.0641 0.203021,0.10248 0.246734,0.26266 0.01946,0.0748 0.03887,0.13658 0.04859,0.13658 0.0067,0 0.06803,-0.032 0.138906,-0.0709 z"
       id="path1-89"
       inkscape:export-filename="icon_clean_24.svg"
       inkscape:export-xdpi="96"
       inkscape:export-ydpi="96" /></g></svg>
