<?xml version="1.0" encoding="UTF-8" standalone="no"?>
<!-- Created with Inkscape (http://www.inkscape.org/) -->

<svg
   width="13.000014mm"
   height="13.229167mm"
   viewBox="0 0 13.000014 13.229167"
   version="1.1"
   id="svg1"
   xml:space="preserve"
   inkscape:export-filename="ビットマップ.svg"
   inkscape:export-xdpi="96"
   inkscape:export-ydpi="96"
   xmlns:inkscape="http://www.inkscape.org/namespaces/inkscape"
   xmlns:sodipodi="http://sodipodi.sourceforge.net/DTD/sodipodi-0.dtd"
   xmlns="http://www.w3.org/2000/svg"
   xmlns:svg="http://www.w3.org/2000/svg"><sodipodi:namedview
     id="namedview1"
     pagecolor="#ffffff"
     bordercolor="#111111"
     borderopacity="1"
     inkscape:showpageshadow="0"
     inkscape:pageopacity="0"
     inkscape:pagecheckerboard="1"
     inkscape:deskcolor="#d1d1d1"
     inkscape:document-units="mm"><inkscape:page
       x="0"
       y="0"
       width="13.000014"
       height="13.229167"
       id="page2"
       margin="0"
       bleed="0" /></sodipodi:namedview><defs
     id="defs1" /><g
     inkscape:label="Layer 1"
     inkscape:groupmode="layer"
     id="layer1"
     transform="translate(-161.02692,-87.807638)"><path
       style="fill:#000000;stroke:#000000;stroke-width:0.222738;stroke-linecap:round;stroke-linejoin:round;stroke-dasharray:none;stroke-opacity:1"
       d="m 161.36095,100.87883 c -0.23393,-0.10496 -0.22255,0.17702 -0.22255,-5.071332 0,-4.760508 8.7e-4,-4.822732 0.0759,-4.913169 0.0506,-0.05058 0.13783,-0.09104 0.20611,-0.09104 h 0.12771 l 0.012,-1.324537 0.0121,-1.32455 0.10116,-0.117595 c 0.0506,-0.06449 0.1391,-0.117598 0.18588,-0.117598 0.0506,0 0.45901,0.122657 0.91674,0.272242 0.45648,0.14971 0.90663,0.293866 1.0002,0.320417 0.29589,0.08472 0.29716,0.08598 0.33003,1.250821 l 0.0253,1.041923 h 0.11381 c 0.0632,0 0.15553,0.04173 0.20231,0.09104 0.0759,0.09104 0.0759,0.152623 0.0759,4.926887 v 4.835281 l -0.1138,0.13391 -0.1138,0.13391 -1.42342,-0.003 c -0.78271,-10e-4 -1.46363,-0.0202 -1.51231,-0.043 z m 2.9294,-0.22938 c 0.0506,-0.0569 0.0759,-0.15262 0.0759,-0.25188 v -0.16034 h -1.53432 -1.53431 v 0.16034 c 0,0.0986 0.0253,0.19523 0.0759,0.25188 0.0759,0.0885 0.13782,0.091 1.45123,0.091 1.31342,0 1.37196,-0.004 1.45149,-0.091 z m 0.0759,-5.117996 -0.0106,-4.522623 -1.46717,-0.01205 c -1.04952,-0.0086 -1.48336,0.0026 -1.52395,0.04046 -0.0506,0.04299 -0.0506,0.798135 -0.0506,4.534663 v 4.482666 h 1.53457 1.53469 z m -2.69903,-0.54575 c -0.0126,-0.01644 -0.0253,-0.142 -0.0253,-0.278184 0,-0.211043 0.0106,-0.245435 0.0759,-0.232413 0.0506,0.01016 0.0759,0.06702 0.0885,0.169948 0.0253,0.26491 -0.0379,0.437382 -0.13023,0.340649 z m 0,-0.915986 c -0.0379,-0.0392 -0.0379,-2.234641 -2.9e-4,-2.274272 0.0126,-0.01646 0.0506,-0.0072 0.0759,0.02149 0.0379,0.04046 0.0506,0.271862 0.0506,1.064436 -8.7e-4,1.139669 -0.0253,1.317555 -0.13783,1.188982 z m 2.25304,-4.296165 v -1.029158 l -0.23772,-0.07334 c -0.13024,-0.04046 -0.58671,-0.188153 -1.01284,-0.328005 -0.42613,-0.139723 -0.80041,-0.242902 -0.83329,-0.229248 -0.0759,0.0316 -0.1138,0.674848 -0.1138,1.849343 v 0.840121 h 1.09883 1.09882 z m 4.89023,9.410499 c -0.70937,-0.09104 -1.2278,-0.28969 -1.74231,-0.668654 -0.16818,-0.12392 -0.60569,-0.544607 -0.97112,-0.93571 -0.36543,-0.391106 -0.73593,-0.758687 -0.82064,-0.816724 -0.20359,-0.138965 -0.19726,-0.239746 0.0253,-0.357974 0.26301,-0.141875 0.61327,-0.450029 1.21263,-1.068862 0.86996,-0.897272 1.24172,-1.153452 1.67581,-1.153452 0.28325,0 0.46659,0.07966 0.84594,0.365809 0.24278,0.183223 0.31611,0.215849 0.48429,0.215849 0.16944,0 0.24152,-0.03286 0.48429,-0.215849 0.3844,-0.29007 0.54373,-0.35658 0.85226,-0.35658 0.47165,6.3e-5 0.7688,0.207375 1.79416,1.252717 0.31992,0.325981 0.73593,0.70431 0.92307,0.840749 0.18841,0.136436 0.34141,0.264907 0.34141,0.285516 0,0.02024 -0.0632,0.0961 -0.15553,0.167797 -0.0885,0.07207 -0.42739,0.430554 -0.75868,0.797508 -1.14183,1.263206 -1.83918,1.620951 -3.25376,1.667601 -0.3414,0.0113 -0.76374,0.0023 -0.93697,-0.02024 z m 1.8082,-0.253274 c 0.8649,-0.195869 1.5959,-0.713921 2.42704,-1.719394 l 0.33761,-0.408678 -0.306,0.02908 c -0.34141,0.0316 -0.87375,-0.03412 -1.40357,-0.173993 -0.54625,-0.144149 -0.81305,-0.12872 -1.34919,0.0784 -0.39199,0.151108 -0.50326,0.175005 -0.808,0.173617 -0.29715,-0.0015 -0.42107,-0.02782 -0.78524,-0.168558 -0.51211,-0.197638 -0.83202,-0.215971 -1.35261,-0.0784 -0.52349,0.138463 -1.04319,0.20042 -1.41709,0.168685 l -0.34015,-0.02908 0.55637,0.599611 c 0.306,0.329777 0.66385,0.692807 0.79662,0.806609 0.50705,0.434731 1.17596,0.718478 1.87319,0.79346 0.4982,0.05311 1.37499,0.01896 1.76938,-0.07081 z m -1.96853,-0.345327 c -0.65879,-0.0961 -1.3779,-0.477974 -1.22275,-0.648802 0.0126,-0.01394 0.17703,0.06069 0.36291,0.166022 0.35911,0.202825 0.61706,0.281602 1.07607,0.33117 0.2276,0.02402 0.27945,0.04425 0.26933,0.103688 -0.0126,0.08851 -0.12898,0.09989 -0.48682,0.04805 z m 1.65621,-2.048439 c 0.54752,-0.210026 0.81811,-0.216729 1.51358,-0.03794 0.3452,0.08851 0.62465,0.130242 0.91168,0.135301 0.41854,0.0074 0.81053,-0.04047 0.808,-0.09863 -8.7e-4,-0.01771 -0.0885,-0.09863 -0.20105,-0.181199 -0.1138,-0.08219 -0.47544,-0.429416 -0.81306,-0.771331 -1.01916,-1.033079 -1.26194,-1.207322 -1.67074,-1.208208 -0.26428,-2.9e-4 -0.40464,0.05943 -0.76755,0.334455 -0.45015,0.340902 -0.68155,0.34141 -1.13928,0.0023 -0.41223,-0.305879 -0.49442,-0.344697 -0.74225,-0.347102 -0.41981,-0.0042 -0.64236,0.1616 -1.81958,1.354169 -0.26934,0.273378 -0.59178,0.571539 -0.71696,0.662455 l -0.22507,0.165395 0.11379,0.0392 c 0.0632,0.02149 0.34268,0.04173 0.61707,0.04552 0.40463,0.005 0.60316,-0.01771 1.05837,-0.125186 0.70684,-0.165644 0.99893,-0.165267 1.40976,0.0023 0.7081,0.288429 0.96859,0.292727 1.65886,0.02782 z m -3.17725,-1.025868 c -0.0379,-0.07208 0.3705,-0.484546 0.64868,-0.651584 0.31612,-0.18967 0.76248,-0.167922 0.69167,0.03412 -0.0126,0.04932 -0.0759,0.06069 -0.20991,0.04299 -0.23772,-0.02908 -0.46153,0.08472 -0.78144,0.399321 -0.24278,0.238986 -0.29842,0.266681 -0.349,0.17513 z"
       id="path1-0" /></g></svg>
