<?xml version="1.0" encoding="UTF-8" standalone="no"?>
<!-- Created with Inkscape (http://www.inkscape.org/) -->

<svg
   width="87.840164mm"
   height="97.765717mm"
   viewBox="0 0 87.840164 97.765717"
   version="1.1"
   id="svg1"
   xml:space="preserve"
   xmlns:inkscape="http://www.inkscape.org/namespaces/inkscape"
   xmlns:sodipodi="http://sodipodi.sourceforge.net/DTD/sodipodi-0.dtd"
   xmlns="http://www.w3.org/2000/svg"
   xmlns:svg="http://www.w3.org/2000/svg"><sodipodi:namedview
     id="namedview1"
     pagecolor="#ffffff"
     bordercolor="#111111"
     borderopacity="1"
     inkscape:showpageshadow="0"
     inkscape:pageopacity="0"
     inkscape:pagecheckerboard="1"
     inkscape:deskcolor="#d1d1d1"
     inkscape:document-units="mm"><inkscape:page
       x="0"
       y="0"
       width="87.840164"
       height="97.765717"
       id="page2"
       margin="0"
       bleed="0" /></sodipodi:namedview><defs
     id="defs1" /><g
     inkscape:label="Layer 1"
     inkscape:groupmode="layer"
     id="layer1"
     transform="translate(-61.278708,-98.973316)"><path
       style="fill:#000000"
       d="m 118.40104,196.56746 c -3.61284,-0.39617 -9.68073,-1.5687 -12.19124,-2.35579 -3.77781,-1.18441 -5.53584,-2.51672 -5.53584,-4.1953 0,-0.28045 -0.14883,-0.63109 -0.33073,-0.7792 -0.516876,-0.42085 -3.569741,-1.29372 -7.131634,-2.03906 -5.987072,-1.25283 -7.952549,-2.21665 -10.178797,-4.99143 -0.920184,-1.14691 -1.390595,-1.43428 -4.581665,-2.79888 l -3.556194,-1.52074 -6.821949,-9.75473 c -6.057351,-8.66144 -7.196657,-10.44066 -6.685547,-10.44066 0.07502,0 3.354444,1.54685 7.287607,3.43744 3.933163,1.8906 7.473423,3.51364 7.867244,3.60677 l 0.716039,0.16931 -0.926042,-0.98755 c -1.962493,-2.09284 -5.633193,-4.14593 -8.995833,-5.03153 -2.451849,-0.64572 -2.429979,-0.63696 -2.263162,-0.90688 0.179888,-0.29106 3.296793,0.54311 5.556803,1.48716 2.363804,0.98741 4.342822,2.33274 5.998221,4.07758 l 1.486655,1.56697 1.29147,-1.13612 c 3.971176,-3.4935 8.398954,-5.34436 13.462304,-5.62741 2.494062,-0.13942 1.729528,0.18159 -1.5875,0.66655 -3.92909,0.57445 -7.223126,1.95377 -10.549626,4.41748 -2.068625,1.53208 -1.842948,1.48091 6.028355,-1.36682 3.359824,-1.21555 7.100561,-2.5479 8.312749,-2.96079 l 2.203979,-0.7507 0.636949,0.79375 c 1.177995,1.46798 12.549884,18.08379 12.549884,18.33701 0,0.13777 -0.77391,0.47213 -1.71979,0.74302 -0.94589,0.27089 -1.71979,0.56674 -1.71979,0.65745 0,0.0907 1.93476,0.27079 4.29948,0.40018 10.3409,0.56582 12.75844,0.0221 14.09157,-3.16928 0.48588,-1.16316 0.90901,-5.58597 0.92727,-9.69234 0.01,-2.16142 0.0773,-2.66624 0.30499,-2.2741 0.39837,0.68616 0.0417,9.2332 -0.46836,11.22513 -0.44487,1.73717 -0.99591,2.58586 -2.21976,3.4188 -1.89369,1.28882 -4.56641,1.48623 -13.76901,1.017 -5.49694,-0.28029 -6.43443,-0.10318 -7.03267,1.32859 -0.52948,1.26723 -1.95291,7.18949 -1.99872,8.31579 -0.0211,0.52021 0.17572,1.26495 0.44172,1.67091 1.69125,2.58118 12.36913,4.98712 22.35682,5.03744 4.64894,0.0234 5.368,-0.0344 7.26807,-0.58443 2.91619,-0.84419 4.41409,-1.72836 6.24636,-3.68705 3.83719,-4.10198 5.38466,-10.13156 5.3819,-20.97017 -0.003,-11.02462 -1.77219,-18.70456 -5.34166,-23.1853 -1.55727,-1.95485 -4.5743,-3.87738 -7.6116,-4.85031 -1.3804,-0.44218 -2.73069,-0.80397 -3.00066,-0.80397 -0.28146,0 -0.79682,0.46237 -1.20814,1.08392 -1.94718,2.94238 -6.25471,6.32007 -9.42291,7.38884 -4.1886,1.413 -8.28206,-0.40702 -9.53502,-4.23943 -0.16652,-0.50932 -0.3971,-1.0288 -0.51239,-1.1544 -0.30621,-0.33357 -2.81832,0.903 -4.41703,2.17428 -1.55101,1.23334 -3.634631,4.03662 -4.994237,6.71919 -0.497842,0.98226 -1.024331,1.78593 -1.169975,1.78593 -0.651159,0 1.986442,-4.72817 3.961577,-7.10154 1.538085,-1.8482 3.444335,-3.16166 6.412775,-4.4186 2.90503,-1.23009 3.22557,-1.62738 3.05299,-3.78395 -0.0739,-0.92293 -0.25369,-1.79747 -0.39964,-1.94341 -0.17742,-0.17742 -0.74609,-0.15777 -1.71603,0.0593 -1.86048,0.41636 -3.4441,0.17411 -5.46565,-0.83607 -5.293056,-2.64497 -10.517436,-12.01391 -10.678385,-19.14967 -0.04927,-2.18447 0.214806,-4.10104 0.565064,-4.10104 0.10987,0 0.864398,0.64374 1.676728,1.43055 4.710811,4.56278 12.929483,6.85398 19.378603,5.40235 0.94843,-0.21348 1.5673,-0.5711 2.27414,-1.31414 0.75896,-0.79784 1.16949,-1.02085 1.87924,-1.02085 2.42846,0 3.65608,3.12757 2.28265,5.81543 -0.59192,1.15841 -1.892,2.36879 -2.20651,2.05427 -0.0906,-0.0905 0.31343,-0.61944 0.89776,-1.1753 1.62977,-1.55036 1.83722,-4.13947 0.44335,-5.53333 -0.93995,-0.93995 -1.88283,-0.81899 -3.03191,0.38895 -0.70935,0.74568 -1.35799,1.11949 -2.40643,1.38683 -1.905,0.48576 -6.75932,0.43516 -9.14626,-0.0953 -3.877482,-0.86176 -8.083088,-3.00212 -10.775689,-5.48407 l -1.155606,-1.0652 -0.14468,1.25856 c -0.503422,4.37926 1.800463,11.42096 5.231028,15.98835 3.579447,4.76561 7.793507,6.65184 11.513177,5.15334 1.58017,-0.63658 3.69556,-2.25241 4.50557,-3.44156 0.66107,-0.97048 1.05068,-1.21521 1.05068,-0.65996 0,0.5718 -1.86119,2.57502 -3.19615,3.44004 -1.08531,0.70326 -1.30231,0.96569 -1.16167,1.40491 0.34341,1.07251 0.4291,3.4664 0.14996,4.18907 -0.1569,0.40619 -0.65245,0.94197 -1.10122,1.19062 -1.75011,0.96967 -1.71485,0.88207 -0.99125,2.46263 2.53433,5.5357 8.06293,5.58208 14.5982,0.12247 1.284,-1.07266 3.87296,-4.1181 3.87296,-4.55582 0,-0.12711 -0.59,-0.44066 -1.31112,-0.69678 -2.91566,-1.03555 -5.28554,-3.82042 -6.48661,-7.62249 -0.70839,-2.24243 -0.8077,-2.88396 -0.44645,-2.88396 0.12236,0 0.36542,0.63873 0.54013,1.4194 0.44017,1.9669 1.90909,4.92943 3.09508,6.24218 1.42099,1.57286 2.74419,2.25178 6.19647,3.17934 5.75211,1.54547 9.03904,3.57357 11.32089,6.98521 2.04993,3.0649 3.28747,6.90796 4.20531,13.05915 0.69882,4.68344 0.63166,14.97062 -0.12487,19.12633 -1.66337,9.13708 -4.86029,13.52956 -11.16799,15.34451 -1.59808,0.45982 -2.85998,0.58877 -6.48229,0.66238 -2.47386,0.0503 -5.50995,-0.0196 -6.74688,-0.15521 z m -17.62362,-8.38256 c 0.12452,-0.41445 1.48404,-6.40762 1.48404,-6.54212 0,-0.0302 -0.47477,-0.1971 -1.05505,-0.37095 -0.85013,-0.25471 -1.329794,-0.68762 -2.469665,-2.22896 -1.709022,-2.31094 -6.893055,-7.13399 -7.536223,-7.01145 -0.772639,0.14721 -0.655096,1.21912 0.32608,2.97363 1.510058,2.70024 1.198507,3.5887 -1.258421,3.5887 -2.691055,0 -5.876279,-1.53087 -9.294229,-4.46697 -2.555647,-2.19536 -2.857639,-1.78025 -1.230659,1.69164 2.113627,4.51036 4.695303,7.73783 7.208077,9.01115 1.199514,0.60784 2.602571,0.9857 9.224671,2.48427 1.382448,0.31285 2.87073,0.73133 3.307292,0.92996 1.059627,0.48211 1.132527,0.47879 1.294087,-0.0589 z m 2.12019,-7.63623 c 0.11974,-0.31205 0.0506,-0.38297 -0.25792,-0.26459 -0.23183,0.089 -0.59037,0.16175 -0.79675,0.16175 -0.20638,0 -0.37523,0.11907 -0.37523,0.26459 0,0.4388 1.25387,0.29696 1.4299,-0.16175 z m -22.424407,-2.12032 c -1.036811,-1.77434 -2.288828,-4.64844 -2.288828,-5.25418 0,-0.22464 0.141373,-0.63481 0.314161,-0.91148 0.271213,-0.43428 0.05297,-0.89074 -1.596406,-3.3389 -1.745484,-2.5908 -2.11511,-3.36221 -1.398946,-2.9196 0.145438,0.0899 1.334286,1.73892 2.641886,3.66452 1.873133,2.75841 2.760871,3.80289 4.184942,4.92386 1.768837,1.39236 5.5228,3.41677 5.807656,3.13192 0.204401,-0.20441 -0.133107,-0.78694 -3.644799,-6.29088 -1.723422,-2.70115 -3.133494,-5.07815 -3.133494,-5.28222 0,-0.31037 0.05945,-0.30769 0.363579,0.0164 0.283642,0.30225 5.161047,7.93505 7.221716,11.30149 0.276294,0.45137 0.610992,0.59531 1.384241,0.59531 1.725987,0 1.862276,-0.51031 0.72812,-2.72637 -1.329403,-2.59755 -1.245379,-3.88821 0.25313,-3.88821 0.764782,0 6.273343,5.04997 7.809306,7.15918 0.629646,0.86464 1.326173,1.57207 1.547833,1.57207 0.51212,0 8.53169,-2.64466 8.82322,-2.90968 0.18003,-0.16366 -11.081884,-16.8492 -12.105758,-17.93577 -0.343542,-0.36458 -2.612178,0.37151 -13.598972,4.41239 -2.812815,1.03454 -5.446986,1.88098 -5.853714,1.88098 -1.106902,0 -2.262744,-0.47588 -8.346659,-3.43641 -6.966592,-3.39007 -7.384611,-3.5735 -7.122782,-3.12561 0.110704,0.18937 3.025857,4.39243 6.47812,9.34014 l 6.27684,8.99584 3.004744,1.33935 c 1.65261,0.73664 3.039486,1.31706 3.081947,1.28981 0.04246,-0.0272 -0.331526,-0.74902 -0.831083,-1.60394 z m -0.774736,-15.8712 c -0.105146,-0.10515 -0.191175,-0.44526 -0.191175,-0.75582 0,-0.40791 -0.333668,-0.72674 -1.202151,-1.14868 -0.822371,-0.39954 -1.428371,-0.95687 -1.918229,-1.76415 -0.817466,-1.34719 -1.112953,-1.48653 -1.112953,-0.52483 0,1.08291 0.964847,2.66665 2.022994,3.32062 1.168732,0.72231 0.721879,1.03154 -0.476498,0.32974 -2.238582,-1.31097 -2.592227,-3.47396 -1.128473,-6.90205 0.201941,-0.47294 0.472477,-0.8599 0.601192,-0.8599 0.128714,0 0.300248,-0.49372 0.381186,-1.09716 0.186519,-1.39059 0.774177,-1.96568 2.436057,-2.38394 0.727604,-0.18312 1.354673,-0.3499 1.393486,-0.37062 0.03881,-0.0207 0.311074,-1.51185 0.605023,-3.31361 0.655711,-4.01919 1.298567,-5.17446 2.314199,-4.15883 0.478398,0.4784 0.285576,4.63793 -0.349083,7.5304 -0.105683,0.48165 0.176991,0.73889 1.791907,1.63068 1.054561,0.58234 2.358055,1.51563 2.896653,2.07397 1.333216,1.38208 2.308479,3.79328 1.534273,3.79328 -0.145521,0 -0.264583,-0.18451 -0.264583,-0.41001 0,-0.67914 -0.79436,-2.04331 -1.802642,-3.09572 -1.257712,-1.31275 -2.05441,-1.2995 -4.155075,0.0691 -1.86365,1.21422 -2.518618,2.12588 -1.987269,2.76611 0.46315,0.55806 0.966946,0.50834 2.61287,-0.25788 1.293894,-0.60234 1.893862,-0.65959 1.891712,-0.1805 -4.52e-4,0.10055 -0.89342,0.47394 -1.984375,0.82976 -1.090955,0.35582 -1.983555,0.79783 -1.983555,0.98226 0,0.48687 -1.000538,3.08541 -1.396508,3.62693 -0.185794,0.25409 -0.423837,0.37595 -0.528983,0.27081 z m 1.062047,-2.78862 c 0.553118,-1.5206 0.562335,-1.64836 0.141135,-1.95635 -0.36973,-0.27035 -0.510078,-0.25137 -0.781786,0.10572 -0.353355,0.4644 -0.482952,3.4781 -0.14955,3.4777 0.10914,-1.3e-4 0.464731,-0.73231 0.790201,-1.62707 z m -1.517805,-0.24513 c 0,-0.54459 -0.25273,-1.06683 -0.763412,-1.57752 -0.419876,-0.41987 -0.985423,-1.30324 -1.256771,-1.96303 -0.553917,-1.34686 -0.739602,-1.44827 -1.172117,-0.64011 -0.60936,1.1386 0.458002,3.56746 1.973953,4.49186 1.099425,0.67042 1.218347,0.64004 1.218347,-0.3112 z m 0.531163,-2.36463 c 0.194731,-0.36386 0.205365,-0.97213 0.03352,-1.91758 -0.167985,-0.92424 -0.16189,-1.44017 0.01833,-1.55155 0.4654,-0.28764 0.730847,-2.36805 0.322158,-2.52488 -0.612408,-0.235 -2.228194,0.46027 -2.683092,1.15453 -0.368369,0.5622 -0.391636,0.87854 -0.149517,2.03285 0.33138,1.57987 1.286141,3.33953 1.811967,3.33953 0.198788,0 0.489771,-0.23981 0.64663,-0.5329 z m 1.481024,-1.91907 c 0.381997,-0.40515 0.699388,-1.36789 1.010278,-3.06447 0.73352,-4.00294 1.135298,-7.85555 0.888743,-8.52205 -0.478797,-1.29431 -0.976399,0.0972 -1.803836,5.04444 -1.305971,7.80834 -1.306236,7.82654 -0.09519,6.54208 z m 2.702384,-1.87414 1.142696,-0.59803 -0.933814,-0.50289 c -0.513597,-0.27659 -1.008456,-0.42825 -1.099686,-0.33702 -0.246249,0.24625 -0.620784,2.06183 -0.422467,2.04793 0.09382,-0.007 0.684788,-0.28107 1.313271,-0.60999 z m 61.44623,6.65687 c 1.36465,-1.72641 2.25912,-3.48102 2.76536,-5.42461 0.55429,-2.12807 0.50523,-5.91495 -0.10761,-8.30706 -1.28149,-5.00197 -3.32628,-8.02718 -10.08816,-14.92513 -2.853,-2.91042 -5.81452,-6.18464 -6.58116,-7.27604 -0.76663,-1.09141 -2.57838,-4.33176 -4.02611,-7.20078 -1.44773,-2.86902 -3.24362,-6.13049 -3.99087,-7.24772 -5.32031,-7.95452 -12.81855,-11.423168 -21.05851,-9.741561 -3.06145,0.624781 -5.572712,1.943231 -7.885153,4.139821 -2.046473,1.94395 -2.967191,2.29563 -1.401161,0.5352 2.247325,-2.52631 5.159174,-4.24335 8.695474,-5.127502 1.86042,-0.465144 2.7616,-0.538276 5.29167,-0.429428 5.28421,0.227337 9.25368,2.00053 13.13382,5.86698 2.71249,2.70292 4.78201,5.85879 7.77872,11.862 1.3027,2.60968 2.93364,5.59733 3.62431,6.63924 0.72921,1.10005 3.53354,4.22412 6.68808,7.45062 5.57185,5.69895 7.19454,7.76427 8.85676,11.27262 3.09676,6.53615 2.59134,13.9727 -1.23151,18.12 -1.48048,1.60613 -1.78844,1.46896 -0.46395,-0.20665 z m -77.60403,-7.75289 c -1.549856,-1.46094 -1.737754,-1.72162 -1.240933,-1.72162 0.340797,0 3.159162,2.63069 3.159162,2.94879 0,0.45202 -0.425905,0.17955 -1.918229,-1.22717 z m 3.486221,-0.82503 c -1.048774,-2.68179 -1.248193,-3.54243 -0.820825,-3.54243 0.288703,0 1.510638,3.91581 1.290599,4.13585 -0.09398,0.094 -0.305381,-0.17306 -0.469774,-0.59342 z m 25.971988,-2.7269 c -0.454519,-0.42458 -1.143362,-1.46431 -1.530762,-2.3105 -0.627343,-1.3703 -0.727018,-2.00143 -0.911543,-5.77184 -0.201887,-4.12515 -0.23094,-4.28075 -1.137132,-6.09002 -0.598032,-1.19401 -1.787886,-2.80106 -3.333653,-4.50254 -4.370552,-4.81081 -5.54714,-7.14721 -5.749815,-11.41764 -0.105349,-2.21974 -0.03163,-3.00201 0.424404,-4.5034 0.621104,-2.04485 2.070324,-4.27674 3.548883,-5.46551 1.382067,-1.11118 1.63427,-0.6139 0.290292,0.57238 -2.528927,2.23221 -3.794821,5.15962 -3.794821,8.77563 0,3.75013 1.436059,6.95005 4.778411,10.64757 4.876846,5.39506 5.23736,6.18604 5.517975,12.1066 0.224273,4.7318 0.585282,5.87761 2.409677,7.64813 1.276865,1.23915 0.795031,1.53201 -0.511916,0.31114 z"
       id="path1" /></g></svg>
