<?xml version="1.0" encoding="UTF-8" standalone="no"?>
<!-- Created with Inkscape (http://www.inkscape.org/) -->

<svg
   width="147.80597mm"
   height="95.24955mm"
   viewBox="0 0 147.80597 95.24955"
   version="1.1"
   id="svg1"
   xml:space="preserve"
   xmlns:inkscape="http://www.inkscape.org/namespaces/inkscape"
   xmlns:sodipodi="http://sodipodi.sourceforge.net/DTD/sodipodi-0.dtd"
   xmlns="http://www.w3.org/2000/svg"
   xmlns:svg="http://www.w3.org/2000/svg"><sodipodi:namedview
     id="namedview1"
     pagecolor="#ffffff"
     bordercolor="#111111"
     borderopacity="1"
     inkscape:showpageshadow="0"
     inkscape:pageopacity="0"
     inkscape:pagecheckerboard="1"
     inkscape:deskcolor="#d1d1d1"
     inkscape:document-units="mm"><inkscape:page
       x="0"
       y="0"
       width="147.80597"
       height="95.24955"
       id="page2"
       margin="0"
       bleed="0" /></sodipodi:namedview><defs
     id="defs1" /><g
     inkscape:label="Layer 1"
     inkscape:groupmode="layer"
     id="layer1"
     transform="translate(-32.690638,-87.04792)"><path
       style="fill:#000000"
       d="m 51.067316,178.5276 c 0.0047,-6.50412 0.718153,-13.05662 2.254242,-20.70364 0.746316,-3.71535 2.743047,-11.35582 3.43662,-13.1502 0.155538,-0.4024 -0.07901,-0.38248 -2.209189,0.18759 -3.350619,0.89669 -5.251176,1.72044 -7.776288,3.37047 -4.206844,2.74894 -7.570849,6.56857 -7.240363,8.221 0.236161,1.1808 2.090839,4.97011 3.314774,6.77243 0.610387,0.89884 1.071913,1.72262 1.025613,1.83063 -0.155913,0.36374 -6.574728,6.12954 -6.823744,6.12954 -0.31993,0 -1.5952,-1.86681 -2.502573,-3.6634 -1.769931,-3.50444 -2.365417,-9.13068 -1.386444,-13.09933 0.86907,-3.5231 2.985225,-7.51837 5.446371,-10.28266 4.230406,-4.75146 12.260844,-8.33134 20.968566,-9.34754 l 1.498858,-0.17492 -0.1457,-1.92649 c -0.185351,-2.45077 0.466837,-5.26012 1.613199,-6.94898 0.96556,-1.42249 1.781191,-2.07216 3.223001,-2.56719 0.981868,-0.33712 1.077248,-0.46709 1.626458,-2.21633 1.28155,-4.08177 1.533247,-5.97847 1.533163,-11.55337 -1.02e-4,-6.77068 -0.483381,-9.544358 -3.171553,-18.202453 -0.656696,-2.115092 -1.193992,-3.915196 -1.193992,-4.00023 0,-0.08503 0.16936,-0.154607 0.376356,-0.154607 0.206996,0 0.496363,0.386953 0.643038,0.859895 3.271787,10.549613 3.968524,13.880455 4.192368,20.042185 0.22302,6.13903 -0.429389,10.14327 -2.625332,16.11331 l -1.109527,3.01644 1.15752,1.02721 c 2.107983,1.87067 6.989884,4.55185 11.785368,6.47261 1.41419,0.56643 2.251853,0.66649 7.672916,0.91651 7.961777,0.36719 19.487868,0.36056 23.812498,-0.0137 9.00033,-0.77891 17.44934,-2.84944 23.01665,-5.64051 3.65401,-1.83187 8.07189,-5.06497 8.07189,-5.90719 0,-0.19685 -0.28664,-1.23601 -0.63697,-2.30923 -1.85421,-5.68021 -2.50758,-13.56801 -1.63837,-19.77925 0.63931,-4.568429 3.40543,-14.513517 4.10129,-14.745471 0.49675,-0.165583 0.33574,0.63695 -1.00914,5.029894 -0.6108,1.995123 -1.40958,4.971685 -1.77506,6.614583 -1.61869,7.276184 -0.79233,20.945304 1.29795,21.469924 1.19841,0.30078 2.79903,2.00747 3.81986,4.07298 0.95105,1.92432 1.00174,2.15876 1.04914,4.85183 l 0.0498,2.82981 1.46869,2.92849 c 1.90222,3.79292 3.08945,6.66131 4.77531,11.53729 l 1.36827,3.95741 2.56631,0.73785 c 3.46027,0.99488 8.45343,2.90904 11.73617,4.49914 2.81518,1.36363 8.99727,5.30364 10.7537,6.85362 l 1.01758,0.89798 -2.30547,3.30663 c -3.12205,4.47781 -2.82476,4.23929 -4.0234,3.22793 -1.99908,-1.68674 -5.81515,-4.112 -8.91552,-5.66617 -3.36527,-1.68696 -7.80911,-3.48748 -8.03929,-3.25729 -0.0758,0.0758 0.0616,1.77508 0.30525,3.77622 0.66239,5.4399 0.95838,9.58723 0.96305,13.49417 0.004,2.94167 -0.0597,3.50573 -0.39269,3.50573 -0.33273,0 -0.39688,-0.56425 -0.39688,-3.49077 0,-5.84171 -1.11237,-17.04202 -1.75652,-17.68617 -0.12575,-0.12575 -1.7008,-0.65237 -3.50011,-1.17027 l -3.27147,-0.94163 -2.28439,0.89782 c -6.29735,2.47502 -14.5989,4.38232 -23.40702,5.37783 -5.68115,0.64209 -20.45227,0.63904 -26.899233,-0.006 -16.458349,-1.64558 -31.708068,-5.25219 -40.050133,-9.47201 -0.854292,-0.43214 -1.617556,-0.72141 -1.69614,-0.64283 -0.269977,0.26998 -1.628611,7.69052 -2.182454,11.92005 -0.32577,2.48781 -0.618565,6.60615 -0.7101,9.98802 -0.123835,4.57521 -0.228903,5.75468 -0.512632,5.75468 -0.282873,0 -0.356306,-0.78179 -0.354142,-3.77031 z M 40.478977,167.22818 c 1.77845,-1.67902 2.428928,-2.4532 2.229108,-2.65302 -0.199821,-0.19982 -1.106487,0.49902 -3.107034,2.39483 -1.553682,1.47234 -2.757914,2.78533 -2.676071,2.91775 0.22711,0.36748 0.808629,-0.0677 3.553997,-2.65956 z m 136.786613,-0.5312 c 1.08852,-1.58864 2.01646,-3.00045 2.0621,-3.13735 0.0456,-0.1369 -0.42826,-0.62684 -1.05309,-1.08877 l -1.13606,-0.83986 -0.75778,0.8746 c -1.07114,1.23627 -3.34326,4.71333 -3.34326,5.11622 0,0.30073 1.78497,1.9544 2.11666,1.96097 0.0728,0.001 1.0229,-1.29718 2.11143,-2.88581 z m -1.79098,-0.23394 c -0.52994,-0.33622 -0.52319,-1.63973 0.0103,-1.98591 1.03057,-0.66876 2.09468,1.13678 1.09904,1.86482 -0.54898,0.40142 -0.65008,0.41246 -1.10932,0.12109 z m 0.63315,-1.29138 c -0.26895,-0.26896 -0.49086,0.13596 -0.27019,0.49302 0.16669,0.26972 0.22902,0.26993 0.31864,0.001 0.0613,-0.18383 0.0395,-0.40616 -0.0484,-0.49408 z m -137.048098,1.22176 c 1.436719,-1.32591 2.709902,-2.50112 2.829296,-2.61156 0.119395,-0.11045 -0.148273,-0.79459 -0.594817,-1.52032 -2.198468,-3.57296 -3.509618,-7.99082 -3.554942,-11.97821 -0.01571,-1.38244 0.0605,-2.87073 0.169356,-3.30729 l 0.197927,-0.79375 -0.678172,0.79375 c -0.671076,0.78545 -2.812834,4.96587 -3.171676,6.19069 -0.174034,0.59402 -0.133385,0.62393 0.638123,0.46963 1.11071,-0.22214 1.137945,0.50472 0.02805,0.7485 -0.892844,0.1961 -1.167303,0.59447 -1.436824,2.0855 -0.167337,0.92573 -0.137993,1.00763 0.295904,0.82587 1.788512,-0.74924 2.299519,-0.19989 0.613954,0.66002 -0.974609,0.49721 -1.058334,0.62566 -1.058334,1.62374 0,1.13465 0.07431,1.16819 1.389063,0.62693 0.323018,-0.13298 0.463021,-0.0675 0.463021,0.21673 0,0.22405 -0.227373,0.47952 -0.505274,0.56772 -0.823865,0.26149 -1.14483,0.84002 -0.952315,1.71654 0.09719,0.44252 0.321602,0.80459 0.498684,0.80459 0.177082,0 0.971293,-0.41367 1.764915,-0.91927 1.591708,-1.01404 1.839823,-1.09411 1.839823,-0.59373 0,0.1865 -0.773624,0.81158 -1.719164,1.38907 -1.778483,1.0862 -1.961222,1.42261 -1.419093,2.61245 l 0.301326,0.66134 1.137414,-0.78256 c 0.787215,-0.54162 1.195637,-0.68836 1.326516,-0.47659 0.108223,0.17511 -0.08276,0.50716 -0.446553,0.77637 -1.712128,1.267 -1.625346,1.13707 -1.274208,1.90774 0.17964,0.39426 0.411931,0.71685 0.516203,0.71685 0.104272,0 1.365083,-1.08484 2.801801,-2.41075 z m 133.448668,0.45787 c 0,-0.39806 2.41184,-3.96717 3.35766,-4.96876 l 0.66473,-0.70393 -0.69654,-0.45639 c -0.38309,-0.25102 -0.73372,-0.4105 -0.77918,-0.35441 -0.0455,0.0561 -0.36132,0.60801 -0.70192,1.22647 -0.3406,0.61846 -0.69657,1.12448 -0.79104,1.12448 -0.48709,0 -0.44236,-0.44289 0.14618,-1.44714 0.3587,-0.61209 0.65219,-1.22559 0.65219,-1.36333 0,-0.26973 -1.37309,-1.15828 -1.78989,-1.15828 -0.13918,0 -0.63165,0.71033 -1.09439,1.57851 -0.46273,0.86819 -0.96349,1.65401 -1.1128,1.74629 -0.63499,0.39245 -0.50252,-0.23507 0.3939,-1.86591 0.52654,-0.95793 0.95735,-1.83473 0.95735,-1.94844 0,-0.11372 -0.46412,-0.46761 -1.03139,-0.78643 l -1.03138,-0.57967 -0.48997,1.19141 c -0.26948,0.65528 -0.6388,1.19187 -0.8207,1.19241 -0.46278,0.001 -0.41392,-0.38619 0.20053,-1.5906 l 0.53126,-1.04135 -1.04989,-0.53561 c -0.57743,-0.29459 -1.15016,-0.53561 -1.27274,-0.53561 -0.12257,0 -0.43692,0.59531 -0.69857,1.32292 -0.26164,0.7276 -0.56297,1.32291 -0.66963,1.32291 -0.4797,0 -0.48028,-0.41346 -0.002,-1.62615 0.28266,-0.71712 0.51393,-1.34605 0.51393,-1.39762 0,-0.12757 -2.167,-0.98694 -2.24398,-0.8899 -0.0337,0.0425 -0.27314,0.64276 -0.53209,1.33399 -0.25895,0.69122 -0.57371,1.25677 -0.69946,1.25677 -0.33941,0 -0.27824,-0.61041 0.16823,-1.67899 0.51744,-1.2384 0.54347,-1.16308 -0.56147,-1.62475 -1.25079,-0.52261 -1.35344,-0.50988 -1.5711,0.19488 -0.62715,2.03071 -1.26026,3.37344 -1.5906,3.37344 -0.46961,0 -0.51075,0.22853 0.39557,-2.19745 l 0.77152,-2.06515 -0.65185,-0.24784 c -1.75667,-0.66788 -1.84797,-0.64056 -2.21269,0.66206 -0.32571,1.16335 -0.67987,1.67254 -0.96498,1.38743 -0.073,-0.073 0.0451,-0.73122 0.2623,-1.46275 l 0.39499,-1.33007 -0.81335,-0.28353 c -1.44134,-0.50246 -1.66602,-0.38752 -2.03172,1.03938 -0.31759,1.23917 -0.52946,1.52459 -0.87511,1.17893 -0.0792,-0.0792 0.0315,-0.74245 0.24587,-1.47391 0.21442,-0.73147 0.33926,-1.38054 0.27741,-1.44238 -0.0618,-0.0618 -0.64379,-0.18527 -1.29322,-0.27429 l -1.18079,-0.16184 -0.47405,2.01083 c -0.44322,1.88002 -0.78823,2.53831 -1.14392,2.18262 -0.0823,-0.0823 0.0908,-1.10751 0.38483,-2.27816 0.29399,-1.17065 0.44722,-2.18242 0.3405,-2.24838 -0.10671,-0.0659 -0.68494,-0.19841 -1.28495,-0.29436 l -1.09092,-0.17444 -0.16859,1.05433 c -0.0927,0.57988 -0.26859,1.21613 -0.39081,1.41388 -0.42019,0.67989 -0.58829,-0.009 -0.32597,-1.33554 l 0.2627,-1.32864 -0.95375,-0.26493 c -1.457,-0.40472 -1.50781,-0.37158 -1.86288,1.21506 -0.23148,1.03434 -0.41579,1.39902 -0.60928,1.20553 -0.18951,-0.18951 -0.19513,-0.69353 -0.0177,-1.59074 l 0.25968,-1.31334 -0.78391,-0.15678 c -1.78626,-0.35725 -1.74614,-0.41002 -2.44596,3.21666 -0.0985,0.51052 -0.32589,0.85989 -0.55962,0.85989 -0.24999,0 -0.34439,-0.169 -0.25864,-0.46302 0.42439,-1.45515 0.73946,-3.82867 0.5334,-4.01825 -0.12975,-0.11938 -0.67319,-0.29468 -1.20764,-0.38958 l -0.97174,-0.17254 -0.30379,1.46337 c -0.41485,1.99831 -0.91698,1.93348 -0.68818,-0.0889 l 0.17562,-1.55222 -1.10281,-0.17634 c -0.60654,-0.097 -1.15222,-0.12693 -1.21262,-0.0665 -0.0604,0.0604 -0.25286,0.68943 -0.4277,1.39784 -0.17483,0.70841 -0.43694,1.25128 -0.58246,1.20638 -0.2914,-0.0899 -0.29275,-0.21355 -0.0197,-1.80389 l 0.18745,-1.09178 -1.2326,-0.18484 c -0.67793,-0.10166 -1.27215,-0.1453 -1.32047,-0.097 -0.0483,0.0483 -0.2423,1.06929 -0.43104,2.2688 -0.22282,1.41611 -0.46187,2.18094 -0.68163,2.18094 -0.42517,0 -0.42253,-0.21737 0.0315,-2.59841 0.40294,-2.11285 0.45913,-2.00725 -1.21616,-2.28517 -0.96421,-0.15996 -0.98089,-0.14776 -1.14758,0.83928 -0.26098,1.54533 -0.39989,1.92764 -0.70043,1.92764 -0.1811,0 -0.21529,-0.49582 -0.0986,-1.42979 0.0983,-0.78639 0.0822,-1.48862 -0.0357,-1.56052 -0.11786,-0.0719 -0.68809,-0.17264 -1.26717,-0.22386 l -1.05287,-0.0931 -0.22408,1.38907 c -0.15397,0.95447 -0.34751,1.38906 -0.6186,1.38906 -0.24774,0 -0.34727,-0.17227 -0.26751,-0.46302 0.0699,-0.25466 0.20169,-0.90605 0.29296,-1.44752 0.17762,-1.05378 0.0919,-1.12017 -1.70723,-1.3224 -0.60634,-0.0682 -0.6811,0.0414 -0.89711,1.31471 -0.15346,0.90459 -0.36527,1.38906 -0.6073,1.38906 -0.3549,0 -0.32464,-0.92204 0.0792,-2.41294 0.0834,-0.30792 -0.11862,-0.47551 -0.71764,-0.59531 -1.73536,-0.34707 -1.76201,-0.32443 -2.10253,1.78647 -0.1733,1.07427 -0.4136,2.11262 -0.53401,2.30744 -0.48022,0.777 -0.5607,-0.11641 -0.19327,-2.14542 0.21295,-1.17597 0.31759,-2.17877 0.23252,-2.22845 -0.0851,-0.0497 -0.6499,-0.17224 -1.25521,-0.27236 -1.20882,-0.19993 -1.19917,-0.21109 -1.53417,1.77464 -0.28613,1.69612 -0.7633,1.19005 -0.56131,-0.59532 l 0.1796,-1.5875 -0.93918,-0.0397 c -0.51655,-0.0218 -1.08801,-0.0516 -1.26991,-0.0662 -0.1993,-0.0159 -0.42437,0.52554 -0.56638,1.3626 -0.15346,0.9046 -0.36527,1.38907 -0.6073,1.38907 -0.35601,0 -0.32421,-0.92862 0.0831,-2.42513 0.15199,-0.55849 -0.0507,-0.67726 -1.34593,-0.78848 l -1.04748,-0.0899 -0.43751,2.18867 c -0.44098,2.20602 -0.6291,2.67171 -0.94975,2.35106 -0.15832,-0.15832 0.33686,-3.56107 0.63069,-4.33396 0.0704,-0.18527 -0.19447,-0.3869 -0.63014,-0.47962 -2.03386,-0.43286 -1.89615,-0.48277 -2.0817,0.75456 -0.0947,0.63129 -0.27415,1.31287 -0.39885,1.51463 -0.43163,0.6984 -0.62063,-0.0339 -0.34988,-1.35568 0.14956,-0.73009 0.19086,-1.37754 0.0918,-1.43877 -0.0991,-0.0612 -0.65323,-0.18699 -1.23144,-0.27945 l -1.05129,-0.16811 -0.33479,1.49599 c -0.18413,0.8228 -0.45276,1.45666 -0.59696,1.4086 -0.32019,-0.10673 -0.31743,-0.0542 -0.0845,-1.60774 0.10466,-0.69795 0.14279,-1.3165 0.0847,-1.37457 -0.0581,-0.0581 -0.59949,-0.21654 -1.20316,-0.35218 l -1.097596,-0.24661 -0.431924,2.01805 c -0.581067,2.71488 -0.624167,2.82626 -0.96273,2.48769 -0.197349,-0.19735 -0.146351,-0.88239 0.172321,-2.31476 0.253472,-1.13931 0.351516,-2.12727 0.222831,-2.24539 -0.126387,-0.11601 -0.670527,-0.28922 -1.2092,-0.3849 -0.974132,-0.17304 -0.980971,-0.16787 -1.269834,0.96009 -0.46524,1.81669 -0.515489,1.91476 -0.823337,1.60691 -0.193084,-0.19308 -0.190901,-0.58756 0.0072,-1.30101 0.420927,-1.51596 0.377415,-1.63546 -0.704933,-1.93604 -1.378931,-0.38295 -1.336364,-0.40469 -1.656511,0.84598 -0.457578,1.78756 -0.515504,1.90257 -0.809924,1.60815 -0.178644,-0.17864 -0.157866,-0.6716 0.06314,-1.4979 0.379492,-1.41888 0.244371,-1.64546 -1.132003,-1.89818 l -0.955613,-0.17547 -0.626773,2.27155 c -0.367007,1.3301 -0.765963,2.27154 -0.962616,2.27154 -0.446448,0 -0.43832,-0.0645 0.316175,-2.50979 0.358571,-1.1621 0.566914,-2.19283 0.462985,-2.29052 -0.103928,-0.0977 -0.6296,-0.29651 -1.16816,-0.44185 l -0.979198,-0.26426 -0.445535,1.36415 c -0.521013,1.59525 -0.523366,1.59899 -0.869574,1.38503 -0.169418,-0.10471 -0.08588,-0.68793 0.230058,-1.60623 l 0.496063,-1.44184 -0.975266,-0.27087 c -1.443133,-0.40081 -1.473034,-0.38499 -1.982376,1.0491 -0.258423,0.7276 -0.584025,1.32291 -0.723562,1.32291 -0.366686,0 -0.312126,-0.67091 0.143173,-1.7606 0.218281,-0.52242 0.396875,-1.04026 0.396875,-1.15076 0,-0.1105 -0.527202,-0.37447 -1.171559,-0.5866 l -1.171559,-0.3857 -0.832755,2.20642 c -0.506996,1.3433 -0.980205,2.20641 -1.209691,2.20641 -0.48532,0 -0.505925,0.10679 0.415907,-2.1554 0.436063,-1.0701 0.793251,-2.07641 0.79375,-2.23624 4.99e-4,-0.15982 -0.484437,-0.48124 -1.077636,-0.71425 l -1.078542,-0.42367 -0.544233,1.30957 c -0.299328,0.72027 -0.706953,1.30957 -0.905833,1.30957 -0.471651,0 -0.459865,-0.093 0.167568,-1.32291 0.709778,-1.39128 0.678515,-1.5521 -0.388377,-1.99788 -1.274312,-0.53244 -1.288766,-0.52642 -1.936712,0.80725 -0.318148,0.65485 -0.69906,1.19063 -0.846472,1.19063 -0.399214,0 -0.328055,-0.43258 0.261144,-1.5875 0.291042,-0.57049 0.529167,-1.09911 0.529167,-1.17471 0,-0.0756 -0.474224,-0.37939 -1.053832,-0.67508 l -1.053831,-0.53762 -1.065788,2.11974 c -0.586183,1.16586 -1.163678,2.11975 -1.283321,2.11975 -0.555996,0 -0.453834,-0.44566 0.505606,-2.2056 0.568319,-1.04249 1.034981,-2.0186 1.037028,-2.16912 0.0038,-0.28099 -1.345479,-1.18153 -1.770317,-1.18153 -0.130451,0 -0.497486,0.53578 -0.815634,1.19063 -0.318147,0.65484 -0.69906,1.19062 -0.846472,1.19062 -0.399214,0 -0.328055,-0.43257 0.261145,-1.5875 0.680022,-1.33295 0.674336,-1.38066 -0.245635,-2.06082 l -0.774802,-0.57284 -0.810253,1.31683 c -0.445639,0.72426 -0.930415,1.31683 -1.077281,1.31683 -0.401556,0 -0.338106,-0.20823 0.520969,-1.70974 l 0.787999,-1.37728 -0.766458,-0.73431 -0.766459,-0.73431 -0.718598,1.15334 c -0.913395,1.46599 -0.874592,1.42886 -1.177073,1.12638 -0.165306,-0.16531 0.06041,-0.72652 0.635901,-1.58107 0.835334,-1.2404 0.868259,-1.37044 0.516814,-2.0412 -0.206447,-0.39401 -0.426067,-0.71639 -0.488046,-0.71639 -0.06198,0 -0.425701,0.53411 -0.808271,1.18692 -0.906836,1.5474 -1.436341,3.58673 -1.44025,5.54697 -0.0031,1.57031 9.24e-4,1.57847 1.518214,3.05366 1.902117,1.84934 5.811975,4.45063 8.929687,5.94105 10.919672,5.22015 22.093384,8.03201 44.714575,11.25241 17.35707,2.47098 23.99182,3.60524 30.95625,5.2922 10.41091,2.52178 17.13235,5.13986 22.62187,8.81146 1.70675,1.14154 2.11667,1.26136 2.11667,0.6187 z M 120.65,164.17149 c 6.53494,-0.54919 10.77078,-1.23067 16.50371,-2.65519 3.55728,-0.88391 10.2192,-3.02343 10.2192,-3.28195 0,-0.51928 -10.99729,-2.49076 -25.79687,-4.62461 -13.89839,-2.00391 -17.32365,-2.54608 -22.886457,-3.62256 -7.769768,-1.50356 -16.12273,-3.81842 -20.926672,-5.7994 l -1.900274,-0.78361 -6.379755,0.0227 c -3.508865,0.0125 -7.56587,0.16134 -9.015566,0.33073 l -2.635811,0.30798 -0.622894,1.98438 c -0.710421,2.26321 -1.752318,5.86173 -2.014748,6.95856 -0.17092,0.71436 -0.09893,0.77732 2.01392,1.76123 10.132428,4.71849 29.023855,8.78348 44.656797,9.60909 4.97506,0.26275 14.43361,0.15832 18.78542,-0.20739 z M 41.671878,151.38603 c 4.023634,-4.2733 8.966043,-6.75109 16.007291,-8.02496 2.332388,-0.42197 4.586881,-0.5828 9.657291,-0.68893 3.638021,-0.0762 6.435989,-0.19729 6.217708,-0.26919 -1.171648,-0.38591 -5.357914,-2.62872 -6.838721,-3.66388 -1.195411,-0.83565 -1.764808,-1.09781 -1.902058,-0.87573 -0.278798,0.4511 -0.780714,0.0598 -0.803323,-0.62635 -0.02125,-0.64481 -1.671196,-2.16612 -2.077165,-1.91522 -0.155663,0.0962 -0.19537,1.0497 -0.09999,2.40119 0.10743,1.52228 0.06679,2.24162 -0.12665,2.24162 -0.252699,0 -0.435265,-0.99906 -0.65271,-3.57187 -0.06227,-0.73682 -0.142127,-0.79375 -1.113383,-0.79375 h -1.046297 l 0.07373,1.38906 c 0.04055,0.76399 -0.04028,1.38906 -0.179615,1.38906 -0.304037,0 -0.571057,-0.90453 -0.576029,-1.9513 -0.0034,-0.71036 -0.0583,-0.74974 -0.830435,-0.59531 -0.454753,0.091 -0.999102,0.16536 -1.209664,0.16536 -0.309698,0 -0.348104,0.27802 -0.201024,1.45521 0.114167,0.91377 0.08351,1.45521 -0.08239,1.45521 -0.292035,0 -0.581303,-0.87255 -0.586898,-1.77032 -0.0049,-0.78742 -0.281465,-0.90225 -1.417506,-0.58857 -1.102335,0.30437 -1.142894,0.49088 -0.570482,2.62347 0.457046,1.70279 0.486585,2.11667 0.151066,2.11667 -0.220864,0 -0.726763,-1.49741 -1.189484,-3.52076 -0.17795,-0.77812 -0.254489,-0.78438 -1.929833,-0.15779 -0.569846,0.21313 -0.575428,0.25235 -0.190993,1.34196 0.39298,1.11382 0.335366,1.9739 -0.113636,1.6964 -0.128651,-0.0795 -0.368504,-0.67909 -0.533007,-1.33239 -0.284685,-1.13058 -0.331736,-1.17541 -0.976395,-0.93032 -1.729044,0.65739 -1.728038,0.6556 -1.130671,2.00605 0.383888,0.86784 0.456971,1.29929 0.254401,1.50186 -0.20257,0.20257 -0.446732,-0.10683 -0.849922,-1.07701 -0.561363,-1.35079 -0.571047,-1.35834 -1.261948,-0.98347 -1.535276,0.83302 -1.51874,0.72275 -0.433395,2.88998 0.927891,1.85282 1.074433,2.55505 0.453051,2.17101 -0.134941,-0.0834 -0.616559,-0.92876 -1.070262,-1.87858 -0.453703,-0.94982 -0.937395,-1.72694 -1.074872,-1.72694 -0.137476,0 -0.619966,0.31134 -1.072198,0.69187 l -0.822242,0.69187 0.537358,0.91075 c 0.953743,1.61648 0.452,2.05794 -0.531082,0.46728 l -0.582432,-0.94239 -0.625225,0.58737 c -0.972167,0.9133 -1.027191,1.47615 -0.24461,2.50216 0.942959,1.23629 0.563364,1.81509 -0.409022,0.62368 l -0.732407,-0.89738 -0.219453,0.79125 c -0.287071,1.03505 -0.281379,4.93159 0.0097,6.61208 l 0.229111,1.32292 0.564639,-0.78846 c 0.310551,-0.43366 1.279014,-1.54717 2.152139,-2.47447 z m 111.521872,-1.63676 c 0,-0.60764 -1.99991,-6.39983 -3.09747,-8.97097 -1.05173,-2.4638 -3.6714,-7.90548 -3.95047,-8.2061 -0.0594,-0.064 -0.67081,0.43067 -1.35868,1.09923 -2.5124,2.44187 -7.68316,5.21675 -12.89234,6.91865 -3.57837,1.16909 -5.2977,1.6078 -9.87707,2.52027 l -3.57556,0.71246 6.06486,0.87842 c 7.26298,1.05195 14.35162,2.21823 17.9711,2.95674 4.35685,0.88897 9.76364,2.11435 9.89095,2.24166 0.22691,0.2269 0.82468,0.11792 0.82468,-0.15036 z m -33.73438,-7.01419 c 3.5903,-0.51877 9.68088,-1.98469 12.76813,-3.07311 5.32696,-1.87805 10.51561,-4.82926 12.74744,-7.25052 l 1.13581,-1.2322 -0.10909,-2.42035 c -0.11359,-2.52031 -0.77353,-4.49422 -2.00125,-5.98587 l -0.53919,-0.65509 -0.42008,0.91967 c -0.23105,0.50583 -0.56471,1.11854 -0.74147,1.36159 -0.26748,0.36781 -0.15836,0.68743 0.65071,1.90598 0.59686,0.89893 0.86525,1.53008 0.69533,1.6351 -0.15221,0.0941 -0.30907,0.12935 -0.34856,0.0784 -0.0395,-0.0509 -0.46289,-0.67107 -0.94086,-1.37805 l -0.86904,-1.28541 -0.81423,0.81423 c -0.91442,0.91441 -0.93885,0.79513 0.77987,3.80686 0.67561,1.18388 0.73149,1.7801 0.1321,1.40966 -0.14678,-0.0907 -0.71554,-0.99561 -1.2639,-2.01087 -0.54837,-1.01526 -1.1208,-1.84165 -1.27208,-1.83642 -0.15128,0.005 -0.62743,0.2975 -1.05812,0.64947 l -0.78306,0.63996 0.58463,1.0402 c 0.63265,1.12566 0.73329,1.62961 0.32542,1.62961 -0.14257,0 -0.51439,-0.50602 -0.82628,-1.12448 -0.31188,-0.61847 -0.60376,-1.16589 -0.6486,-1.21649 -0.0448,-0.0506 -0.55162,0.1883 -1.12615,0.53091 l -1.04461,0.62293 0.6295,1.30435 c 0.73909,1.5314 0.72775,1.47028 0.27282,1.47028 -0.19618,0 -0.57405,-0.482 -0.8397,-1.07112 -0.26565,-0.58911 -0.56874,-1.1241 -0.67353,-1.18887 -0.25033,-0.1547 -2.09883,0.62079 -2.09883,0.88051 0,0.11051 0.35719,1.12852 0.79375,2.26226 0.91525,2.37686 0.89848,2.29222 0.45399,2.29222 -0.30317,0 -1.77691,-3.28738 -1.77691,-3.96364 0,-0.34866 -0.5078,-0.34185 -1.54802,0.0208 -0.94286,0.32868 -0.98707,0.5299 -0.45051,2.05065 0.21365,0.60555 0.27795,1.14948 0.14556,1.2313 -0.27109,0.16755 -0.58636,-0.36965 -1.0363,-1.76576 l -0.31309,-0.97146 -1.17694,0.40102 c -0.64732,0.22057 -1.17695,0.44161 -1.17695,0.49122 0,0.0496 0.10163,0.36584 0.22584,0.70274 0.52211,1.41608 0.58592,2.06774 0.20247,2.06774 -0.2328,0 -0.49829,-0.51171 -0.69851,-1.34636 l -0.32299,-1.34635 -0.96018,0.17632 c -0.52809,0.097 -1.06975,0.28259 -1.20368,0.41247 -0.14779,0.14332 -0.0527,1.07149 0.24187,2.36132 0.26696,1.16885 0.39983,2.21073 0.29527,2.31529 -0.30372,0.30372 -0.62559,-0.42953 -0.95509,-2.17581 -0.42237,-2.23848 -0.51296,-2.34291 -1.83813,-2.11903 l -1.10987,0.18751 0.18851,1.09805 c 0.27215,1.5852 0.27184,1.61427 -0.0186,1.75951 -0.14552,0.0728 -0.40763,-0.44732 -0.58247,-1.15573 -0.17483,-0.70841 -0.3673,-1.33744 -0.4277,-1.39784 -0.0604,-0.0604 -0.61293,-0.0294 -1.22785,0.069 l -1.11805,0.17878 0.18086,1.21905 c 0.0995,0.67048 0.19974,1.32324 0.22282,1.45057 0.0231,0.12733 -0.10167,0.28435 -0.27723,0.34893 -0.21022,0.0773 -0.38096,-0.34813 -0.5001,-1.24622 -0.20148,-1.51887 -0.46197,-1.72434 -1.8548,-1.46304 -0.89672,0.16822 -0.94216,0.22583 -0.80574,1.02126 0.46848,2.73161 0.49783,3.88568 0.0988,3.88568 -0.31244,0 -0.44026,-0.51787 -0.58774,-2.38125 -0.11903,-1.50386 -0.29998,-2.38017 -0.49111,-2.37833 -0.16645,0.002 -0.73908,0.0751 -1.27251,0.16328 l -0.96987,0.16038 0.15067,1.45982 c 0.12182,1.18041 0.0796,1.43639 -0.22076,1.33739 -0.23206,-0.0765 -0.40189,-0.59151 -0.45264,-1.37262 -0.0914,-1.4066 -0.37964,-1.63274 -1.75289,-1.37512 l -0.90408,0.16961 0.14934,1.44696 c 0.12647,1.22538 0.0829,1.44697 -0.28455,1.44697 -0.34954,0 -0.43389,-0.28291 -0.43389,-1.45521 V 136.525 h -1.33724 -1.33723 l 0.0805,2.05052 c 0.10709,2.72887 -0.40623,2.84866 -0.58099,0.13559 l -0.13229,-2.05382 -1.25677,-0.0806 -1.25677,-0.0806 v 1.4697 c 0,0.80834 -0.10418,1.46971 -0.23151,1.46971 -0.2502,0 -0.562243,-1.26653 -0.562243,-2.28203 0,-0.56732 -0.11442,-0.62839 -1.177422,-0.62839 h -1.177421 l -0.07935,1.50045 c -0.113916,2.15408 -0.740808,2.2464 -0.740808,0.1091 V 136.525 h -1.190625 -1.190625 v 1.45017 c 0,1.36562 0.04242,1.45978 0.727604,1.61512 0.400182,0.0907 1.382448,0.32334 2.182812,0.51691 1.97248,0.47706 9.054138,1.83178 12.303128,2.35358 6.30051,1.01189 5.16409,0.98088 10.05416,0.2743 z m -26.061453,-4.85233 v -1.28807 l -1.124479,-0.15187 c -1.350931,-0.18244 -1.586458,0.004 -1.474481,1.16609 0.07507,0.77922 0.213603,0.92504 1.143752,1.20394 0.582083,0.17453 1.14763,0.32648 1.25677,0.33766 0.109141,0.0112 0.198438,-0.5593 0.198438,-1.26775 z m -3.287424,-0.41667 c 0.238663,-0.95091 -0.04837,-1.20566 -1.358399,-1.20566 -1.057711,0 -1.17501,0.0622 -1.17501,0.62318 0,0.47011 0.211223,0.69094 0.859896,0.89903 1.307649,0.41948 1.497808,0.38352 1.673513,-0.31655 z m -3.327159,-0.64166 c 0,-0.38135 -0.256993,-0.52904 -1.124479,-0.64619 -1.297913,-0.17528 -1.997353,0.231 -0.832021,0.48329 0.421231,0.0912 1.004,0.26832 1.295042,0.39361 0.291041,0.1253 0.558932,0.23586 0.595312,0.24571 0.03638,0.01 0.06615,-0.20454 0.06615,-0.47642 z M 65.616668,125.84169 c 0,-0.055 0.180192,-0.53124 0.400426,-1.05834 0.374917,-0.8973 0.369711,-0.95835 -0.08172,-0.95835 -0.265181,0 -0.692302,0.15367 -0.949157,0.34149 -0.401431,0.29353 -0.421145,0.44214 -0.140392,1.05833 0.269601,0.59171 0.770845,0.99283 0.770845,0.61687 z m 76.993742,-3.98837 c 0,-0.33965 -0.19563,-0.69261 -0.43474,-0.78436 -0.61172,-0.23474 -0.66685,-0.0928 -0.33443,0.86074 0.32323,0.9272 0.76917,0.88291 0.76917,-0.0764 z m -38.1734,10.80591 c -0.10515,-0.10515 -0.19118,-1.19328 -0.19118,-2.41808 0,-1.63714 0.0857,-2.19836 0.32343,-2.1191 0.41782,0.13927 0.67543,1.08375 0.70853,2.59769 0.0259,1.18442 -0.46454,2.31574 -0.84078,1.93949 z"
       id="path1" /></g></svg>
