<?xml version="1.0" encoding="UTF-8" standalone="no"?>
<!-- Created with Inkscape (http://www.inkscape.org/) -->

<svg
   width="114.09717mm"
   height="122.7627mm"
   viewBox="0 0 114.09717 122.7627"
   version="1.1"
   id="svg1"
   xml:space="preserve"
   xmlns:inkscape="http://www.inkscape.org/namespaces/inkscape"
   xmlns:sodipodi="http://sodipodi.sourceforge.net/DTD/sodipodi-0.dtd"
   xmlns="http://www.w3.org/2000/svg"
   xmlns:svg="http://www.w3.org/2000/svg"><sodipodi:namedview
     id="namedview1"
     pagecolor="#ffffff"
     bordercolor="#111111"
     borderopacity="1"
     inkscape:showpageshadow="0"
     inkscape:pageopacity="0"
     inkscape:pagecheckerboard="1"
     inkscape:deskcolor="#d1d1d1"
     inkscape:document-units="mm"><inkscape:page
       x="0"
       y="0"
       width="114.09717"
       height="122.7627"
       id="page2"
       margin="0"
       bleed="0" /></sodipodi:namedview><defs
     id="defs1" /><g
     inkscape:label="Layer 1"
     inkscape:groupmode="layer"
     id="layer1"
     transform="translate(-47.507743,-87.051853)"><path
       style="fill:#000000"
       d="m 91.697024,209.39881 c -0.228675,-0.22868 -0.415774,-0.45004 -0.415774,-0.49191 0,-0.0419 0.403295,-0.9561 0.89621,-2.03162 1.130136,-2.46591 1.48504,-4.15484 1.48504,-7.06706 0,-4.49537 -1.33871,-7.73233 -6.205537,-15.00477 -3.484799,-5.20729 -5.024776,-8.08776 -6.007491,-11.23679 -0.529865,-1.6979 -0.617097,-2.51911 -0.604262,-5.68854 0.01349,-3.33155 0.08619,-3.90034 0.722722,-5.65438 1.027934,-2.83261 2.238025,-4.85344 5.529989,-9.23502 4.09752,-5.45377 5.751057,-9.17775 5.766235,-12.9863 0.0039,-0.99051 -0.06058,-1.12762 -0.458427,-0.97403 -1.453323,0.56108 -4.220548,0.98674 -6.435961,0.98999 -7.432856,0.0109 -14.030491,-4.36051 -18.875919,-12.50672 -0.71552,-1.20294 -1.649002,-3.01556 -2.074406,-4.02805 -0.675084,-1.60675 -0.724745,-1.88961 -0.390444,-2.22392 0.616227,-0.61622 4.911633,-0.75794 7.585449,-0.25025 1.227684,0.2331 2.279883,0.37609 2.338218,0.31776 0.05833,-0.0583 -0.02392,-0.74059 -0.182778,-1.51611 -0.339742,-1.65853 -0.805553,-7.05654 -0.811532,-9.40438 -0.006,-2.35527 0.289837,-2.45424 3.7543,-1.25606 1.498092,0.51811 2.894221,0.96594 3.102509,0.99517 0.244983,0.0344 0.456993,-0.32056 0.600414,-1.00519 0.121939,-0.58209 0.526845,-1.98107 0.899792,-3.10886 0.577459,-1.74622 0.76611,-2.05052 1.271244,-2.05052 0.728336,0 2.745869,1.40835 4.54384,3.17186 l 1.345242,1.31945 1.227623,-1.79669 c 1.722659,-2.5212 3.195557,-4.06371 3.696689,-3.87141 0.224868,0.0863 1.104124,1.11188 1.953901,2.27909 0.849776,1.16721 1.741721,2.37751 1.982098,2.68956 l 0.43705,0.56736 1.415033,-1.33229 c 1.835959,-1.72861 3.745849,-3.02693 4.452769,-3.02693 0.66759,0 1.08552,0.88429 1.9124,4.04641 0.31228,1.19422 0.58366,2.1984 0.60307,2.23152 0.0194,0.0331 1.19374,-0.35384 2.60964,-0.8599 2.76671,-0.98886 3.98943,-1.14227 4.32557,-0.54272 0.30497,0.54397 -0.0838,8.40077 -0.52913,10.69287 l -0.37732,1.94213 0.69131,-0.1482 c 3.3765,-0.72386 7.67835,-0.86295 9.09183,-0.29396 0.72467,0.29171 0.55712,1.16545 -0.73102,3.81209 -3.92982,8.07424 -9.62066,13.26517 -16.13045,14.71346 -2.20878,0.49141 -7.527493,0.44914 -8.86926,-0.0705 -2.039846,-0.78996 -2.022558,-0.80153 -2.197756,1.47039 -0.199194,2.5831 -1.192876,5.75292 -2.503326,7.98555 -0.555192,0.94588 -2.175847,3.26445 -3.601456,5.15237 -4.702073,6.2269 -5.738165,8.52302 -5.926384,13.13367 -0.212029,5.19388 1.008056,8.36656 6.302293,16.38837 5.203051,7.88363 6.327599,10.56793 6.533907,15.59642 0.09054,2.20689 0.01147,3.52396 -0.28787,4.79468 -0.655274,2.7817 -2.130236,5.78865 -2.839433,5.78865 -0.112572,0 -0.391775,-0.1871 -0.620451,-0.41577 z m -3.867625,-71.19125 c 0.82561,-0.16512 0.800272,-0.18795 -0.975444,-0.87883 -4.830934,-1.87959 -8.820219,-6.13725 -10.849956,-11.57988 -0.799999,-2.14516 -1.164861,-2.40433 -4.165874,-2.9591 -1.602487,-0.29623 -5.163123,-0.39732 -5.163123,-0.14658 0,0.26214 1.340447,2.78859 2.424948,4.5705 3.069803,5.04392 7.429542,8.82391 11.799947,10.23082 2.49269,0.80244 5.227085,1.10355 6.929502,0.76307 z m 17.444231,-0.40095 c 1.63241,-0.39511 4.72031,-1.81787 6.29124,-2.89869 1.91572,-1.31805 4.38387,-3.94696 5.99799,-6.38866 1.4509,-2.19479 3.08714,-5.23977 3.08714,-5.74505 0,-0.39673 -3.25989,-0.32906 -5.335,0.11075 -2.58447,0.54777 -3.24044,0.96391 -3.64372,2.31152 -0.75261,2.51488 -2.66741,5.72602 -4.76863,7.99701 -1.47954,1.59908 -4.57493,3.66242 -6.42993,4.28608 -1.272733,0.42791 -1.332091,0.48291 -0.724803,0.67159 0.804403,0.24993 3.855693,0.0597 5.525713,-0.34455 z m -8.915483,-2.14347 c 2.662466,-1.70316 4.812153,-4.69229 5.490423,-7.63438 0.45523,-1.97468 0.33531,-6.01873 -0.24698,-8.32862 -1.07953,-4.28238 -7.166136,-14.88268 -8.100334,-14.10736 -0.715661,0.59395 -4.104709,5.82556 -5.267915,8.132 -4.589376,9.09991 -3.836942,16.83871 2.071442,21.30481 2.692249,2.03505 3.697918,2.14031 6.053364,0.63355 z m 8.410663,-3.01133 c 3.71291,-3.43749 5.8041,-8.12286 6.71475,-15.04452 0.22974,-1.74625 0.46613,-4.05007 0.52531,-5.11961 l 0.10758,-1.94462 -0.76513,0.15303 c -2.09234,0.41847 -6.94396,2.92581 -8.59519,4.44203 l -0.56367,0.51758 0.50701,1.33433 c 0.84538,2.22487 1.3214,4.98081 1.31768,7.62872 -0.006,4.04002 -1.11096,7.25091 -3.35517,9.74702 -0.64826,0.72102 -1.178647,1.38424 -1.178647,1.47383 0,0.45763 3.867337,-1.87485 5.285477,-3.18779 z m -17.507971,2.08725 c -3.878366,-4.03867 -4.898981,-10.5882 -2.679655,-17.19596 0.760777,-2.26513 0.958567,-1.89871 -2.136117,-3.95723 -1.859938,-1.2372 -5.711013,-2.97644 -6.609879,-2.98519 -0.466105,-0.005 -0.485759,0.16428 -0.315168,2.70713 0.76574,11.41426 4.171142,18.38919 10.601856,21.71469 1.885669,0.97513 2.258479,0.88235 1.138963,-0.28344 z m -0.266531,-22.69947 c 0.641828,-1.30156 0.790183,-1.84996 0.597734,-2.20955 -0.425685,-0.7954 -3.50965,-3.51967 -3.721329,-3.28729 -0.256844,0.28196 -0.98364,2.59733 -1.197363,3.81447 -0.162587,0.92594 -0.121263,0.98539 1.508387,2.17034 0.921556,0.67008 1.739298,1.22394 1.817205,1.2308 0.07791,0.007 0.525822,-0.76659 0.995366,-1.71877 z m 17.888802,-1.41375 c -0.50138,-2.33601 -1.21257,-4.26678 -1.50758,-4.09281 -0.75786,0.4469 -3.09077,2.55647 -3.474095,3.1415 -0.396702,0.60544 -0.36961,0.72673 0.526505,2.35702 l 0.94474,1.71873 1.82942,-1.21649 c 1.63805,-1.08923 1.8139,-1.28882 1.68101,-1.90795 z m -24.132276,89.61082 c -0.174625,-0.17462 -0.3175,-0.47512 -0.3175,-0.66777 0,-0.73524 7.581451,-7.74598 8.376546,-7.74598 0.33339,0 0.88387,0.79329 0.88387,1.27374 0,0.1376 -0.625078,0.72617 -1.389062,1.30794 -0.763984,0.58176 -2.579008,2.20341 -4.033386,3.60366 -1.454378,1.40025 -2.770019,2.54591 -2.923646,2.54591 -0.153627,0 -0.422197,-0.14287 -0.596822,-0.3175 z m 38.973126,-8.33255 c -0.43657,-0.0573 -4.42516,-0.58677 -8.86354,-1.17671 -8.41466,-1.11844 -11.783383,-1.30926 -13.712386,-0.77672 -1.319842,0.36436 -1.977849,0.0495 -1.844656,-0.88274 0.206013,-1.44188 4.839972,-1.54506 14.009972,-0.31193 3.68854,0.49601 8.45821,1.10431 10.59927,1.35178 6.33353,0.73204 7.073,0.49741 15.95092,-5.06106 7.73159,-4.84075 11.54221,-7.90929 19.45875,-15.66934 3.63866,-3.56673 4.49741,-4.5459 4.49233,-5.12228 -0.009,-1.00392 -0.89588,-1.53636 -2.55948,-1.53636 -1.78942,0 -4.06615,1.16803 -7.33666,3.76393 -7.19831,5.71351 -9.93192,7.45329 -13.4301,8.54747 l -1.49183,0.46662 -0.11835,1.42717 c -0.1368,1.6497 -0.75829,2.64706 -2.07618,3.33184 -0.82771,0.43008 -1.84646,0.47034 -11.62285,0.45931 -5.8936,-0.007 -11.19188,0.0194 -11.77396,0.0578 -0.91234,0.0602 -1.06968,-0.01 -1.14054,-0.50756 -0.17139,-1.20391 0.3742,-1.26569 12.42417,-1.40697 10.62135,-0.12453 11.31629,-0.16187 11.8401,-0.63632 1.16793,-1.05786 0.41617,-3.43295 -1.48865,-4.70314 -1.43874,-0.95941 -4.06928,-1.56023 -8.00904,-1.82929 -4.56604,-0.31183 -5.91134,-0.62211 -10.20672,-2.35411 -5.36848,-2.16468 -7.0059,-2.51753 -11.62141,-2.50431 -3.58521,0.0103 -4.173297,0.0799 -6.085412,0.72099 -2.169054,0.72718 -4.89928,2.23486 -7.624687,4.21049 -1.259547,0.91304 -1.583361,1.04612 -1.781886,0.73232 -0.620838,-0.98136 -0.275893,-1.49909 2.064386,-3.09848 5.104963,-3.48881 7.959285,-4.42903 13.427599,-4.42312 4.764,0.005 6.38983,0.37541 12.85178,2.92675 2.88723,1.13994 4.08036,1.46973 6.08542,1.68204 1.37173,0.14525 3.66555,0.38897 5.09737,0.54161 1.43182,0.15263 3.25576,0.49777 4.05318,0.76698 l 1.44987,0.48948 1.50307,-1.11671 c 1.47518,-1.096 2.98706,-2.63088 6.38104,-6.47814 2.35407,-2.66848 4.54395,-3.543 6.35753,-2.53886 0.58932,0.32629 0.75504,0.29242 1.71979,-0.35158 1.60041,-1.06832 2.41175,-1.35118 3.87559,-1.35118 1.52501,0 2.24638,0.29767 3.06059,1.26295 0.54221,0.6428 0.63953,0.66516 1.6182,0.37195 3.71257,-1.11232 6.90887,0.9219 6.26542,3.98749 -0.20209,0.96284 -5.26001,6.10475 -11.37093,11.55977 -4.62947,4.13257 -7.04209,5.92881 -12.82896,9.5514 -8.83076,5.52806 -9.57206,5.83344 -14.00812,5.77054 -1.53794,-0.0218 -3.15344,-0.0865 -3.59,-0.14374 z m 17.0073,-18.77366 c 3.15044,-1.26037 5.54108,-2.81812 10.50936,-6.84792 1.45521,-1.18033 3.21138,-2.53029 3.90261,-2.99992 1.4142,-0.96083 1.54905,-1.37635 0.60978,-1.87903 -1.73337,-0.92767 -3.80316,0.30752 -9.26209,5.52734 -2.14333,2.04945 -4.76788,4.2916 -5.83235,4.98257 -1.06446,0.69096 -2.15506,1.39813 -2.42354,1.57147 -0.95179,0.61451 0.63866,0.38863 2.49623,-0.35451 z m -2.05231,-1.83913 c 3.37494,-2.21808 9.60883,-8.06611 9.11256,-8.54851 -0.6421,-0.62417 -1.86933,0.0758 -3.82693,2.18268 -1.09141,1.17465 -3.1495,3.30179 -4.57355,4.72699 -1.42404,1.4252 -2.49289,2.59127 -2.37521,2.59127 0.11767,0 0.86608,-0.42859 1.66313,-0.95243 z m -65.027386,13.21254 c -0.181901,-0.0734 -0.330729,-0.40736 -0.330729,-0.74223 0,-0.48094 1.010247,-1.3657 4.808586,-4.21129 2.644723,-1.98133 5.012086,-3.60243 5.260808,-3.60243 0.63646,0 0.815991,0.96188 0.290984,1.55901 -0.526372,0.59869 -8.909978,6.88555 -9.373878,7.02948 -0.178773,0.0555 -0.47387,0.0408 -0.655771,-0.0325 z m -7.494496,-5.8317 C 51.975363,167.98785 46.583218,152.95458 47.638122,138.19344 49.873143,106.91909 77.798074,83.80362 108.9685,87.425883 c 24.37208,2.832239 43.91406,21.236517 48.0584,45.260517 1.02863,5.9628 0.97217,13.82912 -0.13943,19.42695 -0.65049,3.27576 -0.88155,3.78712 -1.6611,3.67614 -0.72633,-0.1034 -0.73823,-0.88988 -0.0693,-4.58012 0.26378,-1.4552 0.55503,-4.13411 0.64721,-5.95312 0.65394,-12.90354 -2.54475,-23.88392 -10.05816,-34.52744 -2.02844,-2.87348 -7.74311,-8.70296 -10.72573,-10.94121 -9.34415,-7.012136 -20.86348,-10.887597 -32.36204,-10.887597 -23.961431,0 -45.187738,16.177547 -51.443603,39.207537 -1.763671,6.49268 -2.304657,14.80337 -1.368864,21.02866 1.60202,10.65732 6.397406,20.60357 13.59753,28.20303 1.427645,1.50683 1.922498,2.2105 1.860653,2.64583 -0.174876,1.23096 -1.084368,0.85153 -3.146978,-1.3129 z M 146.65338,144.5339 c 0.77549,-15.74602 -6.3715,-29.86774 -19.5989,-38.72545 -5.98073,-4.00498 -13.6557,-6.742765 -20.31747,-7.247559 -4.41355,-0.334435 -4.8583,-0.498271 -4.42411,-1.629742 0.14764,-0.384736 0.54003,-0.415256 3.36513,-0.261737 11.73024,0.63743 23.50615,6.400958 31.42742,15.381628 7.84637,8.89576 12.14714,21.00411 11.41826,32.14688 -0.19178,2.93177 -0.38839,3.43958 -1.33171,3.43958 h -0.69147 z"
       id="path1" /></g></svg>
