<?xml version="1.0" encoding="UTF-8" standalone="no"?>
<!-- Created with Inkscape (http://www.inkscape.org/) -->

<svg
   width="138.48851mm"
   height="83.12471mm"
   viewBox="0 0 138.48851 83.12471"
   version="1.1"
   id="svg1"
   xml:space="preserve"
   xmlns:inkscape="http://www.inkscape.org/namespaces/inkscape"
   xmlns:sodipodi="http://sodipodi.sourceforge.net/DTD/sodipodi-0.dtd"
   xmlns="http://www.w3.org/2000/svg"
   xmlns:svg="http://www.w3.org/2000/svg"><sodipodi:namedview
     id="namedview1"
     pagecolor="#ffffff"
     bordercolor="#111111"
     borderopacity="1"
     inkscape:showpageshadow="0"
     inkscape:pageopacity="0"
     inkscape:pagecheckerboard="1"
     inkscape:deskcolor="#d1d1d1"
     inkscape:document-units="mm"><inkscape:page
       x="0"
       y="0"
       width="138.48851"
       height="83.12471"
       id="page2"
       margin="0"
       bleed="0" /></sodipodi:namedview><defs
     id="defs1" /><g
     inkscape:label="Layer 1"
     inkscape:groupmode="layer"
     id="layer1"
     transform="translate(-49.803213,-101.50598)"><path
       style="fill:#000000"
       d="m 133.67694,184.451 c -1.01781,-0.14038 -3.13117,-0.55023 -4.69636,-0.91079 -1.56518,-0.36055 -4.17469,-0.96144 -5.7989,-1.33529 -5.57051,-1.2822 -10.6987,-1.25365 -23.10835,0.12863 -21.758417,2.42362 -33.612777,2.73469 -39.881499,1.04653 -5.092509,-1.3714 -8.755005,-5.12713 -10.029696,-10.28501 -0.535896,-2.16844 -0.458214,-7.84613 0.142992,-10.45104 1.804959,-7.82055 6.118052,-15.24544 13.564702,-23.35132 6.498735,-7.07405 16.741124,-13.6765 25.620172,-16.51529 4.267208,-1.36429 7.068082,-1.8419 11.685359,-1.99261 4.88905,-0.15957 7.37986,0.0557 13.15468,1.13672 3.38311,0.63332 9.16208,0.88887 9.85146,0.43564 0.16261,-0.10691 0.50071,-0.90876 0.75133,-1.78189 1.08392,-3.77623 3.72506,-7.32831 6.49118,-8.73001 1.42254,-0.72085 4.14093,-1.44625 5.44329,-1.45253 l 0.81063,-0.004 -0.11549,-1.59662 c -0.40546,-5.6054 5.65555,-9.094812 10.95134,-6.30485 3.96826,2.09057 5.19691,7.58006 2.36069,10.54731 l -0.63225,0.66146 1.58143,1.56902 c 3.03083,3.00705 4.38002,7.00575 4.11275,12.18931 -0.23398,4.5379 -1.28212,7.64977 -3.37894,10.03189 -0.59791,0.67926 -1.5191,1.45577 -2.04708,1.72557 -0.52798,0.2698 -1.58336,0.91049 -2.34529,1.42374 -1.48087,0.99755 -3.94799,2.0249 -4.90845,2.04395 -1.34849,0.0268 -2.6439,0.77388 -4.06545,2.34474 -0.86621,0.9572 -1.67576,1.6124 -1.99224,1.6124 -0.29321,0 -0.87336,-0.36424 -1.28922,-0.80943 -0.72893,-0.78032 -0.8473,-0.81215 -3.29151,-0.88518 l -2.53538,-0.0757 0.73795,0.8117 c 4.30667,4.73705 7.64785,7.7613 9.56474,8.65747 6.21882,2.90739 8.77169,4.33956 14.59916,8.19021 11.53089,7.61933 13.08011,8.38147 16.16757,7.95361 2.14431,-0.29715 3.22157,-1.04188 5.72608,-3.95854 2.89364,-3.36982 3.84041,-5.32247 4.71437,-9.72311 0.54744,-2.75655 1.23995,-3.91037 2.4159,-4.02527 0.46158,-0.0451 1.09412,0.0544 1.40565,0.22114 0.81553,0.43646 1.80276,2.78752 2.41642,5.75463 0.783,3.78587 0.58116,6.92449 -0.70142,10.90727 -0.53892,1.67349 -1.04379,3.70719 -1.12194,4.51934 -0.12937,1.34451 -0.0786,1.54015 0.56773,2.18645 0.64022,0.64022 0.69199,0.8327 0.52804,1.96295 -0.1,0.68922 -0.29991,1.48037 -0.4443,1.75811 -0.48748,0.93767 -1.83075,2.23198 -3.4666,3.34025 -1.6093,1.09027 -1.64757,1.10083 -3.47928,0.95971 -1.01864,-0.0785 -2.86411,-0.45467 -4.10104,-0.83596 -4.17907,-1.28824 -8.42213,-1.21321 -24.34166,0.43043 -5.89752,0.60889 -14.8643,0.8506 -17.59327,0.47423 z m 19.54189,-1.98246 c 5.69498,-0.51991 10.44044,-1.02852 10.54548,-1.13025 0.10504,-0.10173 0.27072,-1.04299 0.36819,-2.09169 l 0.17721,-1.90671 -1.8234,-0.82678 c -3.39225,-1.53815 -12.39907,-4.92385 -13.59735,-5.11131 -4.18402,-0.65454 -8.67381,-1.27097 -12.66084,-1.73831 -5.81144,-0.68117 -7.33148,-1.03346 -11.44123,-2.65167 -2.95434,-1.16325 -3.74492,-1.35782 -6.97044,-1.71544 -2.00099,-0.22185 -5.32917,-0.81102 -7.39595,-1.30927 -11.515098,-2.77598 -23.745661,-4.13786 -33.498207,-3.73003 -2.546614,0.10649 -5.046926,0.21087 -5.556249,0.23195 -0.643918,0.0267 -0.926042,-0.0768 -0.926042,-0.33951 0,-0.50239 1.112872,-0.78039 3.836458,-0.95836 1.236927,-0.0808 2.665677,-0.21128 3.175,-0.28989 0.90189,-0.13921 0.867387,-0.16678 -1.322917,-1.05718 -2.880509,-1.17097 -7.550472,-2.60121 -11.1955,-3.42875 -2.955301,-0.67095 -9.131724,-1.46414 -9.542605,-1.22547 -0.128095,0.0744 -0.685266,1.10093 -1.238158,2.28118 -4.319397,9.22049 -4.145793,18.27948 0.444343,23.1867 1.364244,1.45849 4.02187,2.94058 6.349906,3.54118 5.817626,1.50087 18.003257,1.12623 38.994513,-1.19887 7.322678,-0.81109 10.744648,-1.07312 14.155208,-1.0839 4.86472,-0.0154 5.71515,0.0992 12.30312,1.65795 9.26452,2.19197 11.71219,2.2736 26.81946,0.89443 z m 27.42012,0.41446 c -0.3638,-0.12346 -1.34606,-0.41504 -2.18281,-0.64796 -0.9713,-0.27038 -1.52135,-0.56432 -1.52135,-0.81299 0,-0.48987 0.3873,-0.48862 2.29164,0.007 1.89318,0.49311 3.80239,0.51008 4.44591,0.0395 0.43386,-0.31724 0.29851,-0.37348 -1.2062,-0.50119 -1.96886,-0.16711 -4.66555,-1.00537 -4.47302,-1.39043 0.17406,-0.34811 0.99866,-0.29242 3.61718,0.24427 2.37382,0.48655 3.8592,0.31631 4.00859,-0.45942 0.0702,-0.36425 -0.12874,-0.44631 -1.08175,-0.44631 -1.303,0 -5.19022,-0.92162 -5.59516,-1.32655 -0.63538,-0.63539 0.3216,-0.73477 2.35843,-0.24494 2.47806,0.59594 4.73177,0.68602 4.56436,0.18243 -0.0605,-0.1819 -1.55146,-0.81615 -3.31331,-1.40944 -3.29147,-1.10838 -5.47143,-2.28166 -5.27473,-2.83892 0.0737,-0.20891 0.63886,-0.28907 1.67068,-0.23696 1.8287,0.0923 3.44781,-0.15239 3.11507,-0.47084 -0.28257,-0.27043 -4.31865,-1.02802 -5.78915,-1.08665 -0.58208,-0.0232 -2.66568,0.0454 -4.63021,0.15235 l -3.57187,0.19454 -2.91042,-1.46799 c -1.60073,-0.8074 -6.18463,-3.62865 -10.18646,-6.26945 -5.68427,-3.75105 -8.38095,-5.3423 -12.32663,-7.2737 l -5.0506,-2.47224 -3.30205,-3.26009 c -4.33105,-4.27601 -8.36341,-8.74667 -12.00891,-13.31425 -1.62602,-2.03729 -4.19347,-4.90257 -5.70545,-6.36729 -1.51199,-1.46472 -2.95731,-2.97525 -3.21184,-3.35674 -0.62859,-0.94214 -3.38484,-2.23196 -5.547,-2.59578 -4.91024,-0.82623 -10.535333,1.9694 -12.544226,6.23439 -2.187227,4.64361 1.320808,9.82248 7.534076,11.12246 1.69219,0.35405 4.68066,0.26849 4.9339,-0.14126 0.0634,-0.10257 -0.59566,-0.59124 -1.46456,-1.08593 -3.1485,-1.79253 -3.23955,-1.8568 -2.98757,-2.10877 0.83572,-0.83573 6.32609,2.40252 11.10781,6.55143 8.88845,7.71217 11.88246,10.26764 14.24701,12.16023 8.81855,7.05838 9.36503,7.34118 28.83958,14.92454 5.7945,2.25638 9.23059,3.93075 11.1125,5.41504 2.98661,2.35557 8.62558,4.60357 11.50938,4.58826 0.99951,-0.005 1.08445,-0.0423 0.52916,-0.23078 z m -10.44805,-1.71814 c -0.23911,-0.14552 -1.2901,-0.88722 -2.33553,-1.64823 -1.04544,-0.76101 -2.04962,-1.38608 -2.23152,-1.38906 -0.213,-0.003 -0.33201,0.39487 -0.33434,1.11906 -0.002,0.61847 -0.0676,1.36261 -0.14585,1.65365 -0.13572,0.5049 -0.0133,0.52917 2.66987,0.52917 1.98819,0 2.68474,-0.0775 2.37737,-0.26459 z m 14.48646,-7.08074 c 0.079,-0.76572 0.58601,-2.81955 1.12662,-4.56407 1.14607,-3.6983 1.41921,-6.53423 0.92485,-9.6026 -0.72122,-4.47649 -1.85724,-6.69724 -2.92954,-5.72681 -0.24276,0.21969 -0.64667,1.37814 -0.89758,2.57433 -1.1373,5.42201 -2.27569,7.66465 -5.85075,11.52604 -1.73903,1.87832 -1.74689,1.89364 -0.97154,1.89364 1.26318,0 6.22684,1.07217 6.87464,1.48495 0.32742,0.20864 0.59531,0.60608 0.59531,0.8832 0,0.65945 -1.21373,1.6006 -2.06415,1.6006 -0.36843,0 -0.59507,0.0748 -0.50364,0.16624 0.19218,0.19219 2.82131,1.11052 3.25838,1.13813 0.16365,0.0103 0.35734,-0.59796 0.4374,-1.37365 z m -41.08007,-5.01224 c -4.78754,-2.04986 -8.34262,-4.10204 -12.03854,-6.94927 -4.21363,-3.24607 -10.91598,-8.85018 -16.1168,-13.47594 -1.73373,-1.54203 -3.2371,-2.80368 -3.34084,-2.80368 -0.10374,0 -0.88016,1.16086 -1.72537,2.57969 -1.96178,3.29318 -3.97594,5.3457 -5.98252,6.09645 -3.2014,1.1978 -6.028304,1.01141 -9.797997,-0.64603 -1.306596,-0.57448 -2.556484,-0.94192 -3.174963,-0.93339 -1.972794,0.0272 -6.047971,1.5705 -7.812796,2.95871 -0.749991,0.58994 -2.312677,2.60734 -2.14756,2.77246 0.0569,0.0569 2.221366,0.22962 4.809934,0.38383 8.254281,0.49174 15.524882,1.55826 23.572932,3.45788 2.46277,0.5813 5.5584,1.1784 6.87916,1.32688 4.32788,0.48655 5.56625,0.76802 8.50009,1.93199 3.86382,1.53291 5.62859,1.9355 12.31664,2.80974 6.58307,0.86051 7.00154,0.8944 6.05863,0.49068 z M 80.63203,157.47374 c 0.688489,-1.34955 2.269842,-2.89404 3.787381,-3.6991 l 1.173507,-0.62254 -1.599895,-1.85889 c -3.375155,-3.92152 -6.649536,-9.93946 -8.620925,-15.84427 -0.572541,-1.71491 -1.142577,-3.12163 -1.266748,-3.12606 -0.775741,-0.0276 -6.776979,5.18897 -9.778233,8.49978 -3.111398,3.43231 -8.562647,10.67362 -8.261666,10.9746 0.04972,0.0497 1.339805,0.22566 2.866852,0.39098 3.591413,0.38881 7.336361,1.16096 10.99714,2.26743 3.538613,1.06955 8.153867,2.83593 9.241809,3.53708 0.436562,0.28136 0.821095,0.52026 0.854518,0.5309 0.03342,0.0106 0.30624,-0.46182 0.60626,-1.04991 z m 22.06012,-3.82962 c 2.73389,-0.71209 4.21899,-2.12091 7.09396,-6.72961 l 1.24611,-1.99756 -0.64483,-0.64948 c -0.62259,-0.62708 -0.69808,-0.63849 -2.18808,-0.33073 -4.54613,0.93898 -9.194206,-0.31809 -12.166582,-3.29047 -1.932759,-1.93276 -2.544633,-3.37776 -2.561002,-6.04807 -0.01116,-1.82 0.09587,-2.33917 0.763607,-3.70417 1.968245,-4.02351 6.734047,-6.75168 11.780567,-6.74373 3.20622,0.005 5.64148,0.82429 7.70936,2.59348 l 1.1399,0.97525 -0.51675,-0.89036 c -0.72567,-1.25035 -2.90375,-3.10515 -4.58485,-3.90436 -3.79104,-1.80229 -14.106434,-1.01893 -21.327644,1.61964 -4.249088,1.55258 -10.398804,4.67947 -12.385855,6.29772 l -0.714063,0.58153 1.200876,3.57187 c 2.088083,6.21078 5.393103,12.18841 8.759809,15.84346 l 1.555066,1.68824 2.229396,-0.56376 c 1.226168,-0.31008 2.459633,-0.56377 2.741033,-0.56377 0.281401,0 1.427715,0.41362 2.547364,0.91915 3.77397,1.704 5.695308,2.01005 8.322608,1.32573 z m 36.22205,-10.02405 c 1.59929,-1.65133 1.69512,-1.70532 3.82547,-2.15543 2.23914,-0.4731 5.24334,-1.80777 5.70053,-2.53258 0.45533,-0.72184 -0.52035,-1.69896 -3.02425,-3.02869 -1.84862,-0.98174 -2.7744,-1.68722 -4.05423,-3.08951 -1.36108,-1.49129 -1.98257,-1.94849 -3.46494,-2.54896 -2.42842,-0.98369 -2.55001,-1.24455 -1.20635,-2.58821 1.34651,-1.34651 1.462,-2.40068 0.35842,-3.27155 -1.90355,-1.50215 -5.62239,0.72849 -5.62239,3.37242 0,0.72145 -0.0944,0.88774 -0.46302,0.81527 -0.3629,-0.0714 -0.46302,-0.36173 -0.46302,-1.34275 0,-0.79784 -0.1152,-1.25154 -0.31771,-1.25127 -1.09683,10e-4 -3.17818,-0.69819 -4.24953,-1.42852 -1.24482,-0.84858 -1.27221,-0.85378 -3.91222,-0.74251 -2.36584,0.0997 -7.52492,-0.41167 -9.24763,-0.91666 -0.32557,-0.0954 0.0931,0.49629 1.08808,1.53799 1.6201,1.69608 2.39915,2.94064 2.996,4.7862 0.20482,0.63332 1.10783,1.78463 2.5195,3.21229 l 2.20027,2.22517 1.60681,0.0226 1.60681,0.0226 0.80429,-1.68525 c 0.75174,-1.57513 1.41047,-2.25939 1.70942,-1.77567 0.0706,0.11421 -0.18521,0.97221 -0.56844,1.90667 -0.52119,1.27085 -0.72555,2.30466 -0.81095,4.10226 -0.1308,2.7533 0.0786,3.34991 1.74096,4.95905 1.25195,1.21191 2.26133,1.48642 5.49681,1.49494 2.31532,0.006 2.42409,0.0336 3.15836,0.80006 0.41825,0.43657 0.80369,0.79375 0.85652,0.79375 0.0528,0 0.83423,-0.76219 1.73643,-1.69375 z m -14.36691,-6.34659 c 0,-1.12386 -0.0306,-1.16693 -0.95308,-1.33998 -0.52419,-0.0983 -0.99195,-0.13993 -1.03945,-0.0924 -0.10573,0.10573 1.68114,2.59358 1.86281,2.59358 0.0713,0 0.12972,-0.52253 0.12972,-1.16118 z m 26.61462,-0.0711 c 1.25731,-1.25732 2.61955,-4.19303 3.1369,-6.76023 1.13615,-5.63782 -0.21036,-11.2274 -3.47381,-14.42039 -2.98384,-2.91943 -5.98049,-4.05102 -11.23834,-4.24382 -3.14822,-0.11543 -3.8474,-0.0615 -5.42749,0.41841 -3.93471,1.19513 -6.54608,4.08922 -7.9627,8.8248 l -0.52913,1.76881 0.56445,0.51535 c 0.74807,0.68298 1.89332,1.24594 3.31011,1.62711 1.11341,0.29954 1.19008,0.28131 1.98438,-0.47181 2.55725,-2.4247 5.94238,-2.41703 7.13134,0.0162 0.6058,1.23977 0.40998,2.29721 -0.64868,3.50297 l -0.77518,0.88288 1.39583,0.45888 c 1.10036,0.36176 1.82206,0.88849 3.40943,2.48837 1.44884,1.46025 2.61152,2.34054 4.1454,3.13855 1.92921,1.00369 3.49829,2.33911 3.49829,2.97735 0,0.48502 0.52996,0.22585 1.4792,-0.72339 z m -0.95259,-2.78702 c -0.001,-0.19049 0.13698,-1.47744 0.30751,-2.85989 0.26397,-2.13989 0.24411,-2.903 -0.13362,-5.13345 -0.24402,-1.44095 -0.39032,-2.67326 -0.32511,-2.73847 0.2945,-0.2945 0.71195,0.34483 1.13211,1.73382 0.62168,2.05518 0.61475,5.82372 -0.0141,7.65634 -0.4627,1.34849 -0.96167,2.04089 -0.96682,1.34165 z m -3.69576,-2.11479 c -0.78653,-0.83603 -2.52043,-4.4963 -3.04768,-6.43364 -0.54181,-1.99084 -0.85698,-7.65369 -0.4403,-7.91121 0.34207,-0.21141 0.41928,0.13077 0.8035,3.56102 0.32404,2.89298 0.96331,5.14945 2.45814,8.67657 0.57674,1.36087 0.99333,2.5296 0.92574,2.59718 -0.0676,0.0676 -0.38231,-0.15288 -0.6994,-0.48992 z m -17.1321,-11.32393 c 0.30011,-2.23749 2.2018,-5.00067 4.40176,-6.39585 1.15266,-0.73099 2.40574,-0.99818 2.40574,-0.51296 0,0.13169 -0.522,0.54535 -1.16,0.91924 -1.57969,0.92577 -3.31953,2.92546 -4.50029,5.17246 -0.54073,1.02902 -1.05187,1.87094 -1.13585,1.87094 -0.084,0 -0.0891,-0.47422 -0.0114,-1.05383 z m 21.29516,-9.92638 c 0.60104,-1.15105 0.53187,-3.47192 -0.14268,-4.78755 -1.59568,-3.11217 -5.59267,-4.38358 -8.73736,-2.77928 -2.05228,1.047 -3.07634,2.96156 -2.91517,5.45017 l 0.0857,1.32291 1.98438,0.19539 c 2.25303,0.22185 5.11436,1.02287 6.87506,1.92465 l 1.19473,0.6119 0.62045,-0.57222 c 0.34125,-0.31472 0.80696,-0.9294 1.03492,-1.36597 z m -8.91038,-1.68094 c -1.63523,-0.30923 -1.22,-0.74558 0.85912,-0.90283 2.17817,-0.16473 4.30021,-0.95076 5.22535,-1.93553 1.19124,-1.26801 1.4756,-0.40669 0.31938,0.9674 -1.22996,1.46173 -4.11326,2.30412 -6.40385,1.87096 z"
       id="path1" /></g></svg>
