<?xml version="1.0" encoding="UTF-8" standalone="no"?>
<!-- Created with Inkscape (http://www.inkscape.org/) -->

<svg
   width="108.23467mm"
   height="132.5007mm"
   viewBox="0 0 108.23467 132.5007"
   version="1.1"
   id="svg1"
   xml:space="preserve"
   xmlns:inkscape="http://www.inkscape.org/namespaces/inkscape"
   xmlns:sodipodi="http://sodipodi.sourceforge.net/DTD/sodipodi-0.dtd"
   xmlns="http://www.w3.org/2000/svg"
   xmlns:svg="http://www.w3.org/2000/svg"><sodipodi:namedview
     id="namedview1"
     pagecolor="#ffffff"
     bordercolor="#111111"
     borderopacity="1"
     inkscape:showpageshadow="0"
     inkscape:pageopacity="0"
     inkscape:pagecheckerboard="1"
     inkscape:deskcolor="#d1d1d1"
     inkscape:document-units="mm"><inkscape:page
       x="0"
       y="0"
       width="108.23467"
       height="132.5007"
       id="page2"
       margin="0"
       bleed="0" /></sodipodi:namedview><defs
     id="defs1" /><g
     inkscape:label="Layer 1"
     inkscape:groupmode="layer"
     id="layer1"
     transform="translate(-59.527784,-85.2322)"><path
       style="fill:#000000"
       d="m 79.375001,212.63817 c -5.457031,-2.79151 -12.124531,-6.2059 -14.816666,-7.58755 l -4.894791,-2.51208 -0.06788,-19.07835 -0.06788,-19.07835 6.682459,-1.87921 c 3.675351,-1.03356 7.843317,-2.19733 9.262145,-2.58615 1.418828,-0.38883 2.579687,-0.79483 2.579687,-0.90224 0,-0.20207 -3.535308,-6.50691 -11.015199,-19.64443 -2.381848,-4.18342 -4.330633,-7.70894 -4.330633,-7.83449 0,-0.12554 0.713168,-0.60837 1.584819,-1.07296 l 1.584819,-0.8447 -0.657857,-1.29822 -0.657856,-1.29821 1.123558,-0.65274 c 0.617957,-0.35901 1.45098,-0.79961 1.851162,-0.97913 0.872712,-0.39147 0.881952,-0.48914 0.177001,-1.87096 -0.302832,-0.5936 -0.45166,-1.17163 -0.330729,-1.2845 0.120931,-0.11288 2.89878,-1.48199 6.172999,-3.04246 3.274219,-1.56048 5.986221,-2.8662 6.026673,-2.9016 0.04045,-0.0354 -0.04143,-0.36679 -0.181965,-0.73642 -0.321928,-0.84673 -0.02271,-1.1292 2.567687,-2.42397 1.061558,-0.5306 1.993833,-1.1308 2.071722,-1.33378 0.07789,-0.20298 -0.05191,-0.77687 -0.288434,-1.27532 -0.322108,-0.67879 -0.69296,-0.98503 -1.477479,-1.22008 -0.576085,-0.1726 -1.236984,-0.60312 -1.468666,-0.95671 -0.388846,-0.59345 -0.383678,-0.71944 0.06722,-1.63831 1.042505,-2.12453 4.646189,-3.31406 5.984754,-1.9755 0.523623,0.52362 0.543088,0.66224 0.247944,1.76575 -0.442541,1.65461 -0.407107,2.00418 0.291676,2.87744 l 0.609334,0.76148 2.12135,-1.09221 c 2.020037,-1.04005 2.997284,-1.32967 3.015768,-0.89377 0.0046,0.10914 0.16704,0.40742 0.360916,0.66285 0.326613,0.43031 0.775744,0.25987 6.115473,-2.32073 3.169638,-1.53183 5.791138,-2.75285 5.825558,-2.71337 0.0344,0.0395 0.4636,0.86778 0.95372,1.84068 l 0.89113,1.7689 1.71979,-1.1454 c 0.94589,-0.62997 2.29503,-1.33856 2.9981,-1.57464 0.70307,-0.23608 4.5282,-0.84264 8.50028,-1.3479 10.69707,-1.36072 12.99003,-1.91815 18.03966,-4.385567 3.24497,-1.585598 10.29838,-6.105615 17.23694,-11.04591 3.64687,-2.596593 4.45303,-3.049549 4.22846,-2.375803 -0.1243,0.372923 -5.66463,4.316621 -11.9774,8.525716 -10.65788,7.106244 -13.77573,8.230244 -27.5957,9.948424 -3.44903,0.4288 -6.84864,0.91566 -7.55469,1.08192 -1.37098,0.32282 -5.20611,2.71254 -5.18727,3.23226 0.006,0.17137 0.64011,1.79987 1.40868,3.61888 l 1.39739,3.30729 1.59604,0.0778 c 1.22207,0.0596 2.06992,0.31584 3.61841,1.09376 1.99932,1.0044 2.02235,1.00898 2.02235,0.40246 0,-0.85866 -0.46878,-2.00107 -1.09585,-2.67057 -0.52103,-0.55628 -0.29119,-1.1222 0.30588,-0.75318 0.63159,0.39034 1.41728,2.43241 1.42428,3.70183 0.0125,2.26684 -0.82234,3.54021 -5.20388,7.9375 -4.02219,4.03663 -4.9469,5.15642 -6.00849,7.27604 l -0.59632,1.19062 0.76812,-0.7229 c 1.10167,-1.03683 2.21917,-1.1943 3.38075,-0.47641 0.51705,0.31956 0.94192,0.6606 0.94415,0.75787 0.002,0.0973 0.10726,0.33979 0.23342,0.53893 0.17548,0.277 0.74953,-0.0891 2.44334,-1.55835 5.37958,-4.66627 7.46664,-5.85594 14.13508,-8.05731 5.87935,-1.94087 7.49209,-2.8418 10.99777,-6.1437 4.39306,-4.13768 6.55874,-5.43726 14.20266,-8.5227 4.78869,-1.93294 13.27384,-5.05162 13.74461,-5.05177 0.70967,-2.4e-4 0.27603,0.47746 -0.79375,0.87439 -0.61846,0.22948 -3.68707,1.36804 -6.81912,2.53013 -11.29745,4.1917 -14.96511,6.11501 -19.02206,9.97507 -4.33442,4.12407 -5.46096,4.77027 -12.21267,7.00535 -4.33115,1.43378 -6.58152,2.36902 -7.03,2.92164 -0.16671,0.20543 -0.56601,1.26123 -0.88732,2.34621 -0.32131,1.08499 -0.87227,2.62407 -1.22435,3.42019 l -0.64015,1.44749 2.08566,3.85585 c 1.63076,3.01486 5.55696,9.83186 7.14374,12.40358 0.1173,0.1901 4.07431,1.80888 8.79336,3.59729 4.71906,1.78841 9.59213,3.65693 10.82906,4.15228 l 2.24896,0.90062 0.0679,19.22599 0.0679,19.22599 -2.84599,0.93229 c -1.5653,0.51276 -8.14428,2.65576 -14.61995,4.76223 -6.47568,2.10646 -18.75558,6.10234 -27.28868,8.87973 -8.533097,2.7774 -15.617315,5.04116 -15.74271,5.03058 -0.125394,-0.0106 -4.692833,-2.30318 -10.149864,-5.09468 z M 114.3,209.01366 c 10.8413,-3.51512 23.10474,-7.49811 27.25208,-8.85109 l 7.54063,-2.45996 0.0679,-18.70095 c 0.0644,-17.73056 0.0438,-18.69397 -0.39687,-18.56647 -15.37475,4.44837 -22.45426,6.51671 -32.2148,9.41184 -4.51115,1.33807 -12.24352,3.62258 -17.183041,5.07669 -4.939525,1.45411 -9.076947,2.70316 -9.19427,2.77567 -0.117323,0.0725 -0.213315,8.92699 -0.213315,19.67663 v 19.54479 l 2.315104,-0.75801 C 93.546745,215.74589 103.4587,212.52878 114.3,209.01366 Z m -25.142405,-11.83293 -0.007,-19.51302 -14.214364,-6.15417 c -7.817901,-3.38478 -14.303662,-6.15299 -14.412803,-6.15156 -0.10914,0.001 -0.198437,8.26816 -0.198437,18.3705 v 18.36791 l 12.898437,6.61052 c 16.51398,8.46351 15.511964,7.95619 15.742707,7.97052 0.109141,0.007 0.195293,-8.76854 0.191449,-19.5007 z m 9.139421,-22.66272 c 16.867344,-4.95959 20.370924,-6.01836 20.500904,-6.19525 0.0728,-0.099 0.0967,-1.84693 0.0532,-3.88422 l -0.079,-3.70417 -6.93242,3.44321 c -15.675851,7.7859 -20.143973,9.87549 -20.597504,9.63277 -0.317227,-0.16977 -0.866509,0.0216 -1.970755,0.68651 -0.84202,0.50704 -1.618508,0.92189 -1.72553,0.92189 -0.107022,0 -0.544358,-0.62508 -0.971859,-1.38906 -0.427501,-0.76399 -2.276324,-4.06797 -4.108497,-7.34219 -1.832173,-3.27422 -3.485435,-6.1609 -3.673915,-6.41486 -0.383456,-0.51665 0.536703,-0.72923 -11.952815,2.76141 -5.521926,1.5433 -5.756661,1.63512 -5.082743,1.98822 0.388602,0.20361 4.124876,1.8439 8.302833,3.6451 4.177956,1.80119 10.215659,4.4107 13.417117,5.7989 3.201459,1.3882 5.941834,2.5276 6.089725,2.53199 0.14789,0.004 4.076952,-1.11172 8.731249,-2.48025 z m -9.958259,-0.25124 c 0.228983,-0.2759 -0.0024,-0.9295 -1.007088,-2.84427 -2.388042,-4.55139 -20.917422,-40.58176 -21.008177,-40.8504 -0.07929,-0.23469 -2.82349,0.85509 -2.82349,1.12127 0,0.0577 2.179435,3.9367 4.843188,8.61988 2.663754,4.68318 5.980749,10.53894 7.3711,13.01279 1.390351,2.47386 4.075291,7.23635 5.966534,10.58333 1.891242,3.34698 4.014047,7.12722 4.717343,8.40052 0.703297,1.27331 1.360749,2.31511 1.461006,2.31511 0.100256,0 0.316069,-0.1612 0.479584,-0.35823 z m 2.102559,-1.37327 c 0.04736,-0.0398 -1.400516,-3.0895 -3.217499,-6.77718 -3.634732,-7.3769 -6.762151,-14.16319 -13.31082,-28.88355 -3.887428,-8.73832 -5.031533,-11.24095 -5.260496,-11.50686 -0.03953,-0.0459 -0.80292,0.28556 -1.696427,0.7366 l -1.624557,0.82007 1.962617,3.76132 c 1.079439,2.06872 3.362512,6.49975 5.073496,9.84673 1.710984,3.34697 5.876441,11.44322 9.25657,17.99166 3.38013,6.54844 6.462744,12.53378 6.850254,13.30076 0.653653,1.29374 0.747059,1.37241 1.292659,1.08864 0.323453,-0.16823 0.626844,-0.33841 0.674203,-0.37819 z M 113.618,162.44815 c 8.57443,-4.21846 15.64378,-7.72382 15.70966,-7.7897 0.0659,-0.0659 -0.82737,-1.64278 -1.98501,-3.50422 -3.44325,-5.53665 -8.24601,-14.13197 -9.9188,-17.7513 -0.6276,-1.35791 -1.12574,-2.12755 -1.30523,-2.01663 -0.15964,0.0987 -1.49735,1.24789 -2.97267,2.55381 -3.85826,3.41525 -5.05146,3.93272 -6.39785,2.7746 -0.5161,-0.44393 -0.73982,-0.93741 -0.844,-1.86169 -0.1217,-1.07976 -0.003,-1.53931 0.84253,-3.2492 0.76191,-1.54162 1.60612,-2.63037 3.73664,-4.81905 1.51379,-1.55511 2.75371,-2.91273 2.75537,-3.01694 0.002,-0.1042 -0.17379,-0.58045 -0.3899,-1.05833 -0.21611,-0.47788 -1.63111,-3.90497 -3.14444,-7.61575 -1.51333,-3.71078 -3.13332,-7.59873 -3.59997,-8.63988 l -0.84846,-1.89301 -3.87845,1.84372 c -6.192536,2.94378 -7.185753,3.45588 -7.185753,3.70501 0,0.43204 1.902126,4.05077 2.433592,4.62983 0.288594,0.31444 0.484175,0.79069 0.434625,1.05833 -0.08786,0.47455 -2.718058,1.97785 -3.265906,1.86663 -0.145968,-0.0296 -0.622218,0.19846 -1.058333,0.50686 -1.599096,1.13081 -5.188207,2.76959 -5.705866,2.6053 -0.355235,-0.11275 -0.511028,-0.0369 -0.511028,0.2487 0,0.23738 -0.679409,0.75386 -1.608919,1.22307 -1.715011,0.86574 -2.359831,0.77469 -2.359831,-0.33321 0,-0.4934 -2.290013,-4.96927 -2.542454,-4.96927 -0.101222,0 -5.391077,2.46835 -10.461682,4.88162 l -1.494761,0.7114 2.117234,4.67797 c 1.164479,2.57289 2.743685,6.10672 3.509346,7.85297 2.088628,4.76356 5.693844,12.79108 7.486047,16.66875 0.874349,1.89177 2.273877,4.92787 3.110062,6.74688 2.63216,5.72591 6.516406,13.38616 7.337973,14.47144 0.176112,0.23265 1.055837,-0.10077 3.327878,-1.26127 1.698664,-0.86764 10.103926,-5.02899 18.678356,-9.24744 z m 13.91117,3.43602 c 12.39832,-3.58946 19.97737,-5.86826 20.19601,-6.07233 0.23064,-0.21528 -0.56289,-0.5408 -10.00956,-4.10609 -3.20146,-1.20827 -6.45032,-2.44636 -7.21969,-2.7513 -0.76937,-0.30495 -1.46428,-0.55445 -1.54424,-0.55445 -0.08,0 0.21804,0.49419 0.66223,1.09819 0.44419,0.60401 0.74248,1.20359 0.66287,1.33241 -0.0796,0.12881 -2.51633,1.42113 -5.41494,2.87182 l -5.27018,2.6376 v 3.95373 3.95372 l 0.7276,-0.2433 c 0.40018,-0.13382 3.64463,-1.08782 7.2099,-2.12 z m -17.2999,-30.51091 1.27213,-1.15173 -0.46662,-0.71216 c -1.01491,-1.54895 -2.75477,-1.31083 -3.89681,0.53332 -0.62476,1.00885 -0.6381,1.37404 -0.073,1.99846 0.73934,0.81695 1.76287,0.60092 3.16431,-0.66789 z m 9.50218,-4.74246 c 0.40024,-1.13176 0.65718,-2.12828 0.57098,-2.21448 -0.15914,-0.15914 -2.52114,1.46769 -3.0418,2.09505 -0.20914,0.252 -0.10072,0.74888 0.40946,1.87651 0.66788,1.47619 0.70592,1.51061 1.01378,0.9172 0.17593,-0.33909 0.64734,-1.54252 1.04758,-2.67428 z m -4.6231,-8.31806 c 1.14143,-1.30001 2.3671,-3.2514 2.36484,-3.76506 -0.005,-1.19378 -5.84397,-3.42583 -6.43955,-2.46174 -0.15006,0.2429 1.476,4.29947 1.72343,4.29947 0.0973,1e-5 0.4344,-0.41671 0.74918,-0.92603 0.31478,-0.50933 0.74823,-0.92605 0.96323,-0.92605 0.43043,0 0.39346,0.0877 -0.74635,1.77136 -0.74294,1.09739 -0.74635,1.12048 -0.30284,2.05052 0.2467,0.51734 0.53323,0.94062 0.63672,0.94062 0.10349,0 0.5766,-0.44239 1.05134,-0.98309 z m -30.233787,-0.76702 c 0.837739,-0.49094 1.079911,-0.7539 0.834186,-0.90576 -0.417562,-0.25807 -2.359981,0.78329 -2.36296,1.26681 -0.0029,0.46766 0.194069,0.42114 1.528774,-0.36105 z m 0.321271,-2.53368 c 0,-0.83725 -0.759388,-6.08879 -0.900922,-6.23032 -0.07833,-0.0783 -4.094036,1.94129 -4.351795,2.18865 -0.09703,0.0931 2.493614,5.03311 2.943384,5.61261 0.199312,0.2568 0.483393,0.20207 1.282673,-0.24715 0.8137,-0.45733 1.02666,-0.73192 1.02666,-1.32379 z m 4.909789,-0.12328 c 2.436969,-1.20172 3.485829,-2.06328 1.506356,-1.23736 -1.51822,0.63346 -4.564062,2.19538 -4.564062,2.34047 0,0.30987 0.716435,0.0514 3.057706,-1.10311 z m -0.676456,-0.85146 c 1.81901,-0.9245 3.340796,-1.71077 3.381746,-1.74727 0.04095,-0.0365 -1.090144,-1.21843 -2.513542,-2.62651 l -2.587995,-2.56014 -1.274134,0.59333 c -0.700774,0.32634 -1.320155,0.66781 -1.376402,0.75882 -0.05625,0.091 0.07018,1.22785 0.28094,2.52632 0.210764,1.29847 0.38366,2.93633 0.384214,3.63968 5.53e-4,0.70335 0.0903,1.23784 0.199444,1.18775 0.109141,-0.0501 1.686719,-0.84748 3.505729,-1.77198 z m 5.946047,-1.67335 c 1.365595,-0.66346 1.580681,-1.14836 0.405084,-0.91324 -0.992683,0.19854 -2.16109,0.94644 -1.967619,1.25948 0.196174,0.31742 0.1968,0.31728 1.562535,-0.34624 z m -0.795649,-1.18691 c 0.51426,-0.24523 0.935018,-0.54146 0.935018,-0.65828 0,-0.55897 -2.809496,-5.77501 -3.110572,-5.77501 -0.488727,0 -3.427525,1.51428 -3.655884,1.88377 -0.116054,0.18778 0.739787,1.2234 2.191411,2.65175 1.310009,1.28901 2.454548,2.34365 2.543421,2.34365 0.08887,0 0.582346,-0.20065 1.096606,-0.44588 z m -8.579441,-4.05742 c 0.576286,-0.29399 1.047793,-0.64438 1.047793,-0.77862 0,-0.13425 -0.256996,-0.67966 -0.571103,-1.21203 -0.548264,-0.92924 -0.554475,-1.01995 -0.155302,-2.2682 0.367666,-1.14972 0.370333,-1.34571 0.02304,-1.693 -0.864453,-0.86446 -3.419069,-0.0993 -4.575055,1.37028 -0.807152,1.02613 -0.612726,1.68855 0.62041,2.11377 1.388414,0.47877 1.691953,0.77086 2.052842,1.9754 0.169225,0.56482 0.353109,1.02695 0.408633,1.02695 0.05552,0 0.572458,-0.24055 1.148744,-0.53455 z"
       id="path1" /></g></svg>
