<?xml version="1.0" encoding="UTF-8" standalone="no"?>
<!-- Created with Inkscape (http://www.inkscape.org/) -->

<svg
   width="15.85026mm"
   height="13.330824mm"
   viewBox="0 0 15.85026 13.330824"
   version="1.1"
   id="svg1"
   xml:space="preserve"
   inkscape:export-filename="ビットマップ.svg"
   inkscape:export-xdpi="96"
   inkscape:export-ydpi="96"
   xmlns:inkscape="http://www.inkscape.org/namespaces/inkscape"
   xmlns:sodipodi="http://sodipodi.sourceforge.net/DTD/sodipodi-0.dtd"
   xmlns="http://www.w3.org/2000/svg"
   xmlns:svg="http://www.w3.org/2000/svg"><sodipodi:namedview
     id="namedview1"
     pagecolor="#ffffff"
     bordercolor="#111111"
     borderopacity="1"
     inkscape:showpageshadow="0"
     inkscape:pageopacity="0"
     inkscape:pagecheckerboard="1"
     inkscape:deskcolor="#d1d1d1"
     inkscape:document-units="mm"><inkscape:page
       x="0"
       y="0"
       width="15.85026"
       height="13.330824"
       id="page2"
       margin="0"
       bleed="0" /></sodipodi:namedview><defs
     id="defs1" /><g
     inkscape:label="Layer 1"
     inkscape:groupmode="layer"
     id="layer1"
     transform="translate(-77.114342,-23.520803)"><path
       style="fill:#000000;stroke:#000000;stroke-width:0.254;stroke-linecap:round;stroke-linejoin:round;stroke-dasharray:none;stroke-opacity:1"
       d="M 91.748496,36.700803 C 91.54154,36.636513 91.320297,36.480676 91.002199,36.172876 90.739151,35.918207 90.533192,35.779651 89.741325,35.324009 88.672748,34.709437 88.187653,34.365339 87.949369,34.052822 87.777075,33.827099 87.488548,33.304783 86.936973,32.2228 l -0.332385,-0.6523 -0.182489,0.4122 c -0.40781,0.923396 -0.508743,1.336132 -0.44451,1.811538 0.0509,0.358177 0.172294,0.632729 0.597442,1.329274 0.407825,0.666468 0.544446,0.931852 0.505707,0.976931 -0.0509,0.06102 -0.113107,0.0195 -0.170285,-0.114446 -0.03051,-0.07843 -0.225306,-0.412617 -0.426175,-0.743559 -0.201851,-0.330942 -0.414939,-0.713972 -0.472043,-0.851323 -0.309943,-0.728155 -0.248761,-1.264163 0.278347,-2.441665 0.233477,-0.52118 0.244698,-0.55748 0.184528,-0.63313 -0.0509,-0.0631 -0.0509,-0.0918 -0.02039,-0.13379 0.06102,-0.0713 0.09183,-0.0162 0.572976,0.92442 0.646376,1.271888 0.933891,1.773681 1.143317,1.991085 0.259982,0.269045 0.662703,0.538612 1.692853,1.133093 0.487328,0.280683 0.944071,0.576249 1.059187,0.684415 0.349709,0.3281 0.586251,0.52242 0.723884,0.59399 0.251827,0.131264 1.004256,0.05521 1.050347,-0.105665 0.0074,-0.02858 -0.106112,-0.120102 -0.25592,-0.205126 -0.341553,-0.193933 -0.602547,-0.418733 -0.603574,-0.520589 -0.0015,-0.07039 0.02039,-0.07545 0.226348,-0.04881 0.124418,0.01622 0.227345,0.01622 0.227345,1.49e-4 0,-0.01652 -0.145848,-0.109981 -0.324215,-0.208384 -0.262006,-0.144658 -0.383343,-0.185243 -0.637209,-0.211957 -0.193695,-0.02039 -0.373148,-0.06742 -0.466938,-0.123078 C 90.683668,34.980705 90.304403,34.636041 89.773634,34.09804 89.565636,33.886693 89.241436,33.572271 89.053842,33.399232 88.866234,33.226328 88.68373,33.046681 88.64703,32.999995 88.544043,32.867392 88.124014,31.82603 87.7845,30.86709 87.291056,29.47512 87.199276,29.33595 86.539029,28.98205 l -0.411887,-0.22024 -0.267126,0.245 c -0.949205,0.871 -1.791658,1.0421 -2.053873,0.41741 -0.07143,-0.16518 -0.08156,-0.25122 -0.06131,-0.47634 l 0.02039,-0.27465 -0.175346,0.053 c -0.395591,0.12025 -0.591355,0.32583 -0.867649,0.9133 -0.102987,0.21879 -0.308916,0.6572 -0.456743,0.97427 -0.505692,1.07926 -0.772803,1.51867 -1.009346,1.65989 -0.06132,0.0378 -0.471045,0.34318 -0.909439,0.679926 -1.039839,0.80035 -1.108447,0.836232 -1.574284,0.823389 -0.327251,-0.0089 -0.392511,0.003 -0.674921,0.127394 -0.171282,0.07545 -0.300775,0.149926 -0.287515,0.16527 0.01042,0.01563 0.110131,0.02753 0.217151,0.02753 0.11519,0 0.197803,0.02039 0.206985,0.05194 0.02039,0.07039 -0.255919,0.296176 -0.475123,0.389058 -0.424121,0.179453 -0.435342,0.187192 -0.385382,0.25714 0.06132,0.0887 0.502626,0.240307 0.69534,0.239995 0.239593,-3.13e-4 0.400666,-0.06742 0.748336,-0.309139 0.485303,-0.337461 0.565847,-0.379266 1.271887,-0.654949 0.944085,-0.368565 1.598632,-0.692065 1.879003,-0.928593 0.09183,-0.07843 0.708585,-0.915141 0.708585,-0.962851 0,-0.007 -0.04078,-0.14883 -0.09183,-0.31219 -0.138705,-0.42444 -0.174348,-0.68503 -0.128436,-0.92799 0.0509,-0.27049 0.553614,-1.23286 0.626002,-1.20067 0.03051,0.0119 0.0509,0.0378 0.0509,0.0561 0,0.0173 -0.09183,0.20728 -0.213088,0.42098 -0.422097,0.76914 -0.431265,0.85702 -0.186582,1.69228 0.304838,1.041142 0.315033,1.584754 0.06102,3.213137 -0.08141,0.539237 -0.152903,1.024808 -0.152903,1.078995 0,0.05611 -0.03051,0.120102 -0.08156,0.148229 -0.08156,0.04792 -0.08156,0.0439 -0.0509,-0.162219 0.01042,-0.11653 0.08156,-0.592561 0.158037,-1.057683 0.07144,-0.465212 0.147932,-1.029749 0.166178,-1.254594 0.04078,-0.509264 -0.03051,-1.457745 -0.110131,-1.457745 -0.01042,0 -0.144806,0.17015 -0.288526,0.37814 -0.165151,0.238373 -0.342566,0.43811 -0.47816,0.540353 -0.315047,0.236036 -0.9074,0.523328 -1.800409,0.872843 -0.618873,0.242436 -0.854389,0.356837 -1.107331,0.540666 -0.548509,0.397511 -0.54647,0.396708 -0.947137,0.394862 -0.545473,-0.003 -0.921687,-0.202476 -0.853362,-0.452576 0.01042,-0.05 0.150864,-0.141086 0.367032,-0.245085 l 0.345616,-0.165166 -0.124417,-0.04792 c -0.162115,-0.06221 -0.228372,-0.17597 -0.150864,-0.261217 0.03051,-0.03363 0.192698,-0.125757 0.358876,-0.203592 0.275282,-0.128883 0.337461,-0.141086 0.68208,-0.136919 0.325241,0.0045 0.406798,-0.01042 0.578065,-0.09986 0.198815,-0.10507 1.81358,-1.313509 2.045315,-1.530939 0.154942,-0.14526 0.608664,-1.00149 1.05115,-1.98274 0.471031,-1.04682 0.684119,-1.30527 1.183277,-1.44073 0.109089,-0.0296 0.19883,-0.0632 0.19883,-0.0744 0,-0.0104 -0.04078,-0.10671 -0.09183,-0.21187 -0.0509,-0.10968 -0.106112,-0.29016 -0.117125,-0.42281 -0.02039,-0.26955 0.03051,-0.44411 0.254878,-0.84519 0.08156,-0.1457 0.149911,-0.28068 0.149911,-0.29984 0,-0.0195 -0.0509,-0.10417 -0.117125,-0.18862 -0.106112,-0.14019 -0.114149,-0.17149 -0.09183,-0.35408 0.06132,-0.45442 0.330331,-1.03868 0.694312,-1.49624 0.109089,-0.13692 0.195765,-0.28792 0.195765,-0.34013 0,-0.15163 0.140639,-0.42555 0.282395,-0.55014 0.150864,-0.13275 0.388448,-0.18443 0.508758,-0.11043 0.04078,0.0275 0.223297,0.0552 0.394564,0.061 0.282425,0.009 0.340526,0.0275 0.630095,0.19881 0.703465,0.41426 1.090395,0.87956 1.272884,1.53177 0.0509,0.1924 0.07129,0.40252 0.07129,1.06963 0.003,0.96061 0.02039,1.02159 0.387436,1.58597 0.349709,0.53587 0.411903,0.70653 0.411903,1.14138 0,0.30597 -0.02039,0.40833 -0.09183,0.56942 -0.119209,0.26446 -0.251827,0.42056 -0.488354,0.57533 l -0.196762,0.12947 0.08156,0.24784 c 0.205944,0.64263 0.726936,1.954934 0.834997,2.105083 0.03051,0.03661 0.210022,0.215528 0.408837,0.396812 0.197803,0.181268 0.598484,0.569523 0.890062,0.862752 0.769752,0.773622 0.850296,0.829282 1.306742,0.897682 0.287515,0.04271 0.444525,0.09391 0.670873,0.217686 0.478159,0.261709 0.552572,0.405563 0.26915,0.514771 l -0.159035,0.06102 0.330332,0.193725 c 0.24571,0.143765 0.336448,0.220737 0.353772,0.298617 0.03051,0.144509 -0.02039,0.226646 -0.197789,0.297606 -0.179438,0.07233 -0.710609,0.11013 -0.868646,0.06102 z M 87.977825,30.27904 c 0.331343,-0.19493 0.567871,-0.71052 0.517925,-1.13022 -0.03051,-0.26364 -0.124417,-0.47306 -0.420043,-0.94501 -0.383343,-0.61356 -0.41293,-0.72765 -0.403747,-1.61533 0.0045,-0.43841 -0.01042,-0.83153 -0.03051,-0.96052 -0.116232,-0.58104 -0.529147,-1.12245 -1.127021,-1.4786 -0.395577,-0.23531 -0.575015,-0.28874 -0.823776,-0.24509 -0.133644,0.0235 -0.204932,0.0164 -0.259982,-0.0275 -0.143765,-0.11563 -0.319125,-0.0755 -0.479186,0.10924 -0.154942,0.17843 -0.201866,0.34725 -0.08156,0.28741 0.149911,-0.0735 0.450641,-0.15289 0.539341,-0.14153 0.13052,0.0164 0.188606,0.17924 0.255904,0.70726 0.06117,0.49478 0.146742,0.78547 0.311967,1.08597 0.08156,0.15087 0.137663,0.20525 0.202908,0.20525 0.278332,0 0.393538,0.41199 0.182489,0.65463 -0.11519,0.13335 -0.381304,0.2392 -0.496509,0.19729 -0.06132,-0.0225 -0.07144,0.0119 -0.116233,0.27364 -0.02039,0.16466 -0.04078,0.42985 -0.03051,0.5893 0.02039,0.45951 0.199812,0.65495 0.904335,1.0118 0.170255,0.0866 0.382316,0.21482 0.471015,0.28567 0.175376,0.13945 0.395577,0.50864 0.566874,0.94949 0.06102,0.15009 0.120251,0.27284 0.14064,0.27284 0.02039,0 0.102987,-0.0387 0.18045,-0.0857 z m -2.953623,-0.83305 c 0.306891,-0.16915 0.747339,-0.5113 0.884957,-0.68758 0.06132,-0.0805 0.06132,-0.0908 -0.08156,-0.2557 -0.267111,-0.3075 -0.340526,-0.91413 -0.166163,-1.36673 0.03051,-0.0845 0.0509,-0.19473 0.0509,-0.24357 -0.006,-0.0805 0.01042,-0.0887 0.224294,-0.0877 0.207998,0.001 0.241647,-0.0104 0.32423,-0.12099 0.121292,-0.16302 0.12025,-0.32533 -0.003,-0.37948 -0.0509,-0.0223 -0.118315,-0.0305 -0.148824,-0.0173 -0.07144,0.0326 -0.295671,-0.3236 -0.415966,-0.66476 -0.0509,-0.14674 -0.119358,-0.48284 -0.151965,-0.74659 -0.03051,-0.26376 -0.07144,-0.51048 -0.08156,-0.54821 -0.03051,-0.0836 -0.222255,-0.0601 -0.458783,0.057 -0.440447,0.21737 -1.036371,1.18262 -1.097345,1.77627 l -0.02039,0.21779 0.207998,0.19186 c 0.114148,0.10552 0.243656,0.25091 0.286488,0.32289 0.21206,0.35104 0.184543,1.07912 -0.0509,1.44576 -0.0509,0.0744 -0.163127,0.17679 -0.254878,0.22663 -0.158037,0.0857 -0.168232,0.10299 -0.192713,0.3119 -0.08156,0.75556 0.385397,0.98906 1.148719,0.56767 z m -0.848257,-1.15461 c 0.237569,-0.29037 0.279359,-0.98122 0.08156,-1.32788 -0.0509,-0.0979 -0.116233,-0.17863 -0.134538,-0.17863 -0.0509,0 -0.388448,0.68686 -0.422082,0.85417 -0.04078,0.22654 0.03051,0.52966 0.181462,0.72836 0.0817,0.11251 0.154941,0.0948 0.293631,-0.0765 z"
       id="path1-8"
       inkscape:export-filename="icon_breath_24.svg"
       inkscape:export-xdpi="96"
       inkscape:export-ydpi="96" /></g></svg>
