<?xml version="1.0" encoding="UTF-8" standalone="no"?>
<!-- Created with Inkscape (http://www.inkscape.org/) -->

<svg
   width="19.821125mm"
   height="13.229167mm"
   viewBox="0 0 19.821125 13.229167"
   version="1.1"
   id="svg1"
   xml:space="preserve"
   inkscape:export-filename="ビットマップ.svg"
   inkscape:export-xdpi="96"
   inkscape:export-ydpi="96"
   xmlns:inkscape="http://www.inkscape.org/namespaces/inkscape"
   xmlns:sodipodi="http://sodipodi.sourceforge.net/DTD/sodipodi-0.dtd"
   xmlns="http://www.w3.org/2000/svg"
   xmlns:svg="http://www.w3.org/2000/svg"><sodipodi:namedview
     id="namedview1"
     pagecolor="#ffffff"
     bordercolor="#111111"
     borderopacity="1"
     inkscape:showpageshadow="0"
     inkscape:pageopacity="0"
     inkscape:pagecheckerboard="1"
     inkscape:deskcolor="#d1d1d1"
     inkscape:document-units="mm"><inkscape:page
       x="0"
       y="0"
       width="19.821125"
       height="13.229167"
       id="page2"
       margin="0"
       bleed="0" /></sodipodi:namedview><defs
     id="defs1" /><g
     inkscape:label="Layer 1"
     inkscape:groupmode="layer"
     id="layer1"
     transform="translate(-149.95302,61.52603)"><path
       style="fill:#000000;stroke:#000000;stroke-width:0.281108;stroke-linecap:round;stroke-linejoin:round;stroke-dasharray:none;stroke-opacity:1"
       d="m 161.93116,-48.466538 c -0.14338,-0.02151 -0.44266,-0.08527 -0.66228,-0.141915 -0.22074,-0.05578 -0.58945,-0.149726 -0.81818,-0.208016 -0.78516,-0.199708 -1.50881,-0.195266 -3.25909,0.02052 -3.06905,0.377572 -4.74114,0.426051 -5.62524,0.163116 -0.71802,-0.213578 -1.23488,-0.798711 -1.41467,-1.602155 -0.0798,-0.337864 -0.0682,-1.222256 0.0228,-1.628028 0.2549,-1.21827 0.8637,-2.37489 1.91334,-3.637596 0.91606,-1.102 2.36136,-2.130471 3.61368,-2.57271 0.60198,-0.212558 0.99684,-0.28698 1.6482,-0.310455 0.6896,-0.02495 1.04125,0.0064 1.85543,0.17708 0.47682,0.09904 1.29217,0.138582 1.38931,0.06823 0.0228,-0.01706 0.0682,-0.141638 0.10248,-0.277585 0.15367,-0.588205 0.5246,-1.141567 0.9149,-1.359904 0.20028,-0.112537 0.58379,-0.225327 0.76815,-0.226333 l 0.11483,-5.18e-4 -0.0115,-0.248777 c -0.057,-0.873135 0.79767,-1.416757 1.54452,-0.982157 0.55987,0.325693 0.73397,1.18084 0.33227,1.643027 l -0.091,0.103752 0.22305,0.244435 c 0.42671,0.468361 0.61789,1.091282 0.58035,1.898805 -0.0341,0.706902 -0.18095,1.191648 -0.47683,1.562718 -0.0798,0.105776 -0.21392,0.226811 -0.28904,0.268805 -0.0682,0.04206 -0.22301,0.14178 -0.32998,0.221788 -0.20827,0.155538 -0.5576,0.315421 -0.69187,0.318381 -0.19007,0.0029 -0.37326,0.120569 -0.57354,0.365279 -0.12183,0.149057 -0.23556,0.251144 -0.28108,0.251144 -0.0453,0 -0.12285,-0.0568 -0.18206,-0.126158 -0.10236,-0.121575 -0.11954,-0.126501 -0.46427,-0.137843 l -0.35845,-0.0126 0.10223,0.126476 c 0.60768,0.737959 1.07878,1.209032 1.34893,1.34863 0.87736,0.452909 1.23729,0.676051 2.05935,1.27585 1.62626,1.186919 1.84474,1.305631 2.28022,1.238992 0.30271,-0.04663 0.45519,-0.162268 0.80794,-0.616655 0.40854,-0.524942 0.54282,-0.829114 0.66571,-1.514643 0.0798,-0.429461 0.17525,-0.609145 0.34024,-0.626998 0.0682,-0.0069 0.15478,0.0083 0.19801,0.03409 0.11483,0.06832 0.25491,0.434243 0.34023,0.896477 0.11483,0.589681 0.0798,1.078656 -0.10248,1.699093 -0.0796,0.260698 -0.14678,0.577503 -0.15938,0.704045 -0.0228,0.20949 -0.0115,0.239878 0.0796,0.340595 0.091,0.100213 0.091,0.129707 0.0682,0.305767 -0.0115,0.106999 -0.0453,0.230552 -0.0569,0.273906 -0.0682,0.146166 -0.25833,0.347633 -0.48933,0.52038 -0.22643,0.169779 -0.23213,0.171493 -0.49046,0.149555 -0.14454,-0.01184 -0.40398,-0.07054 -0.5792,-0.130218 -0.58947,-0.200622 -1.1879,-0.189006 -3.4333,0.06714 -0.83185,0.09443 -2.09645,0.132425 -2.48153,0.07393 z m 2.75636,-0.308835 c 0.80339,-0.08088 1.47263,-0.160236 1.4874,-0.176036 0.0115,-0.01524 0.0341,-0.162441 0.057,-0.325795 l 0.0228,-0.297019 -0.25715,-0.128879 c -0.4791,-0.23964 -1.74882,-0.766968 -1.9178,-0.796217 -0.59059,-0.102416 -1.2234,-0.197995 -1.78578,-0.270839 -0.81933,-0.105789 -1.0344,-0.161082 -1.61383,-0.413065 -0.4165,-0.181155 -0.52802,-0.211542 -0.9832,-0.267193 -0.28222,-0.03408 -0.75219,-0.126298 -1.04351,-0.203928 -1.62418,-0.43241 -3.34933,-0.644532 -4.72487,-0.58103 -0.3596,0.01715 -0.71122,0.03308 -0.78405,0.03646 -0.091,0.0033 -0.13074,-0.01184 -0.13074,-0.05241 0,-0.0785 0.157,-0.121575 0.54165,-0.149212 0.17523,-0.01184 0.37664,-0.03308 0.44835,-0.04546 0.1277,-0.02151 0.12183,-0.02611 -0.18663,-0.164642 -0.40624,-0.182415 -1.06512,-0.405232 -1.57902,-0.534165 -0.41648,-0.104618 -1.28814,-0.22804 -1.34605,-0.190939 -0.0228,0.01184 -0.091,0.171492 -0.17526,0.355379 -0.6088,1.43634 -0.58491,2.847517 0.0569,3.611962 0.19232,0.227126 0.56783,0.458014 0.89558,0.551663 0.82159,0.233856 2.5393,0.175479 5.50003,-0.186734 1.03326,-0.12631 1.51564,-0.167187 1.99665,-0.168883 0.68617,-0.0018 0.80569,0.01524 1.73537,0.258309 1.30658,0.341507 1.65187,0.354142 3.78267,0.139201 z m 3.86742,0.06476 c -0.0457,-0.01935 -0.19003,-0.06476 -0.30724,-0.101219 -0.13641,-0.04204 -0.21395,-0.08766 -0.21395,-0.126654 0,-0.07629 0.0568,-0.07629 0.3232,0.0011 0.26741,0.07629 0.53597,0.07969 0.62701,0.0069 0.0568,-0.049 0.0453,-0.05797 -0.17071,-0.07848 -0.27765,-0.02611 -0.65886,-0.156673 -0.6304,-0.216545 0.0228,-0.0546 0.13988,-0.04545 0.5098,0.03745 0.33455,0.0763 0.54507,0.049 0.56555,-0.07171 0.0102,-0.05697 -0.0228,-0.06934 -0.15243,-0.06934 -0.18435,0 -0.73171,-0.143606 -0.78974,-0.206643 -0.091,-0.099 0.0453,-0.114432 0.33227,-0.03866 0.35048,0.09328 0.66801,0.106999 0.6441,0.02849 -0.006,-0.02849 -0.2185,-0.127163 -0.46772,-0.21963 -0.46427,-0.172629 -0.77153,-0.35538 -0.74421,-0.442195 0.0102,-0.03307 0.091,-0.04563 0.23556,-0.03646 0.25833,0.01524 0.48591,-0.02392 0.44041,-0.07275 -0.0339,-0.04204 -0.60882,-0.160065 -0.81593,-0.169392 -0.0796,-0.0033 -0.37666,0.0069 -0.65318,0.02391 l -0.50412,0.03067 -0.40966,-0.228736 c -0.22531,-0.125814 -0.87279,-0.565211 -1.43677,-0.976579 -0.8011,-0.584336 -1.18207,-0.832182 -1.73857,-1.133048 l -0.71235,-0.385088 -0.46654,-0.507866 c -0.61108,-0.666169 -1.17949,-1.362533 -1.69373,-2.074062 -0.22875,-0.317372 -0.59173,-0.76366 -0.80452,-0.991812 -0.21283,-0.228179 -0.41651,-0.463512 -0.45407,-0.522911 -0.091,-0.146781 -0.47794,-0.347653 -0.78288,-0.404303 -0.69304,-0.128678 -1.48606,0.306788 -1.7693,0.971108 -0.3084,0.723413 0.18661,1.530121 1.06283,1.732638 0.23898,0.05459 0.66001,0.04193 0.69642,-0.02156 0.006,-0.01546 -0.0794,-0.09221 -0.2071,-0.1692 -0.44492,-0.27926 -0.45747,-0.289287 -0.42103,-0.328537 0.117,-0.130189 0.89217,0.374267 1.56673,1.02051 1.25367,1.201384 1.6761,1.599462 2.00952,1.894292 1.24386,1.099476 1.32102,1.143578 4.06781,2.324903 0.81704,0.351496 1.30192,0.61233 1.56741,0.843559 0.42103,0.366978 1.21658,0.717136 1.62331,0.714743 0.13972,-7.78e-4 0.15365,-0.0069 0.0682,-0.03645 z m -1.47363,-0.267632 c -0.0341,-0.02272 -0.18208,-0.13818 -0.32887,-0.256733 -0.14679,-0.118519 -0.28904,-0.215867 -0.31408,-0.216424 -0.0339,-4.76e-4 -0.0453,0.06139 -0.0453,0.174324 -1.2e-4,0.09681 -0.0102,0.21222 -0.0228,0.257627 -0.0228,0.07848 -0.001,0.08189 0.37662,0.08189 0.28109,0 0.37894,-0.01184 0.33459,-0.04103 z m 2.0433,-1.103022 c 0.0115,-0.119194 0.0796,-0.439245 0.15939,-0.710999 0.16158,-0.57613 0.20026,-1.017882 0.12963,-1.495858 -0.10235,-0.69733 -0.26171,-1.043264 -0.41305,-0.892137 -0.0341,0.03408 -0.091,0.214732 -0.12628,0.40101 -0.1604,0.844577 -0.32091,1.193971 -0.82617,1.7955 -0.24466,0.292559 -0.24579,0.294952 -0.13652,0.294952 0.17865,0 0.87847,0.167014 0.96951,0.231347 0.0453,0.03306 0.0798,0.09443 0.0798,0.137513 0,0.102415 -0.17185,0.249318 -0.29135,0.249318 -0.057,0 -0.0796,0.01184 -0.0682,0.02611 0.0228,0.02951 0.39831,0.172969 0.45976,0.177292 0.0228,0.0015 0.0453,-0.09327 0.057,-0.213935 z m -5.79432,-0.780735 c -0.67594,-0.319316 -1.17663,-0.638968 -1.69784,-1.082535 -0.59401,-0.505713 -1.53963,-1.378659 -2.27329,-2.099254 -0.2435,-0.240217 -0.45743,-0.436737 -0.47108,-0.436737 -0.0115,0 -0.12399,0.180817 -0.24352,0.401804 -0.27654,0.512991 -0.56102,0.832763 -0.84438,0.949743 -0.45175,0.186617 -0.85117,0.157522 -1.38191,-0.100226 -0.18436,-0.08986 -0.36074,-0.146671 -0.44838,-0.145474 -0.27878,0.0033 -0.85344,0.244658 -1.10151,0.460864 -0.10235,0.09223 -0.32545,0.406148 -0.30268,0.431854 0.006,0.0085 0.31291,0.03525 0.6782,0.06038 1.16413,0.07631 2.18978,0.242724 3.32476,0.538708 0.34819,0.09106 0.78404,0.183549 0.97068,0.206659 0.60993,0.07632 0.78515,0.119525 1.19881,0.300986 0.54508,0.238742 0.79429,0.301443 1.73733,0.437651 0.92967,0.13412 0.98773,0.139201 0.85459,0.07632 z m -8.8809,-1.806724 c 0.091,-0.210188 0.31974,-0.450863 0.53369,-0.576268 l 0.16618,-0.09665 -0.22531,-0.289608 c -0.47682,-0.610859 -0.93882,-1.548342 -1.2159,-2.468181 -0.0798,-0.267196 -0.16159,-0.486247 -0.17869,-0.486934 -0.11483,-0.0038 -0.95586,0.808285 -1.37905,1.324067 -0.43813,0.534727 -1.20773,1.662721 -1.16527,1.709604 0.005,0.0083 0.18891,0.03525 0.40397,0.06139 0.50638,0.06038 1.03552,0.18082 1.55128,0.353228 0.4984,0.166677 1.15021,0.441755 1.30351,0.550984 0.0569,0.04444 0.1161,0.08089 0.12056,0.08309 0.004,0.0018 0.0453,-0.07171 0.0798,-0.163459 z m 3.1115,-0.596514 c 0.38576,-0.110385 0.59514,-0.330352 1.00025,-1.048288 l 0.17637,-0.311111 -0.091,-0.101245 c -0.091,-0.09784 -0.10222,-0.09908 -0.30839,-0.05116 -0.64179,0.146209 -1.29667,-0.05009 -1.71588,-0.512525 -0.27313,-0.301072 -0.35961,-0.526187 -0.3619,-0.942102 -0.001,-0.283556 0.0115,-0.364368 0.10248,-0.577053 0.27766,-0.626766 0.95021,-1.051806 1.66152,-1.050545 0.4529,7.78e-4 0.79543,0.128398 1.08789,0.403984 l 0.16158,0.151962 -0.0682,-0.138723 c -0.10235,-0.194799 -0.40965,-0.483739 -0.6475,-0.608242 -0.53598,-0.280716 -1.98959,-0.158696 -3.00815,0.252302 -0.5997,0.2418 -1.46684,0.728977 -1.74711,0.981012 l -0.10236,0.09102 0.16958,0.556468 c 0.29474,0.96745 0.76129,1.898641 1.23558,2.468009 l 0.21963,0.262986 0.3141,-0.08765 c 0.17295,-0.04781 0.34704,-0.08767 0.38689,-0.08767 0.0339,0 0.20141,0.06494 0.35956,0.143111 0.53146,0.265498 0.80341,0.313177 1.17382,0.206541 z m 5.10903,-1.561528 c 0.22531,-0.257168 0.23897,-0.265584 0.5394,-0.335804 0.31523,-0.07395 0.73966,-0.281636 0.8034,-0.394518 0.0682,-0.112536 -0.0682,-0.264682 -0.42674,-0.47179 -0.2606,-0.152904 -0.39143,-0.262881 -0.57239,-0.481244 -0.19231,-0.232252 -0.27995,-0.303492 -0.48819,-0.397034 -0.34251,-0.153222 -0.35958,-0.193896 -0.17067,-0.403182 0.19002,-0.209694 0.20595,-0.373928 0.0453,-0.509672 -0.26857,-0.233958 -0.79317,0.113809 -0.79317,0.525394 0,0.112536 -0.0115,0.138137 -0.0682,0.126921 -0.0453,-0.01146 -0.0682,-0.05665 -0.0682,-0.209172 0,-0.124248 -0.0115,-0.194926 -0.0453,-0.194926 -0.15478,1.65e-4 -0.44836,-0.1091 -0.5997,-0.222488 -0.17637,-0.132116 -0.1798,-0.133224 -0.55191,-0.115847 -0.3334,0.01553 -1.06171,-0.06365 -1.30432,-0.142796 -0.0453,-0.01553 0.0115,0.07727 0.15368,0.239547 0.22873,0.264231 0.33796,0.458126 0.42219,0.745552 0.034,0.09904 0.15701,0.278017 0.35617,0.500378 l 0.31067,0.346609 0.22646,0.0025 0.22644,0.0025 0.11483,-0.262537 c 0.10223,-0.245327 0.19917,-0.351943 0.24012,-0.27663 0.0102,0.0182 -0.0228,0.151338 -0.0798,0.297024 -0.0682,0.197982 -0.10247,0.359008 -0.11482,0.639035 -0.0228,0.428908 0.0115,0.521874 0.24581,0.772561 0.17638,0.188808 0.31861,0.231581 0.77495,0.232841 0.32658,7.78e-4 0.34252,0.0047 0.44609,0.124592 0.0566,0.06829 0.11482,0.123611 0.12056,0.123611 0.005,0 0.11711,-0.118684 0.24579,-0.263871 z m -2.02644,-0.988646 c 0,-0.174995 -0.003,-0.181716 -0.13433,-0.208705 -0.0682,-0.01553 -0.13973,-0.02164 -0.14557,-0.01553 -0.0115,0.01553 0.23667,0.403944 0.26287,0.403944 0.0102,0 0.0228,-0.08178 0.0228,-0.180899 z m 3.75385,-0.01107 c 0.17754,-0.195873 0.36984,-0.653197 0.44268,-1.053069 0.16037,-0.878279 -0.0339,-1.748982 -0.49045,-2.246356 -0.42106,-0.454727 -0.84437,-0.631119 -1.58519,-0.661047 -0.44378,-0.01808 -0.54279,-0.01019 -0.76582,0.06492 -0.55531,0.186168 -0.92288,0.637013 -1.1243,1.374697 l -0.0682,0.27551 0.0798,0.08096 c 0.10248,0.105789 0.2674,0.194137 0.46769,0.253423 0.157,0.04659 0.16838,0.04456 0.27994,-0.07396 0.36072,-0.377696 0.83865,-0.37655 1.00592,0.0025 0.0798,0.193106 0.057,0.357887 -0.091,0.545659 l -0.11483,0.137361 0.19685,0.07155 c 0.156,0.05716 0.25719,0.138289 0.48139,0.387562 0.20367,0.227491 0.36868,0.364622 0.58489,0.488882 0.27197,0.156328 0.49386,0.364378 0.49386,0.463813 0,0.07516 0.0682,0.0353 0.20827,-0.112676 z m -0.13433,-0.434134 c -1.1e-4,-0.02966 0.0228,-0.230113 0.0454,-0.445535 0.0339,-0.333281 0.0339,-0.452195 -0.0228,-0.799605 -0.034,-0.224538 -0.057,-0.416384 -0.0453,-0.426632 0.0453,-0.04532 0.10222,0.05334 0.16039,0.270036 0.091,0.320104 0.091,0.907189 -0.001,1.192679 -0.0682,0.210076 -0.13558,0.317953 -0.13558,0.209032 z m -0.52118,-0.329448 c -0.11483,-0.130053 -0.35619,-0.70041 -0.43017,-1.002182 -0.0798,-0.310085 -0.12068,-1.192297 -0.057,-1.232385 0.0454,-0.0331 0.057,0.02062 0.11483,0.554737 0.0453,0.450628 0.13556,0.802151 0.34705,1.351617 0.0796,0.211998 0.13974,0.39408 0.12963,0.404531 -0.0102,0.01019 -0.0566,-0.02381 -0.1026,-0.07638 z m -2.41656,-1.764003 c 0.0453,-0.348595 0.31065,-0.779045 0.62018,-0.996289 0.16276,-0.114063 0.34024,-0.155551 0.34024,-0.07956 0,0.0205 -0.0682,0.08529 -0.16379,0.143089 -0.22303,0.144273 -0.46884,0.455733 -0.63496,0.805792 -0.0798,0.160389 -0.14814,0.291435 -0.16042,0.291435 -0.0115,0 -0.0115,-0.07396 -0.001,-0.164311 z m 3.00373,-1.546302 c 0.0796,-0.17937 0.0796,-0.540874 -0.0228,-0.745832 -0.22531,-0.484758 -0.78859,-0.68288 -1.23241,-0.432984 -0.28903,0.163114 -0.43469,0.461322 -0.41079,0.849024 l 0.0115,0.206091 0.27994,0.03068 c 0.31752,0.03412 0.72146,0.159397 0.96954,0.299863 l 0.1684,0.09573 0.091,-0.08886 c 0.0453,-0.04863 0.11482,-0.144845 0.14679,-0.212787 z m -1.25677,-0.261863 c -0.22983,-0.04774 -0.17181,-0.116101 0.12068,-0.140759 0.30723,-0.0261 0.60651,-0.148283 0.73741,-0.301569 0.16836,-0.197524 0.20823,-0.06365 0.0453,0.150727 -0.1741,0.227707 -0.58035,0.358919 -0.90352,0.291435 z"
       id="path1-5"
       inkscape:export-filename="icon_stretch_24.svg"
       inkscape:export-xdpi="101.53703"
       inkscape:export-ydpi="101.53703" /></g></svg>
