<?xml version="1.0" encoding="UTF-8" standalone="no"?>
<!-- Created with Inkscape (http://www.inkscape.org/) -->

<svg
   width="103.17524mm"
   height="84.358772mm"
   viewBox="0 0 103.17524 84.358772"
   version="1.1"
   id="svg1"
   xml:space="preserve"
   inkscape:export-filename="ビットマップ.png"
   inkscape:export-xdpi="96"
   inkscape:export-ydpi="96"
   xmlns:inkscape="http://www.inkscape.org/namespaces/inkscape"
   xmlns:sodipodi="http://sodipodi.sourceforge.net/DTD/sodipodi-0.dtd"
   xmlns="http://www.w3.org/2000/svg"
   xmlns:svg="http://www.w3.org/2000/svg"><sodipodi:namedview
     id="namedview1"
     pagecolor="#ffffff"
     bordercolor="#111111"
     borderopacity="1"
     inkscape:showpageshadow="0"
     inkscape:pageopacity="0"
     inkscape:pagecheckerboard="1"
     inkscape:deskcolor="#d1d1d1"
     inkscape:document-units="mm"><inkscape:page
       x="0"
       y="0"
       width="103.17524"
       height="84.358772"
       id="page2"
       margin="0"
       bleed="0" /></sodipodi:namedview><defs
     id="defs1" /><g
     inkscape:label="Layer 1"
     inkscape:groupmode="layer"
     id="layer1"
     transform="translate(-57.892685,-104.0768)"><path
       style="fill:#000000"
       d="m 59.783267,187.89995 c -0.505363,-0.30811 -1.089961,-1.00657 -1.383251,-1.65266 -0.490076,-1.07959 -0.50795,-2.05118 -0.507316,-27.57734 4.25e-4,-17.11008 0.09645,-26.87901 0.271767,-27.64896 0.639838,-2.80995 2.706755,-4.47967 5.821169,-4.7025 l 1.832285,-0.1311 v -4.80633 c 0,-5.08686 0.08101,-5.44132 1.243542,-5.44132 0.534366,0 0.608541,-0.13001 0.608541,-1.06664 0,-1.09098 0.133415,-1.23253 1.322917,-1.40356 0.651967,-0.0937 0.662531,-0.13503 0.73619,-2.87748 l 0.07473,-2.78238 -1.000774,-0.16539 c -1.738386,-0.28729 -5.697328,-0.1745 -7.483064,0.21319 l -1.719792,0.37337 -0.59581,-0.70961 c -0.796039,-0.9481 -0.999052,-1.64996 -0.556983,-1.92561 0.757155,-0.47212 4.169258,-1.11437 6.576751,-1.23791 1.694221,-0.087 3.52421,0.0259 5.614105,0.34633 3.085621,0.47303 3.111823,0.47256 5.436736,-0.0976 2.786036,-0.68327 2.570353,-0.67228 3.085468,-0.15716 0.497256,0.49725 0.557135,2.37588 0.08504,2.66819 -0.181901,0.11262 -0.80698,0.26848 -1.389063,0.34634 l -1.058333,0.14157 -0.07468,2.80354 -0.07468,2.80355 0.868434,0.24561 c 0.740093,0.20932 0.905269,0.41084 1.117687,1.36364 0.203601,0.91325 0.359394,1.11803 0.850587,1.11803 0.330733,0 0.724585,0.2303 0.875226,0.51177 0.158777,0.29668 0.273892,2.45176 0.273892,5.12758 v 4.6158 l 1.556927,0.11262 c 3.399829,0.24592 5.632202,2.43418 5.979504,5.86135 0.09086,0.89664 0.128978,13.3632 0.0847,27.70346 -0.07598,24.60757 -0.107342,26.11415 -0.557903,26.80169 -0.262568,0.40067 -0.857881,0.96049 -1.322917,1.24404 -0.806411,0.4917 -1.420707,0.51554 -13.280936,0.51554 -12.004492,0 -12.465747,-0.0185 -13.310695,-0.53364 z m 26.048509,-0.4261 c 1.782203,-0.84571 1.68213,0.8727 1.680502,-28.85691 -9.71e-4,-17.71143 -0.09505,-27.27143 -0.274751,-27.91846 -0.352346,-1.26868 -1.377662,-2.47604 -2.656932,-3.12867 -0.957077,-0.48827 -1.610505,-0.51732 -11.542238,-0.51322 -10.414812,0.004 -10.538961,0.0107 -11.575056,0.59756 -0.576031,0.32626 -1.409469,1.10844 -1.852084,1.73816 l -0.804754,1.14496 -0.06979,27.53483 c -0.07713,30.43164 -0.198418,28.21685 1.605515,29.31678 0.804824,0.49073 1.416652,0.51559 12.711783,0.51654 10.436038,8.7e-4 11.97613,-0.0511 12.7778,-0.43157 z m -22.262813,-2.9726 c -1.283013,-0.59862 -2.088043,-1.43676 -2.633205,-2.74152 -0.359013,-0.85924 -0.409503,-3.83043 -0.409503,-24.0979 v -23.11782 l 12.36927,-0.15754 c 6.803098,-0.0867 12.460468,-0.0678 12.571931,0.0419 0.111464,0.10969 0.170995,10.79691 0.132292,23.74938 l -0.07037,23.54994 -0.637599,0.93042 c -0.350679,0.51173 -1.056111,1.21734 -1.567625,1.56802 l -0.930027,0.6376 -8.883415,0.0657 c -8.198073,0.0606 -8.965065,0.0276 -9.941749,-0.42812 z m 18.472201,-0.41776 c 1.318448,-0.47022 1.998136,-1.09777 2.593729,-2.39479 0.45951,-1.00067 0.486305,-2.30169 0.4918,-23.87865 l 0.0058,-22.82031 H 73.093962 61.055421 l 0.01161,22.68802 c 0.01223,23.88527 0.01356,23.91376 1.182799,25.20575 0.248037,0.27407 0.943967,0.74235 1.546511,1.04061 1.03377,0.51171 1.550495,0.54164 9.165326,0.53088 6.111953,-0.009 8.314758,-0.0988 9.079493,-0.37151 z M 79.88956,121.69443 c 0.04596,-2.51024 -0.02031,-4.71289 -0.147266,-4.89479 -0.173451,-0.24852 -1.763069,-0.33073 -6.394506,-0.33073 -3.390019,0 -6.352003,0.0723 -6.582186,0.1606 -0.360053,0.13816 -0.418514,0.8219 -0.418514,4.89479 v 4.73419 h 6.729452 6.729452 z m -1.900806,-6.6867 v -0.93201 l -4.828646,0.0721 -4.828645,0.0721 -0.08291,0.8599 -0.08291,0.85989 h 4.911555 4.911555 z m -1.984375,-4.75653 v -3.175 l 1.190625,-0.13916 c 1.490259,-0.17417 1.852083,-0.39814 1.852083,-1.14645 0,-1.01427 -0.458587,-1.22995 -1.684086,-0.79205 -1.849833,0.66099 -4.362729,0.73715 -7.475581,0.22656 -3.21239,-0.52691 -6.11126,-0.43894 -8.868256,0.26911 -2.088545,0.53639 -2.351652,0.76688 -1.662279,1.45625 0.480775,0.48078 0.66359,0.50319 1.974085,0.24202 1.660113,-0.33084 6.223655,-0.40398 7.86843,-0.1261 l 1.116438,0.18862 v 2.97536 c 0,1.63644 0.08328,3.05863 0.185062,3.16042 0.101784,0.10178 1.381706,0.15139 2.84427,0.11024 l 2.659209,-0.0748 z m 18.890689,77.58378 c -1.904437,-1.27224 -1.824195,-0.37284 -1.824654,-20.45191 -3.51e-4,-15.36864 0.05875,-18.20899 0.402988,-19.36818 0.729812,-2.45754 2.435109,-3.83401 5.180612,-4.18165 2.173126,-0.27517 3.193166,-1.47328 1.559736,-1.83204 l -0.793747,-0.17434 v -4.72258 c 0,-5.24313 0.09355,-5.5538 1.672547,-5.55449 0.77498,-3.4e-4 0.88994,-0.11975 1.4646,-1.52136 0.5411,-1.31976 0.64246,-2.10642 0.76615,-5.94614 0.15817,-4.91008 0.35629,-5.56572 1.98126,-6.55648 1.67872,-1.02352 3.95054,-0.44199 5.02533,1.28637 0.54537,0.877 0.61235,1.38198 0.74195,5.59423 0.12956,4.21092 0.20022,4.74401 0.78032,5.88698 0.53207,1.04832 0.76078,1.25677 1.3789,1.25677 0.40756,0 0.97915,0.23812 1.27019,0.52916 0.46702,0.46703 0.52917,0.88195 0.52917,3.53307 0,1.65214 -0.0753,3.724 -0.16726,4.60413 -0.15655,1.4978 -0.21582,1.60994 -0.92604,1.75198 -1.65964,0.33193 -0.51738,1.56092 1.74855,1.8813 2.28667,0.32332 3.7473,1.32996 4.8039,3.31077 0.46682,0.87513 0.49779,1.95153 0.56346,19.57917 0.0776,20.82398 0.16231,19.80955 -1.76226,21.09524 l -0.89902,0.60059 H 107.09292 95.794091 Z m 23.745042,-0.36113 c 1.75137,-0.83108 1.68197,0.0122 1.68197,-20.43916 0,-12.43963 -0.0923,-18.7612 -0.28141,-19.26158 -0.61037,-1.61548 -2.88489,-3.23937 -4.55573,-3.25256 -1.25975,-0.01 -2.45333,-0.67001 -2.82229,-1.56076 -0.32329,-0.7805 -0.42114,-0.8263 -1.76537,-0.8263 h -1.42311 v 4.7625 4.7625 h 4.49792 c 4.0918,0 4.50159,0.0418 4.53869,0.46302 0.0224,0.25466 0.0122,6.8924 -0.0227,14.75052 -0.0611,13.74899 -0.0838,14.33054 -0.60201,15.42944 -0.32744,0.69435 -0.95884,1.42028 -1.61092,1.85208 l -1.07241,0.71015 -7.65938,0.0812 -7.659386,0.0813 -1.356465,-0.66944 c -0.810694,-0.40008 -1.618605,-1.05787 -2.007993,-1.63486 -0.591651,-0.87671 -0.667875,-1.32114 -0.829395,-4.83577 -0.09783,-2.12869 -0.161826,-8.87096 -0.142221,-14.98284 l 0.03565,-11.1125 4.56407,-0.0724 4.56406,-0.0724 v -4.75625 -4.75625 h -1.3972 c -1.31128,0 -1.41574,0.0491 -1.69856,0.79838 -0.33546,0.88875 -1.647391,1.58287 -2.991705,1.58287 -0.972368,0 -2.553182,0.76787 -3.358767,1.63151 -1.430231,1.53329 -1.40169,1.1058 -1.40169,20.995 0,16.18553 0.05003,18.50692 0.413997,19.21077 0.773714,1.49619 1.075596,1.53268 12.775185,1.54403 9.34693,0.009 10.78909,-0.0435 11.58718,-0.4222 z m -3.79061,-3.39036 c 1.31844,-0.47022 1.99813,-1.09777 2.59372,-2.39479 0.45221,-0.98477 0.4864,-2.04742 0.4918,-15.28641 l 0.006,-14.22807 -4.16718,0.0729 -4.16719,0.0729 -0.13229,11.50937 c -0.1196,10.40508 -0.17672,11.57214 -0.59531,12.16356 -0.25467,0.3598 -0.46302,0.97214 -0.46302,1.36076 0,0.73452 -0.40628,1.02776 -1.42394,1.02776 -0.76257,0 -1.2219,-0.47664 -1.2219,-1.26795 0,-0.34813 -0.23812,-0.93568 -0.52916,-1.30568 -0.51069,-0.64924 -0.52917,-1.07336 -0.52917,-12.14642 v -11.47369 h -4.23333 -4.233337 l 0.0058,14.22135 c 0.0054,13.29672 0.03783,14.29187 0.498335,15.30586 0.514224,1.13229 1.659292,2.12239 2.880234,2.49043 1.284798,0.3873 14.079748,0.2849 15.220118,-0.12181 z m -7.00582,-7.14897 c 0.0491,-0.43198 0.317,-1.1052 0.59531,-1.49605 0.47925,-0.67305 0.50601,-1.30663 0.50601,-11.98072 v -11.27009 h -1.85208 -1.85208 l 0.006,11.31093 c 0.006,10.81847 0.0284,11.33974 0.52328,11.9724 0.28457,0.3638 0.52005,0.86008 0.52329,1.10284 0.0115,0.86512 0.33544,1.30672 0.89945,1.22625 0.40266,-0.0575 0.58691,-0.30245 0.65094,-0.86556 z m 1.10132,-30.03853 v -4.7625 h -1.85208 -1.85208 v 4.7625 4.7625 h 1.85208 1.85208 z m 5.29167,-10.05849 v -4.50224 l -7.07761,0.0705 -7.0776,0.0705 -0.0725,4.43177 -0.07255,4.43177 h 7.15014 7.15015 z m -2.64583,-5.386 c 0,-0.0543 -0.25912,-0.67934 -0.57581,-1.38906 -0.49563,-1.11072 -0.5924,-1.90545 -0.69491,-5.70718 -0.10063,-3.7316 -0.1969,-4.54471 -0.62061,-5.24144 -1.12575,-1.85116 -3.78466,-1.95184 -5.0407,-0.19088 -0.56276,0.78899 -0.61965,1.20203 -0.75526,5.48347 -0.12548,3.96156 -0.2284,4.8117 -0.71272,5.88698 l -0.56607,1.25677 h 4.48304 c 2.46567,0 4.48304,-0.0444 4.48304,-0.0987 z m 15.93872,56.45633 c -0.47427,-0.28916 -1.0989,-0.9138 -1.38807,-1.38807 -0.49188,-0.80674 -0.52582,-1.34517 -0.52675,-8.35419 -6.1e-4,-4.64337 0.10278,-7.68577 0.27194,-8.00185 0.1672,-0.3124 0.67973,-0.57503 1.32292,-0.67788 0.77473,-0.12388 1.04998,-0.29336 1.04998,-0.64649 0,-0.34655 -0.23723,-0.50146 -0.85989,-0.56149 l -0.8599,-0.0829 v -2.69272 c 0,-2.32008 0.0768,-2.79606 0.55468,-3.43958 1.06013,-1.42747 0.74605,-1.40023 16.19336,-1.40443 15.76216,-0.004 15.49018,-0.0305 16.3204,1.57494 0.28064,0.5427 0.40135,1.57588 0.40135,3.43511 v 2.65897 h -0.92604 c -0.74965,0 -0.92604,0.10079 -0.92604,0.52917 0,0.41332 0.17639,0.52916 0.80578,0.52916 0.50273,0 1.05001,0.24424 1.4552,0.64943 l 0.64944,0.64944 v 7.24645 c 0,7.02842 -0.0181,7.2807 -0.60191,8.38468 -1.16795,2.20862 -0.44745,2.12013 -17.25334,2.11901 -14.32216,-9.5e-4 -14.84981,-0.0187 -15.68311,-0.52675 z m 30.70258,-0.36178 c 0.46827,-0.1982 1.08953,-0.62721 1.38057,-0.95336 0.49771,-0.55775 0.53383,-1.02772 0.60761,-7.907 0.0431,-4.0227 0.0111,-7.58229 -0.0712,-7.91019 l -0.14963,-0.59618 h -16.6544 c -16.19493,0 -16.66195,0.0141 -16.92829,0.51177 -0.16897,0.31574 -0.27167,3.12827 -0.26808,7.34219 0.005,6.06555 0.0605,6.95071 0.49376,7.9047 0.91429,2.01294 0.43187,1.95559 16.5084,1.9624 11.42525,0.005 14.39766,-0.065 15.08125,-0.35433 z m -26.63225,-2.14501 c -1.27369,-0.45401 -2.71807,-1.82357 -3.0579,-2.89952 -0.20614,-0.65267 -0.80931,-8.09415 -0.81113,-10.00709 -4.2e-4,-0.43572 0.91458,-0.46302 15.51435,-0.46302 h 15.5148 l -0.18513,4.56406 c -0.10182,2.51023 -0.30928,5.04031 -0.46103,5.62239 -0.34467,1.32206 -1.86964,2.81875 -3.31248,3.25103 -1.62794,0.48774 -21.80836,0.42872 -23.20148,-0.0678 z m 24.05254,-1.05749 c 1.86303,-1.09181 2.04834,-1.78316 2.36042,-8.80642 l 0.13226,-2.97656 h -14.79486 c -8.13717,0 -14.84011,0.0893 -14.89543,0.19844 -0.0553,0.10914 0.0343,2.2225 0.1992,4.69635 0.2149,3.22442 0.4251,4.73548 0.74243,5.33696 0.42082,0.79765 1.44018,1.68866 2.30272,2.01276 0.21828,0.082 5.44657,0.15853 11.61842,0.17002 l 11.22154,0.0209 z m 1.71132,-15.48714 c 0,-0.52258 -0.17639,-0.52917 -14.15521,-0.52917 -13.97882,0 -14.15521,0.007 -14.15521,0.52917 0,0.52257 0.17639,0.52916 14.15521,0.52916 13.97882,0 14.15521,-0.007 14.15521,-0.52916 z m 1.98437,-3.63265 c 0,-2.31718 -0.0375,-2.4795 -0.7345,-3.175 l -0.73451,-0.73298 -14.21445,0.0688 c -7.81795,0.0378 -14.42822,0.0676 -14.6895,0.0661 -0.26127,-0.001 -0.76729,0.28959 -1.12448,0.64677 -0.59888,0.59888 -0.64943,0.84619 -0.64943,3.17705 v 2.52762 l 16.07344,-0.0682 16.07343,-0.0682 z"
       id="path1" /></g></svg>
