<?xml version="1.0" encoding="UTF-8" standalone="no"?>
<!-- Created with Inkscape (http://www.inkscape.org/) -->

<svg
   width="10.476968mm"
   height="14.114755mm"
   viewBox="0 0 10.476968 14.114755"
   version="1.1"
   id="svg1"
   xml:space="preserve"
   inkscape:export-filename="ビットマップ.svg"
   inkscape:export-xdpi="96"
   inkscape:export-ydpi="96"
   xmlns:inkscape="http://www.inkscape.org/namespaces/inkscape"
   xmlns:sodipodi="http://sodipodi.sourceforge.net/DTD/sodipodi-0.dtd"
   xmlns="http://www.w3.org/2000/svg"
   xmlns:svg="http://www.w3.org/2000/svg"><sodipodi:namedview
     id="namedview1"
     pagecolor="#ffffff"
     bordercolor="#111111"
     borderopacity="1"
     inkscape:showpageshadow="0"
     inkscape:pageopacity="0"
     inkscape:pagecheckerboard="1"
     inkscape:deskcolor="#d1d1d1"
     inkscape:document-units="mm"><inkscape:page
       x="0"
       y="5.5380093e-23"
       width="10.476968"
       height="14.114756"
       id="page2"
       margin="0"
       bleed="0" /></sodipodi:namedview><defs
     id="defs1" /><g
     inkscape:label="Layer 1"
     inkscape:groupmode="layer"
     id="layer1"
     transform="translate(-82.122869,-73.701405)"><path
       style="fill:#000000;stroke:#000000;stroke-width:0.160333;stroke-dasharray:none;stroke-opacity:1"
       d="m 84.095785,87.198889 c -0.520824,-0.293954 -1.156196,-0.653528 -1.412991,-0.799065 l -0.466971,-0.264563 -0.0063,-2.009188 -0.0063,-2.009196 0.637755,-0.197864 c 0.350034,-0.108858 0.747767,-0.231409 0.883165,-0.272334 0.135397,-0.04076 0.246177,-0.08369 0.246177,-0.09501 0,-0.02154 -0.336955,-0.685223 -1.050335,-2.068809 -0.226945,-0.440582 -0.413119,-0.81184 -0.413119,-0.825066 0,-0.01306 0.06923,-0.06383 0.150786,-0.113014 l 0.150784,-0.08894 -0.06156,-0.136704 -0.06156,-0.136706 0.107703,-0.06846 c 0.06156,-0.03769 0.138473,-0.08421 0.176939,-0.103095 0.08309,-0.04156 0.08384,-0.05153 0.01541,-0.197022 -0.03078,-0.06234 -0.04618,-0.123399 -0.03078,-0.135243 0.0076,-0.01153 0.276183,-0.156094 0.588521,-0.320416 0.312339,-0.164326 0.570827,-0.301879 0.574673,-0.305571 0.0038,-0.0037 -0.0038,-0.03847 -0.01541,-0.07758 -0.03078,-0.08916 -0.0023,-0.118931 0.245409,-0.255255 0.101545,-0.05615 0.190019,-0.119093 0.197712,-0.140476 0.0074,-0.02155 -0.0047,-0.08188 -0.03078,-0.134322 -0.03078,-0.07154 -0.06155,-0.1037 -0.140786,-0.128476 -0.05388,-0.01848 -0.118476,-0.06385 -0.140015,-0.100778 -0.03847,-0.06233 -0.03847,-0.07539 0.0063,-0.172556 0.09999,-0.223712 0.443117,-0.349034 0.570825,-0.208022 0.04618,0.0554 0.05388,0.07003 0.02307,0.185943 -0.03847,0.17425 -0.03847,0.211099 0.03078,0.303032 l 0.05388,0.08015 0.202328,-0.115004 c 0.193095,-0.10955 0.285414,-0.140015 0.287724,-0.09418 5.28e-4,0.01153 0.01541,0.04309 0.03078,0.07003 0.03078,0.04538 0.07771,0.0277 0.583135,-0.244408 0.30234,-0.161323 0.551592,-0.289875 0.555439,-0.285723 0.0034,0.0041 0.04618,0.0914 0.09078,0.193866 l 0.08459,0.18625 0.164635,-0.120628 c 0.09003,-0.06618 0.218482,-0.140934 0.285412,-0.16586 0.06925,-0.02459 0.432351,-0.08875 0.810541,-0.141938 1.020029,-0.143322 1.23859,-0.202021 1.720099,-0.461893 0.310033,-0.16694 0.982098,-0.642987 1.643703,-1.163273 0.347729,-0.273411 0.425427,-0.321188 0.403116,-0.250176 -0.01541,0.03924 -0.540052,0.454584 -1.142036,0.897863 -1.016333,0.748386 -1.313594,0.866753 -2.631344,1.047702 -0.329262,0.04537 -0.65314,0.09637 -0.720838,0.113933 -0.130785,0.03384 -0.496208,0.285645 -0.494667,0.34042 5.3e-4,0.01767 0.06155,0.189557 0.13463,0.381115 l 0.133089,0.348342 0.152323,0.0082 c 0.116941,0.0062 0.197714,0.03306 0.344649,0.115168 0.19079,0.105778 0.193098,0.10624 0.193098,0.04234 0,-0.09048 -0.04618,-0.210714 -0.104622,-0.281258 -0.04618,-0.05848 -0.03078,-0.118166 0.03078,-0.07932 0.06155,0.04076 0.135399,0.256179 0.135399,0.389809 0.0013,0.238717 -0.07847,0.372808 -0.496205,0.835925 -0.383885,0.425119 -0.471582,0.543053 -0.573131,0.766229 l -0.05388,0.1254 0.06923,-0.07615 c 0.105392,-0.109167 0.211558,-0.125782 0.322339,-0.05003 0.04618,0.03386 0.08922,0.06927 0.09003,0.07984 7.5e-5,0.0099 0.0076,0.03616 0.02308,0.05691 0.01541,0.02923 0.06927,-0.0092 0.233102,-0.164093 0.513127,-0.491437 0.712378,-0.61668 1.347827,-0.848532 0.560824,-0.204407 0.714688,-0.299262 1.048644,-0.646988 0.418501,-0.435738 0.626215,-0.572597 1.35429,-0.897551 0.456969,-0.20356 1.265744,-0.531979 1.310593,-0.532055 0.06923,-2.2e-5 0.02309,0.05002 -0.07771,0.09208 -0.06157,0.02384 -0.351575,0.14409 -0.650836,0.266489 -1.077186,0.441429 -1.42699,0.643987 -1.813722,1.050505 -0.413117,0.434274 -0.520819,0.502358 -1.16458,0.737767 -0.413117,0.151014 -0.627754,0.249487 -0.670065,0.307722 -0.01541,0.02155 -0.05388,0.132784 -0.08459,0.247102 -0.03078,0.114249 -0.08309,0.276333 -0.11694,0.36019 l -0.06155,0.152479 0.19848,0.406038 c 0.1554,0.317497 0.530054,1.035423 0.68084,1.306257 0.0076,0.01999 0.388499,0.19048 0.838546,0.378806 0.450044,0.188329 0.914707,0.385115 1.032565,0.437276 l 0.214638,0.09486 0.0063,2.024735 0.0063,2.024744 -0.271562,0.09818 c -0.149251,0.05388 -0.77685,0.27972 -1.394066,0.501511 -0.616986,0.221869 -1.78841,0.642679 -2.602033,0.93515 -0.813697,0.292489 -1.489227,0.5309 -1.501074,0.529822 -0.01541,-0.0013 -0.447738,-0.242563 -0.967944,-0.536516 z m 3.33018,-0.38173 c 1.033796,-0.370189 2.203068,-0.789649 2.598568,-0.932132 l 0.719305,-0.259026 0.0064,-1.969452 c 0.006,-1.86725 0.0042,-1.968706 -0.03847,-1.95528 -1.466073,0.468508 -2.141062,0.686297 -3.071848,0.991182 -0.430045,0.140939 -1.167347,0.3815 -1.638395,0.534672 -0.470819,0.153166 -0.865472,0.284641 -0.876703,0.292336 -0.0076,0.0076 -0.0231,0.940125 -0.0231,2.072192 v 2.058319 l 0.22079,-0.07984 c 0.121555,-0.04384 1.066571,-0.382734 2.10037,-0.752926 z m -2.397474,-1.246156 -5.31e-4,-2.054968 -1.355362,-0.648144 c -0.745464,-0.356418 -1.363834,-0.647988 -1.374297,-0.647833 -0.0076,1e-4 -0.01538,0.870735 -0.01538,1.934641 v 1.934372 l 1.229895,0.696147 c 1.574619,0.891312 1.479068,0.837885 1.501072,0.839395 0.0076,7.04e-4 0.0154,-0.923443 0.0154,-2.053671 z m 0.871475,-2.386672 c 1.608392,-0.522281 1.942501,-0.633832 1.954889,-0.65245 0.0067,-0.01069 0.0076,-0.194481 0.0051,-0.409041 l -0.0075,-0.390116 -0.660838,0.362575 c -1.494767,0.819951 -1.920811,1.040012 -1.964044,1.014448 -0.03078,-0.01766 -0.08233,0.0023 -0.188484,0.0723 -0.08,0.05306 -0.15386,0.09709 -0.163859,0.09709 -0.0076,0 -0.05388,-0.06618 -0.09229,-0.146323 -0.03847,-0.08044 -0.216946,-0.428428 -0.391576,-0.773222 -0.174636,-0.344806 -0.332341,-0.648838 -0.350036,-0.675532 -0.03848,-0.05464 0.05388,-0.07691 -1.139809,0.290797 -0.526976,0.162556 -0.548515,0.172172 -0.484665,0.209406 0.03848,0.02154 0.393118,0.194173 0.791775,0.383887 0.398502,0.189708 0.974096,0.464509 1.279359,0.610674 0.305414,0.146172 0.566977,0.266183 0.580823,0.266644 0.01541,3.52e-4 0.388504,-0.117089 0.832623,-0.26118 z m -0.949483,-0.02618 c 0.02309,-0.02921 -1.55e-4,-0.09787 -0.09615,-0.299567 -0.228484,-0.47928 -1.994583,-4.273771 -2.003203,-4.302066 -0.0076,-0.02459 -0.269258,0.09011 -0.269258,0.11809 0,0.006 0.207716,0.414579 0.461583,0.907792 0.253874,0.493201 0.570829,1.10988 0.703153,1.370408 0.132318,0.260486 0.388501,0.762077 0.569286,1.114557 0.180789,0.352497 0.383114,0.750612 0.450045,0.884681 0.06926,0.134092 0.130013,0.243795 0.139247,0.243795 0.0076,0 0.03078,-0.01691 0.04618,-0.03769 z m 0.200791,-0.144628 c 0.0042,-0.0041 -0.133858,-0.325344 -0.306955,-0.713687 -0.346188,-0.776888 -0.644681,-1.491569 -1.269129,-3.04181 -0.370806,-0.920253 -0.479278,-1.183815 -0.502356,-1.211821 -0.0038,-0.0046 -0.07771,0.03004 -0.161555,0.07758 l -0.154633,0.0864 0.186943,0.396117 c 0.103095,0.217869 0.320801,0.684532 0.483893,1.036991 0.163862,0.352498 0.560826,1.205114 0.88263,1.894743 0.32234,0.689612 0.616213,1.319964 0.653142,1.400742 0.06157,0.136245 0.06925,0.144555 0.123089,0.114622 0.03078,-0.01767 0.06155,-0.0354 0.06155,-0.04 z M 87.361265,81.9135 c 0.817622,-0.444274 1.491767,-0.813414 1.498074,-0.820351 0.0061,-0.0067 -0.07847,-0.17302 -0.189249,-0.369035 -0.328495,-0.583063 -0.78631,-1.488283 -0.945867,-1.869446 -0.06153,-0.143013 -0.107704,-0.224023 -0.124625,-0.212407 -0.01541,0.01069 -0.142324,0.131398 -0.283105,0.268952 -0.368501,0.359649 -0.481588,0.414194 -0.610063,0.292182 -0.04618,-0.04694 -0.06923,-0.0987 -0.08076,-0.196019 -0.0076,-0.113713 -7.7e-5,-0.162095 0.07999,-0.342189 0.06924,-0.162325 0.153093,-0.277029 0.356188,-0.507513 0.143863,-0.163784 0.262336,-0.306723 0.263103,-0.317724 1.57e-4,-0.01069 -0.01541,-0.06075 -0.03848,-0.111465 -0.0231,-0.05002 -0.155402,-0.411272 -0.300032,-0.802035 -0.14386,-0.390809 -0.298491,-0.800241 -0.343112,-0.909891 l -0.08076,-0.199328 -0.37004,0.194175 c -0.590827,0.310031 -0.684684,0.363958 -0.684684,0.390191 0,0.04538 0.181558,0.426584 0.231562,0.487588 0.03078,0.03306 0.04618,0.08323 0.03847,0.111466 -0.0076,0.05001 -0.259256,0.208252 -0.31157,0.196559 -0.01541,-0.0032 -0.06156,0.02076 -0.100769,0.05306 -0.152325,0.119094 -0.495436,0.291645 -0.543906,0.274338 -0.03078,-0.01153 -0.04618,-0.0038 -0.04618,0.02618 0,0.02459 -0.06157,0.0794 -0.153092,0.128783 -0.163863,0.09115 -0.224636,0.08157 -0.224636,-0.0354 0,-0.0523 -0.218486,-0.523361 -0.243106,-0.523361 -0.0076,0 -0.514668,0.259949 -0.997485,0.514128 l -0.142319,0.07462 0.201556,0.492663 c 0.111546,0.270951 0.261564,0.643143 0.33465,0.827015 0.19925,0.501668 0.543132,1.347068 0.713918,1.755432 0.08309,0.19925 0.216946,0.518975 0.296183,0.710533 0.250795,0.602984 0.621601,1.409734 0.700071,1.524031 0.01541,0.02459 0.100003,-0.01069 0.317724,-0.132861 0.162326,-0.0914 0.963406,-0.529592 1.781105,-0.973874 z m 1.326521,0.361882 c 1.182193,-0.378039 1.904882,-0.617985 1.92573,-0.639527 0.02308,-0.02234 -0.05388,-0.05691 -0.954482,-0.432426 -0.305414,-0.12724 -0.614676,-0.257638 -0.689299,-0.289718 -0.06927,-0.0323 -0.139246,-0.05848 -0.146938,-0.05848 -0.0076,0 0.02309,0.0523 0.06155,0.115623 0.03848,0.06385 0.06924,0.126783 0.06158,0.140321 -0.0076,0.01387 -0.240024,0.14971 -0.516206,0.302417 l -0.503129,0.277798 v 0.416348 0.416351 l 0.06924,-0.02537 c 0.03847,-0.01384 0.34696,-0.114551 0.686994,-0.223255 z m -1.649555,-3.213185 0.121559,-0.12132 -0.04618,-0.07462 c -0.09615,-0.163089 -0.262335,-0.138012 -0.371577,0.05615 -0.06156,0.106242 -0.06156,0.14471 -0.0067,0.210482 0.06927,0.08602 0.168478,0.06309 0.302339,-0.07003 z m 0.906017,-0.499436 c 0.03847,-0.119166 0.06155,-0.224099 0.05388,-0.233177 -0.01541,-0.01691 -0.240793,0.154554 -0.29003,0.220637 -0.02308,0.02694 -0.0076,0.07885 0.03848,0.197639 0.06155,0.155473 0.06927,0.15909 0.09615,0.09659 0.01541,-0.0354 0.06158,-0.162476 0.100003,-0.281643 z m -0.440813,-0.875999 c 0.109245,-0.136937 0.225406,-0.342416 0.225406,-0.396501 -5.31e-4,-0.125704 -0.55775,-0.360805 -0.61391,-0.259257 -0.01541,0.02536 0.140785,0.452816 0.164633,0.452816 0.0076,0 0.03847,-0.04385 0.06927,-0.09757 0.03078,-0.05388 0.06924,-0.09757 0.09153,-0.09757 0.03847,0 0.03847,0.0092 -0.06927,0.186556 -0.06926,0.115552 -0.06926,0.118016 -0.03078,0.215946 0.02309,0.05464 0.05388,0.09907 0.06157,0.09907 0.0076,0 0.05388,-0.04693 0.100752,-0.103545 z m -2.883063,-0.08076 c 0.08,-0.05153 0.103097,-0.07939 0.07923,-0.09539 -0.03847,-0.02694 -0.224638,0.08249 -0.225406,0.133398 -7.7e-5,0.04921 0.0154,0.0446 0.145399,-0.03769 z m 0.03078,-0.266796 c 0,-0.08815 -0.06925,-0.641219 -0.08542,-0.656143 -0.0074,-0.0082 -0.390808,0.204483 -0.414659,0.230484 -0.0076,0.0099 0.238486,0.530054 0.280798,0.591061 0.01541,0.02694 0.04618,0.02154 0.122323,-0.02618 0.07771,-0.04846 0.09848,-0.07707 0.09848,-0.139401 z m 0.467741,-0.01306 c 0.2331,-0.12655 0.33234,-0.217253 0.143859,-0.130324 -0.144628,0.06694 -0.435427,0.23118 -0.435427,0.246489 0,0.03229 0.06927,0.0054 0.291568,-0.116157 z m -0.06156,-0.08973 c 0.173864,-0.09741 0.318494,-0.180171 0.322337,-0.184019 0.0037,-0.0038 -0.104621,-0.128321 -0.240022,-0.276643 l -0.246947,-0.269642 -0.121555,0.06234 c -0.06927,0.03465 -0.126164,0.07003 -0.131551,0.07992 -0.0053,0.0092 0.0065,0.129322 0.02308,0.266029 0.0231,0.136783 0.03848,0.309259 0.03848,0.383269 7.6e-5,0.07387 0.0076,0.130319 0.01541,0.12509 0.0076,-0.0053 0.161554,-0.08926 0.33465,-0.186635 z m 0.566979,-0.176248 c 0.130017,-0.07003 0.150784,-0.120937 0.03848,-0.09615 -0.09464,0.02075 -0.206174,0.0997 -0.187712,0.132629 0.01541,0.03305 0.01541,0.03305 0.148477,-0.03616 z m -0.0777,-0.125013 c 0.04618,-0.02618 0.08927,-0.0569 0.08927,-0.06927 0,-0.05924 -0.26772,-0.608216 -0.296185,-0.608216 -0.04618,0 -0.326956,0.159477 -0.348497,0.198405 -0.0076,0.01999 0.06924,0.128859 0.208482,0.27926 0.125397,0.135781 0.234638,0.246793 0.243101,0.246793 0.0076,0 0.05388,-0.02075 0.104622,-0.04694 z M 84.72854,76.507891 c 0.05387,-0.03078 0.09924,-0.0677 0.09924,-0.08202 0,-0.01387 -0.02308,-0.07154 -0.05388,-0.127628 -0.05388,-0.09787 -0.05388,-0.107396 -0.01541,-0.238873 0.03848,-0.121083 0.03848,-0.141704 0.0024,-0.178326 -0.08233,-0.09102 -0.326188,-0.01069 -0.436967,0.144324 -0.07771,0.108089 -0.06156,0.177864 0.06157,0.222639 0.132318,0.05077 0.160783,0.08116 0.195404,0.20802 0.01541,0.05924 0.03078,0.108162 0.03848,0.108162 0.0053,0 0.05388,-0.02536 0.110009,-0.05615 z"
       id="path1-89"
       inkscape:export-filename="icon_clean_24.svg"
       inkscape:export-xdpi="96"
       inkscape:export-ydpi="96" /></g></svg>
