<?xml version="1.0" encoding="UTF-8" standalone="no"?>
<!-- Created with Inkscape (http://www.inkscape.org/) -->

<svg
   width="13.758527mm"
   height="9.2367344mm"
   viewBox="0 0 13.758527 9.2367344"
   version="1.1"
   id="svg1"
   xml:space="preserve"
   inkscape:export-filename="ビットマップ.svg"
   inkscape:export-xdpi="96"
   inkscape:export-ydpi="96"
   xmlns:inkscape="http://www.inkscape.org/namespaces/inkscape"
   xmlns:sodipodi="http://sodipodi.sourceforge.net/DTD/sodipodi-0.dtd"
   xmlns="http://www.w3.org/2000/svg"
   xmlns:svg="http://www.w3.org/2000/svg"><sodipodi:namedview
     id="namedview1"
     pagecolor="#ffffff"
     bordercolor="#111111"
     borderopacity="1"
     inkscape:showpageshadow="0"
     inkscape:pageopacity="0"
     inkscape:pagecheckerboard="1"
     inkscape:deskcolor="#d1d1d1"
     inkscape:document-units="mm"><inkscape:page
       x="0"
       y="0"
       width="13.758527"
       height="9.2367344"
       id="page2"
       margin="0"
       bleed="0" /></sodipodi:namedview><defs
     id="defs1" /><g
     inkscape:label="Layer 1"
     inkscape:groupmode="layer"
     id="layer1"
     transform="translate(-164.9516,104.54416)"><path
       style="fill:#000000;stroke:#000000;stroke-width:0.36042;stroke-dasharray:none;stroke-opacity:1"
       d="m 173.25003,-95.507982 c -0.0983,-0.01475 -0.30347,-0.05846 -0.45404,-0.09729 -0.15133,-0.03824 -0.4041,-0.102646 -0.5609,-0.142607 -0.53828,-0.136911 -1.03437,-0.133865 -2.23429,0.01407 -2.104,0.258848 -3.25032,0.292082 -3.85641,0.111825 -0.49225,-0.146419 -0.84658,-0.54756 -0.96983,-1.098365 -0.0547,-0.231625 -0.0468,-0.837924 0.0156,-1.116103 0.17475,-0.835192 0.59212,-1.628119 1.3117,-2.493778 0.62801,-0.75548 1.61884,-1.46056 2.47738,-1.76373 0.41269,-0.14573 0.68339,-0.19674 1.12993,-0.21283 0.47276,-0.0171 0.71383,0.005 1.272,0.12139 0.32688,0.0679 0.88585,0.095 0.95245,0.0468 0.0156,-0.0117 0.0468,-0.0971 0.0702,-0.19029 0.10535,-0.40325 0.35964,-0.78261 0.62722,-0.9323 0.1373,-0.0772 0.40021,-0.15447 0.5266,-0.15516 l 0.0788,-3.7e-4 -0.008,-0.17054 c -0.0391,-0.59859 0.54685,-0.97127 1.05886,-0.67333 0.38382,0.22329 0.50318,0.80953 0.22779,1.12639 l -0.0624,0.0711 0.15291,0.16757 c 0.29254,0.32109 0.4236,0.74814 0.39786,1.30174 -0.0233,0.48462 -0.12404,0.81694 -0.32688,1.07133 -0.0547,0.0725 -0.14666,0.15549 -0.19816,0.18428 -0.0468,0.0288 -0.15289,0.0972 -0.22623,0.15205 -0.14277,0.10663 -0.38226,0.216239 -0.47431,0.218268 -0.13029,0.002 -0.25589,0.08265 -0.39319,0.250419 -0.0835,0.102187 -0.16149,0.172173 -0.1927,0.172173 -0.0311,0 -0.0842,-0.03894 -0.12481,-0.08649 -0.0702,-0.08334 -0.082,-0.08673 -0.31828,-0.0945 l -0.24574,-0.0086 0.0701,0.08671 c 0.4166,0.505912 0.73956,0.828858 0.92476,0.92456 0.60149,0.310495 0.84824,0.463471 1.4118,0.874667 1.11489,0.813698 1.26467,0.895081 1.56322,0.849397 0.20752,-0.03197 0.31206,-0.111244 0.55389,-0.422752 0.28007,-0.359876 0.37213,-0.568403 0.45637,-1.038371 0.0547,-0.294419 0.12015,-0.417602 0.23326,-0.429842 0.0468,-0.0047 0.10611,0.0057 0.13575,0.02337 0.0788,0.04684 0.17475,0.297697 0.23325,0.614585 0.0788,0.404259 0.0547,0.739478 -0.0702,1.164822 -0.0546,0.178722 -0.10063,0.395911 -0.10927,0.482662 -0.0156,0.143618 -0.008,0.164449 0.0546,0.233497 0.0624,0.0687 0.0624,0.08892 0.0468,0.20962 -0.008,0.07335 -0.0311,0.158056 -0.0391,0.187778 -0.0468,0.100204 -0.17709,0.238321 -0.33546,0.356749 -0.15523,0.116393 -0.15914,0.117568 -0.33623,0.102528 -0.0991,-0.0081 -0.27696,-0.04836 -0.39708,-0.08927 -0.40411,-0.137538 -0.81437,-0.129575 -2.35372,0.04603 -0.57027,0.06474 -1.43723,0.09078 -1.70122,0.05068 z m 1.88963,-0.211723 c 0.55077,-0.05544 1.00957,-0.10985 1.0197,-0.120683 0.008,-0.01045 0.0233,-0.111362 0.0391,-0.22335 l 0.0156,-0.203623 -0.17629,-0.08835 c -0.32845,-0.164286 -1.19891,-0.525799 -1.31476,-0.545851 -0.40488,-0.07021 -0.83871,-0.135736 -1.22425,-0.185675 -0.5617,-0.07253 -0.70914,-0.110431 -1.10638,-0.283179 -0.28553,-0.124192 -0.36198,-0.145023 -0.67403,-0.183175 -0.19348,-0.02336 -0.51567,-0.08659 -0.71538,-0.139804 -1.11347,-0.296442 -2.29615,-0.441862 -3.23916,-0.398329 -0.24652,0.01175 -0.48758,0.02268 -0.53751,0.025 -0.0624,0.0023 -0.0896,-0.0081 -0.0896,-0.03593 0,-0.05382 0.10763,-0.08334 0.37133,-0.102293 0.12013,-0.0081 0.25821,-0.02268 0.30736,-0.03116 0.0875,-0.01475 0.0835,-0.0179 -0.12794,-0.112871 -0.2785,-0.125055 -0.73019,-0.277809 -1.0825,-0.3662 -0.28553,-0.07172 -0.8831,-0.156335 -0.9228,-0.1309 -0.0156,0.0081 -0.0624,0.117568 -0.12015,0.243633 -0.41737,0.984691 -0.40098,1.952131 0.0391,2.4762 0.13185,0.155707 0.38928,0.313994 0.61396,0.378195 0.56325,0.160321 1.74084,0.1203 3.77059,-0.128017 0.70835,-0.08659 1.03905,-0.114616 1.36881,-0.115778 0.47041,-0.0012 0.55234,0.01045 1.18969,0.177084 0.89574,0.234123 1.13244,0.242785 2.59323,0.09543 z m 2.65134,0.0444 c -0.0313,-0.01326 -0.13029,-0.0444 -0.21064,-0.06939 -0.0935,-0.02882 -0.14667,-0.06009 -0.14667,-0.08683 0,-0.0523 0.039,-0.0523 0.22157,7.55e-4 0.18332,0.0523 0.36743,0.05463 0.42984,0.0047 0.039,-0.03359 0.0311,-0.03975 -0.11702,-0.05381 -0.19034,-0.0179 -0.45169,-0.107408 -0.43218,-0.148453 0.0156,-0.03743 0.0959,-0.03115 0.3495,0.02568 0.22935,0.05231 0.37368,0.03359 0.38772,-0.04916 0.007,-0.03906 -0.0156,-0.04754 -0.1045,-0.04754 -0.12638,0 -0.50163,-0.09845 -0.54142,-0.141665 -0.0624,-0.06788 0.0311,-0.07846 0.2278,-0.0265 0.24028,0.06394 0.45795,0.07335 0.44156,0.01953 -0.005,-0.01953 -0.14979,-0.08718 -0.32064,-0.150569 -0.31829,-0.118346 -0.52893,-0.243632 -0.5102,-0.303148 0.007,-0.02267 0.0624,-0.03128 0.16148,-0.025 0.1771,0.01045 0.33312,-0.01639 0.30193,-0.04987 -0.0233,-0.02882 -0.41738,-0.109733 -0.55936,-0.116126 -0.0545,-0.0023 -0.25822,0.0047 -0.44779,0.01639 l -0.34561,0.02103 -0.28084,-0.156812 c -0.15447,-0.08626 -0.59835,-0.387483 -0.98499,-0.669498 -0.5492,-0.400595 -0.81038,-0.570507 -1.19188,-0.776768 l -0.48836,-0.263999 -0.31984,-0.34817 c -0.41893,-0.456696 -0.8086,-0.934092 -1.16115,-1.421882 -0.15681,-0.21758 -0.40566,-0.52354 -0.55154,-0.67995 -0.1459,-0.15642 -0.28554,-0.31776 -0.31128,-0.35848 -0.0624,-0.10063 -0.32766,-0.23833 -0.53672,-0.27717 -0.47511,-0.0882 -1.01877,0.21032 -1.21295,0.66575 -0.21142,0.49593 0.12794,1.04898 0.72863,1.187816 0.16384,0.03742 0.45248,0.02875 0.47744,-0.01478 0.005,-0.0106 -0.0545,-0.06321 -0.14198,-0.115996 -0.30502,-0.19145 -0.31362,-0.19832 -0.28864,-0.22523 0.0802,-0.0892 0.61163,0.25658 1.07408,0.699616 0.85946,0.823615 1.14905,1.096519 1.37763,1.298642 0.85275,0.753752 0.90564,0.783986 2.78872,1.593849 0.56012,0.24097 0.89253,0.419786 1.07454,0.578306 0.28864,0.251585 0.83403,0.491637 1.11286,0.489997 0.0958,-5.46e-4 0.10535,-0.0047 0.0468,-0.02499 z m -1.01026,-0.183477 c -0.0234,-0.01558 -0.12483,-0.09473 -0.22546,-0.176004 -0.10064,-0.08125 -0.19815,-0.147989 -0.21532,-0.148371 -0.0233,-3.26e-4 -0.0311,0.04208 -0.0311,0.119509 -7e-5,0.06637 -0.007,0.145488 -0.0156,0.176618 -0.0156,0.05381 -0.001,0.05614 0.25819,0.05614 0.1927,0 0.25979,-0.0081 0.22938,-0.02813 z m 1.40079,-0.756182 c 0.008,-0.08172 0.0546,-0.301126 0.10927,-0.487429 0.11078,-0.394969 0.13729,-0.697815 0.0889,-1.025493 -0.0701,-0.478059 -0.17942,-0.715216 -0.28317,-0.61161 -0.0233,0.02336 -0.0624,0.147211 -0.0866,0.274914 -0.10997,0.579005 -0.22,0.818534 -0.56637,1.230916 -0.16774,0.200565 -0.16851,0.202205 -0.0936,0.202205 0.12248,0 0.60225,0.114498 0.66466,0.158601 0.0311,0.02266 0.0547,0.06474 0.0547,0.09427 0,0.07021 -0.1178,0.170922 -0.19973,0.170922 -0.0391,0 -0.0545,0.0081 -0.0468,0.0179 0.0156,0.02023 0.27306,0.11858 0.31519,0.121544 0.0156,0.001 0.0311,-0.06394 0.0391,-0.146664 z M 174.2092,-97.1502 c -0.46339,-0.218909 -0.80664,-0.438049 -1.16396,-0.742139 -0.40722,-0.346694 -1.0555,-0.945147 -1.55846,-1.439155 -0.16694,-0.164681 -0.3136,-0.299407 -0.32296,-0.299407 -0.008,0 -0.085,0.123961 -0.16694,0.27546 -0.18958,0.351683 -0.38461,0.570904 -0.57887,0.6511 -0.3097,0.127937 -0.58352,0.10799 -0.94738,-0.06871 -0.12639,-0.06161 -0.2473,-0.100551 -0.30738,-0.09973 -0.19113,0.0023 -0.58508,0.167726 -0.75515,0.315947 -0.0702,0.06323 -0.22312,0.278437 -0.20751,0.296059 0.005,0.0059 0.21452,0.02417 0.46495,0.04139 0.79808,0.05231 1.50121,0.166402 2.2793,0.369315 0.23871,0.06243 0.5375,0.125832 0.66546,0.141676 0.41814,0.05232 0.53827,0.08194 0.82185,0.206342 0.37368,0.163671 0.54452,0.206656 1.19103,0.300034 0.63734,0.09195 0.67715,0.09543 0.58587,0.05232 z m -6.08835,-1.238611 c 0.0624,-0.144095 0.21921,-0.30909 0.36588,-0.395063 l 0.11393,-0.06626 -0.15447,-0.198543 c -0.32688,-0.418777 -0.64361,-1.061473 -0.83356,-1.692073 -0.0547,-0.18318 -0.11078,-0.33335 -0.1225,-0.33383 -0.0788,-0.003 -0.6553,0.55413 -0.94542,0.90773 -0.30036,0.366585 -0.82796,1.139887 -0.79885,1.172028 0.004,0.0057 0.1295,0.02417 0.27694,0.04208 0.34715,0.04139 0.70991,0.123962 1.06348,0.242157 0.34169,0.114267 0.78854,0.302848 0.89363,0.377731 0.0391,0.03046 0.0796,0.05545 0.0826,0.05696 0.003,0.0012 0.0311,-0.04916 0.0547,-0.112059 z m 2.13311,-0.408943 c 0.26446,-0.07568 0.408,-0.226475 0.68573,-0.718659 l 0.12091,-0.213284 -0.0624,-0.06941 c -0.0624,-0.06708 -0.0701,-0.06792 -0.21142,-0.03508 -0.43998,0.100235 -0.88895,-0.03434 -1.17633,-0.351363 -0.18725,-0.20641 -0.24653,-0.36073 -0.2481,-0.64587 -0.001,-0.1944 0.008,-0.24979 0.0702,-0.3956 0.19035,-0.42969 0.65142,-0.72107 1.13907,-0.72021 0.31048,5.4e-4 0.54531,0.088 0.7458,0.27695 l 0.11078,0.10418 -0.0468,-0.0951 c -0.0701,-0.13355 -0.28084,-0.33163 -0.44389,-0.41698 -0.36744,-0.19245 -1.36397,-0.1088 -2.06226,0.17296 -0.41113,0.16577 -1.0056,0.49976 -1.19774,0.67254 l -0.0701,0.0624 0.11625,0.38149 c 0.20206,0.66325 0.52191,1.301633 0.84707,1.691966 l 0.15055,0.180292 0.21533,-0.06009 c 0.11857,-0.03278 0.23792,-0.0601 0.26524,-0.0601 0.0233,0 0.13808,0.04452 0.24651,0.09811 0.36434,0.182014 0.55078,0.214701 0.80471,0.141595 z m 3.50253,-1.070513 c 0.15446,-0.176303 0.16383,-0.182073 0.36979,-0.230213 0.2161,-0.0507 0.50707,-0.19308 0.55077,-0.27046 0.0468,-0.0772 -0.0468,-0.18146 -0.29256,-0.32345 -0.17865,-0.10482 -0.26835,-0.18021 -0.3924,-0.32992 -0.13184,-0.15922 -0.19191,-0.20806 -0.33468,-0.27218 -0.23481,-0.10504 -0.24651,-0.13293 -0.11701,-0.27641 0.13028,-0.14376 0.1412,-0.25634 0.0311,-0.34941 -0.18412,-0.16039 -0.54376,0.078 -0.54376,0.36019 0,0.0772 -0.008,0.0947 -0.0468,0.087 -0.0311,-0.008 -0.0468,-0.0389 -0.0468,-0.1434 0,-0.0852 -0.008,-0.13363 -0.0311,-0.13363 -0.10611,1.1e-4 -0.30737,-0.0748 -0.41113,-0.15252 -0.12091,-0.0906 -0.12326,-0.0913 -0.37835,-0.0794 -0.22858,0.0107 -0.72787,-0.0437 -0.89419,-0.0979 -0.0311,-0.0107 0.008,0.053 0.10535,0.16422 0.15681,0.18114 0.2317,0.31408 0.28944,0.51112 0.0233,0.0679 0.10764,0.1906 0.24417,0.34304 l 0.21298,0.23762 0.15525,0.002 0.15524,0.002 0.0788,-0.17998 c 0.0701,-0.16819 0.13653,-0.24128 0.16461,-0.18965 0.007,0.0125 -0.0156,0.10375 -0.0547,0.20362 -0.0468,0.13574 -0.0702,0.24613 -0.0788,0.43811 -0.0156,0.29404 0.008,0.35777 0.16852,0.52963 0.12092,0.129438 0.21843,0.158762 0.53127,0.159625 0.22389,5.33e-4 0.23481,0.0032 0.30581,0.08541 0.0389,0.04681 0.0788,0.08474 0.0826,0.08474 0.004,0 0.0803,-0.08137 0.16851,-0.1809 z m -1.38925,-0.677773 c 0,-0.11997 -0.002,-0.12458 -0.0921,-0.14308 -0.0468,-0.0107 -0.0958,-0.0148 -0.0998,-0.0107 -0.008,0.0107 0.16225,0.27693 0.18021,0.27693 0.007,0 0.0156,-0.0561 0.0156,-0.12402 z m 2.57348,-0.008 c 0.12171,-0.13427 0.25355,-0.4478 0.30348,-0.72193 0.10995,-0.60211 -0.0233,-1.19902 -0.33623,-1.54001 -0.28866,-0.31174 -0.57886,-0.43266 -1.08673,-0.45318 -0.30424,-0.0124 -0.37212,-0.007 -0.52502,0.0445 -0.3807,0.12762 -0.63268,0.43671 -0.77076,0.94243 l -0.0468,0.18887 0.0547,0.0555 c 0.0702,0.0725 0.18332,0.1331 0.32063,0.17374 0.10763,0.032 0.11543,0.0305 0.19191,-0.0507 0.2473,-0.25893 0.57495,-0.25814 0.68962,0.002 0.0547,0.13239 0.0391,0.24535 -0.0624,0.37408 l -0.0788,0.0942 0.13496,0.0491 c 0.10694,0.0391 0.17632,0.0948 0.33001,0.2657 0.13963,0.15595 0.25275,0.24996 0.40097,0.33515 0.18646,0.10717 0.33858,0.2498 0.33858,0.31797 0,0.0515 0.0468,0.0242 0.14277,-0.0772 z m -0.0921,-0.29762 c -8e-5,-0.0203 0.0156,-0.15775 0.0311,-0.30544 0.0233,-0.22848 0.0233,-0.31001 -0.0156,-0.54817 -0.0233,-0.15393 -0.0391,-0.28545 -0.0311,-0.29248 0.0311,-0.0311 0.0701,0.0366 0.10996,0.18512 0.0624,0.21946 0.0624,0.62193 -0.001,0.81765 -0.0468,0.14402 -0.0929,0.21797 -0.0929,0.14331 z m -0.3573,-0.22586 c -0.0788,-0.0892 -0.24418,-0.48016 -0.2949,-0.68705 -0.0547,-0.21258 -0.0827,-0.81738 -0.0391,-0.84486 0.0311,-0.0227 0.0391,0.0141 0.0788,0.3803 0.0311,0.30893 0.0929,0.54992 0.23793,0.92661 0.0546,0.14534 0.0958,0.27016 0.0889,0.27733 -0.007,0.007 -0.0389,-0.0164 -0.0703,-0.0524 z m -1.65668,-1.20932 c 0.0311,-0.23897 0.21296,-0.53407 0.42516,-0.683 0.11159,-0.0782 0.23326,-0.10664 0.23326,-0.0546 0,0.0141 -0.0468,0.0584 -0.11229,0.0981 -0.1529,0.0989 -0.32142,0.31243 -0.43531,0.55241 -0.0547,0.10996 -0.10155,0.19979 -0.10996,0.19979 -0.008,0 -0.008,-0.0507 -0.001,-0.11264 z m 2.05922,-1.06007 c 0.0546,-0.12297 0.0546,-0.3708 -0.0156,-0.51131 -0.15447,-0.33233 -0.54062,-0.46815 -0.84488,-0.29683 -0.19816,0.11182 -0.29801,0.31626 -0.28162,0.58205 l 0.008,0.14129 0.19191,0.021 c 0.21767,0.0234 0.4946,0.10927 0.66467,0.20557 l 0.11544,0.0656 0.0624,-0.0609 c 0.0311,-0.0334 0.0788,-0.0993 0.10064,-0.14588 z m -0.86158,-0.17952 c -0.15757,-0.0327 -0.11779,-0.0796 0.0827,-0.0965 0.21062,-0.0179 0.4158,-0.10166 0.50553,-0.20674 0.11542,-0.13542 0.14276,-0.0437 0.0311,0.10333 -0.11936,0.15611 -0.39786,0.24606 -0.61942,0.1998 z"
       id="path1-5"
       inkscape:export-filename="icon_stretch_24.svg"
       inkscape:export-xdpi="96"
       inkscape:export-ydpi="96" /></g></svg>
