<?xml version="1.0" encoding="UTF-8" standalone="no"?>
<!-- Created with Inkscape (http://www.inkscape.org/) -->

<svg
   width="6.0103159mm"
   height="13.229165mm"
   viewBox="0 0 6.0103159 13.229165"
   version="1.1"
   id="svg1"
   xml:space="preserve"
   inkscape:export-filename="ビットマップ.svg"
   inkscape:export-xdpi="96"
   inkscape:export-ydpi="96"
   xmlns:inkscape="http://www.inkscape.org/namespaces/inkscape"
   xmlns:sodipodi="http://sodipodi.sourceforge.net/DTD/sodipodi-0.dtd"
   xmlns="http://www.w3.org/2000/svg"
   xmlns:svg="http://www.w3.org/2000/svg"><sodipodi:namedview
     id="namedview1"
     pagecolor="#ffffff"
     bordercolor="#111111"
     borderopacity="1"
     inkscape:showpageshadow="0"
     inkscape:pageopacity="0"
     inkscape:pagecheckerboard="1"
     inkscape:deskcolor="#d1d1d1"
     inkscape:document-units="mm"><inkscape:page
       x="0"
       y="0"
       width="6.0103159"
       height="13.229165"
       id="page2"
       margin="0"
       bleed="0" /></sodipodi:namedview><defs
     id="defs1" /><g
     inkscape:label="Layer 1"
     inkscape:groupmode="layer"
     id="layer1"
     transform="translate(-110.25109,-30.810533)"><path
       style="fill:#000000;stroke:#000000;stroke-width:0.199476;stroke-linecap:round;stroke-linejoin:round;stroke-dasharray:none;stroke-opacity:1"
       d="m 111.25831,43.880433 c -0.17702,-0.07655 -0.27431,-0.161879 -0.35246,-0.310599 -0.12201,-0.229023 -0.12281,-0.197365 0.10925,-2.955529 0.15709,-1.871462 0.22806,-3.577549 0.17224,-4.173543 -0.0399,-0.431569 -0.11244,-0.591455 -0.39473,-0.875341 -0.26873,-0.270328 -0.38197,-0.508761 -0.42662,-0.900427 -0.0399,-0.325273 0.004,-1.374509 0.0973,-2.484406 0.0877,-1.044405 0.10446,-1.158429 0.17304,-1.220293 0.0718,-0.06858 0.11961,-0.0638 0.19537,0.02073 l 0.0638,0.07097 v 1.442243 c 0,1.366511 0.002,1.445751 0.0478,1.509035 0.0399,0.05024 0.0718,0.06619 0.14911,0.06379 0.17464,-0.0054 0.18341,-0.03748 0.20335,-0.720958 0.0718,-2.488122 0.0638,-2.382925 0.21291,-2.424009 0.0805,-0.02153 0.18899,0.04944 0.21929,0.141465 0.008,0.03509 0.0319,0.674308 0.0558,1.42096 0.0159,0.746634 0.0398,1.383479 0.0478,1.415249 0.0239,0.10542 0.0909,0.158848 0.19138,0.158848 0.19139,0 0.1834,0.06858 0.1834,-1.55602 V 31.05221 l 0.0638,-0.07097 c 0.0319,-0.03907 0.0829,-0.07097 0.10606,-0.07097 0.0478,0 0.17064,0.126474 0.17064,0.179184 0,0.02073 0.0239,0.277905 0.0478,0.571758 0.0949,0.990833 0.13317,1.5709 0.14832,2.267289 0.0239,1.01553 -0.0159,1.16161 -0.45294,1.666051 -0.37559,0.434838 -0.36124,0.370087 -0.36044,1.684327 0.001,1.209137 0.008,1.345593 0.30383,5.235825 0.0558,0.72303 0.0558,0.76641 0.0159,0.914119 -0.11563,0.404457 -0.59409,0.622955 -0.98898,0.452143 z m 0.60286,-0.164829 c 0.17623,-0.09665 0.27033,-0.246965 0.28468,-0.453101 0.006,-0.08246 -0.0558,-1.014205 -0.13476,-2.070587 -0.19776,-2.621956 -0.20973,-2.848584 -0.21052,-3.97136 -10e-4,-0.946049 0.001,-0.98975 0.0558,-1.193557 0.0558,-0.196088 0.0805,-0.233487 0.32216,-0.512031 0.39234,-0.45031 0.44258,-0.606526 0.44258,-1.367157 -5.5e-4,-0.633479 -0.13158,-2.532108 -0.20415,-2.963742 -0.0558,-0.314666 -0.0718,-0.02632 -0.0829,1.364684 -0.007,0.806196 -0.0239,1.489037 -0.0319,1.517425 -0.0558,0.120891 -0.29904,0.176632 -0.44896,0.101594 -0.1547,-0.07815 -0.1547,-0.08357 -0.19776,-1.842865 -0.0239,-0.958768 -0.0319,-1.207048 -0.0638,-1.240708 -0.0877,-0.100237 -0.0965,-0.0011 -0.13398,1.391207 -0.0159,0.75118 -0.0399,1.410035 -0.0478,1.464052 -0.008,0.05423 -0.0478,0.135245 -0.0877,0.180539 -0.0638,0.07017 -0.0949,0.0823 -0.21451,0.0823 -0.15709,0 -0.23524,-0.04625 -0.29505,-0.1736 -0.0319,-0.07097 -0.0399,-0.30143 -0.0399,-1.514586 0,-1.188572 -0.006,-1.431127 -0.0319,-1.431127 -0.0399,0 -0.0399,0.0032 -0.12041,0.866481 -0.0805,0.843906 -0.13158,1.752285 -0.13158,2.238399 1.8e-4,0.701581 0.0805,0.952134 0.41148,1.280037 0.4027,0.399593 0.43699,0.534916 0.4338,1.709311 -0.003,1.139904 -0.0638,2.140633 -0.28628,4.650102 -0.0399,0.436834 -0.0718,0.970531 -0.0718,1.185948 -0.002,0.378701 -1.6e-4,0.395526 0.0638,0.509082 0.10128,0.169215 0.29346,0.268973 0.51834,0.268973 0.13397,0 0.20334,-0.01674 0.3102,-0.07576 z m 3.32912,0.179024 c -0.17463,-0.063 -0.30462,-0.177669 -0.38675,-0.342736 -0.0718,-0.140031 -0.0718,-0.170413 -0.0718,-0.439227 0.002,-0.158847 0.0319,-0.62678 0.0558,-1.03977 0.1555,-2.141304 0.21212,-3.04579 0.21372,-3.405712 0.001,-0.339864 -0.0159,-0.372081 -0.26794,-0.561949 -0.28867,-0.215706 -0.31818,-0.297283 -0.36443,-1.043456 -0.0558,-0.873675 -10e-4,-2.359608 0.12121,-3.321494 0.18102,-1.422227 0.53109,-2.499413 0.88866,-2.730837 0.21291,-0.137875 0.3724,-0.09896 0.48005,0.116904 0.0399,0.07895 0.0399,0.414904 0.0478,3.899218 0.001,3.976655 0,3.899401 0.12919,5.892047 0.16506,2.555059 0.16506,2.470244 0.0159,2.716044 -0.15151,0.243137 -0.5614,0.367855 -0.8578,0.261079 z m 0.57415,-0.183171 c 0.11563,-0.06619 0.15311,-0.107652 0.21451,-0.238273 0.0718,-0.157014 0.0718,-0.161797 0.0558,-0.53388 -0.008,-0.206536 -0.0319,-0.615935 -0.0558,-0.909797 -0.18739,-2.629994 -0.19537,-2.933161 -0.19537,-7.052701 -1.8e-4,-2.48073 -0.008,-3.713711 -0.0239,-3.766829 -0.11961,-0.345925 -0.45692,-0.07735 -0.69296,0.551744 -0.27911,0.741532 -0.47288,1.837442 -0.56219,3.181705 -0.0319,0.522316 -0.0159,2.281426 0.0239,2.559604 0.0399,0.252545 0.0981,0.352065 0.30382,0.505491 0.23844,0.177986 0.30063,0.303981 0.29984,0.61179 -5.5e-4,0.286915 -0.0558,1.148229 -0.18501,3.040359 -0.0558,0.853491 -0.10048,1.595198 -0.0917,1.648236 0.0718,0.407249 0.53667,0.614421 0.90843,0.402623 z"
       id="path1-4"
       inkscape:export-filename="icon_diet_24.svg"
       inkscape:export-xdpi="96"
       inkscape:export-ydpi="96" /></g></svg>
