<?xml version="1.0" encoding="UTF-8" standalone="no"?>
<!-- Created with Inkscape (http://www.inkscape.org/) -->

<svg
   width="109.80207mm"
   height="93.221962mm"
   viewBox="0 0 109.80207 93.221962"
   version="1.1"
   id="svg1"
   xml:space="preserve"
   inkscape:export-filename="icon_stairs_24.svg"
   inkscape:export-xdpi="96"
   inkscape:export-ydpi="96"
   xmlns:inkscape="http://www.inkscape.org/namespaces/inkscape"
   xmlns:sodipodi="http://sodipodi.sourceforge.net/DTD/sodipodi-0.dtd"
   xmlns="http://www.w3.org/2000/svg"
   xmlns:svg="http://www.w3.org/2000/svg"><sodipodi:namedview
     id="namedview1"
     pagecolor="#ffffff"
     bordercolor="#111111"
     borderopacity="1"
     inkscape:showpageshadow="0"
     inkscape:pageopacity="0"
     inkscape:pagecheckerboard="1"
     inkscape:deskcolor="#d1d1d1"
     inkscape:document-units="mm"><inkscape:page
       x="0"
       y="0"
       width="109.80207"
       height="93.221962"
       id="page2"
       margin="0"
       bleed="0" /></sodipodi:namedview><defs
     id="defs1" /><g
     inkscape:label="Layer 1"
     inkscape:groupmode="layer"
     id="layer1"
     transform="translate(-47.625003,-107.86181)"><path
       style="fill:#000000"
       d="m 47.625003,200.68646 c 0,-0.34621 1.360472,-0.39688 10.656753,-0.39688 9.216974,0 10.736199,-0.0557 11.244791,-0.41188 0.585812,-0.41032 0.588038,-0.44243 0.588038,-8.48406 0,-8.21866 0.06347,-8.8041 1.035405,-9.55033 0.31289,-0.24023 3.027047,-0.32446 10.657404,-0.33073 l 10.2376,-0.008 0.411878,-0.58803 c 0.345688,-0.49354 0.411878,-1.63416 0.411878,-7.09763 0,-6.4623 0.0044,-6.51377 0.612365,-7.08488 0.606324,-0.56961 0.710561,-0.57529 10.564435,-0.57529 8.69456,0 10.0046,-0.0525 10.36784,-0.41577 0.35366,-0.35366 0.41578,-1.31681 0.41578,-6.44661 0,-5.70061 0.03,-6.06901 0.54837,-6.72798 l 0.54837,-0.69714 8.5136,-0.0309 c 4.68249,-0.017 9.28752,-0.10631 10.2334,-0.19844 l 1.7198,-0.16751 0.13229,-6.57228 c 0.13112,-6.51401 0.13783,-6.57676 0.75691,-7.07761 0.58956,-0.47695 1.17255,-0.50532 10.3849,-0.50532 8.49941,0 9.76027,0.0513 9.76027,0.39688 0,0.34551 -1.24775,0.39687 -9.64229,0.39687 h -9.64229 l -0.41187,0.58804 c -0.34396,0.49106 -0.41188,1.59697 -0.41188,6.70587 0,5.88239 -0.0214,6.13722 -0.55665,6.62185 -0.5235,0.47402 -1.14976,0.50831 -10.51718,0.57589 -8.9428,0.0645 -9.99434,0.11699 -10.29128,0.51359 -0.24242,0.32378 -0.33072,2.0833 -0.33072,6.58967 v 6.14793 l -0.69714,0.54837 c -0.67726,0.53273 -0.98145,0.54837 -10.66271,0.54837 -7.398221,0 -10.047365,0.0818 -10.28307,0.3175 -0.229559,0.22956 -0.3175,2.10195 -0.3175,6.76002 0,6.72206 -0.144826,7.6981 -1.202479,8.10396 -0.235565,0.0904 -4.942937,0.16435 -10.460826,0.16435 -9.679749,0 -10.051134,0.0186 -10.561694,0.52917 -0.505611,0.50561 -0.529166,0.88195 -0.529166,8.45422 0,8.38952 -0.07676,8.98179 -1.232251,9.50827 -0.438566,0.19982 -4.067286,0.29376 -11.347906,0.29376 -9.337545,0 -10.703175,-0.0506 -10.703175,-0.39687 z m 31.463116,-24.16547 c -0.95815,-0.25012 -2.057947,-0.66171 -2.443993,-0.91466 -0.856455,-0.56117 -1.583713,-1.9543 -2.031625,-3.89175 -0.473184,-2.04677 -1.165713,-3.30097 -2.878626,-5.21332 -1.816482,-2.02798 -2.412643,-3.09163 -2.414333,-4.30755 -0.0011,-0.82445 0.253183,-1.17075 2.237622,-3.04684 1.618138,-1.52978 2.420969,-2.52014 2.895516,-3.57187 0.806169,-1.7867 1.323501,-5.23008 1.877524,-12.49687 0.625689,-8.20678 1.380199,-10.58214 4.871671,-15.33709 2.473895,-3.36913 2.712591,-3.90797 2.873475,-6.48676 0.155919,-2.49918 0.470969,-3.04268 0.736671,-1.27086 0.409456,2.73045 -0.327681,4.81496 -2.890471,8.17381 -3.430161,4.49563 -4.175724,6.79674 -4.791149,14.78741 -0.52097,6.76426 -1.07058,10.68037 -1.766684,12.58805 -0.445658,1.22133 -0.980101,1.91827 -2.897785,3.77888 -1.540178,1.49434 -2.351347,2.48009 -2.351347,2.85741 0,0.87642 0.652382,1.95883 2.280026,3.78297 1.778256,1.99293 2.295732,2.95885 3.006913,5.6127 0.632938,2.36188 0.899071,2.84938 1.86795,3.42172 1.439897,0.85056 5.979848,1.6043 5.764069,0.95696 -0.04935,-0.14804 -0.673753,-0.71358 -1.38757,-1.25677 -2.491494,-1.89592 -2.403802,-1.56177 -2.399364,-9.14279 l 0.0039,-6.66148 0.864341,-2.73169 c 2.756378,-8.71136 9.113326,-23.88305 11.840119,-28.25801 1.690485,-2.71227 1.796408,-3.04361 3.034306,-9.49155 0.972846,-5.06734 1.526473,-6.90586 1.947248,-6.46654 0.09388,0.098 -1.226817,7.26176 -2.225065,12.06924 -0.163141,0.78567 -0.854755,2.30818 -1.622562,3.57187 -0.736021,1.21138 -1.798115,3.11681 -2.36021,4.23429 -2.364724,4.7012 -7.07873,16.33397 -9.271845,22.88016 l -1.40449,4.19223 -0.09212,5.95313 c -0.113573,7.33989 -0.05446,7.58331 2.24797,9.25705 1.28485,0.93401 1.644896,1.34625 1.653593,1.89328 0.0064,0.40152 -0.167097,0.76769 -0.407396,0.8599 -0.732447,0.28107 -2.568977,0.14451 -4.366284,-0.32466 z m 27.449211,-12.60665 c -2.25681,-0.49328 -2.69636,-0.81931 -3.714,-2.75475 -1.46088,-2.77843 -2.39479,-3.87877 -4.495032,-5.29599 -3.769152,-2.5434 -4.245862,-4.19457 -1.92505,-6.66774 3.452053,-3.67868 3.560998,-4.11348 4.401342,-17.56565 0.14545,-2.32833 0.45232,-4.94771 0.68194,-5.82083 0.49037,-1.86467 2.09638,-4.96907 3.61407,-6.98597 l 1.07584,-1.42971 -1.56061,-1.48656 c -0.85834,-0.81761 -2.38806,-2.22414 -3.39937,-3.12563 -1.721753,-1.53478 -2.142878,-2.31343 -0.95415,-1.76422 0.84515,0.39048 6.62936,5.93446 6.62936,6.35403 0,0.21189 -0.64057,1.30417 -1.42348,2.42728 -2.8743,4.12328 -3.50821,6.01246 -3.8813,11.56703 -0.9727,14.48145 -0.96703,14.45691 -4.141052,17.91481 -0.762648,0.83086 -1.460707,1.80579 -1.551243,2.16651 -0.254674,1.0147 0.592993,2.15089 2.682224,3.59517 2.383491,1.64771 3.465461,2.85423 4.589431,5.11776 1.0397,2.09381 1.60328,2.53625 3.82364,3.00168 2.89175,0.60617 4.56595,0.34381 3.01063,-0.47179 -1.34792,-0.70683 -2.68485,-1.99358 -3.13971,-3.02186 -0.26617,-0.60172 -0.90389,-2.80432 -1.41717,-4.89468 -1.45381,-5.92078 -1.29674,-7.79116 1.30015,-15.48219 1.7381,-5.14761 3.96833,-10.78496 6.74667,-17.05354 1.12871,-2.54661 2.13485,-5.07493 2.23587,-5.61847 0.26366,-1.41865 -0.20629,-2.8873 -1.87162,-5.84899 -0.99836,-1.77551 -1.37802,-2.69006 -1.19341,-2.87468 0.52325,-0.52325 3.64168,5.21766 3.91201,7.20187 0.20178,1.48104 -0.29646,2.95027 -3.41494,10.07019 -5.05972,11.55204 -7.84836,20.02358 -7.85235,23.85443 -0.002,2.14972 1.62778,9.11858 2.47775,10.5932 0.31617,0.54854 1.21451,1.44151 1.9963,1.98438 1.74888,1.2144 2.10425,1.71382 1.62792,2.28777 -0.42504,0.51214 -2.59638,0.52424 -4.87066,0.0271 z"
       id="path1" /></g></svg>
