<?xml version="1.0" encoding="UTF-8" standalone="no"?>
<!-- Created with Inkscape (http://www.inkscape.org/) -->

<svg
   width="79.868973mm"
   height="98.630562mm"
   viewBox="0 0 79.868973 98.630562"
   version="1.1"
   id="svg1"
   xml:space="preserve"
   xmlns:inkscape="http://www.inkscape.org/namespaces/inkscape"
   xmlns:sodipodi="http://sodipodi.sourceforge.net/DTD/sodipodi-0.dtd"
   xmlns="http://www.w3.org/2000/svg"
   xmlns:svg="http://www.w3.org/2000/svg"><sodipodi:namedview
     id="namedview1"
     pagecolor="#ffffff"
     bordercolor="#111111"
     borderopacity="1"
     inkscape:showpageshadow="0"
     inkscape:pageopacity="0"
     inkscape:pagecheckerboard="1"
     inkscape:deskcolor="#d1d1d1"
     inkscape:document-units="mm"><inkscape:page
       x="0"
       y="0"
       width="79.868973"
       height="98.630562"
       id="page2"
       margin="0"
       bleed="0" /></sodipodi:namedview><defs
     id="defs1" /><g
     inkscape:label="Layer 1"
     inkscape:groupmode="layer"
     id="layer1"
     transform="translate(-71.315196,-95.907858)"><path
       style="fill:#000000"
       d="m 103.0217,194.21225 c -0.10073,-0.2625 0.1346,-2.15765 0.52295,-4.21143 0.38836,-2.05378 0.705,-3.87341 0.70365,-4.04362 -0.001,-0.1702 -0.56801,-0.49472 -1.25924,-0.72115 -2.07685,-0.68032 -6.754213,-1.7468 -7.662716,-1.74716 -0.963087,-3.9e-4 -0.716832,-0.60547 -2.457984,6.03953 -0.991147,3.78264 -1.361152,4.6182 -1.830356,4.13335 -0.240039,-0.24804 2.075605,-9.87659 2.573899,-10.70239 0.131713,-0.21828 0.577182,-0.45641 0.989932,-0.52917 1.044496,-0.18413 0.868314,-0.62723 -0.332392,-0.83598 -4.199025,-0.73001 -8.585644,-3.76574 -10.409563,-7.20386 -0.356133,-0.67132 -0.782371,-1.22058 -0.947196,-1.22058 -1.170993,0 -6.451784,2.50432 -7.67043,3.63757 -2.542624,2.36444 -3.011005,4.19739 -3.011005,11.78326 0,5.36706 -0.03342,5.77815 -0.46302,5.69469 -0.426293,-0.0828 -0.462112,-0.6038 -0.451558,-6.56784 0.01082,-6.11628 0.04531,-6.56332 0.617745,-8.00839 0.831998,-2.1003 2.981056,-4.37295 5.14033,-5.43596 0.928038,-0.45687 3.391784,-1.42136 5.474993,-2.1433 4.774162,-1.6545 6.00881,-2.29297 7.034486,-3.63773 1.042302,-1.36654 1.386268,-3.14121 1.48463,-7.65983 l 0.07562,-3.474 -1.381045,-1.09165 c -1.516841,-1.199 -3.720602,-4.14711 -4.479447,-5.99244 -0.318783,-0.77521 -0.647343,-1.17982 -0.958589,-1.18047 -1.376733,-0.003 -3.773986,-2.01158 -4.512568,-3.78115 -1.546964,-3.70638 0.25954,-7.00641 3.121596,-5.70237 0.370649,0.16888 0.673908,0.52607 0.673908,0.79375 0,0.57347 -0.08597,0.58554 -1.228398,0.17243 -0.745973,-0.26975 -0.94329,-0.24712 -1.39285,0.15973 -2.061091,1.86526 0.635218,7.29829 3.622002,7.29829 0.747091,0 0.883841,0.15954 1.870971,2.18281 0.585733,1.20055 1.61853,2.80941 2.295103,3.57526 2.173522,2.46032 5.746756,4.66649 8.909326,5.50076 1.319629,0.34811 1.338596,0.3442 2.626316,-0.54159 0.71339,-0.49073 2.27757,-1.26133 3.47595,-1.71245 1.19838,-0.45111 2.43928,-0.92937 2.75756,-1.0628 0.83395,-0.34959 2.69232,-2.78727 3.53326,-4.6347 0.81383,-1.78785 1.20613,-3.54558 1.46447,-6.56162 0.1467,-1.71262 0.25004,-2.04851 0.60747,-1.97447 0.33594,0.0696 0.41658,0.36355 0.36655,1.33609 -0.0353,0.68578 0.048,1.24687 0.18497,1.24687 0.49827,0 1.59258,-1.78403 1.89322,-3.08649 0.38622,-1.6732 0.12618,-3.13171 -0.70689,-3.96478 -0.5277,-0.5277 -0.73776,-0.59099 -1.17856,-0.35508 -0.7419,0.39705 -1.05463,0.12234 -1.05463,-0.92641 0,-1.60834 -0.37874,-2.09188 -2.68615,-3.42946 -3.14687,-1.82421 -4.83455,-3.19126 -7.73332,-6.26411 -1.400194,-1.48427 -2.587615,-2.64922 -2.638719,-2.58878 -0.0511,0.0604 -0.23727,0.70522 -0.413703,1.43282 -0.78098,3.22074 -3.607963,7.65676 -6.170181,9.68208 -1.716171,1.35655 -3.988854,2.51156 -5.943987,3.02081 -2.033184,0.52958 -2.786618,0.51561 -2.677618,-0.0496 0.05981,-0.31014 0.667473,-0.58665 2.019745,-0.91903 2.373583,-0.58343 4.715833,-1.80344 6.44211,-3.35551 2.717833,-2.44357 4.949757,-6.44025 5.617768,-10.05968 0.222201,-1.20394 0.4545,-1.7824 0.737681,-1.83693 0.246109,-0.0474 0.948081,0.59464 1.735,1.58685 3.119674,3.93356 6.095204,6.5227 9.761104,8.49358 2.05123,1.10278 2.56532,1.66626 2.8646,3.13982 0.10529,0.5184 0.35406,0.75277 0.93428,0.88021 3.10234,0.68139 3.09274,7.18776 -0.0138,9.35681 -0.86938,0.60701 -1.05194,0.92476 -1.39888,2.43478 -0.5153,2.2428 -1.43924,4.30118 -2.62318,5.84401 -0.83093,1.0828 -0.92675,1.36221 -0.79753,2.32561 0.12193,0.90903 0.0396,1.20975 -0.4847,1.77104 -0.34735,0.37185 -0.95898,0.84642 -1.35916,1.05462 -0.66939,0.34824 -0.7276,0.50405 -0.7276,1.94748 0,1.69305 0.61468,2.94358 1.97148,4.01084 0.37089,0.29174 0.67435,0.74534 0.67435,1.00801 0,0.26266 0.18509,0.63118 0.41132,0.81893 0.58584,0.4862 0.98577,1.30003 1.16312,2.36685 l 0.15355,0.92364 4.13313,1.49228 c 4.93584,1.7821 7.04663,2.8631 8.57517,4.39164 2.46392,2.46392 3.09552,5.26765 2.96704,13.17089 -0.0616,3.78926 -0.13565,4.49792 -0.47,4.49792 -0.3368,0 -0.42201,-0.94106 -0.56295,-6.21771 -0.14749,-5.52203 -0.23116,-6.38827 -0.74776,-7.74212 -0.737,-1.93146 -2.56848,-3.84418 -4.72165,-4.9311 -1.54204,-0.77842 -4.93578,-2.14345 -5.32906,-2.14345 -0.10225,0 -0.46576,0.62508 -0.80778,1.38907 -0.97937,2.18761 -3.4581,4.44147 -6.47934,5.89152 -1.38497,0.66473 -2.51941,1.23329 -2.52099,1.26348 -0.002,0.0302 -0.17444,0.62034 -0.38415,1.31145 l -0.38129,1.25655 0.78103,0.40389 c 0.97647,0.50495 0.97721,0.7258 0.0189,5.62567 -0.7393,3.7802 -1.15621,4.84986 -1.52038,3.90083 z m -0.003,-11.05444 c 0.0892,-0.47294 0.65741,-1.83337 1.26261,-3.02319 1.00184,-1.96962 1.13019,-2.45438 1.43367,-5.41479 0.28751,-2.80469 0.41345,-3.31638 0.91644,-3.72368 0.67163,-0.54385 0.95115,-0.58754 1.19849,-0.18734 0.0968,0.15666 -0.0747,0.51849 -0.38126,0.80405 -0.62033,0.57794 -0.75021,1.55693 -0.20655,1.55693 0.81555,0 2.0305,-1.89976 2.0305,-3.175 0,-1.92744 -0.79878,-2.23875 -3.32204,-1.29467 -1.01231,0.37875 -1.57628,0.47094 -1.75958,0.28764 -0.44789,-0.44789 -0.0243,-0.77568 1.7772,-1.37517 1.62674,-0.54135 2.16073,-1.09504 1.35445,-1.40444 -0.19935,-0.0765 -1.51691,0.22039 -2.92791,0.65976 -1.41099,0.43936 -2.63181,0.73247 -2.71293,0.65136 -0.40943,-0.40944 0.32056,-0.9142 2.15343,-1.48902 2.20858,-0.69265 2.47225,-0.88773 1.98817,-1.47101 -0.49134,-0.59203 -1.2448,-0.47691 -3.76621,0.57542 -2.311477,0.96471 -2.97769,1.00725 -2.366005,0.15109 0.176955,-0.24768 0.600485,-1.04564 0.941175,-1.77325 0.94454,-2.01724 1.75346,-2.79341 4.39841,-4.22039 1.33545,-0.72049 2.55201,-1.54154 2.70347,-1.82455 0.25633,-0.47894 0.20462,-0.50321 -0.74677,-0.35056 -1.27074,0.2039 -4.02739,1.27322 -5.48215,2.12656 -0.83037,0.48708 -1.5015,1.29362 -2.767115,3.32544 -3.014384,4.8393 -3.138324,5.51067 -2.139089,11.58723 0.534198,3.24857 0.549849,5.00647 0.06837,7.67867 -0.138279,0.76744 -0.0877,0.86229 0.470405,0.88219 0.343938,0.0123 1.637374,0.29661 2.874299,0.63189 2.93317,0.79504 2.81907,0.80229 3.00652,-0.19117 z m -7.142034,-2.91041 c 0.385864,-1.43985 0.120385,-3.96336 -1.329114,-12.63386 -0.231112,-1.38244 -0.709184,-3.28706 -1.062383,-4.23248 -0.814039,-2.17896 -0.595775,-2.91127 0.867701,-2.91127 0.765633,0 1.15191,0.19647 1.857756,0.94488 0.490125,0.51969 0.891137,1.0625 0.891137,1.20624 0,0.48285 0.532384,-0.0618 1.047662,-1.07187 l 0.510934,-1.00151 -1.374611,-0.30968 c -0.756035,-0.17032 -2.180108,-0.70193 -3.164606,-1.18134 -0.984498,-0.47941 -1.847701,-0.81395 -1.918229,-0.74342 -0.07053,0.0705 -0.128923,1.38831 -0.129766,2.9284 -0.0037,6.80697 -1.23167,9.00418 -6.015422,10.76365 l -1.915913,0.70468 0.711171,1.30665 c 1.744629,3.20546 6.543168,6.25786 10.696567,6.8042 0.09217,0.0121 0.239371,-0.24585 0.327116,-0.57327 z m 11.587774,-1.14674 c 0.74209,-0.37605 1.94328,-1.23925 2.66931,-1.91823 1.23178,-1.15197 2.83489,-3.50747 2.84053,-4.17369 0.001,-0.16133 -0.63372,-0.5277 -1.4113,-0.81414 l -1.41379,-0.5208 -0.87564,1.04299 c -0.48161,0.57365 -1.27415,1.2095 -1.76122,1.41301 -0.80491,0.33631 -0.88614,0.4721 -0.89188,1.49094 -0.006,1.07282 -0.22118,2.28728 -0.63213,3.56832 -0.24017,0.74871 -0.16722,0.74434 1.47612,-0.0884 z M 96.187253,163.13731 c -0.483328,-0.93466 -1.741084,-1.96952 -2.035676,-1.67493 -0.117709,0.11771 0.07877,1.04386 0.436623,2.05811 0.357851,1.01425 0.658693,2.08222 0.668538,2.37326 0.01187,0.35101 0.23844,0.10549 0.672965,-0.72928 0.61043,-1.17271 0.627979,-1.31083 0.25755,-2.02716 z m 7.592017,0.26633 1.25324,-0.42031 0.004,-1.26608 c 0.003,-1.2277 -0.0145,-1.25679 -0.59177,-0.95985 -0.87052,0.44778 -2.04295,1.59184 -2.47102,2.41123 -0.48855,0.93517 -0.47082,1.10479 0.0898,0.85863 0.25466,-0.11182 1.02698,-0.39244 1.71625,-0.62362 z m -26.961333,6.09588 c -2.156065,-1.56185 -3.822279,-4.34669 -4.493011,-7.50943 -0.546198,-2.57552 -0.191238,-5.09592 1.372408,-9.74477 1.691177,-5.02801 1.973305,-6.96722 1.974563,-13.57216 0.0012,-6.15829 0.362744,-9.23319 1.478916,-12.5771 2.730534,-8.18033 9.655934,-13.60661 16.022003,-12.55377 1.42131,0.23506 1.830558,0.20205 2.986569,-0.24095 1.805732,-0.69196 5.690135,-0.53109 7.816535,0.32373 3.50453,1.40884 7.23184,4.73488 9.44288,8.42628 3.27062,5.46039 4.56416,10.84962 4.58538,19.10386 0.0112,4.34226 0.32609,5.93127 2.30732,11.64167 1.50766,4.34545 1.51461,4.37968 1.50473,7.40833 -0.008,2.50153 -0.11344,3.30153 -0.59188,4.49792 -1.05928,2.64881 -3.37438,5.2433 -4.06365,4.55403 -0.20644,-0.20644 0.0951,-0.71599 1.07322,-1.81339 1.968,-2.20804 2.52308,-3.79957 2.5246,-7.23856 10e-4,-2.69507 -0.0439,-2.90864 -1.50939,-7.14375 -1.99021,-5.7516 -2.29313,-7.29584 -2.2987,-11.71824 -0.0101,-8.03445 -1.1787,-13.11467 -4.20566,-18.2835 -4.06539,-6.94203 -11.13823,-10.66493 -16.436653,-8.65169 -1.160838,0.44109 -1.543326,0.46817 -3.025841,0.21422 -5.061421,-0.86698 -10.45001,2.49233 -13.72168,8.55426 -2.124561,3.93651 -2.830831,7.75117 -2.83299,15.30138 -0.0019,6.69071 -0.370485,9.30785 -1.974065,14.01734 -1.52753,4.48615 -1.878916,6.62923 -1.471012,8.9716 0.444015,2.54972 1.456896,4.4279 3.507973,6.50481 0.984911,0.99732 1.790747,1.92006 1.790747,2.05052 0,0.44828 -0.715924,0.23608 -1.763312,-0.52264 z m 43.258183,-42.24275 c -1.4679,-0.79718 -1.53986,-3.24472 -0.12453,-4.23606 0.8646,-0.60559 2.40444,-0.48658 3.26334,0.25222 0.61643,0.53022 0.74236,0.8483 0.74236,1.87499 0,1.02669 -0.12593,1.34476 -0.74236,1.87499 -0.84787,0.72931 -2.06018,0.81964 -3.13881,0.23386 z m 2.47128,-1.09153 c 0.26612,-0.24083 0.48385,-0.67794 0.48385,-0.97135 0,-1.38678 -1.97436,-2.03925 -2.76312,-0.91314 -0.54435,0.77716 -0.51955,1.15638 0.11729,1.79321 0.64341,0.64341 1.51138,0.68006 2.16198,0.0913 z m 1.98316,-2.9135 c -0.097,-0.097 -0.17639,-0.98027 -0.17639,-1.9628 0,-1.73761 -0.024,-1.80123 -0.87807,-2.32908 -1.57648,-0.97432 -3.86373,-3.63017 -4.74118,-5.50523 -1.13312,-2.42142 -1.32586,-5.51609 -0.49115,-7.88588 1.58132,-4.48943 6.05964,-8.017117 11.76589,-9.268277 3.1495,-0.690565 8.01532,-0.4472 10.98712,0.549522 10.41152,3.491955 13.52324,14.028545 6.14077,20.793245 -1.96145,1.79731 -4.97036,3.37212 -7.71904,4.03999 -2.02399,0.49179 -6.61233,0.56072 -8.74981,0.13145 -1.40432,-0.28202 -1.49912,-0.26268 -3.2411,0.66146 -1.74512,0.92581 -2.53529,1.13735 -2.89704,0.7756 z m 2.92455,-1.99029 c 1.63873,-0.84038 1.65308,-0.8425 3.37457,-0.50033 5.99249,1.19112 12.05914,-0.45674 15.89678,-4.31797 3.67658,-3.6992 4.44104,-7.58104 2.32565,-11.80945 -1.70461,-3.40732 -5.2997,-6.007727 -9.92159,-7.176504 -3.06325,-0.774631 -7.92143,-0.593521 -10.75721,0.401021 -4.07033,1.427511 -7.20429,3.938743 -8.68336,6.957963 -0.67159,1.3709 -0.75765,1.83147 -0.75863,4.05986 -9.6e-4,2.17663 0.0942,2.71695 0.71009,4.03105 0.99336,2.11954 1.94638,3.28727 3.78671,4.63986 1.68386,1.23757 1.91605,1.64476 1.95801,3.43378 0.0145,0.61846 0.11567,1.12453 0.22481,1.12458 0.10914,6e-5 0.93901,-0.37968 1.84417,-0.84386 z m 5.0419,-6.78806 c -4.62528,-3.67554 -6.39827,-7.18998 -5.05517,-10.02037 0.59268,-1.24898 1.76426,-1.92476 3.33901,-1.92599 1.29832,-10e-4 3.22197,0.76685 3.42163,1.36582 0.0708,0.21247 0.44931,0.0619 1.1086,-0.44094 1.32018,-1.00695 3.57889,-1.21488 4.80697,-0.44253 1.21441,0.76376 1.79346,2.19161 1.62815,4.01473 -0.16149,1.78088 -0.54527,2.57765 -2.12954,4.42109 -1.21555,1.4144 -3.93324,3.90584 -4.72795,4.33434 -0.34293,0.1849 -0.89424,-0.11617 -2.3917,-1.30615 z m 5.27069,-2.59912 c 2.97066,-2.96667 3.83544,-5.89829 2.21724,-7.5165 -0.58596,-0.58595 -1.0188,-0.77315 -1.78594,-0.7724 -1.1308,0.001 -2.54713,0.74607 -2.98934,1.57235 -0.3928,0.73395 -0.96161,0.68389 -1.49598,-0.13166 -0.90739,-1.38486 -3.34156,-1.91107 -4.4999,-0.97278 -2.40991,1.9521 -1.04307,5.42973 3.67845,9.35902 l 1.55424,1.29345 0.84083,-0.59706 c 0.46245,-0.32838 1.57863,-1.33387 2.4804,-2.23442 z"
       id="path1" /></g></svg>
