<?xml version="1.0" encoding="UTF-8" standalone="no"?>
<!-- Created with Inkscape (http://www.inkscape.org/) -->

<svg
   width="13.345245mm"
   height="15.832367mm"
   viewBox="0 0 13.345245 15.832367"
   version="1.1"
   id="svg1"
   xml:space="preserve"
   inkscape:export-filename="ビットマップ.svg"
   inkscape:export-xdpi="96"
   inkscape:export-ydpi="96"
   xmlns:inkscape="http://www.inkscape.org/namespaces/inkscape"
   xmlns:sodipodi="http://sodipodi.sourceforge.net/DTD/sodipodi-0.dtd"
   xmlns="http://www.w3.org/2000/svg"
   xmlns:svg="http://www.w3.org/2000/svg"><sodipodi:namedview
     id="namedview1"
     pagecolor="#ffffff"
     bordercolor="#111111"
     borderopacity="1"
     inkscape:showpageshadow="0"
     inkscape:pageopacity="0"
     inkscape:pagecheckerboard="1"
     inkscape:deskcolor="#d1d1d1"
     inkscape:document-units="mm"><inkscape:page
       x="-3.1189152e-20"
       y="0"
       width="13.345245"
       height="15.832367"
       id="page2"
       margin="0"
       bleed="0" /></sodipodi:namedview><defs
     id="defs1" /><g
     inkscape:label="Layer 1"
     inkscape:groupmode="layer"
     id="layer1"
     transform="translate(-133.57809,-52.894828)"><path
       style="fill:#000000;stroke:#000000;stroke-width:0.116;stroke-linecap:round;stroke-linejoin:round;stroke-dasharray:none;stroke-opacity:1"
       d="m 138.75517,68.614685 c -0.028,-0.02899 -0.0468,-0.05798 -0.0468,-0.06265 0,-0.0053 0.0468,-0.122408 0.1038,-0.260057 0.13091,-0.315697 0.17206,-0.531897 0.17206,-0.904637 0,-0.575474 -0.15523,-0.989826 -0.71911,-1.920777 -0.40397,-0.666555 -0.58258,-1.035328 -0.69667,-1.438443 -0.0561,-0.217321 -0.0748,-0.322522 -0.0654,-0.728178 0.002,-0.426509 0.009,-0.499259 0.0842,-0.723781 0.11969,-0.362642 0.25903,-0.621298 0.64149,-1.182192 0.47504,-0.698161 0.66674,-1.174852 0.66861,-1.662394 2.2e-4,-0.126802 -0.007,-0.144384 -0.0561,-0.124652 -0.16832,0.072 -0.48906,0.126336 -0.74529,0.126709 -0.86218,0.0015 -1.62636,-0.558175 -2.1879,-1.601004 -0.0842,-0.154014 -0.19077,-0.386019 -0.24033,-0.515627 -0.0748,-0.205726 -0.0842,-0.241914 -0.0468,-0.284649 0.0748,-0.07855 0.56948,-0.09707 0.87901,-0.0318 0.14214,0.02992 0.2637,0.04769 0.27119,0.04021 0.007,-0.0075 -0.003,-0.09482 -0.0187,-0.194035 -0.0374,-0.212277 -0.0944,-0.903329 -0.0944,-1.203868 -6.4e-4,-0.301484 0.0374,-0.3142 0.43483,-0.160841 0.173,0.06639 0.33478,0.12362 0.35909,0.127364 0.0281,0.0044 0.0561,-0.04115 0.0655,-0.128672 0.009,-0.07481 0.0561,-0.253608 0.1038,-0.397989 0.0655,-0.223496 0.0842,-0.26249 0.14775,-0.26249 0.0842,0 0.31794,0.180292 0.52741,0.40603 l 0.15616,0.168886 0.14214,-0.230042 c 0.20012,-0.322711 0.37125,-0.52021 0.42829,-0.495615 0.0281,0.01123 0.12811,0.142326 0.2263,0.291757 0.0982,0.149435 0.20105,0.304384 0.23004,0.344314 l 0.0468,0.07294 0.16365,-0.170567 c 0.21321,-0.221252 0.43389,-0.387513 0.51619,-0.387513 0.0748,0 0.12624,0.113149 0.22162,0.517963 0.0374,0.152891 0.0655,0.28147 0.0655,0.28568 0.002,0.0042 0.1384,-0.04489 0.30298,-0.110063 0.32075,-0.126617 0.46288,-0.146255 0.50122,-0.0692 0.0374,0.0692 -0.009,1.0754 -0.0561,1.368811 l -0.0468,0.24865 0.0748,-0.01871 c 0.39182,-0.09258 0.89024,-0.110436 1.05379,-0.0374 0.0842,0.0374 0.0654,0.149154 -0.0842,0.488041 -0.45634,1.033588 -1.11514,1.698098 -1.86969,1.883495 -0.25622,0.06265 -0.87246,0.05704 -1.02788,-0.009 -0.23659,-0.101084 -0.23472,-0.102581 -0.25435,0.18824 -0.0187,0.33066 -0.1384,0.73641 -0.29083,1.022238 -0.0655,0.1211 -0.25155,0.417908 -0.41706,0.659543 -0.54518,0.797097 -0.66487,1.091043 -0.68732,1.681262 -0.0281,0.664873 0.1169,1.071016 0.73033,2.097891 0.60316,1.009199 0.73314,1.352822 0.75745,1.996521 0.009,0.282499 0.002,0.451102 -0.0374,0.613814 -0.0748,0.356095 -0.24687,0.740993 -0.32917,0.740993 -0.009,0 -0.0468,-0.0243 -0.0748,-0.0533 z m -0.44885,-9.113283 c 0.0954,-0.02151 0.0944,-0.0243 -0.11222,-0.112497 -0.56014,-0.240605 -1.02237,-0.785594 -1.25755,-1.482355 -0.0945,-0.274646 -0.13559,-0.307749 -0.48252,-0.378818 -0.18516,-0.03834 -0.59848,-0.0505 -0.59848,-0.0187 0,0.03367 0.15523,0.356935 0.28147,0.585109 0.35535,0.645699 0.86125,1.12956 1.3678,1.309652 0.28895,0.102678 0.60596,0.141298 0.80327,0.09772 z m 2.02192,-0.05143 c 0.18889,-0.05049 0.54704,-0.232657 0.72939,-0.371055 0.22256,-0.168695 0.50777,-0.505246 0.69573,-0.817859 0.16832,-0.281002 0.35815,-0.670764 0.35815,-0.735471 0,-0.0505 -0.37779,-0.04208 -0.61905,0.01402 -0.30017,0.07014 -0.37592,0.123344 -0.42174,0.295873 -0.0842,0.321964 -0.30952,0.733043 -0.55265,1.023707 -0.17113,0.204698 -0.53022,0.468869 -0.7453,0.548636 -0.14775,0.05517 -0.15429,0.06171 -0.0842,0.08603 0.0944,0.03179 0.44699,0.0076 0.64056,-0.04395 z m -1.03331,-0.274366 c 0.30859,-0.217976 0.55733,-0.600625 0.63681,-0.977284 0.0561,-0.252763 0.0374,-0.770448 -0.028,-1.06616 -0.12531,-0.548167 -0.83039,-1.905151 -0.93868,-1.805908 -0.0842,0.07575 -0.47597,0.745761 -0.61063,1.040989 -0.53209,1.164896 -0.44512,2.155547 0.24033,2.727263 0.31232,0.260523 0.42828,0.27399 0.70227,0.08136 z m 0.97477,-0.385455 c 0.43015,-0.440068 0.67235,-1.039817 0.77895,-1.925874 0.0281,-0.223493 0.0561,-0.518429 0.0561,-0.655331 l 0.009,-0.248929 -0.0842,0.01965 c -0.2422,0.0533 -0.80514,0.374514 -0.99628,0.568645 l -0.0655,0.0664 0.0561,0.170844 c 0.0982,0.28484 0.15336,0.637568 0.15243,0.976568 -6.5e-4,0.517215 -0.12905,0.928201 -0.38901,1.247731 -0.0748,0.09258 -0.13653,0.177206 -0.13653,0.188615 0,0.05891 0.44885,-0.239953 0.61344,-0.408088 z m -2.02922,0.267165 c -0.44979,-0.517029 -0.56762,-1.355413 -0.31046,-2.201277 0.0842,-0.289979 0.11035,-0.243039 -0.24781,-0.506555 -0.21601,-0.158408 -0.66206,-0.381062 -0.76679,-0.382088 -0.0561,-6.45e-4 -0.0561,0.02057 -0.0374,0.346554 0.0842,1.461144 0.48346,2.354017 1.22875,2.779725 0.21882,0.124836 0.26184,0.112962 0.13279,-0.03647 z m -0.028,-2.905797 c 0.0748,-0.166637 0.0944,-0.236772 0.0655,-0.282875 -0.0468,-0.101835 -0.40678,-0.450541 -0.4311,-0.420803 -0.0281,0.03647 -0.11408,0.332528 -0.13933,0.488318 -0.0187,0.118574 -0.009,0.12615 0.17487,0.277826 0.1066,0.08603 0.20199,0.156728 0.21134,0.157568 0.009,8.59e-4 0.0561,-0.0981 0.11502,-0.220034 z m 2.07344,-0.180947 c -0.0561,-0.299051 -0.1412,-0.546204 -0.17486,-0.523949 -0.0842,0.05704 -0.35816,0.327292 -0.40304,0.402199 -0.0468,0.07761 -0.0468,0.09258 0.0561,0.301763 l 0.10941,0.220034 0.21228,-0.1557 c 0.18983,-0.139425 0.2104,-0.164954 0.1945,-0.244252 z m -2.79704,11.471203 c -0.0187,-0.02244 -0.0374,-0.06078 -0.0374,-0.0851 0,-0.09407 0.87902,-0.991574 0.97104,-0.991574 0.0374,0 0.10192,0.101556 0.10192,0.163085 0,0.01776 -0.0748,0.09258 -0.16084,0.167387 -0.0842,0.07481 -0.29924,0.282031 -0.46756,0.461294 -0.16832,0.179264 -0.32074,0.32589 -0.33851,0.32589 -0.0187,0 -0.0468,-0.01871 -0.0655,-0.04021 z m 4.5172,-1.066657 c -0.0468,-0.0073 -0.51245,-0.07481 -1.02733,-0.150649 -0.97533,-0.143164 -1.36584,-0.167571 -1.58942,-0.0994 -0.15336,0.04676 -0.22911,0.0063 -0.21414,-0.112962 0.0281,-0.184594 0.56107,-0.197778 1.62383,-0.04021 0.42735,0.06359 0.98038,0.141392 1.22847,0.173093 0.73407,0.0937 0.8201,0.06359 1.84893,-0.647853 0.89584,-0.619706 1.33778,-1.012477 2.25542,-2.005855 0.42173,-0.45662 0.52086,-0.581925 0.52086,-0.655706 -0.002,-0.128485 -0.1038,-0.196655 -0.29644,-0.196655 -0.20759,0 -0.4713,0.149523 -0.85096,0.481866 -0.83412,0.73136 -1.15123,0.954104 -1.55651,1.094176 l -0.17299,0.05985 -0.009,0.182725 c -0.0187,0.211149 -0.0842,0.338887 -0.24032,0.426507 -0.0954,0.05517 -0.21415,0.05985 -1.34714,0.05891 -0.68357,-8.59e-4 -1.2972,0.0025 -1.36462,0.0074 -0.10567,0.0077 -0.12437,-0.0015 -0.13279,-0.06452 -0.0187,-0.154108 0.0468,-0.162056 1.44009,-0.180105 1.23109,-0.01589 1.3116,-0.02057 1.37238,-0.08135 0.13559,-0.135407 0.0468,-0.439414 -0.17206,-0.602033 -0.16645,-0.122779 -0.47224,-0.199741 -0.92858,-0.234152 -0.52928,-0.04021 -0.68544,-0.07949 -1.18302,-0.301392 -0.62279,-0.277074 -0.81168,-0.322243 -1.34695,-0.320557 -0.41519,0.0015 -0.48346,0.01027 -0.70601,0.09258 -0.25155,0.09351 -0.56762,0.286054 -0.8837,0.539001 -0.14587,0.116893 -0.18328,0.133911 -0.20666,0.0937 -0.0748,-0.125588 -0.0281,-0.191887 0.2394,-0.396679 0.59099,-0.446615 0.92296,-0.566967 1.55641,-0.566217 0.55266,6.44e-4 0.74062,0.04769 1.48956,0.374609 0.33477,0.145973 0.47317,0.188146 0.70601,0.215358 0.15897,0.01871 0.42455,0.04956 0.591,0.0692 0.16645,0.01965 0.37779,0.06359 0.47037,0.09819 l 0.16832,0.06265 0.17393,-0.14298 c 0.17113,-0.140267 0.346,-0.336739 0.73968,-0.829265 0.27212,-0.341599 0.52741,-0.453533 0.73688,-0.324955 0.0655,0.04208 0.0842,0.03741 0.19918,-0.04489 0.18515,-0.136715 0.27867,-0.172999 0.44979,-0.172999 0.17674,0 0.25997,0.03834 0.35441,0.161685 0.0655,0.08229 0.0748,0.0851 0.18703,0.04769 0.43015,-0.142417 0.8014,0.118013 0.72659,0.510485 -0.0187,0.123248 -0.6097,0.781479 -1.31787,1.479781 -0.53676,0.528998 -0.81636,0.758947 -1.48703,1.222692 -1.02349,0.707701 -1.10952,0.746789 -1.62365,0.73865 -0.17767,-0.0028 -0.36563,-0.01121 -0.41613,-0.01868 z m 1.97124,-2.403243 c 0.36563,-0.161309 0.64242,-0.360769 1.21808,-0.876585 0.16833,-0.151115 0.37312,-0.323923 0.4526,-0.384052 0.16365,-0.122968 0.17955,-0.176177 0.0655,-0.240515 -0.20012,-0.118759 -0.44044,0.03928 -1.07352,0.707607 -0.24874,0.262395 -0.55266,0.549385 -0.67609,0.637847 -0.1225,0.08884 -0.24968,0.17898 -0.28147,0.201146 -0.11035,0.07855 0.0748,0.04956 0.28989,-0.04582 z m -0.23753,-0.235464 c 0.39182,-0.283902 1.11373,-1.032561 1.05622,-1.094307 -0.0748,-0.07948 -0.21694,0.0093 -0.44324,0.279413 -0.12718,0.150369 -0.36564,0.422675 -0.53022,0.605117 -0.16458,0.182442 -0.28895,0.331688 -0.27492,0.331688 0.009,0 0.10005,-0.05517 0.19263,-0.121939 z m -7.53708,1.691354 c -0.0187,-0.0093 -0.0374,-0.05237 -0.0374,-0.09501 0,-0.06172 0.11783,-0.174867 0.55733,-0.539098 0.30672,-0.253605 0.58071,-0.46111 0.61064,-0.46111 0.0748,0 0.0944,0.123155 0.0374,0.199557 -0.0561,0.07668 -1.03275,0.881446 -1.08652,0.899866 -0.0187,0.0071 -0.0561,0.0052 -0.0748,-0.0041 z m -0.86873,-0.746508 c -1.18003,-1.367718 -1.80506,-3.292141 -1.68275,-5.181731 0.25903,-4.003471 3.49568,-6.962516 7.10861,-6.498823 2.82491,0.362543 5.08987,2.71851 5.57024,5.793852 0.1197,0.763341 0.11222,1.770288 -0.0187,2.486871 -0.0748,0.419309 -0.10193,0.48477 -0.1917,0.470555 -0.0842,-0.0131 -0.0842,-0.113898 -0.008,-0.586322 0.0281,-0.186275 0.0655,-0.529184 0.0748,-0.762028 0.0748,-1.6518 -0.2955,-3.057411 -1.16582,-4.419903 -0.23565,-0.367875 -0.89771,-1.114074 -1.24315,-1.400595 -1.08306,-0.897625 -2.41822,-1.393734 -3.75096,-1.393734 -2.77731,0 -5.23762,2.070902 -5.96261,5.019004 -0.2048,0.831135 -0.26651,1.895004 -0.15898,2.691906 0.18516,1.36426 0.74156,2.637493 1.57606,3.610308 0.16551,0.192915 0.22349,0.282969 0.21601,0.338702 -0.0187,0.157568 -0.12624,0.109032 -0.36563,-0.168042 z m 9.79381,-4.370083 c 0.0842,-2.015672 -0.73874,-3.823414 -2.27169,-4.957293 -0.69386,-0.51273 -1.58278,-0.863121 -2.35482,-0.927737 -0.51151,-0.04301 -0.56294,-0.06359 -0.51245,-0.208625 0.0187,-0.04956 0.0655,-0.0533 0.38995,-0.03367 1.35967,0.08136 2.72457,0.819355 3.64277,1.969021 0.90893,1.138762 1.40782,2.688766 1.32338,4.115173 -0.0187,0.375264 -0.0468,0.440347 -0.15429,0.440347 h -0.0748 z"
       id="path1-2" /></g></svg>
