<?xml version="1.0" encoding="UTF-8" standalone="no"?>
<!-- Created with Inkscape (http://www.inkscape.org/) -->

<svg
   width="81.492378mm"
   height="75.14167mm"
   viewBox="0 0 81.492378 75.14167"
   version="1.1"
   id="svg1"
   xml:space="preserve"
   xmlns:inkscape="http://www.inkscape.org/namespaces/inkscape"
   xmlns:sodipodi="http://sodipodi.sourceforge.net/DTD/sodipodi-0.dtd"
   xmlns="http://www.w3.org/2000/svg"
   xmlns:svg="http://www.w3.org/2000/svg"><sodipodi:namedview
     id="namedview1"
     pagecolor="#ffffff"
     bordercolor="#111111"
     borderopacity="1"
     inkscape:showpageshadow="0"
     inkscape:pageopacity="0"
     inkscape:pagecheckerboard="1"
     inkscape:deskcolor="#d1d1d1"
     inkscape:document-units="mm"><inkscape:page
       x="0"
       y="0"
       width="81.492378"
       height="75.14167"
       id="page2"
       margin="0"
       bleed="0" /></sodipodi:namedview><defs
     id="defs1" /><g
     inkscape:label="Layer 1"
     inkscape:groupmode="layer"
     id="layer1"
     transform="translate(-64.028455,-112.97708)"><path
       style="fill:#000000"
       d="m 65.446541,187.85639 c -1.496046,-0.60373 -1.417373,1.02247 -1.417373,-29.29755 0,-27.5019 0.0067,-27.86137 0.529167,-28.38384 0.291042,-0.29104 0.881201,-0.52917 1.311466,-0.52917 H 66.6521 l 0.0776,-7.65201 0.0776,-7.65202 0.641433,-0.68236 c 0.352789,-0.37529 0.885597,-0.68236 1.18402,-0.68236 0.298423,0 2.926809,0.70759 5.840858,1.57241 2.91405,0.86482 5.78538,1.69776 6.380734,1.85097 1.888774,0.48606 1.892482,0.49878 2.106991,7.2261 l 0.191931,6.01927 h 0.756704 c 0.416187,0 0.994828,0.23813 1.28587,0.52917 0.522484,0.52248 0.529167,0.88194 0.529167,28.46306 v 27.93389 l -0.773398,0.7734 -0.773397,0.7734 -9.082331,-0.0168 c -4.995283,-0.009 -9.337483,-0.11974 -9.649334,-0.24559 z m 18.69096,-1.32514 c 0.327579,-0.32758 0.529166,-0.88195 0.529166,-1.45521 V 184.15 h -9.789582 -9.789583 v 0.92604 c 0,0.57326 0.201587,1.12763 0.529166,1.45521 0.507787,0.50778 0.881945,0.52916 9.260417,0.52916 8.378471,0 8.75263,-0.0214 9.260416,-0.52916 z m 0.464311,-29.56719 -0.06744,-26.1276 -9.361473,-0.0696 c -6.688959,-0.0497 -9.464806,0.0162 -9.723437,0.23083 -0.301719,0.25041 -0.361964,4.61069 -0.361964,26.19718 v 25.89676 h 9.790873 9.790873 z m -17.221255,-3.15295 c -0.09701,-0.097 -0.176389,-0.82012 -0.176389,-1.6069 0,-1.21942 0.06833,-1.41757 0.463021,-1.3428 0.309884,0.0587 0.491345,0.3835 0.548661,0.98205 0.146547,1.53039 -0.276352,2.52659 -0.835293,1.96765 z m 0,-5.29167 c -0.228981,-0.22898 -0.231197,-12.90977 -0.0023,-13.13867 0.09575,-0.0958 0.333876,-0.0415 0.529166,0.12059 0.277675,0.23045 0.354286,1.57085 0.351461,6.14927 -0.0041,6.58385 -0.13549,7.61166 -0.878332,6.86881 z M 81.756251,123.7001 v -5.94573 l -1.521354,-0.42683 c -0.836745,-0.23475 -3.745864,-1.08729 -6.464709,-1.89453 -2.718845,-0.80723 -5.111098,-1.40333 -5.316117,-1.32466 -0.469878,0.18031 -0.720736,3.89891 -0.720736,10.68385 v 4.85363 h 7.011458 7.011458 z m 31.201659,54.36534 c -4.52309,-0.52396 -7.83196,-1.67369 -11.11716,-3.86286 -1.0708,-0.71356 -3.857649,-3.14615 -6.192993,-5.40577 -2.335344,-2.25961 -4.689894,-4.38268 -5.232335,-4.71793 -1.299468,-0.80312 -1.260549,-1.38541 0.138224,-2.06804 1.679861,-0.8198 3.91055,-2.59969 7.739062,-6.17507 5.550882,-5.18387 7.925402,-6.66369 10.692622,-6.66369 1.80378,0 2.97916,0.46007 5.3983,2.11299 1.54913,1.05848 2.01695,1.24722 3.09137,1.24722 1.07441,0 1.54224,-0.18874 3.09137,-1.24722 2.45212,-1.67546 3.46665,-2.06011 5.43294,-2.05986 3.01057,3.8e-4 4.90519,1.19821 11.44708,7.23716 2.03985,1.88303 4.69108,4.06855 5.89163,4.85671 1.20055,0.78816 2.18281,1.53044 2.18281,1.64952 0,0.11908 -0.44648,0.55535 -0.99219,0.96948 -0.5457,0.41414 -2.7228,2.4873 -4.83801,4.60703 -7.28249,7.29809 -11.73526,9.3644 -20.76042,9.63391 -2.18282,0.0652 -4.87035,0.0141 -5.9723,-0.11358 z m 11.53681,-1.46299 c 5.51684,-1.13122 10.18351,-4.12445 15.48645,-9.93312 l 2.15545,-2.36101 -1.94781,0.16465 c -2.17644,0.18397 -5.57454,-0.19738 -8.95548,-1.00503 -3.48532,-0.83258 -5.19088,-0.74345 -8.60941,0.44993 -2.50039,0.87287 -3.20984,1.01109 -5.14892,1.00317 -1.89166,-0.008 -2.68718,-0.16237 -5.00725,-0.97344 -3.26534,-1.14152 -5.30362,-1.24792 -8.62962,-0.45046 -3.33575,0.79979 -6.656002,1.1576 -9.04177,0.97438 l -2.173432,-0.16692 3.546866,3.46418 c 1.950776,1.9053 4.238506,4.00218 5.083846,4.65973 3.22869,2.51145 7.50367,4.15109 11.95154,4.58393 3.17758,0.30923 8.77297,0.10602 11.28954,-0.40999 z m -12.55994,-1.99501 c -4.20255,-0.55729 -8.79092,-2.76103 -7.80385,-3.7481 0.0823,-0.0823 1.12739,0.34921 2.32236,0.95896 2.29686,1.17199 3.93019,1.62709 6.86665,1.91327 1.45333,0.14164 1.78262,0.25676 1.71753,0.60048 -0.0971,0.51259 -0.82605,0.57729 -3.10269,0.27539 z m 10.5673,-11.83401 c 3.48957,-1.21361 5.21207,-1.2524 9.65729,-0.21747 2.20253,0.51279 3.9854,0.75222 5.82084,0.78172 2.6691,0.0429 5.16514,-0.23274 5.15255,-0.569 -0.004,-0.10022 -0.58055,-0.57119 -1.28176,-1.04661 -0.70122,-0.47541 -3.03739,-2.48079 -5.1915,-4.4564 -6.50768,-5.96843 -8.04489,-6.97492 -10.66019,-6.97975 -1.69251,-0.003 -2.57786,0.3464 -4.89415,1.93219 -2.87698,1.96966 -4.35208,1.9725 -7.26426,0.014 -2.62797,-1.76738 -3.15666,-1.99142 -4.73269,-2.00559 -2.67346,-0.024 -4.09456,0.93357 -11.609852,7.82313 -1.722774,1.57933 -3.780072,3.3016 -4.571774,3.82726 l -1.439458,0.95575 0.756958,0.2271 c 0.416327,0.12491 2.185708,0.24318 3.931958,0.26283 2.581888,0.0291 3.842248,-0.10578 6.746878,-0.72179 4.51263,-0.95705 6.37608,-0.9544 8.99583,0.0128 4.51254,1.66599 6.1802,1.69118 10.58333,0.15985 z m -20.27214,-5.9265 c -0.25597,-0.41418 2.36727,-2.79915 4.14008,-3.76403 2.01356,-1.09591 4.86027,-0.97006 4.41315,0.1951 -0.11017,0.2871 -0.44935,0.35038 -1.33994,0.25 -1.51586,-0.17086 -2.94635,0.49141 -4.98372,2.30728 -1.54894,1.38055 -1.90244,1.54095 -2.22957,1.01165 z"
       id="path1" /></g></svg>
