<?xml version="1.0" encoding="UTF-8" standalone="no"?>
<!-- Created with Inkscape (http://www.inkscape.org/) -->

<svg
   width="45.889618mm"
   height="120.10789mm"
   viewBox="0 0 45.889618 120.10789"
   version="1.1"
   id="svg1"
   xml:space="preserve"
   xmlns:inkscape="http://www.inkscape.org/namespaces/inkscape"
   xmlns:sodipodi="http://sodipodi.sourceforge.net/DTD/sodipodi-0.dtd"
   xmlns="http://www.w3.org/2000/svg"
   xmlns:svg="http://www.w3.org/2000/svg"><sodipodi:namedview
     id="namedview1"
     pagecolor="#ffffff"
     bordercolor="#111111"
     borderopacity="1"
     inkscape:showpageshadow="0"
     inkscape:pageopacity="0"
     inkscape:pagecheckerboard="1"
     inkscape:deskcolor="#d1d1d1"
     inkscape:document-units="mm"><inkscape:page
       x="0"
       y="0"
       width="45.889618"
       height="120.10789"
       id="page2"
       margin="0"
       bleed="0" /></sodipodi:namedview><defs
     id="defs1" /><g
     inkscape:label="Layer 1"
     inkscape:groupmode="layer"
     id="layer1"
     transform="translate(-84.200828,-86.846655)"><path
       style="fill:#000000"
       d="m 90.793838,206.6153 c -0.177194,-0.46176 0.471431,-2.44211 2.536713,-7.74498 2.848206,-7.31311 3.515959,-10.28102 3.508898,-15.59573 -0.0054,-4.06492 -0.380194,-7.11508 -1.931764,-15.72112 -0.807912,-4.48122 -1.850298,-11.11726 -1.850298,-11.77939 0,-0.0539 -0.64807,-0.46368 -1.440155,-0.91071 -2.814377,-1.58834 -4.095437,-3.38395 -4.784616,-6.70642 -0.219505,-1.05821 -0.903026,-3.35278 -1.518935,-5.09903 -1.107468,-3.13994 -1.119747,-3.21444 -1.111862,-6.74687 0.0098,-4.3838 0.325149,-5.70727 2.774015,-11.64167 2.480657,-6.01143 2.866193,-7.72803 3.297999,-14.68437 0.531429,-8.56126 3.036949,-14.774603 7.751126,-19.221718 3.818481,-3.602165 7.535271,-4.53782 14.082431,-3.545079 4.33611,0.657481 8.91993,2.352211 10.27105,3.797413 0.39004,0.417191 1.15644,0.970618 1.70311,1.229839 1.45767,0.69119 3.49943,3.059078 4.17511,4.84199 1.25205,3.303755 0.54817,7.265665 -1.7437,9.814775 -1.67832,1.86669 -1.55702,3.23704 0.54562,6.16375 0.50809,0.70723 0.92381,1.50297 0.92381,1.76831 0,0.51697 -0.8171,1.37428 -1.78594,1.87384 -0.37814,0.19498 -0.59531,0.54965 -0.59531,0.97224 0,0.36591 -0.1658,0.9868 -0.36843,1.37976 -0.20264,0.39295 -0.63715,1.81175 -0.96558,3.15288 -0.4061,1.65827 -0.79086,2.62039 -1.2026,3.0072 -0.90178,0.84718 -2.5446,0.92535 -5.24258,0.24944 -1.27497,-0.31941 -2.3528,-0.54084 -2.39519,-0.49207 -0.82532,0.94954 -1.72254,4.47128 -1.72796,6.78254 -0.005,1.96206 0.25076,2.53457 2.502,5.60926 0.90566,1.23693 2.60889,3.67771 3.78497,5.42396 1.17607,1.74625 3.58984,5.13953 5.36393,7.54062 1.77409,2.4011 3.5844,5.11985 4.02291,6.04168 0.7454,1.56697 0.78862,1.82525 0.66414,3.96875 -0.10832,1.86512 -0.40866,3.10687 -1.61047,6.65832 -0.81253,2.4011 -1.60763,5.19034 -1.7669,6.19832 -0.15928,1.00798 -0.28888,4.29334 -0.28801,7.30081 0.002,5.54752 0.26206,8.63573 1.47236,17.45712 0.91254,6.65125 1.06439,8.61845 0.68344,8.85389 -0.17347,0.10721 -0.38268,0.12766 -0.4649,0.0454 -0.15109,-0.15109 -1.22302,-8.17524 -2.19614,-16.4396 -0.59602,-5.06181 -0.72068,-13.77758 -0.24666,-17.24527 0.1556,-1.13832 0.94209,-4.02378 1.74775,-6.41213 1.09585,-3.2486 1.5006,-4.86416 1.6068,-6.4135 0.13255,-1.93396 0.0872,-2.18065 -0.68519,-3.72732 -0.45493,-0.91097 -2.15154,-3.44224 -3.77024,-5.62505 -1.6187,-2.18281 -4.11019,-5.70603 -5.53664,-7.82938 -1.99557,-2.9705 -2.79214,-3.94289 -3.45486,-4.21739 -0.47372,-0.19622 -2.47874,-1.42042 -4.45561,-2.72044 -3.60458,-2.37043 -6.91172,-4.1505 -7.71111,-4.1505 -0.23516,0 -1.73907,1.27993 -3.34203,2.84428 -3.434721,3.352 -4.542239,5.26684 -5.362301,9.27113 -1.197063,5.84516 -1.010292,10.00096 0.953769,21.22209 1.813913,10.36331 1.912387,11.027 2.201762,14.83939 0.510437,6.72477 -0.160448,10.29898 -3.658305,19.49001 -1.149223,3.01971 -2.200796,5.84014 -2.336828,6.26761 -0.278191,0.87418 -0.800388,1.18215 -1.022599,0.60308 z m 2.184817,-55.61864 c 0.09974,-6.15481 1.332524,-10.94525 3.583866,-13.92648 0.618791,-0.8194 2.29251,-2.59344 3.719379,-3.94232 2.92958,-2.76945 3.97375,-4.14775 4.65746,-6.14785 0.74962,-2.19293 0.8714,-3.99508 0.52761,-7.80785 l -0.32057,-3.55523 -1.26002,-1.26002 c -2.99118,-2.99118 -2.22138,-8.07607 1.22263,-8.07607 0.94408,0 1.31075,0.15759 2.06292,0.88662 0.80069,0.77607 1.02522,0.8627 1.80063,0.69473 4.80936,-1.04181 9.4958,-5.09093 12.15612,-10.502999 0.48067,-0.977846 1.03187,-1.838504 1.22489,-1.912575 0.48104,-0.184593 2.01816,2.27808 2.73507,4.381946 0.39798,1.167948 0.58645,2.397508 0.61029,3.981538 0.0385,2.55908 0.33203,2.69174 1.27082,0.5744 1.13671,-2.56374 1.12057,-5.219466 -0.0464,-7.630035 -0.5978,-1.234886 -2.28765,-3.033907 -3.3663,-3.583787 -0.40374,-0.205821 -1.25243,-0.818915 -1.88597,-1.362431 -1.21664,-1.043753 -4.09177,-2.275489 -7.43892,-3.1869 -1.5525,-0.422739 -2.83975,-0.547664 -5.82898,-0.56569 -3.40396,-0.02053 -4.00477,0.04448 -5.32945,0.57661 -1.91178,0.767976 -4.561888,2.795304 -5.915341,4.525222 -3.777156,4.82778 -5.364166,9.630851 -5.95347,18.018141 -0.467104,6.64806 -0.820391,8.14718 -3.29509,13.98222 -2.40977,5.68195 -2.659187,6.73253 -2.647857,11.1532 0.0098,3.82443 0.01321,3.84558 1.08788,6.74687 0.592926,1.60073 1.280799,3.83121 1.528607,4.95662 0.545725,2.47838 1.624027,4.18338 3.421841,5.41058 0.707114,0.48268 1.361957,0.87734 1.455208,0.87704 0.09325,-3e-4 0.193649,-1.48778 0.223107,-3.3055 z m 21.148015,-14.74862 c -1.06294,-1.39359 -1.49012,-2.68831 -1.49012,-4.51638 0,-1.79237 0.75118,-5.17166 1.44998,-6.52301 l 0.42119,-0.81448 -1.20017,-0.51445 c -0.67941,-0.29123 -1.20016,-0.69073 -1.20016,-0.92073 0,-0.568 0.39501,-0.513 2.51354,0.35 3.62883,1.47822 6.66149,1.9738 7.62197,1.24554 0.29223,-0.22157 0.73147,-1.36055 1.12933,-2.92845 0.35811,-1.41122 0.76798,-2.78425 0.91084,-3.05118 0.14285,-0.26692 0.25973,-0.84883 0.25973,-1.29314 0,-0.65183 0.20007,-0.93412 1.03609,-1.46188 0.56986,-0.35973 1.10917,-0.77229 1.19848,-0.91679 0.0893,-0.14451 -0.2463,-0.79813 -0.74579,-1.45249 -0.49948,-0.65437 -1.11632,-1.81648 -1.37074,-2.58247 -0.4178,-1.25788 -0.42977,-1.66867 -0.12362,-4.24309 0.18644,-1.5677 0.26066,-3.35805 0.16494,-3.97854 -0.25006,-1.62102 -1.14773,-4.19648 -1.72408,-4.946487 l -0.49437,-0.643329 -0.72186,1.437079 c -2.67005,5.315517 -7.65756,9.440297 -12.49642,10.334807 -1.40898,0.26047 -1.43382,0.25363 -2.46644,-0.67928 -1.18098,-1.06694 -2.10549,-1.20143 -2.88696,-0.41997 -1.63394,1.63394 -0.72683,5.29258 1.64237,6.62414 0.95037,0.53414 1.29596,1.17485 0.73583,1.36419 -0.17034,0.0576 -0.16411,0.68521 0.0179,1.80798 0.38537,2.37654 0.39084,7.03169 0.01,8.46667 -0.42304,1.59377 -1.07025,3.11227 -1.79654,4.21503 l -0.59785,0.90774 2.31499,1.1001 c 1.27324,0.60505 3.67045,2.01201 5.32712,3.12658 1.65667,1.11456 3.06357,1.97503 3.12646,1.91214 0.0629,-0.0629 -0.19166,-0.51552 -0.56565,-1.00585 z m -6.87185,70.50832 c -0.3266,-0.53433 -4.51263,-12.07682 -5.69801,-15.71161 -1.696472,-5.20198 -2.062214,-6.79004 -2.398874,-10.416 -0.28257,-3.04339 -1.06988,-15.28967 -1.072152,-16.67688 -0.001,-0.63756 -0.155427,-0.86006 -0.753323,-1.08575 -0.68561,-0.25878 -0.767376,-0.43086 -0.926042,-1.9489 -0.09572,-0.91577 -0.174032,-3.90977 -0.174032,-6.65332 0,-4.08735 0.06657,-4.98827 0.368568,-4.98827 0.604761,0 0.689765,0.63371 0.689765,5.1422 0,2.36785 0.0754,5.02653 0.167548,5.90818 l 0.167547,1.60301 1.750682,0.35403 c 2.264673,0.45798 9.208803,0.40661 11.011093,-0.0815 l 1.32292,-0.35825 0.071,-6.30429 c 0.0546,-4.85052 0.14614,-6.27936 0.39688,-6.19617 0.51348,0.17035 0.68205,2.03969 0.70315,7.79731 l 0.0196,5.35102 -0.73841,0.38184 -0.73841,0.38185 -0.32413,7.23172 c -0.44194,9.86001 -0.45992,9.52654 0.75131,13.93311 0.58687,2.13506 1.48695,6.14413 2.00019,8.90902 0.51323,2.7649 1.28036,6.86947 1.70472,9.12127 0.5017,2.66213 0.68125,4.1845 0.51336,4.35239 -0.5314,0.5314 -0.83978,-0.40642 -1.74335,-5.3016 -1.93469,-10.48139 -2.52788,-13.31929 -3.58848,-17.16789 l -1.09371,-3.96875 0.31467,-7.54062 c 0.17306,-4.14735 0.38355,-8.00488 0.46775,-8.57229 l 0.15309,-1.03166 -1.02212,0.17824 c -2.12873,0.37123 -6.38865,0.47839 -8.28978,0.20854 -1.0868,-0.15426 -2.029064,-0.22742 -2.093919,-0.16256 -0.160473,0.16047 0.446368,10.64626 0.917979,15.86202 0.22833,2.52518 0.64409,5.19416 1.0304,6.61458 0.78923,2.9019 3.2285,10.12122 5.40404,15.99391 0.88677,2.39373 1.6123,4.50709 1.6123,4.69635 0,0.36652 -0.68029,0.47865 -0.88382,0.14568 z"
       id="path1" /></g></svg>
