<?xml version="1.0" encoding="UTF-8" standalone="no"?>
<!-- Created with Inkscape (http://www.inkscape.org/) -->

<svg
   width="110.07343mm"
   height="67.087608mm"
   viewBox="0 0 110.07343 67.087608"
   version="1.1"
   id="svg1"
   xml:space="preserve"
   xmlns:inkscape="http://www.inkscape.org/namespaces/inkscape"
   xmlns:sodipodi="http://sodipodi.sourceforge.net/DTD/sodipodi-0.dtd"
   xmlns="http://www.w3.org/2000/svg"
   xmlns:svg="http://www.w3.org/2000/svg"><sodipodi:namedview
     id="namedview1"
     pagecolor="#ffffff"
     bordercolor="#111111"
     borderopacity="1"
     inkscape:showpageshadow="0"
     inkscape:pageopacity="0"
     inkscape:pagecheckerboard="1"
     inkscape:deskcolor="#d1d1d1"
     inkscape:document-units="mm"><inkscape:page
       x="0"
       y="0"
       width="110.07343"
       height="67.087608"
       id="page2"
       margin="0"
       bleed="0" /></sodipodi:namedview><defs
     id="defs1" /><g
     inkscape:label="Layer 1"
     inkscape:groupmode="layer"
     id="layer1"
     transform="translate(-62.487813,-78.810682)"><path
       style="fill:#000000"
       d="m 109.84823,145.77935 c -6.62331,-0.28478 -13.999534,-1.13954 -17.991669,-2.08489 -4.268648,-1.01082 -5.925763,-1.95362 -7.90709,-4.49865 -0.118674,-0.15244 -1.215861,-0.48764 -2.438194,-0.74489 -8.302434,-1.74735 -15.01037,-4.75967 -17.312284,-7.7744 -1.033905,-1.35406 -1.71118,-3.32124 -1.71118,-4.97021 0,-3.54549 5.886186,-6.53003 17.462499,-8.8542 1.527968,-0.30677 3.041054,-0.61211 3.362413,-0.67854 0.557491,-0.11523 0.584288,-0.24704 0.584288,-2.87401 0,-1.51428 0.178296,-3.52203 0.396214,-4.46167 1.724633,-7.43647 8.131,-13.172396 15.977143,-14.30509 1.24605,-0.179884 2.31012,-0.460785 2.3646,-0.624225 0.0581,-0.174228 -0.49481,-0.420447 -1.33646,-0.595173 -3.644722,-0.756642 -7.252503,-3.330782 -8.707233,-6.212585 -1.168871,-2.315521 -1.915236,-7.063669 -1.270619,-8.083297 0.579035,-0.915894 6.51536,1.388303 8.791532,3.412451 1.45873,1.297217 3.01097,4.183956 3.25265,6.049051 0.33812,2.609229 0.35899,2.641133 0.97264,1.486695 1.3806,-2.597236 3.25797,-4.54583 4.07691,-4.231572 0.63608,0.244087 0.42986,0.692723 -1.0563,2.297952 -1.39741,1.509369 -3.3307,4.879339 -3.3307,5.805838 0,0.363694 0.38505,0.534245 1.78594,0.791053 4.77824,0.875937 9.52718,3.780098 12.00722,7.342872 l 0.41688,0.59889 1.83539,-1.78952 c 3.32933,-3.246107 7.30289,-5.005004 11.95078,-5.290015 l 2.46392,-0.151088 -0.17879,-1.08462 c -0.34395,-2.086551 -1.43685,-5.064951 -2.35869,-6.427928 -0.90712,-1.341216 -1.00797,-2.197316 -0.25885,-2.197316 0.74777,0 2.34144,2.691927 3.18259,5.375852 l 0.48246,1.539395 0.97764,-1.943012 c 2.05162,-4.077503 4.61866,-5.657329 10.03975,-6.17874 2.27553,-0.218866 2.49114,0.01473 1.94478,2.106963 -1.21343,4.646723 -3.74639,7.492511 -7.57638,8.51208 -0.76602,0.20392 -1.80948,0.374 -2.3188,0.377956 -1.43537,0.01115 -1.83568,0.424507 -0.62149,0.641736 1.62456,0.290645 5.14274,2.153703 7.07179,3.744878 4.11643,3.395419 6.39088,7.980439 6.7395,13.585989 l 0.17165,2.75998 3.43959,0.71209 c 9.50886,1.9686 14.97117,4.20108 16.73038,6.83781 1.35529,2.03133 0.35144,5.86902 -2.13462,8.16059 -2.85949,2.63579 -9.65837,5.27456 -18.16764,7.05121 -0.4046,0.0845 -0.85497,0.49759 -1.15979,1.06383 -1.61038,2.9915 -9.39554,4.876 -23.57875,5.70756 -4.06122,0.23811 -12.60679,0.28464 -17.06562,0.0929 z m 16.40416,-1.41598 c 11.68542,-0.59772 20.13759,-2.2182 22.32057,-4.27936 l 0.83047,-0.78413 -0.77641,0.16998 c -1.6611,0.36367 -9.42979,1.44001 -12.32046,1.70698 -15.57751,1.4387 -34.13303,0.92763 -47.187315,-1.29966 -1.617945,-0.27605 -3.003389,-0.43949 -3.078764,-0.3632 -0.07537,0.0763 0.220143,0.42658 0.656705,0.77841 3.812915,3.07292 22.157354,4.96091 39.555204,4.07098 z m 2.51354,-3.96881 c 12.98394,-0.76182 24.97278,-2.7737 32.45479,-5.44632 2.79928,-0.99992 6.34895,-2.88579 7.74538,-4.11498 1.47628,-1.29948 1.57296,-1.78433 0.18052,-0.90532 -3.41777,2.15754 -10.83728,4.11186 -21.0661,5.54887 -28.16091,3.95623 -67.7865,1.52525 -80.881958,-4.96199 -2.587397,-1.28174 -2.743823,-0.96223 -0.410295,0.83808 1.934479,1.49244 5.778965,3.26176 9.59017,4.41361 6.393362,1.93226 17.166137,3.69719 26.590623,4.35641 2.25557,0.15777 4.57729,0.32395 5.15938,0.36929 2.64607,0.20609 16.5848,0.14014 20.63749,-0.0976 z m 4.48952,-4.76101 c 9.0991,-0.57907 17.6622,-1.69066 24.74694,-3.21243 7.7523,-1.66515 13.22917,-4.4964 13.22917,-6.83878 0,-2.53393 -6.01335,-5.32208 -15.91885,-7.38092 -2.08082,-0.4325 -3.83787,-0.7318 -3.90455,-0.66512 -0.0667,0.0667 -0.37649,1.00621 -0.68847,2.08786 l -0.56723,1.96662 0.81611,0.1742 c 3.66415,0.78213 7.2984,2.54834 7.2984,3.54695 0,0.72259 -0.61336,0.67732 -1.79997,-0.13284 -1.06357,-0.72616 -5.47965,-2.24258 -6.53077,-2.24258 -0.44788,0 -0.77275,0.23446 -1.03943,0.75018 -0.7252,1.40238 -2.77625,3.68451 -4.44468,4.94544 -3.77002,2.84923 -7.40884,3.97262 -12.20628,3.76836 -5.16284,-0.21982 -9.32214,-2.11959 -12.79347,-5.84346 l -1.64066,-1.76002 -1.95254,1.92736 c -5.71178,5.63811 -14.74072,6.96329 -21.874019,3.21045 -3.058392,-1.60903 -4.853705,-3.23266 -7.292774,-6.59539 l -0.533976,-0.73619 -2.234727,0.56512 c -2.256349,0.57058 -5.331553,1.85986 -6.10439,2.55927 -0.358279,0.32424 -0.492533,0.32621 -0.920177,0.0135 -0.444845,-0.32528 -0.45754,-0.41818 -0.113808,-0.83285 0.606032,-0.7311 4.26275,-2.38988 6.392401,-2.89975 1.062592,-0.25441 2.012291,-0.53664 2.110442,-0.62719 0.165054,-0.15227 -0.87086,-3.59106 -1.172717,-3.89292 -0.199754,-0.19975 -6.521798,1.11513 -9.853655,2.0494 -8.623516,2.41807 -12.043154,5.09839 -9.723437,7.62123 4.04306,4.39709 20.529918,7.75321 42.928647,8.73868 5.85412,0.25757 19.84169,0.11427 25.78847,-0.26419 z m 3.79504,-4.89648 c 4.75156,-1.1202 9.2208,-4.72935 11.44505,-9.24249 2.43045,-4.93154 2.41268,-9.9339 -0.0531,-14.96224 -1.42764,-2.91124 -4.70081,-6.28157 -7.50563,-7.728407 -1.69685,-0.8753 -4.82657,-1.971259 -5.0115,-1.75492 -0.0426,0.04984 -0.13914,0.66432 -0.21451,1.365505 l -0.13703,1.274881 1.02729,-0.17356 c 0.83193,-0.140553 1.06073,-0.0864 1.20315,0.284734 0.26607,0.693347 -0.61357,1.175577 -2.14349,1.175107 -2.11027,-6.4e-4 -4.20382,-1.341131 -3.38047,-2.164482 0.26011,-0.260115 0.48472,-0.234431 1.09321,0.125009 0.4212,0.248814 0.83675,0.452388 0.92344,0.452388 0.0867,0 0.15762,-0.595312 0.15762,-1.322916 v -1.322917 l -1.52136,0.0046 c -4.22013,0.01274 -8.48517,1.821632 -11.76888,4.991428 l -2.08788,2.01544 0.81343,1.78792 c 2.27317,4.99648 2.14225,11.10138 -0.34656,16.16057 l -0.88987,1.80892 1.0064,1.27319 c 2.12575,2.68928 5.93336,5.09428 9.38834,5.92996 2.07467,0.50182 5.92291,0.51253 8.00239,0.0223 z m -30.01016,-0.55182 c 4.30648,-1.04298 8.67763,-4.3807 10.94638,-8.35843 2.07632,-3.64035 2.74155,-8.72591 1.68695,-12.8963 -1.64089,-6.48885 -6.89764,-11.437319 -13.65662,-12.855731 -1.24232,-0.260709 -2.3005,-0.425428 -2.35152,-0.366043 -0.051,0.05939 -0.16677,0.673521 -0.25725,1.364745 -0.17487,1.335983 0.0777,1.565155 1.11379,1.010649 0.5965,-0.319235 1.17072,0.04318 1.05126,0.66349 -0.12186,0.632776 -2.14096,1.245814 -3.45555,1.049175 -1.57122,-0.235029 -2.358956,-0.691828 -2.269549,-1.316094 0.07908,-0.552186 0.245579,-0.579273 1.599489,-0.260222 0.72128,0.169973 0.7276,0.159708 0.7276,-1.182299 0,-1.58768 -0.0178,-1.593191 -2.990478,-0.926997 -5.371389,1.203752 -10.036586,4.818007 -12.256051,9.495107 -1.407492,2.96602 -1.76687,4.80915 -1.623728,8.32755 0.206231,5.06912 1.841095,8.59231 5.628253,12.1291 4.341156,4.05416 10.198574,5.55326 16.107024,4.1223 z m 34.69019,-36.984668 c 2.50902,-1.150416 3.81399,-2.709135 4.89248,-5.843808 l 0.52932,-1.538496 -1.78486,0.156495 c -0.98167,0.08607 -2.3438,0.350367 -3.02695,0.587321 -2.02031,0.700754 -4.14203,2.828795 -4.95666,4.971426 -0.26417,0.694822 -0.19335,0.666929 1.21079,-0.476877 1.888,-1.537954 3.70148,-2.606432 4.05401,-2.388562 0.61632,0.380907 0.23445,1.167524 -0.88536,1.823776 -1.32052,0.773881 -4.3984,3.284601 -4.3984,3.587916 0,0.353017 2.99267,-0.249676 4.36563,-0.879191 z m -41.18124,-2.873966 c -0.614125,-0.909505 -1.790067,-2.316578 -2.613208,-3.12683 -1.261959,-1.242197 -1.462463,-1.565523 -1.278767,-2.0621 0.172355,-0.465921 0.316749,-0.535989 0.691375,-0.335495 0.687848,0.368125 2.99144,2.871649 4.00482,4.352394 0.48005,0.701451 0.91104,1.237138 0.95777,1.190417 0.18211,-0.182115 -0.41759,-2.692597 -0.9081,-3.801467 -0.78226,-1.76844 -1.770005,-2.916915 -3.505266,-4.075678 -1.567722,-1.046884 -5.081301,-2.383748 -5.407556,-2.057493 -0.314017,0.314017 0.428431,4.254782 1.062574,5.639932 0.724238,1.581947 2.18609,3.288701 3.526186,4.116925 1.072871,0.663071 3.738732,1.797405 4.246162,1.806761 0.19237,0.0035 -0.14534,-0.713376 -0.77599,-1.647366 z"
       id="path1" /></g></svg>
