<?xml version="1.0" encoding="UTF-8" standalone="no"?>
<!-- Created with Inkscape (http://www.inkscape.org/) -->

<svg
   width="136.06744mm"
   height="117.35372mm"
   viewBox="0 0 136.06744 117.35372"
   version="1.1"
   id="svg1"
   xml:space="preserve"
   xmlns:inkscape="http://www.inkscape.org/namespaces/inkscape"
   xmlns:sodipodi="http://sodipodi.sourceforge.net/DTD/sodipodi-0.dtd"
   xmlns="http://www.w3.org/2000/svg"
   xmlns:svg="http://www.w3.org/2000/svg"><sodipodi:namedview
     id="namedview1"
     pagecolor="#ffffff"
     bordercolor="#111111"
     borderopacity="1"
     inkscape:showpageshadow="0"
     inkscape:pageopacity="0"
     inkscape:pagecheckerboard="1"
     inkscape:deskcolor="#d1d1d1"
     inkscape:document-units="mm"><inkscape:page
       x="0"
       y="0"
       width="136.06744"
       height="117.35372"
       id="page2"
       margin="0"
       bleed="0" /></sodipodi:namedview><defs
     id="defs1" /><g
     inkscape:label="Layer 1"
     inkscape:groupmode="layer"
     id="layer1"
     transform="translate(-45.918201,-83.384238)"><path
       style="fill:#000000"
       d="m 100.78868,200.60508 c -2.304448,-0.36549 -3.350968,-0.75425 -7.011455,-2.60459 -1.964531,-0.99305 -12.501561,-6.31021 -23.415623,-11.81591 -10.914062,-5.5057 -20.37953,-10.38504 -21.034374,-10.84296 -1.382237,-0.96659 -2.779049,-2.90986 -3.190851,-4.43918 -0.176621,-0.65592 -0.254593,-3.07162 -0.202033,-6.25934 0.08164,-4.95136 0.116149,-5.24774 0.747051,-6.41568 0.590108,-1.09242 18.106485,-19.10456 50.012102,-51.42757 3.878323,-3.92906 9.877573,-10.058069 13.331663,-13.620014 3.45409,-3.561945 6.82101,-6.860791 7.48204,-7.33077 2.44904,-1.741202 6.22774,-2.502173 9.62321,-1.937962 1.78885,0.297246 4.19232,1.446057 26.31035,12.575838 15.25273,7.675158 24.75476,12.604548 25.44799,13.201708 0.60848,0.52414 1.42427,1.60284 1.81286,2.3971 0.62669,1.2809 0.74787,1.99674 1.0722,6.33383 0.39222,5.24478 0.27714,6.73674 -0.66157,8.57675 -0.30345,0.59482 -6.76123,7.32762 -15.42127,16.07802 -8.19456,8.28007 -20.66705,20.94826 -27.71664,28.15154 -7.0496,7.20328 -15.97858,16.26746 -19.84217,20.14262 -6.22204,6.24065 -7.22124,7.13653 -8.74452,7.84029 -2.73661,1.26433 -6.0444,1.80144 -8.59896,1.39628 z m 5.38793,-1.36053 c 0.63502,-0.14311 1.88518,-0.62536 2.77812,-1.07168 1.83918,-0.91927 5.15153,-4.16995 26.24498,-25.75636 6.68328,-6.83948 19.39301,-19.73017 28.24382,-28.64598 13.43504,-13.5337 16.19837,-16.44204 16.73411,-17.61226 0.67565,-1.4758 0.7998,-2.4901 0.70168,-5.73238 l -0.0601,-1.98437 -0.71104,0.92604 c -0.39107,0.50932 -6.96795,7.23767 -14.61529,14.95188 -7.64734,7.71421 -21.39968,21.70405 -30.56075,31.08854 -23.57814,24.15314 -24.6494,25.21465 -26.26708,26.02795 -1.76988,0.88982 -4.26557,1.4769 -6.29948,1.48188 -3.33718,0.008 -1.26667,0.97805 -41.132153,-19.26741 -10.000951,-5.07893 -11.967708,-6.17248 -13.060588,-7.2619 l -1.286631,-1.28255 0.09881,2.88681 c 0.09097,2.65766 0.161595,2.98778 0.889756,4.15869 0.435021,0.69953 1.207665,1.60309 1.716988,2.0079 0.925028,0.73523 14.967434,7.93252 37.43854,19.18875 11.030915,5.52561 12.042412,5.97895 13.758328,6.1663 2.00088,0.21847 3.56972,0.1399 5.38793,-0.26985 z m -11.97506,-4.8915 c -0.213647,-0.55675 0.02424,-0.90216 0.621316,-0.90216 0.507778,0 0.915089,0.66848 0.659395,1.08221 -0.243773,0.39443 -1.106822,0.2731 -1.280711,-0.18005 z m -3.442031,-1.85846 c -0.248969,-0.6488 0.264505,-1.0931 0.842176,-0.72871 0.629722,0.39722 0.571206,1.00707 -0.105898,1.10368 -0.340512,0.0486 -0.630396,-0.099 -0.736278,-0.37497 z m -3.440631,-1.59023 c -0.099,-0.25798 -0.0147,-0.61883 0.19311,-0.82664 0.315343,-0.31534 0.433515,-0.30408 0.815284,0.0777 0.245566,0.24556 0.402077,0.58149 0.347802,0.7465 -0.164758,0.50091 -1.164227,0.50271 -1.356196,0.002 z m -3.328449,-1.55115 c -0.388283,-0.46785 -0.173373,-1.19399 0.353378,-1.19399 0.529657,0 1.05407,0.71371 0.872355,1.18726 -0.196052,0.5109 -0.804538,0.51424 -1.225733,0.007 z m -11.115296,-4.51735 c -3.965224,-2.05842 -5.027083,-2.88779 -5.027083,-3.92643 0,-0.68627 0.752064,-1.48146 1.401113,-1.48146 0.794197,0 8.344471,3.96164 8.902629,4.67122 0.60467,0.76872 0.713704,1.93258 0.226674,2.41961 -0.619313,0.61932 -1.71218,0.28511 -5.503333,-1.68294 z m 4.714756,0.3468 c -0.06738,-0.47443 -0.909241,-1.0171 -4.145787,-2.67241 -3.906556,-1.99798 -4.804764,-2.23397 -4.390118,-1.15342 0.178521,0.46522 7.347827,4.32885 8.13903,4.38623 0.355309,0.0258 0.459275,-0.12104 0.396875,-0.5604 z m -15.790942,-7.27434 c -0.160073,-0.2991 -0.170064,-0.64384 -0.02538,-0.87586 0.317708,-0.50949 1.179696,0.003 1.179696,0.70093 0,0.6673 -0.823979,0.79217 -1.154312,0.17493 z M 58.31204,176.1074 c -0.281194,-0.33882 -0.26382,-0.48673 0.09989,-0.85045 0.40772,-0.40772 0.472329,-0.40825 0.873348,-0.007 0.480891,0.48089 0.31947,1.26783 -0.260063,1.26783 -0.20503,0 -0.525961,-0.18457 -0.71318,-0.41015 z m -3.392249,-1.63866 c -0.160073,-0.2991 -0.170064,-0.64384 -0.02538,-0.87586 0.317707,-0.5095 1.179695,0.003 1.179695,0.70093 0,0.66729 -0.823978,0.79216 -1.154311,0.17493 z m -3.324706,-1.54196 c -0.576562,-0.57656 -0.398427,-1.03943 0.400025,-1.03943 0.499768,0 0.639409,0.13964 0.639409,0.63941 0,0.79845 -0.462872,0.97658 -1.039434,0.40002 z M 154.41972,149.47714 c -0.17462,-0.17463 -0.3175,-0.67041 -0.3175,-1.10174 0,-0.64982 0.57576,-1.36614 3.35895,-4.17898 1.84742,-1.86711 3.57965,-3.46479 3.84941,-3.55041 0.7381,-0.23427 1.78748,0.57279 1.78748,1.37471 0,0.51133 -0.80436,1.51312 -3.23478,4.0288 -1.77912,1.84153 -3.3567,3.43572 -3.50573,3.54263 -0.42443,0.30449 -1.58734,0.23547 -1.93783,-0.11501 z m 4.51492,-4.07131 c 2.60244,-2.68773 3.2352,-3.54869 2.60809,-3.54869 -0.40747,0 -6.39903,6.37325 -6.23741,6.63476 0.22963,0.37155 0.52284,0.12223 3.62932,-3.08607 z m 5.66272,-6.10633 c -0.097,-0.097 -0.17639,-0.60475 -0.17639,-1.1283 0,-0.86739 0.30159,-1.25283 3.39709,-4.34146 3.16998,-3.16294 3.45743,-3.38379 4.29948,-3.30347 0.83715,0.0798 0.90841,0.15926 0.9857,1.09826 0.0805,0.97802 -0.0312,1.12759 -3.31097,4.43177 -2.88164,2.90312 -3.51694,3.41959 -4.2064,3.41959 -0.44667,0 -0.8915,-0.0794 -0.98851,-0.17639 z m 4.39181,-3.99477 c 2.7647,-2.77192 3.53309,-3.76634 2.91025,-3.76634 -0.10695,0 -1.59523,1.39712 -3.30729,3.10472 -2.77546,2.76823 -3.55129,3.77445 -2.91025,3.77445 0.11141,0 1.59969,-1.40078 3.30729,-3.11283 z m -63.83486,56.27151 c 2.32245,-0.53489 4.30766,-1.75951 6.61943,-4.08335 1.21894,-1.22531 2.163,-2.27217 2.09789,-2.32636 -0.13132,-0.1093 -8.28705,-4.28616 -22.343363,-11.44286 -5.093229,-2.59319 -12.117916,-6.18373 -15.610416,-7.97898 -3.492499,-1.79524 -10.266328,-5.23532 -15.052951,-7.64462 l -8.702953,-4.38054 -1.954278,1.94016 c -1.074854,1.06709 -2.205925,2.45937 -2.513491,3.09396 -1.124456,2.32005 -0.480136,5.40583 1.489927,7.13557 0.899774,0.79001 5.3041,3.10345 22.500413,11.81869 5.384271,2.72879 13.420526,6.81392 17.858345,9.07807 4.437818,2.26415 8.724068,4.3264 9.524999,4.58279 1.642408,0.52575 4.309688,0.61667 6.086448,0.20747 z M 76.197734,177.97485 c -2.58099,-0.91944 -4.028518,-3.10241 -3.487248,-5.259 0.484033,-1.92854 2.792977,-3.38072 5.428626,-3.41428 3.843665,-0.0489 6.327011,2.33355 5.732964,5.50009 -0.48468,2.58357 -4.578178,4.27614 -7.674342,3.17319 z m 4.933976,-1.48509 c 2.434405,-1.24194 2.260508,-4.32428 -0.319067,-5.6555 -1.983595,-1.02366 -4.939743,-0.51268 -6.354247,1.09835 -0.731605,0.83325 -0.828648,1.10839 -0.708049,2.00752 0.380363,2.83582 4.220407,4.16223 7.381363,2.54963 z m 35.27585,6.31165 c 2.51667,-2.74936 29.79982,-30.6204 47.56202,-48.58686 6.96103,-7.04108 12.55943,-12.88722 12.44089,-12.99143 -0.11855,-0.1042 -6.52585,-3.37773 -14.23846,-7.2745 -7.7126,-3.89678 -16.99947,-8.60276 -20.6375,-10.45774 -3.63802,-1.85498 -11.01989,-5.619783 -16.40416,-8.366233 -5.38427,-2.746451 -9.90978,-5.026529 -10.05669,-5.066841 -0.30064,-0.08249 -1.28156,0.905173 -30.817588,31.029544 -11.699658,11.93271 -23.513582,23.96407 -26.253164,26.73636 l -4.981059,5.04053 11.31571,5.74013 c 6.22364,3.15708 15.363834,7.809 20.311542,10.3376 21.673049,11.07635 29.917379,15.23872 30.192439,15.24345 0.16199,0.003 0.8667,-0.62003 1.56602,-1.38401 z m 62.28243,-63.41052 c 2.33567,-2.94902 2.22125,-6.26635 -0.29961,-8.68645 -0.91206,-0.8756 -2.33471,-1.60865 -33.01941,-17.013736 -14.76544,-7.41291 -17.03345,-8.474638 -18.71927,-8.763073 -3.49498,-0.597976 -7.0601,0.433655 -9.76678,2.826193 -0.70376,0.622083 -1.22004,1.191186 -1.14728,1.264673 0.1647,0.166346 15.85309,8.196537 33.99896,17.402553 7.56708,3.83904 16.85395,8.55294 20.6375,10.47532 3.78354,1.92238 7.01799,3.50295 7.18766,3.51238 0.16967,0.009 0.67738,-0.44861 1.12823,-1.01786 z m -28.68881,-17.35842 c -6.40826,-3.300341 -7.64719,-4.133399 -6.69224,-4.499848 0.19708,-0.07563 3.53963,1.4808 7.42789,3.458728 5.56677,2.83177 7.06956,3.70481 7.06956,4.10705 0,0.31656 -0.17608,0.50438 -0.46302,0.49388 -0.25466,-0.009 -3.55865,-1.61123 -7.34219,-3.55981 z M 138.643,96.726784 c -0.50492,-0.504914 -0.5143,-0.671262 -0.072,-1.276146 0.48269,-0.660118 1.78138,-0.474299 2.06375,0.295286 0.41255,1.124365 -1.10226,1.87035 -1.99175,0.98086 z m 24.36686,-2.141865 c -0.42278,-0.42278 -0.0696,-1.044009 1.5434,-2.71479 0.94589,-0.979767 1.71979,-1.855719 1.71979,-1.946561 0,-0.09084 -0.80367,-0.200371 -1.78593,-0.2434 -1.37634,-0.06029 -1.78594,-0.169256 -1.78594,-0.47511 0,-0.320517 0.49721,-0.411455 2.58429,-0.472657 3.3469,-0.09815 3.44121,0.103683 1.21087,2.591455 -0.92317,1.029729 -1.71818,1.986284 -1.76669,2.125677 -0.0507,0.145606 0.69046,0.253442 1.74184,0.253442 1.9457,0 2.23028,0.0976 2.00399,0.687325 -0.10864,0.2831 -0.75213,0.371008 -2.7158,0.371008 -1.41539,0 -2.65281,-0.07937 -2.74982,-0.176389 z m 8.04531,-5.082803 c -0.35301,-0.09865 -0.68226,-0.300611 -0.73166,-0.448805 -0.0494,-0.148194 0.75539,-1.186706 1.78842,-2.307806 l 1.87822,-2.038363 -1.27886,-0.0036 c -1.62424,-0.0046 -2.46949,-0.230625 -2.46949,-0.660397 0,-0.5077 0.63753,-0.658907 2.77813,-0.658907 3.40046,0 3.55793,0.433039 1.05833,2.910417 -0.94588,0.937477 -1.71979,1.78094 -1.71979,1.874361 0,0.09342 0.78058,0.232514 1.73461,0.309095 1.90625,0.153015 2.10965,0.24483 1.87826,0.847841 -0.12393,0.322938 -0.58705,0.402773 -2.2155,0.381912 -1.13236,-0.0145 -2.34766,-0.107086 -2.70067,-0.205735 z"
       id="path1" /></g></svg>
