<?xml version="1.0" encoding="UTF-8" standalone="no"?>
<!-- Created with Inkscape (http://www.inkscape.org/) -->

<svg
   width="13.229118mm"
   height="12.052438mm"
   viewBox="0 0 13.229118 12.052438"
   version="1.1"
   id="svg1"
   xml:space="preserve"
   inkscape:export-filename="ビットマップ.svg"
   inkscape:export-xdpi="96"
   inkscape:export-ydpi="96"
   xmlns:inkscape="http://www.inkscape.org/namespaces/inkscape"
   xmlns:sodipodi="http://sodipodi.sourceforge.net/DTD/sodipodi-0.dtd"
   xmlns="http://www.w3.org/2000/svg"
   xmlns:svg="http://www.w3.org/2000/svg"><sodipodi:namedview
     id="namedview1"
     pagecolor="#ffffff"
     bordercolor="#111111"
     borderopacity="1"
     inkscape:showpageshadow="0"
     inkscape:pageopacity="0"
     inkscape:pagecheckerboard="1"
     inkscape:deskcolor="#d1d1d1"
     inkscape:document-units="mm"><inkscape:page
       x="0"
       y="0"
       width="13.229118"
       height="12.052438"
       id="page2"
       margin="0"
       bleed="0" /></sodipodi:namedview><defs
     id="defs1" /><g
     inkscape:label="Layer 1"
     inkscape:groupmode="layer"
     id="layer1"
     transform="translate(-165.42304,118.06604)"><path
       style="fill:#000000;stroke:#000000;stroke-width:0.311474;stroke-dasharray:none;stroke-opacity:1"
       d="m 165.5871,-106.21882 c 0,-0.0438 0.15932,-0.0501 1.25319,-0.0501 1.08383,0 1.2625,-0.006 1.32224,-0.0518 0.0647,-0.0518 0.0647,-0.0559 0.0647,-1.06884 0,-1.03542 0.006,-1.10917 0.12215,-1.20318 0.0403,-0.03 0.35582,-0.0414 1.25324,-0.042 l 1.20386,-9.3e-4 0.0485,-0.0745 c 0.0403,-0.0622 0.0485,-0.20589 0.0485,-0.89416 0,-0.81414 4.9e-4,-0.82062 0.0729,-0.89257 0.0728,-0.072 0.0833,-0.0729 1.24233,-0.0729 1.02246,0 1.17652,-0.005 1.21914,-0.0526 0.0403,-0.0446 0.0485,-0.16586 0.0485,-0.81216 0,-0.71813 0.003,-0.76455 0.0647,-0.84761 l 0.0647,-0.0878 1.0011,-0.003 c 0.55074,-0.002 1.09219,-0.0138 1.20346,-0.025 l 0.20216,-0.021 0.0162,-0.82799 c 0.0162,-0.82066 0.0162,-0.82857 0.0889,-0.89165 0.0647,-0.0598 0.13829,-0.0639 1.22115,-0.0639 0.99956,0 1.14771,0.005 1.14771,0.0501 0,0.0438 -0.14637,0.0501 -1.1338,0.0501 h -1.1339 l -0.0485,0.0745 c -0.0403,0.0615 -0.0485,0.2012 -0.0485,0.84483 0,0.74109 -0.002,0.7732 -0.0647,0.83422 -0.0647,0.0598 -0.13507,0.0639 -1.23668,0.0728 -1.05158,0.007 -1.17523,0.0147 -1.21008,0.0647 -0.0244,0.0403 -0.0403,0.2624 -0.0403,0.83017 v 0.77451 l -0.0817,0.0687 c -0.0817,0.0671 -0.11561,0.0688 -1.25382,0.0688 -0.86993,0 -1.18146,0.0104 -1.2092,0.0397 -0.0244,0.0293 -0.0403,0.26477 -0.0403,0.85162 0,0.84687 -0.0163,0.96984 -0.1415,1.02095 -0.0244,0.0112 -0.58226,0.021 -1.23015,0.021 -1.13825,0 -1.18193,0.002 -1.24201,0.0664 -0.0567,0.0639 -0.0647,0.1112 -0.0647,1.06508 0,1.05693 -0.007,1.13154 -0.14475,1.19788 -0.0485,0.025 -0.47878,0.0371 -1.33438,0.0371 -1.09808,0 -1.25868,-0.005 -1.25868,-0.0501 z m 3.69978,-3.04442 c -0.11322,-0.0317 -0.2418,-0.0834 -0.28709,-0.11523 -0.10021,-0.0703 -0.18681,-0.24626 -0.23855,-0.49032 -0.0567,-0.25781 -0.13749,-0.41585 -0.33887,-0.65676 -0.21351,-0.25547 -0.28385,-0.38947 -0.28385,-0.54263 -7e-5,-0.10375 0.0324,-0.14752 0.26363,-0.38383 0.19086,-0.19273 0.28466,-0.31751 0.34047,-0.44997 0.0947,-0.22507 0.15528,-0.65885 0.22078,-1.57439 0.0728,-1.0339 0.16174,-1.33315 0.57257,-1.93218 0.29114,-0.42443 0.31944,-0.49236 0.33804,-0.81723 0.0161,-0.31481 0.0567,-0.38333 0.0866,-0.16012 0.0485,0.34402 -0.0403,0.60662 -0.33967,1.02975 -0.40354,0.56635 -0.49086,0.85627 -0.56366,1.86294 -0.0567,0.85218 -0.12615,1.34556 -0.20784,1.58588 -0.0485,0.1539 -0.1156,0.24165 -0.34128,0.47608 -0.18114,0.18827 -0.27658,0.31241 -0.27658,0.35996 0,0.11034 0.0728,0.24683 0.26849,0.47659 0.20946,0.25111 0.27011,0.37273 0.35341,0.70705 0.0728,0.29752 0.106,0.35899 0.21916,0.43103 0.16901,0.10711 0.70277,0.2021 0.67771,0.12054 -0.005,-0.0185 -0.0817,-0.0899 -0.16256,-0.15834 -0.29274,-0.23888 -0.28304,-0.19675 -0.28225,-1.1518 l 5e-4,-0.83925 0.10177,-0.34418 c 0.32428,-1.09746 1.07168,-3.00884 1.39237,-3.56001 0.19891,-0.34167 0.21105,-0.38341 0.35663,-1.19574 0.11475,-0.63841 0.17953,-0.87003 0.22887,-0.81469 0.007,0.0124 -0.14396,0.91485 -0.26202,1.52051 -0.0161,0.0992 -0.10021,0.29081 -0.19088,0.44997 -0.0866,0.15261 -0.21106,0.39263 -0.27738,0.53343 -0.2782,0.59221 -0.8324,2.05777 -1.0903,2.88248 l -0.16498,0.52817 -0.007,0.75 c -0.0164,0.9247 -0.005,0.95535 0.26446,1.16623 0.15122,0.11773 0.19328,0.16958 0.1949,0.2385 4.8e-4,0.051 -0.0163,0.0968 -0.0485,0.10843 -0.0856,0.0354 -0.30164,0.0185 -0.51271,-0.0414 z m 3.22781,-1.58821 c -0.26526,-0.0622 -0.31701,-0.10323 -0.43671,-0.34702 -0.17224,-0.35 -0.28143,-0.48862 -0.52887,-0.66718 -0.4432,-0.32041 -0.49897,-0.52841 -0.22644,-0.84001 0.40597,-0.46348 0.41889,-0.51824 0.51837,-2.21296 0.0163,-0.29332 0.0567,-0.62336 0.0817,-0.73334 0.0567,-0.23494 0.24667,-0.62602 0.42457,-0.88011 l 0.12698,-0.18009 -0.18357,-0.18731 c -0.10021,-0.10312 -0.28064,-0.28021 -0.40031,-0.39376 -0.20219,-0.19335 -0.25232,-0.29146 -0.11226,-0.22223 0.0986,0.0494 0.77959,0.74765 0.77959,0.80047 0,0.0267 -0.0728,0.16433 -0.16739,0.30576 -0.33805,0.51944 -0.41245,0.75745 -0.45693,1.45725 -0.11476,1.8244 -0.11405,1.82129 -0.48685,2.25693 -0.0898,0.10467 -0.17225,0.22748 -0.18276,0.27295 -0.0324,0.12786 0.0728,0.271 0.31459,0.45295 0.28061,0.20761 0.40758,0.35956 0.54022,0.64472 0.12215,0.26379 0.18841,0.31951 0.45046,0.37814 0.34045,0.0761 0.53698,0.0436 0.3542,-0.059 -0.15851,-0.0891 -0.3162,-0.25119 -0.36878,-0.38065 -0.0325,-0.0761 -0.106,-0.35334 -0.16658,-0.61666 -0.17064,-0.74586 -0.15203,-0.98154 0.15284,-1.95047 0.20461,-0.6485 0.46664,-1.35872 0.79335,-2.14843 0.13263,-0.32082 0.2515,-0.63938 0.26284,-0.70779 0.0323,-0.17874 -0.0244,-0.36377 -0.21998,-0.73691 -0.11809,-0.22368 -0.16174,-0.33891 -0.14072,-0.36214 0.0647,-0.0664 0.42783,0.65732 0.46016,0.90732 0.0244,0.18658 -0.0323,0.37169 -0.40192,1.26866 -0.59522,1.45535 -0.92284,2.52261 -0.92331,3.00524 -1.6e-4,0.27082 0.19167,1.14877 0.29115,1.33453 0.0403,0.0687 0.14313,0.18165 0.2345,0.24999 0.20543,0.153 0.24829,0.21592 0.19167,0.28822 -0.0485,0.0647 -0.30487,0.0663 -0.57256,0.003 z"
       id="path1"
       inkscape:export-filename="icon_stairs_24.svg"
       inkscape:export-xdpi="96"
       inkscape:export-ydpi="96" /></g></svg>
