<?xml version="1.0" encoding="UTF-8" standalone="no"?>
<!-- Created with Inkscape (http://www.inkscape.org/) -->

<svg
   width="108.91618mm"
   height="79.23465mm"
   viewBox="0 0 108.91618 79.23465"
   version="1.1"
   id="svg1"
   xml:space="preserve"
   xmlns:inkscape="http://www.inkscape.org/namespaces/inkscape"
   xmlns:sodipodi="http://sodipodi.sourceforge.net/DTD/sodipodi-0.dtd"
   xmlns="http://www.w3.org/2000/svg"
   xmlns:svg="http://www.w3.org/2000/svg"><sodipodi:namedview
     id="namedview1"
     pagecolor="#ffffff"
     bordercolor="#111111"
     borderopacity="1"
     inkscape:showpageshadow="0"
     inkscape:pageopacity="0"
     inkscape:pagecheckerboard="1"
     inkscape:deskcolor="#d1d1d1"
     inkscape:document-units="mm"><inkscape:page
       x="0"
       y="0"
       width="108.91618"
       height="79.23465"
       id="page2"
       margin="0"
       bleed="0" /></sodipodi:namedview><defs
     id="defs1" /><g
     inkscape:label="Layer 1"
     inkscape:groupmode="layer"
     id="layer1"
     transform="translate(-50.073969,-90.265444)"><path
       style="fill:#000000"
       d="m 151.47396,169.36721 c -1.44845,-0.38623 -2.99316,-1.33424 -5.21291,-3.19925 -1.837,-1.54342 -3.27534,-2.38331 -8.81001,-5.14439 -7.46563,-3.72439 -10.85471,-5.80985 -12.51967,-7.70396 -1.20235,-1.36782 -3.2191,-4.53356 -7.06542,-11.09071 l -2.319,-3.9534 -1.27176,2.49819 c -2.84878,5.596 -3.5561,8.09755 -3.10429,10.97875 0.34037,2.17047 1.20283,3.83481 4.17458,8.05589 2.84367,4.03917 3.80234,5.64732 3.52929,5.92037 -0.36849,0.36849 -0.79478,0.1191 -1.18771,-0.69485 -0.22831,-0.47294 -1.56796,-2.50073 -2.977,-4.50619 -1.40904,-2.00547 -2.89562,-4.32719 -3.30351,-5.15938 -2.16305,-4.41307 -1.73507,-7.66132 1.94966,-14.79753 1.63091,-3.15856 1.70493,-3.37866 1.29031,-3.83681 -0.34804,-0.38458 -0.3719,-0.55375 -0.11432,-0.8105 0.43464,-0.43323 0.67615,-0.0958 4.00945,5.60251 4.509,7.70811 6.52205,10.74929 7.98733,12.06671 1.81329,1.6303 4.62805,3.26449 11.82805,6.8671 3.39995,1.70121 6.59537,3.49219 7.40043,4.14783 2.44124,1.98813 4.09561,3.16624 5.05504,3.59977 1.76055,0.79553 7.01756,0.33625 7.33769,-0.64107 0.0564,-0.17222 -0.74409,-0.72872 -1.78801,-1.243 -2.38598,-1.17544 -4.20799,-2.53794 -4.21859,-3.15466 -0.007,-0.42604 0.15891,-0.45725 1.57932,-0.29655 0.87313,0.0988 1.5875,0.0992 1.5875,9.4e-4 0,-0.0983 -1.0167,-0.6665 -2.25933,-1.26276 -1.82683,-0.87657 -2.68,-1.12245 -4.45685,-1.2844 -1.35086,-0.12312 -2.60973,-0.41058 -3.26741,-0.74611 -1.25213,-0.63878 -3.90718,-2.72759 -7.6112,-5.98795 -1.45521,-1.2809 -3.71739,-3.18649 -5.02708,-4.23464 -1.30969,-1.04814 -2.58578,-2.13689 -2.83577,-2.41944 -0.71094,-0.80354 -3.65283,-7.11463 -6.02554,-12.92626 -3.44415,-8.43599 -4.08652,-9.27934 -8.70169,-11.42414 l -2.87235,-1.33486 -1.86581,1.48471 c -6.63323,5.27835 -12.517385,6.31556 -14.350173,2.52952 -0.484683,-1.00122 -0.567353,-1.52242 -0.457851,-2.88658 l 0.13363,-1.66475 -1.223681,0.32298 c -2.764654,0.72971 -4.128389,1.97483 -6.062205,5.5349 -0.720344,1.32613 -2.15767,3.98302 -3.194058,5.90421 -3.528437,6.54079 -5.394312,9.2037 -7.048666,10.05961 -0.436562,0.22586 -3.294062,2.0801 -6.35,4.12054 -7.264133,4.85022 -7.743723,5.06781 -10.998842,4.99009 -2.282432,-0.0545 -2.747118,0.0216 -4.711504,0.77174 -1.198631,0.45772 -2.102981,0.90848 -2.009667,1.0017 0.09332,0.0932 0.774107,0.16949 1.512872,0.16949 0.806356,0 1.386012,0.12651 1.450303,0.31653 0.143554,0.42429 -1.786552,1.79468 -3.321043,2.35797 -2.962476,1.08747 -3.043975,1.13462 -2.692584,1.55802 0.447548,0.53927 3.510022,1.45636 4.85719,1.45455 1.67023,-0.002 2.794074,-0.40534 5.223954,-1.87368 3.384523,-2.04523 3.95164,-2.29857 8.886094,-3.9696 6.59632,-2.23382 11.169592,-4.19422 13.128007,-5.62753 0.646032,-0.47281 4.947094,-5.54607 4.947094,-5.83527 0,-0.0506 -0.304906,-0.902 -0.67757,-1.89208 -0.968306,-2.57255 -1.219862,-4.15141 -0.896109,-5.62431 0.360274,-1.63906 3.868894,-7.47163 4.377254,-7.27655 0.204284,0.0784 0.371425,0.23068 0.371425,0.33843 0,0.10775 -0.670047,1.25587 -1.488993,2.55138 -2.94651,4.66116 -3.014436,5.19412 -1.30713,10.25595 2.128231,6.30979 2.200175,9.60421 0.425256,19.47296 -0.587794,3.26819 -1.068716,6.2108 -1.068716,6.53912 0,0.33824 -0.244153,0.72762 -0.563347,0.89845 -0.548212,0.29339 -0.558547,0.26698 -0.384652,-0.98288 0.09828,-0.70641 0.594356,-3.5909 1.102385,-6.40998 0.508029,-2.81909 1.029179,-6.24062 1.158112,-7.60341 0.291982,-3.08618 -0.207792,-8.83452 -0.768094,-8.83452 -0.10076,0 -1.008612,1.03116 -2.017448,2.29148 -1.15639,1.44465 -2.393192,2.65496 -3.346724,3.27504 -2.199495,1.43033 -6.339651,3.17147 -12.578597,5.28995 -4.326848,1.46921 -5.963957,2.16255 -7.73705,3.27677 -3.834065,2.40934 -3.820319,2.40437 -6.614583,2.39286 -3.809457,-0.0157 -6.442121,-1.22708 -5.961024,-2.74288 0.09673,-0.30476 1.048801,-0.8553 2.568197,-1.48509 l 2.414489,-1.00079 -0.874521,-0.29086 c -1.132783,-0.37676 -1.591795,-1.06675 -1.053073,-1.58299 0.215815,-0.20681 1.34489,-0.76216 2.509057,-1.23411 1.926148,-0.78087 2.354631,-0.85553 4.76047,-0.82953 2.268366,0.0245 2.841248,-0.0618 4.034192,-0.60798 1.391106,-0.63687 12.670046,-7.96041 14.289006,-9.27802 1.081851,-0.88047 4.253103,-6.0697 7.343414,-12.01628 3.296937,-6.3442 4.780177,-7.91052 8.268228,-8.73138 0.763985,-0.17979 1.389063,-0.38311 1.389063,-0.45182 0,-0.0687 -0.30568,-0.64654 -0.679288,-1.28405 -0.389083,-0.66392 -0.74117,-1.7587 -0.824137,-2.56257 -0.168584,-1.63343 0.19945,-2.6918 1.781187,-5.12224 0.574835,-0.88327 1.045154,-1.70099 1.045154,-1.81715 0,-0.11617 -0.368203,-0.63057 -0.81823,-1.14312 -0.745686,-0.84929 -0.802092,-1.03953 -0.636204,-2.14576 0.412944,-2.7537 2.306424,-6.294744 4.848791,-9.067828 0.76069,-0.829724 1.36814,-1.744832 1.36814,-2.061061 0,-0.918985 0.98182,-2.579051 1.97203,-3.334321 1.05498,-0.804674 2.71573,-1.117739 3.55283,-0.669738 0.31573,0.168974 1.55328,0.336721 2.75012,0.372771 1.97809,0.05958 2.37901,0.169189 4.40676,1.204735 4.91535,2.5102 7.61755,5.330686 8.89386,9.283172 0.37655,1.1661 0.47337,2.43947 0.49286,6.48229 0.0281,5.82161 0.13218,6.19135 2.7065,9.61166 2.44445,3.24774 2.874,4.2816 2.874,6.91728 0,1.85423 -0.11126,2.47451 -0.61902,3.45114 -0.83322,1.60261 -1.7571,2.54872 -3.40501,3.48693 l -1.37819,0.78465 0.55692,1.50223 c 1.44377,3.89435 5.0791,11.84763 5.83135,12.75766 0.18528,0.22414 1.46796,1.30626 2.85041,2.40472 1.38245,1.09846 4.18041,3.45142 6.21771,5.2288 5.37409,4.68849 5.93989,5.02564 9.12998,5.4405 2.00877,0.26123 3.10851,0.57095 4.68394,1.31912 3.33933,1.58584 3.86427,2.45766 1.87839,3.11962 l -1.10872,0.36957 2.30756,1.17383 c 1.71215,0.87095 2.34963,1.338 2.4706,1.81009 0.22422,0.87501 -0.15865,1.37336 -1.38549,1.80337 -1.25452,0.43971 -4.96406,0.66728 -6.07001,0.37237 z m -26.34393,-38.9185 c 2.31615,-1.18162 3.96657,-4.30622 3.61795,-6.84961 -0.219,-1.59784 -0.86933,-2.8672 -2.93422,-5.72722 -2.68452,-3.71828 -2.88366,-4.40967 -2.81962,-9.78959 0.0316,-2.65673 -0.0713,-5.03944 -0.25135,-5.82083 -0.81152,-3.521259 -3.69469,-6.802509 -7.87378,-8.960924 -2.76105,-1.426027 -4.01671,-1.749965 -5.75782,-1.485414 -0.93733,0.142422 -1.43718,0.09598 -1.81537,-0.168666 -1.00134,-0.700705 -2.22514,-0.458556 -3.3457,0.662002 -1.08136,1.081358 -1.41272,2.104515 -0.56418,1.742028 1.04543,-0.446596 3.15166,-0.926057 3.76835,-0.857826 0.90856,0.100523 1.31981,1.086479 1.78779,4.286185 0.43855,2.998435 1.02099,4.759915 2.17619,6.581475 0.5799,0.91441 0.95611,1.24385 1.42043,1.24385 1.94267,0 2.74446,2.49713 1.27394,3.96764 -0.80787,0.80788 -2.66915,1.44953 -3.46864,1.19578 -0.42632,-0.13531 -0.53277,0.0814 -0.8146,1.65843 -0.17831,0.99775 -0.27384,2.60501 -0.21228,3.57169 0.1773,2.78454 1.39756,3.96902 6.31733,6.13212 1.18917,0.52284 2.67259,1.30184 3.2965,1.7311 1.22778,0.84474 2.76896,3.08261 3.96278,5.75417 0.40642,0.90951 0.8465,1.65365 0.97794,1.65365 0.13145,0 0.69771,-0.23402 1.25836,-0.52004 z m -20.63661,-5.04861 c 2.14057,-1.02495 5.2191,-3.09871 6.18571,-4.16679 0.44099,-0.4873 0.41771,-0.54921 -0.58255,-1.54947 -1.86347,-1.86348 -2.37964,-5.53968 -1.16298,-8.28288 0.22867,-0.51558 0.39338,-1.17981 0.36603,-1.47606 -0.0452,-0.48952 0.0981,-0.53778 1.57165,-0.52916 1.45416,0.008 1.68729,-0.0671 2.26046,-0.73289 0.85038,-0.98779 0.84179,-1.9718 -0.0201,-2.29947 -0.36254,-0.13784 -0.83065,-0.18481 -1.04025,-0.10438 -0.51393,0.19721 -2.07158,-1.96097 -2.90745,-4.02837 -0.35986,-0.89008 -0.83673,-2.926272 -1.05969,-4.52487 -0.22297,-1.598599 -0.47724,-3.09378 -0.56506,-3.322625 -0.1955,-0.509472 -1.55214,-0.362995 -3.20757,0.346324 -3.07458,1.31739 -7.240849,7.167131 -7.666956,10.764951 l -0.156328,1.31994 1.451944,1.16314 c 0.798569,0.63972 1.699773,1.52032 2.002675,1.95689 1.475945,2.12722 1.291395,6.53988 -0.366451,8.76184 -0.338281,0.45338 -1.14071,1.07142 -1.783176,1.37342 -1.10357,0.51874 -1.17795,0.62319 -1.346043,1.89034 -0.607456,4.57922 2.692877,5.9938 8.026105,3.44012 z m -5.920574,-6.99738 c 1.659584,-1.75967 1.951364,-5.94634 0.560852,-8.04754 -0.393913,-0.59524 -0.816601,-1.08226 -0.939306,-1.08226 -0.348767,0 -2.719633,4.16282 -2.948297,5.17669 -0.309589,1.37267 0.218745,3.2098 1.269536,4.41445 0.59437,0.6814 1.082767,0.57188 2.057215,-0.46134 z"
       id="path1" /></g></svg>
