<?xml version="1.0" encoding="UTF-8" standalone="no"?>
<!-- Created with Inkscape (http://www.inkscape.org/) -->

<svg
   width="10.583293mm"
   height="8.889081mm"
   viewBox="0 0 10.583293 8.889081"
   version="1.1"
   id="svg1"
   xml:space="preserve"
   inkscape:export-filename="ビットマップ.svg"
   inkscape:export-xdpi="96"
   inkscape:export-ydpi="96"
   xmlns:inkscape="http://www.inkscape.org/namespaces/inkscape"
   xmlns:sodipodi="http://sodipodi.sourceforge.net/DTD/sodipodi-0.dtd"
   xmlns="http://www.w3.org/2000/svg"
   xmlns:svg="http://www.w3.org/2000/svg"><sodipodi:namedview
     id="namedview1"
     pagecolor="#ffffff"
     bordercolor="#111111"
     borderopacity="1"
     inkscape:showpageshadow="0"
     inkscape:pageopacity="0"
     inkscape:pagecheckerboard="1"
     inkscape:deskcolor="#d1d1d1"
     inkscape:document-units="mm"><inkscape:page
       x="0"
       y="0"
       width="10.583293"
       height="8.889081"
       id="page2"
       margin="0"
       bleed="0" /></sodipodi:namedview><defs
     id="defs1" /><g
     inkscape:label="Layer 1"
     inkscape:groupmode="layer"
     id="layer1"
     transform="translate(-101.17089,109.56252)"><path
       style="fill:#000000;stroke:#000000;stroke-width:0.103261;stroke-opacity:1"
       d="m 110.97053,-100.74045 c -0.13906,-0.0432 -0.28772,-0.14791 -0.50146,-0.35473 -0.17675,-0.17112 -0.31514,-0.26422 -0.84722,-0.57038 -0.71801,-0.41295 -1.04396,-0.64416 -1.20407,-0.85415 -0.11577,-0.15167 -0.30964,-0.50263 -0.68026,-1.22965 l -0.22334,-0.4383 -0.12262,0.27697 c -0.27402,0.62046 -0.34184,0.89779 -0.29868,1.21723 0.0342,0.24067 0.11577,0.42515 0.40144,0.89318 0.27403,0.44782 0.36583,0.62614 0.3398,0.65643 -0.0342,0.041 -0.076,0.0131 -0.11442,-0.0769 -0.0205,-0.0527 -0.15139,-0.27725 -0.28636,-0.49962 -0.13563,-0.22237 -0.27881,-0.47974 -0.31718,-0.57203 -0.20826,-0.48927 -0.16715,-0.84943 0.18703,-1.64063 0.15688,-0.3502 0.16442,-0.37459 0.12399,-0.42542 -0.0342,-0.0424 -0.0342,-0.0617 -0.0137,-0.0899 0.041,-0.0479 0.0617,-0.0109 0.385,0.62115 0.43432,0.85462 0.62751,1.19179 0.76823,1.33787 0.17469,0.18078 0.44529,0.36191 1.13748,0.76136 0.32745,0.1886 0.63435,0.3872 0.7117,0.45988 0.23498,0.22046 0.39392,0.35103 0.4864,0.39912 0.16921,0.0882 0.67479,0.0371 0.70576,-0.071 0.005,-0.0192 -0.0713,-0.0807 -0.17196,-0.13783 -0.2295,-0.13031 -0.40487,-0.28136 -0.40556,-0.3498 -0.001,-0.0473 0.0137,-0.0507 0.15209,-0.0328 0.0836,0.0109 0.15276,0.0109 0.15276,1e-4 0,-0.0111 -0.098,-0.0739 -0.21785,-0.14002 -0.17605,-0.0972 -0.25758,-0.12447 -0.42816,-0.14242 -0.13015,-0.0137 -0.25073,-0.0453 -0.31375,-0.0827 -0.12058,-0.0708 -0.37542,-0.30239 -0.73206,-0.66389 -0.13976,-0.14201 -0.3576,-0.35328 -0.48365,-0.46955 -0.12606,-0.11618 -0.24869,-0.23689 -0.27335,-0.26826 -0.0692,-0.0891 -0.35143,-0.78882 -0.57956,-1.43316 -0.33156,-0.93531 -0.39323,-1.02882 -0.83687,-1.26662 l -0.27676,-0.14798 -0.17949,0.16462 c -0.6378,0.58525 -1.20387,0.70022 -1.38006,0.28047 -0.048,-0.11099 -0.0548,-0.1688 -0.0412,-0.32007 l 0.0137,-0.18454 -0.11782,0.0356 c -0.26581,0.0808 -0.39735,0.21894 -0.583,0.61368 -0.0692,0.14701 -0.20757,0.44159 -0.3069,0.65464 -0.33979,0.72519 -0.51927,1.02044 -0.67821,1.11533 -0.0412,0.0254 -0.31651,0.23059 -0.61108,0.45686 -0.6987,0.53778 -0.7448,0.56189 -1.05781,0.55326 -0.21989,-0.006 -0.26374,0.002 -0.4535,0.0856 -0.11509,0.0507 -0.2021,0.10074 -0.19319,0.11105 0.007,0.0105 0.074,0.0185 0.14591,0.0185 0.0774,0 0.13291,0.0137 0.13908,0.0349 0.0137,0.0473 -0.17196,0.19901 -0.31925,0.26142 -0.28498,0.12058 -0.29252,0.12578 -0.25895,0.17278 0.0412,0.0596 0.33773,0.16147 0.46722,0.16126 0.16099,-2.1e-4 0.26922,-0.0453 0.50283,-0.20772 0.32609,-0.22675 0.38021,-0.25484 0.85462,-0.44008 0.63436,-0.24765 1.07417,-0.46502 1.26256,-0.62395 0.0617,-0.0527 0.47612,-0.61491 0.47612,-0.64697 0,-0.005 -0.0274,-0.1 -0.0617,-0.20977 -0.0932,-0.28519 -0.11715,-0.46029 -0.0863,-0.62354 0.0342,-0.18175 0.37199,-0.8284 0.42063,-0.80677 0.0205,0.008 0.0342,0.0254 0.0342,0.0377 0,0.0116 -0.0617,0.13928 -0.14318,0.28287 -0.28362,0.51681 -0.28978,0.57586 -0.12537,1.1371 0.20483,0.69957 0.21168,1.06484 0.041,2.159 -0.0547,0.36233 -0.10274,0.6886 -0.10274,0.72501 0,0.0377 -0.0205,0.0807 -0.0548,0.0996 -0.0548,0.0322 -0.0548,0.0295 -0.0342,-0.109 0.007,-0.0783 0.0548,-0.39816 0.10619,-0.71069 0.048,-0.31259 0.0994,-0.69192 0.11166,-0.843 0.0274,-0.34219 -0.0205,-0.9795 -0.074,-0.9795 -0.007,0 -0.0973,0.11433 -0.19387,0.25408 -0.11097,0.16017 -0.23018,0.29438 -0.32129,0.36308 -0.21169,0.1586 -0.60971,0.35164 -1.20975,0.58649 -0.41584,0.1629 -0.57409,0.23977 -0.74405,0.36329 -0.36856,0.2671 -0.36719,0.26656 -0.63641,0.26532 -0.36652,-0.002 -0.61931,-0.13605 -0.5734,-0.3041 0.007,-0.0336 0.10137,-0.0948 0.24662,-0.16468 l 0.23223,-0.11098 -0.0836,-0.0322 c -0.10893,-0.0418 -0.15345,-0.11824 -0.10137,-0.17552 0.0205,-0.0226 0.12948,-0.0845 0.24114,-0.1368 0.18497,-0.0866 0.22675,-0.0948 0.45831,-0.092 0.21854,0.003 0.27334,-0.007 0.38842,-0.0671 0.13359,-0.0706 1.2186,-0.88259 1.37431,-1.02869 0.10411,-0.0976 0.40898,-0.67293 0.7063,-1.33226 0.3165,-0.70339 0.45968,-0.87705 0.79508,-0.96807 0.0733,-0.0199 0.1336,-0.0425 0.1336,-0.05 0,-0.007 -0.0274,-0.0717 -0.0617,-0.14236 -0.0342,-0.0737 -0.0713,-0.19497 -0.0787,-0.2841 -0.0137,-0.18112 0.0205,-0.29841 0.17126,-0.56791 0.0548,-0.0979 0.10073,-0.1886 0.10073,-0.20147 0,-0.0131 -0.0342,-0.07 -0.0787,-0.12674 -0.0713,-0.0942 -0.0767,-0.11523 -0.0617,-0.23792 0.0412,-0.30534 0.22196,-0.69792 0.46653,-1.00537 0.0733,-0.092 0.13154,-0.19346 0.13154,-0.22854 0,-0.10189 0.0945,-0.28594 0.18975,-0.36966 0.10137,-0.0892 0.26101,-0.12392 0.34185,-0.0742 0.0274,0.0185 0.15004,0.0371 0.26512,0.041 0.18977,0.006 0.22881,0.0185 0.42338,0.13359 0.47268,0.27835 0.73267,0.591 0.85529,1.02924 0.0342,0.12928 0.0479,0.27047 0.0479,0.71872 0.002,0.64546 0.0137,0.68644 0.26033,1.06566 0.23498,0.36007 0.27677,0.47474 0.27677,0.76693 0,0.20559 -0.0137,0.27437 -0.0617,0.38261 -0.0801,0.1777 -0.16921,0.28259 -0.32814,0.38658 l -0.13221,0.087 0.0548,0.16653 c 0.13838,0.4318 0.48845,1.31358 0.56106,1.41447 0.0205,0.0246 0.14112,0.14482 0.27471,0.26663 0.13291,0.1218 0.40214,0.38268 0.59806,0.57971 0.51722,0.51982 0.57134,0.55722 0.87804,0.60318 0.19319,0.0287 0.29869,0.0631 0.45078,0.14627 0.32129,0.17585 0.37129,0.27251 0.18085,0.34589 l -0.10686,0.041 0.22196,0.13017 c 0.1651,0.0966 0.22607,0.14832 0.23771,0.20065 0.0205,0.0971 -0.0137,0.15229 -0.1329,0.19997 -0.12057,0.0486 -0.47748,0.074 -0.58367,0.041 z m -2.53363,-4.31498 c 0.22264,-0.13098 0.38157,-0.47742 0.34801,-0.75943 -0.0205,-0.17715 -0.0836,-0.31786 -0.28224,-0.63498 -0.25758,-0.41227 -0.27746,-0.48893 -0.27129,-1.08539 0.003,-0.29458 -0.007,-0.55873 -0.0205,-0.6454 -0.0781,-0.39042 -0.35555,-0.75421 -0.75728,-0.99352 -0.2658,-0.15811 -0.38637,-0.19401 -0.55352,-0.16468 -0.0898,0.0158 -0.1377,0.011 -0.17469,-0.0185 -0.0966,-0.0777 -0.21443,-0.0507 -0.32198,0.0734 -0.10411,0.11989 -0.13564,0.23333 -0.0548,0.19312 0.10073,-0.0494 0.3028,-0.10273 0.3624,-0.0951 0.0877,0.011 0.12673,0.12044 0.17195,0.47523 0.0411,0.33246 0.0986,0.52778 0.20962,0.7297 0.0548,0.10137 0.0925,0.13791 0.13634,0.13791 0.18702,0 0.26443,0.27683 0.12262,0.43987 -0.0774,0.0896 -0.25621,0.16072 -0.33362,0.13256 -0.0412,-0.0151 -0.048,0.008 -0.0781,0.18387 -0.0137,0.11064 -0.0274,0.28883 -0.0205,0.39597 0.0137,0.30876 0.13426,0.44008 0.60765,0.67986 0.1144,0.0582 0.25689,0.14434 0.31649,0.19195 0.11784,0.0937 0.2658,0.34177 0.3809,0.63799 0.041,0.10085 0.0808,0.18333 0.0945,0.18333 0.0137,0 0.0692,-0.026 0.12125,-0.0576 z m -1.98463,-0.55975 c 0.20621,-0.11366 0.50216,-0.34356 0.59463,-0.46201 0.0412,-0.0541 0.0412,-0.061 -0.0548,-0.17181 -0.17948,-0.20662 -0.22881,-0.61423 -0.11165,-0.91835 0.0205,-0.0568 0.0342,-0.13084 0.0342,-0.16366 -0.004,-0.0541 0.007,-0.0596 0.15071,-0.0589 0.13976,9e-4 0.16237,-0.007 0.21786,-0.0813 0.0815,-0.10954 0.0808,-0.2186 -0.002,-0.25498 -0.0342,-0.015 -0.0795,-0.0205 -0.1,-0.0116 -0.048,0.0219 -0.19867,-0.21744 -0.2795,-0.44667 -0.0342,-0.0986 -0.0802,-0.32444 -0.10211,-0.50166 -0.0205,-0.17723 -0.048,-0.34301 -0.0548,-0.36836 -0.0205,-0.0562 -0.14934,-0.0404 -0.30827,0.0383 -0.29595,0.14606 -0.69637,0.79464 -0.73734,1.19353 l -0.0137,0.14634 0.13976,0.12892 c 0.0767,0.0709 0.16372,0.16859 0.1925,0.21696 0.14249,0.23587 0.124,0.72509 -0.0342,0.97145 -0.0342,0.05 -0.10961,0.11879 -0.17126,0.15228 -0.10619,0.0576 -0.11304,0.0692 -0.12949,0.20957 -0.0548,0.50769 0.25896,0.66458 0.77186,0.38144 z m -0.56997,-0.77582 c 0.15963,-0.19511 0.18771,-0.65931 0.0548,-0.89224 -0.0342,-0.0658 -0.0781,-0.12003 -0.0904,-0.12003 -0.0342,0 -0.26101,0.46152 -0.28361,0.57394 -0.0274,0.15222 0.0205,0.3559 0.12193,0.48941 0.0549,0.0756 0.10411,0.0637 0.1973,-0.0514 z"
       id="path1-8"
       inkscape:export-filename="icon_breath_24.svg"
       inkscape:export-xdpi="96"
       inkscape:export-ydpi="96" /></g></svg>
