<?xml version="1.0" encoding="UTF-8" standalone="no"?>
<!-- Created with Inkscape (http://www.inkscape.org/) -->

<svg
   width="14.816376mm"
   height="10.578113mm"
   viewBox="0 0 14.816376 10.578113"
   version="1.1"
   id="svg1"
   xml:space="preserve"
   inkscape:export-filename="ビットマップ.svg"
   inkscape:export-xdpi="96"
   inkscape:export-ydpi="96"
   xmlns:inkscape="http://www.inkscape.org/namespaces/inkscape"
   xmlns:sodipodi="http://sodipodi.sourceforge.net/DTD/sodipodi-0.dtd"
   xmlns="http://www.w3.org/2000/svg"
   xmlns:svg="http://www.w3.org/2000/svg"><sodipodi:namedview
     id="namedview1"
     pagecolor="#ffffff"
     bordercolor="#111111"
     borderopacity="1"
     inkscape:showpageshadow="0"
     inkscape:pageopacity="0"
     inkscape:pagecheckerboard="1"
     inkscape:deskcolor="#d1d1d1"
     inkscape:document-units="mm"><inkscape:page
       x="0"
       y="1.7504351e-22"
       width="14.816376"
       height="10.578114"
       id="page2"
       margin="0"
       bleed="0" /></sodipodi:namedview><defs
     id="defs1" /><g
     inkscape:label="Layer 1"
     inkscape:groupmode="layer"
     id="layer1"
     transform="translate(-169.26069,-44.578488)"><path
       style="fill:#000000;stroke:#000000;stroke-width:0.177135;stroke-dasharray:none;stroke-opacity:1"
       d="m 171.16965,54.655508 c 5.1e-4,-0.710216 0.0719,-1.425665 0.22253,-2.260639 0.0719,-0.405681 0.2712,-1.239956 0.33979,-1.435876 0.016,-0.04382 -0.008,-0.04146 -0.21853,0.02073 -0.33104,0.098 -0.51928,0.187845 -0.76894,0.368029 -0.41555,0.300142 -0.74898,0.71723 -0.71628,0.897656 0.0241,0.128945 0.2066,0.542701 0.32785,0.739478 0.0559,0.09814 0.10608,0.188081 0.10132,0.199882 -0.016,0.03992 -0.65008,0.669322 -0.6748,0.669322 -0.0319,0 -0.15792,-0.203874 -0.24807,-0.400021 -0.1755,-0.382617 -0.2345,-0.996986 -0.13706,-1.430333 0.0853,-0.384689 0.29513,-0.820931 0.53839,-1.122764 0.41798,-0.518788 1.21203,-0.909699 2.07299,-1.020664 l 0.14835,-0.01919 -0.016,-0.210343 c -0.016,-0.267605 0.0479,-0.574369 0.15953,-0.758784 0.0949,-0.155307 0.1763,-0.22629 0.31906,-0.280291 0.0964,-0.03668 0.10694,-0.0511 0.16034,-0.241996 0.12685,-0.445736 0.15154,-0.652785 0.15154,-1.261527 0,-0.739324 -0.0479,-1.042152 -0.31427,-1.987535 -0.0638,-0.230908 -0.11802,-0.427534 -0.11802,-0.436786 0,-0.0099 0.016,-0.0168 0.0397,-0.0168 0.0241,0 0.0479,0.04228 0.0638,0.09395 0.32384,1.151904 0.39243,1.515604 0.41476,2.188413 0.0238,0.670325 -0.0399,1.107546 -0.26002,1.759409 l -0.11018,0.329348 0.11482,0.112144 c 0.20816,0.204268 0.69074,0.497001 1.16519,0.706785 0.13958,0.06216 0.22251,0.07252 0.75854,0.100105 0.78728,0.03991 1.92679,0.03907 2.3543,-0.0012 0.88984,-0.08498 1.72503,-0.311158 2.27549,-0.61585 0.36134,-0.200053 0.7982,-0.553076 0.7982,-0.645047 0,-0.02157 -0.0319,-0.134963 -0.0637,-0.252135 -0.18347,-0.620247 -0.24807,-1.481495 -0.16192,-2.159711 0.0637,-0.498848 0.33658,-1.584741 0.40599,-1.610081 0.0479,-0.01835 0.032,0.06944 -0.0998,0.549251 -0.0559,0.21785 -0.13958,0.542882 -0.17547,0.722272 -0.15952,0.794525 -0.0807,2.287032 0.12839,2.344308 0.11885,0.03277 0.27679,0.219192 0.37729,0.444766 0.0942,0.210093 0.0998,0.235702 0.10371,0.52978 l 0.005,0.309004 0.14516,0.319785 c 0.18824,0.414119 0.3055,0.727352 0.4722,1.259749 l 0.13553,0.432079 0.25364,0.0805 c 0.34218,0.10864 0.83576,0.317611 1.16031,0.49126 0.27838,0.148922 0.88946,0.579087 1.06317,0.748341 l 0.10049,0.098 -0.22733,0.361085 c -0.30869,0.488952 -0.27918,0.462871 -0.39802,0.352477 -0.1978,-0.184177 -0.57429,-0.448983 -0.88148,-0.618639 -0.3326,-0.184175 -0.7721,-0.380799 -0.79523,-0.35567 -0.007,0.0084 0.005,0.193825 0.0319,0.412299 0.0637,0.594001 0.0942,1.046846 0.0949,1.473441 5.1e-4,0.321213 -0.005,0.382786 -0.0397,0.382786 -0.0319,0 -0.0399,-0.06146 -0.0399,-0.381191 0,-0.637875 -0.11005,-1.860829 -0.17389,-1.931169 -0.016,-0.01402 -0.1675,-0.07099 -0.34618,-0.127826 l -0.32382,-0.10276 -0.22574,0.098 c -0.62295,0.270237 -1.44339,0.478496 -2.31417,0.587208 -0.56153,0.07015 -2.02208,0.06944 -2.65941,-4.07e-4 -1.62718,-0.179709 -3.13486,-0.573501 -3.95945,-1.034255 -0.0844,-0.04704 -0.15953,-0.07896 -0.1683,-0.07014 -0.024,0.02954 -0.16034,0.839719 -0.21537,1.301551 -0.0319,0.27168 -0.0638,0.721304 -0.0719,1.090595 -0.016,0.49955 -0.024,0.628369 -0.0479,0.628369 -0.0241,0 -0.0319,-0.0854 -0.0319,-0.411656 z m -1.04682,-1.233791 c 0.17629,-0.18338 0.2401,-0.267843 0.22014,-0.289695 -0.016,-0.02157 -0.11018,0.05419 -0.30788,0.261456 -0.15315,0.160811 -0.27278,0.304146 -0.2648,0.318581 0.0239,0.0399 0.0807,-0.0069 0.35095,-0.290426 z m 13.5234,-0.05824 c 0.10781,-0.173492 0.19945,-0.327597 0.20423,-0.342592 0.004,-0.01511 -0.0399,-0.0686 -0.10372,-0.118864 l -0.11241,-0.0917 -0.0719,0.09548 c -0.10609,0.134961 -0.33104,0.514628 -0.33104,0.558659 0,0.03262 0.17708,0.213368 0.20898,0.214082 0.007,9.8e-5 0.10132,-0.141657 0.20898,-0.315067 z m -0.17705,-0.02548 c -0.0479,-0.03668 -0.0479,-0.179067 0.001,-0.216865 0.10131,-0.07336 0.20738,0.124185 0.10921,0.203634 -0.0559,0.04383 -0.0638,0.04467 -0.11005,0.014 z m 0.0638,-0.14101 c -0.024,-0.02954 -0.0479,0.01511 -0.024,0.05348 0.016,0.02954 0.024,0.02954 0.0319,10e-5 0.005,-0.01989 0.004,-0.04465 -0.005,-0.05417 z m -13.54927,0.133422 c 0.14198,-0.144761 0.26802,-0.273107 0.27998,-0.285147 0.008,-0.01259 -0.016,-0.0868 -0.0559,-0.165989 -0.21699,-0.390124 -0.34699,-0.872523 -0.35178,-1.307908 -0.001,-0.150911 0.005,-0.313472 0.016,-0.361087 l 0.016,-0.08667 -0.0637,0.08667 c -0.0637,0.08568 -0.27836,0.542222 -0.31425,0.675997 -0.016,0.06455 -0.016,0.06776 0.0637,0.05111 0.11004,-0.02397 0.11242,0.05503 0.003,0.08176 -0.0876,0.02157 -0.11566,0.06455 -0.14199,0.227731 -0.016,0.10108 -0.016,0.110043 0.0319,0.09016 0.17709,-0.0819 0.22734,-0.02157 0.0638,0.07182 -0.0957,0.05419 -0.10458,0.0686 -0.10458,0.177317 0,0.123904 0.007,0.127543 0.13721,0.0686 0.0319,-0.01427 0.0479,-0.0069 0.0479,0.02392 0,0.02475 -0.0239,0.05264 -0.0479,0.06216 -0.0813,0.02872 -0.11327,0.09171 -0.0942,0.18744 0.008,0.04872 0.0319,0.08779 0.0479,0.08779 0.016,0 0.0957,-0.0455 0.17468,-0.100385 0.15715,-0.110743 0.18189,-0.119427 0.18189,-0.06455 0,0.02073 -0.0719,0.08863 -0.16991,0.151708 -0.17629,0.118583 -0.19383,0.155292 -0.14039,0.28523 l 0.0318,0.07252 0.11243,-0.0854 c 0.0807,-0.05895 0.11801,-0.07504 0.13089,-0.0518 0.008,0.01919 -0.008,0.05503 -0.0397,0.08484 -0.1691,0.138325 -0.16031,0.124185 -0.126,0.208341 0.016,0.04312 0.0399,0.07812 0.0479,0.07812 0.008,0 0.13483,-0.118443 0.27679,-0.263223 z m 13.19338,0.05026 c 0,-0.04382 0.23847,-0.433189 0.3318,-0.542547 l 0.0637,-0.07659 -0.0719,-0.04941 c -0.0397,-0.02715 -0.0719,-0.04467 -0.0807,-0.03908 -0.004,0.0056 -0.0319,0.06623 -0.0719,0.133981 -0.0319,0.06776 -0.0719,0.122787 -0.0807,0.122787 -0.0479,0 -0.0397,-0.04872 0.016,-0.158024 0.0319,-0.06692 0.0637,-0.133846 0.0637,-0.148842 0,-0.02954 -0.13553,-0.126565 -0.17708,-0.126565 -0.0159,0 -0.0637,0.07742 -0.10849,0.172378 -0.0479,0.09478 -0.0949,0.180577 -0.11006,0.190712 -0.0637,0.04312 -0.0479,-0.02547 0.0399,-0.203718 0.0479,-0.104584 0.0942,-0.200361 0.0942,-0.212724 0,-0.01259 -0.0479,-0.0511 -0.10132,-0.08582 l -0.10132,-0.063 -0.0479,0.130066 c -0.024,0.07182 -0.0637,0.130202 -0.0813,0.130202 -0.0479,1.1e-4 -0.0398,-0.04228 0.016,-0.173648 l 0.0559,-0.113684 -0.10371,-0.05824 c -0.0559,-0.03194 -0.11396,-0.05824 -0.126,-0.05824 -0.016,0 -0.0399,0.06538 -0.0719,0.144443 -0.0241,0.0798 -0.0559,0.144456 -0.0637,0.144456 -0.0479,0 -0.0479,-0.0455 -9e-5,-0.177551 0.024,-0.07812 0.0479,-0.147008 0.0479,-0.152594 0,-0.01401 -0.21378,-0.107801 -0.22174,-0.09716 -0.004,0.0041 -0.0241,0.07015 -0.0559,0.145649 -0.0241,0.07575 -0.0559,0.137202 -0.0719,0.137202 -0.0319,0 -0.0241,-0.06706 0.016,-0.183292 0.0479,-0.135245 0.0559,-0.126986 -0.0559,-0.1774 -0.12363,-0.0574 -0.13399,-0.05586 -0.15553,0.02157 -0.0637,0.221743 -0.12447,0.368356 -0.15715,0.368356 -0.0479,0 -0.0479,0.02475 0.0397,-0.239928 l 0.0719,-0.22549 -0.0638,-0.02715 c -0.17308,-0.07252 -0.18267,-0.07014 -0.21854,0.07252 -0.0319,0.127127 -0.0638,0.182583 -0.0949,0.151474 -0.007,-0.0084 0.004,-0.0798 0.024,-0.159691 l 0.0399,-0.145241 -0.0807,-0.0311 c -0.14279,-0.05503 -0.16431,-0.04228 -0.201,0.113542 -0.032,0.135243 -0.0479,0.16645 -0.0863,0.128667 -0.008,-0.0084 0.003,-0.08107 0.0241,-0.160952 0.024,-0.0798 0.0319,-0.150756 0.024,-0.157533 -0.005,-0.0071 -0.0637,-0.01989 -0.12769,-0.03026 l -0.11718,-0.0175 -0.0479,0.219574 c -0.0397,0.205329 -0.0807,0.277194 -0.11325,0.23834 -0.008,-0.0084 0.008,-0.120961 0.0397,-0.248786 0.0319,-0.127823 0.0399,-0.238315 0.0319,-0.245512 -0.008,-0.0071 -0.0638,-0.02157 -0.12685,-0.03193 l -0.10851,-0.01919 -0.016,0.115083 c -0.008,0.063 -0.0241,0.132863 -0.0399,0.154422 -0.0397,0.0742 -0.0559,-0.0012 -0.0319,-0.145816 l 0.0241,-0.145085 -0.0942,-0.0287 c -0.14358,-0.04382 -0.14917,-0.04076 -0.18425,0.132583 -0.024,0.112984 -0.0399,0.152761 -0.0559,0.131605 -0.016,-0.02073 -0.016,-0.07574 -0.001,-0.173715 l 0.0238,-0.143407 -0.0807,-0.01679 c -0.17706,-0.03908 -0.17307,-0.04467 -0.24167,0.351205 -0.008,0.05586 -0.0318,0.09394 -0.0559,0.09394 -0.0239,0 -0.0319,-0.01835 -0.0239,-0.05027 0.0397,-0.158889 0.0719,-0.418037 0.0559,-0.438773 -0.016,-0.01259 -0.0638,-0.03194 -0.11956,-0.04228 l -0.0957,-0.01919 -0.0319,0.159774 c -0.0399,0.218209 -0.0901,0.211125 -0.0638,-0.0099 l 0.016,-0.1695 -0.1092,-0.01919 c -0.0559,-0.0099 -0.11396,-0.01401 -0.1204,-0.0071 -0.005,0.0071 -0.0241,0.07504 -0.0399,0.15258 -0.016,0.07743 -0.0397,0.136641 -0.0559,0.131743 -0.0319,-0.0097 -0.0319,-0.02307 -0.001,-0.196932 l 0.016,-0.119283 -0.12208,-0.01989 c -0.0638,-0.0112 -0.12602,-0.01595 -0.13092,-0.0099 -0.005,0.0056 -0.024,0.116762 -0.0397,0.247721 -0.0239,0.15468 -0.0479,0.238189 -0.0637,0.238189 -0.0399,0 -0.0399,-0.02391 0.003,-0.283732 0.0399,-0.230657 0.0479,-0.219191 -0.1204,-0.249486 -0.0949,-0.0175 -0.0964,-0.01595 -0.11396,0.0917 -0.024,0.168776 -0.0397,0.210483 -0.0719,0.210483 -0.016,0 -0.0239,-0.05419 -0.008,-0.156089 0.008,-0.08583 0.008,-0.162561 -0.004,-0.170387 -0.008,-0.0084 -0.0638,-0.01919 -0.12531,-0.02476 l -0.10457,-0.0099 -0.024,0.151623 c -0.016,0.104304 -0.0319,0.151726 -0.0637,0.151726 -0.0241,0 -0.0319,-0.01919 -0.0241,-0.05026 0.007,-0.02787 0.016,-0.09884 0.032,-0.158094 0.016,-0.115085 0.008,-0.122366 -0.16912,-0.144372 -0.0559,-0.0069 -0.0637,0.0041 -0.0886,0.143573 -0.016,0.09871 -0.0319,0.151709 -0.0559,0.151709 -0.0319,0 -0.0319,-0.100665 0.008,-0.263447 0.008,-0.03344 -0.008,-0.0518 -0.0719,-0.06455 -0.17151,-0.03824 -0.17388,-0.03513 -0.20818,0.195099 -0.016,0.117322 -0.0399,0.230668 -0.0559,0.251978 -0.0479,0.08484 -0.0559,-0.01259 -0.016,-0.23427 0.024,-0.128386 0.0319,-0.237937 0.024,-0.243355 -0.008,-0.0056 -0.0637,-0.01918 -0.12447,-0.02955 -0.11957,-0.02157 -0.11887,-0.02313 -0.15157,0.193737 -0.0319,0.185211 -0.0719,0.129923 -0.0559,-0.06539 l 0.016,-0.173325 -0.0925,-0.0041 c -0.0479,-0.0029 -0.10779,-0.0056 -0.12599,-0.0069 -0.016,-0.0012 -0.0399,0.0574 -0.0559,0.148757 -0.016,0.0987 -0.0319,0.151708 -0.0559,0.151708 -0.032,0 -0.032,-0.10136 0.008,-0.264818 0.016,-0.06063 -0.005,-0.0742 -0.13315,-0.08611 l -0.10298,-0.0099 -0.0399,0.238974 c -0.0399,0.240876 -0.0637,0.291686 -0.0932,0.256686 -0.016,-0.0175 0.0319,-0.388866 0.0638,-0.473246 0.007,-0.01989 -0.016,-0.04228 -0.0638,-0.05264 -0.20101,-0.04704 -0.18747,-0.05264 -0.20577,0.08246 -0.008,0.0686 -0.024,0.143335 -0.0397,0.165343 -0.0399,0.07659 -0.0638,-0.0043 -0.0319,-0.14804 0.016,-0.0798 0.016,-0.150436 0.008,-0.157125 -0.008,-0.0071 -0.0637,-0.02073 -0.12208,-0.03026 l -0.10371,-0.01834 -0.0319,0.16334 c -0.016,0.08988 -0.0479,0.159061 -0.0559,0.153799 -0.032,-0.01259 -0.032,-0.0056 -0.008,-0.175566 0.008,-0.07658 0.0159,-0.14373 0.008,-0.150113 -0.005,-0.0069 -0.0559,-0.02397 -0.11886,-0.03824 l -0.10836,-0.02715 -0.0397,0.22038 c -0.0559,0.296472 -0.0637,0.308598 -0.0949,0.271667 -0.016,-0.02157 -0.016,-0.09632 0.016,-0.252766 0.0238,-0.124466 0.0319,-0.232268 0.0238,-0.24519 -0.016,-0.01259 -0.0638,-0.03194 -0.11956,-0.04228 -0.0957,-0.01917 -0.0965,-0.01835 -0.126,0.104865 -0.0479,0.19837 -0.0479,0.209067 -0.0813,0.175481 -0.016,-0.02073 -0.016,-0.06384 5.2e-4,-0.142064 0.0397,-0.165498 0.0397,-0.178591 -0.0719,-0.211364 -0.13637,-0.04142 -0.13245,-0.04383 -0.16351,0.0924 -0.0479,0.195179 -0.0479,0.207781 -0.0807,0.175568 -0.016,-0.01919 -0.016,-0.07336 0.005,-0.163527 0.0397,-0.154901 0.0239,-0.179712 -0.11242,-0.207221 l -0.0942,-0.01919 -0.0637,0.248057 c -0.0397,0.145257 -0.0719,0.24806 -0.0949,0.24806 -0.0397,0 -0.0397,-0.0069 0.0319,-0.27406 0.0319,-0.126841 0.0559,-0.239449 0.0479,-0.250128 -0.008,-0.0099 -0.0637,-0.03278 -0.11566,-0.04788 l -0.0965,-0.02872 -0.0397,0.148909 c -0.0479,0.174206 -0.0479,0.174614 -0.0854,0.151247 -0.016,-0.0112 -0.008,-0.07504 0.0241,-0.175411 l 0.0479,-0.157449 -0.0957,-0.02954 c -0.14276,-0.04382 -0.14594,-0.04228 -0.19619,0.11452 -0.0239,0.0798 -0.0559,0.14446 -0.0719,0.14446 -0.0319,0 -0.0319,-0.07336 0.016,-0.192244 0.024,-0.0574 0.0399,-0.113543 0.0399,-0.125583 0,-0.01259 -0.0479,-0.04058 -0.11565,-0.06384 l -0.11648,-0.04228 -0.0821,0.240893 c -0.0479,0.146684 -0.0964,0.240891 -0.11957,0.240891 -0.0479,0 -0.0479,0.01259 0.0397,-0.23539 0.0399,-0.116903 0.0807,-0.226681 0.0807,-0.244153 7e-5,-0.01749 -0.0479,-0.05264 -0.10694,-0.07812 l -0.10696,-0.0462 -0.0559,0.143013 c -0.032,0.07896 -0.0719,0.143015 -0.0893,0.143015 -0.0479,0 -0.0479,-0.0097 0.016,-0.144456 0.0719,-0.151947 0.0638,-0.16949 -0.0397,-0.218141 -0.126,-0.05824 -0.12768,-0.0574 -0.19143,0.0882 -0.0319,0.07183 -0.0719,0.130064 -0.0839,0.130064 -0.0399,0 -0.0319,-0.04704 0.0239,-0.173325 0.0319,-0.06216 0.0479,-0.120127 0.0479,-0.128242 0,-0.0084 -0.0479,-0.04142 -0.10371,-0.07336 l -0.10458,-0.05908 -0.10607,0.231468 c -0.0559,0.127264 -0.11482,0.231469 -0.12686,0.231469 -0.0559,0 -0.0479,-0.04872 0.0479,-0.240792 0.0559,-0.113824 0.10297,-0.220396 0.10297,-0.236822 5.2e-4,-0.03037 -0.13328,-0.128939 -0.17547,-0.128939 -0.016,0 -0.0479,0.05824 -0.0807,0.130061 -0.0319,0.07183 -0.0719,0.130065 -0.0839,0.130065 -0.0397,0 -0.0319,-0.04704 0.024,-0.173327 0.0637,-0.145574 0.0637,-0.150753 -0.024,-0.225014 l -0.0719,-0.06216 -0.0807,0.143814 c -0.0399,0.07896 -0.0917,0.143813 -0.10694,0.143813 -0.0399,0 -0.032,-0.02309 0.0479,-0.186725 l 0.0807,-0.150364 -0.0719,-0.08008 -0.0719,-0.08023 -0.0719,0.126007 c -0.0901,0.160081 -0.0861,0.156006 -0.11648,0.122923 -0.016,-0.01834 0.005,-0.07896 0.0638,-0.172611 0.0821,-0.135383 0.0853,-0.149638 0.0479,-0.222859 -0.0241,-0.04312 -0.0397,-0.07812 -0.0479,-0.07812 -0.005,0 -0.0397,0.05824 -0.0807,0.129645 -0.0893,0.168945 -0.14199,0.391649 -0.14199,0.605644 -1.8e-4,0.171493 8e-5,0.172378 0.14995,0.333423 0.18823,0.201955 0.57431,0.485997 0.88282,0.648708 1.07959,0.569987 2.18432,0.877022 4.42073,1.228657 1.71595,0.269843 2.37194,0.393638 3.06046,0.577882 1.02925,0.275349 1.69383,0.561222 2.23654,0.962138 0.16912,0.124745 0.20899,0.137765 0.20899,0.06776 z m -5.12697,-0.292652 c 0.64688,-0.05979 1.06484,-0.134406 1.63155,-0.289936 0.35177,-0.09646 1.01036,-0.330145 1.01036,-0.358368 0,-0.05671 -1.08716,-0.272003 -2.55035,-0.504984 -1.37407,-0.218798 -1.71277,-0.27798 -2.26265,-0.395556 -0.76811,-0.164155 -1.59407,-0.416921 -2.0689,-0.633241 l -0.18825,-0.08555 -0.63092,0.0029 c -0.34697,0.0012 -0.74818,0.0175 -0.89135,0.03584 l -0.26082,0.03344 -0.0638,0.216639 c -0.0719,0.24711 -0.17308,0.640019 -0.19941,0.759824 -0.016,0.07812 -0.008,0.08484 0.19941,0.192306 1.00176,0.515204 2.86941,0.959077 4.41498,1.049227 0.49134,0.0287 1.4269,0.01749 1.85729,-0.02223 z m -7.80813,-1.396046 c 0.39801,-0.466622 0.8863,-0.737182 1.58249,-0.876249 0.23052,-0.0462 0.45386,-0.06384 0.95469,-0.07504 0.35973,-0.0084 0.63652,-0.02157 0.61497,-0.02954 -0.11649,-0.04228 -0.52963,-0.287065 -0.67639,-0.400092 -0.11802,-0.09128 -0.17389,-0.119846 -0.18824,-0.09562 -0.0241,0.04942 -0.0807,0.0071 -0.0807,-0.0686 -0.001,-0.07014 -0.1651,-0.236493 -0.20498,-0.20914 -0.016,0.0099 -0.016,0.114667 -0.008,0.262187 0.008,0.166229 0.007,0.244787 -0.016,0.244787 -0.024,0 -0.0397,-0.109063 -0.0637,-0.390039 -0.005,-0.08051 -0.016,-0.08666 -0.11018,-0.08666 h -0.10288 l 0.007,0.151709 c 0.004,0.08344 -0.004,0.151624 -0.016,0.151624 -0.0319,0 -0.0559,-0.0987 -0.0559,-0.213043 -1.7e-4,-0.07742 -0.005,-0.0819 -0.0821,-0.06455 -0.0479,0.0097 -0.0981,0.01835 -0.11958,0.01835 -0.0319,0 -0.0319,0.03037 -0.016,0.158892 0.008,0.09982 0.008,0.158889 -0.008,0.158889 -0.032,0 -0.0559,-0.0952 -0.0559,-0.193277 -5.2e-4,-0.08596 -0.024,-0.09842 -0.14038,-0.06455 -0.10933,0.03344 -0.11325,0.05348 -0.0559,0.286422 0.0479,0.185941 0.0479,0.231161 0.016,0.231161 -0.024,0 -0.0719,-0.163509 -0.11802,-0.384468 -0.016,-0.08499 -0.0241,-0.08568 -0.19065,-0.0175 -0.0559,0.02307 -0.0559,0.02788 -0.016,0.146529 0.0399,0.121663 0.0319,0.215524 -0.008,0.185214 -0.016,-0.0084 -0.0397,-0.0742 -0.0559,-0.145492 -0.024,-0.123484 -0.032,-0.128387 -0.0966,-0.10164 -0.17147,0.07182 -0.17147,0.07182 -0.11242,0.219023 0.0399,0.09478 0.0479,0.141907 0.0239,0.163999 -0.016,0.02241 -0.0399,-0.01259 -0.0839,-0.1176 -0.0559,-0.147481 -0.0559,-0.148363 -0.12515,-0.107384 -0.15158,0.09087 -0.14997,0.07896 -0.0399,0.315544 0.0917,0.202278 0.10695,0.279016 0.0479,0.237057 -0.016,-0.0084 -0.0638,-0.10136 -0.10609,-0.205149 -0.0479,-0.103744 -0.0925,-0.188559 -0.10694,-0.188559 -0.016,0 -0.0637,0.0343 -0.10607,0.07574 l -0.0813,0.07575 0.0559,0.0994 c 0.0942,0.17652 0.0479,0.224694 -0.0559,0.0511 l -0.0559,-0.102905 -0.0638,0.06384 c -0.0957,0.09968 -0.10132,0.161201 -0.024,0.273193 0.0925,0.134961 0.0559,0.198214 -0.0398,0.06776 l -0.0719,-0.098 -0.0241,0.08638 c -0.0319,0.112985 -0.0241,0.538487 0.001,0.721936 l 0.0241,0.144455 0.0559,-0.08611 c 0.0319,-0.04704 0.12685,-0.168944 0.21296,-0.270152 z m 11.02553,-0.178759 c 0,-0.06622 -0.19782,-0.698807 -0.30711,-0.979543 -0.10457,-0.269031 -0.36291,-0.863197 -0.39082,-0.896017 -0.005,-0.0071 -0.0638,0.04704 -0.13412,0.119985 -0.24888,0.266639 -0.75937,0.569582 -1.27463,0.755437 -0.35335,0.127688 -0.52406,0.17555 -0.97646,0.275181 l -0.35337,0.07812 0.59985,0.09591 c 0.71865,0.114802 1.41882,0.242235 1.77656,0.322875 0.4307,0.09702 0.96536,0.230841 0.97796,0.2448 0.024,0.02475 0.0813,0.01259 0.0813,-0.01679 z m -3.33516,-0.765883 c 0.35495,-0.05656 0.9571,-0.216712 1.26234,-0.335564 0.52724,-0.205078 1.03955,-0.527311 1.26036,-0.791654 l 0.11243,-0.134545 -0.008,-0.264258 c -0.008,-0.27518 -0.0719,-0.490715 -0.19782,-0.653583 l -0.0559,-0.07182 -0.0399,0.100385 c -0.0241,0.05503 -0.0559,0.122084 -0.0719,0.148698 -0.0241,0.03992 -0.016,0.07504 0.0637,0.208076 0.0559,0.09815 0.0854,0.167126 0.0719,0.178537 -0.016,0.0099 -0.0319,0.01445 -0.0319,0.0084 -0.004,-0.0056 -0.0479,-0.07336 -0.0925,-0.150436 l -0.0852,-0.140382 -0.0807,0.08891 c -0.09,0.09983 -0.0925,0.0868 0.0807,0.415645 0.0637,0.129362 0.0719,0.194382 0.016,0.153935 -0.016,-0.0099 -0.0719,-0.108645 -0.1253,-0.219586 -0.0559,-0.110882 -0.11087,-0.201086 -0.126,-0.200528 -0.016,4.07e-4 -0.0637,0.03278 -0.10533,0.07099 l -0.0807,0.07014 0.0559,0.113543 c 0.0637,0.122923 0.0719,0.177945 0.0319,0.177945 -0.016,0 -0.0479,-0.05503 -0.0813,-0.122782 -0.032,-0.06776 -0.0559,-0.127266 -0.0637,-0.132864 -0.004,-0.0056 -0.0559,0.02073 -0.11159,0.05824 l -0.10297,0.06776 0.0638,0.142372 c 0.0719,0.167192 0.0719,0.160558 0.0241,0.160558 -0.016,0 -0.0559,-0.05264 -0.0831,-0.116903 -0.0241,-0.06455 -0.0559,-0.122784 -0.0638,-0.129784 -0.0241,-0.0168 -0.20741,0.06776 -0.20741,0.09618 0,0.01259 0.0319,0.123203 0.0807,0.247025 0.0901,0.259555 0.0886,0.250301 0.0479,0.250301 -0.0318,0 -0.17628,-0.358934 -0.17628,-0.432797 0,-0.03824 -0.0479,-0.03752 -0.15314,0.0029 -0.0925,0.03584 -0.0973,0.05824 -0.0479,0.223896 0.024,0.06623 0.024,0.125583 0.016,0.134542 -0.0241,0.01834 -0.0559,-0.04058 -0.10288,-0.192784 l -0.0319,-0.106124 -0.11634,0.04383 c -0.0638,0.02397 -0.1165,0.04788 -0.1165,0.05348 0,0.0056 0.008,0.03992 0.0241,0.07659 0.0479,0.154578 0.0559,0.225814 0.016,0.225814 -0.024,0 -0.0479,-0.05587 -0.0719,-0.147005 l -0.0319,-0.147007 -0.0949,0.01919 c -0.0479,0.0099 -0.10532,0.03109 -0.11886,0.04467 -0.0159,0.01595 -0.005,0.117041 0.0239,0.257869 0.0241,0.127687 0.0399,0.241369 0.0319,0.252779 -0.0319,0.03344 -0.0638,-0.04704 -0.0942,-0.237614 -0.0399,-0.244393 -0.0479,-0.255804 -0.18188,-0.231402 l -0.11018,0.02073 0.016,0.119846 c 0.024,0.173087 0.024,0.176268 -0.001,0.192144 -0.0159,0.0084 -0.0397,-0.04872 -0.0559,-0.126146 -0.016,-0.07742 -0.0399,-0.146053 -0.0399,-0.152677 -0.005,-0.0069 -0.0638,-0.0029 -0.12124,0.0071 l -0.11075,0.0192 0.016,0.133145 c 0.008,0.07336 0.016,0.144443 0.024,0.158414 0.003,0.01402 -0.008,0.03109 -0.024,0.03824 -0.0241,0.0084 -0.0399,-0.03824 -0.0479,-0.136082 -0.016,-0.165837 -0.0479,-0.188334 -0.18344,-0.159775 -0.0886,0.01834 -0.0925,0.02476 -0.0807,0.111584 0.0479,0.298223 0.0479,0.424256 0.008,0.424256 -0.0319,0 -0.0397,-0.05671 -0.0559,-0.260031 -0.008,-0.164225 -0.0319,-0.259861 -0.0479,-0.259706 -0.016,2.06e-4 -0.0719,0.0084 -0.126,0.01749 l -0.0957,0.0175 0.016,0.159365 c 0.008,0.128946 0.008,0.15682 -0.0239,0.146051 -0.0241,-0.0084 -0.0399,-0.06455 -0.0479,-0.149886 -0.008,-0.153611 -0.0398,-0.178269 -0.17308,-0.150099 l -0.0893,0.01835 0.016,0.158011 c 0.016,0.133703 0.008,0.158007 -0.024,0.158007 -0.0319,0 -0.0398,-0.0311 -0.0398,-0.158876 V 50.06837 h -0.13245 -0.13244 l 0.008,0.223894 c 0.008,0.298002 -0.0399,0.31108 -0.0559,0.01511 l -0.0159,-0.22422 -0.12445,-0.0084 -0.12447,-0.0084 v 0.160477 c 0,0.08834 -0.008,0.160475 -0.0241,0.160475 -0.0241,0 -0.0559,-0.13833 -0.0559,-0.249183 0,-0.06216 -0.008,-0.0686 -0.11635,-0.0686 h -0.11649 l -0.008,0.16385 c -0.008,0.235223 -0.0719,0.245263 -0.0719,0.01259 v -0.175717 h -0.11802 -0.11802 v 0.15833 c 0,0.14916 0.004,0.159367 0.0719,0.17635 0.0398,0.0099 0.13638,0.03513 0.21536,0.05656 0.19542,0.0518 0.8951,0.200042 1.21621,0.256996 0.62298,0.110462 0.51132,0.107103 0.99404,0.03037 z m -2.57666,-0.529862 v -0.140636 l -0.11159,-0.0168 c -0.13397,-0.01989 -0.15631,2.06e-4 -0.14594,0.127264 0.007,0.08512 0.0241,0.100946 0.11327,0.131464 0.0559,0.01919 0.11396,0.03584 0.12445,0.03668 0.008,0.0012 0.016,-0.06147 0.016,-0.138463 z m -0.32543,-0.0455 c 0.0241,-0.103884 -0.005,-0.131606 -0.13413,-0.131606 -0.10532,0 -0.11635,0.0069 -0.11635,0.06776 0,0.0511 0.0241,0.07574 0.0845,0.09815 0.12923,0.0455 0.14838,0.04228 0.16512,-0.0343 z m -0.32943,-0.07014 c 0,-0.04142 -0.0238,-0.0574 -0.11157,-0.07015 -0.12839,-0.0192 -0.19781,0.02547 -0.0821,0.05264 0.0397,0.0099 0.0989,0.02953 0.12853,0.04312 0.0319,0.01402 0.0559,0.02547 0.0559,0.02715 0.003,0.0012 0.007,-0.02241 0.007,-0.0518 z m -2.09267,-1.199208 c 0,-0.0056 0.016,-0.05824 0.0399,-0.115645 0.0397,-0.098 0.0397,-0.104724 -0.008,-0.104724 -0.024,0 -0.0638,0.0168 -0.0932,0.03752 -0.0399,0.03194 -0.0399,0.04872 -0.016,0.115645 0.0241,0.06468 0.0719,0.108365 0.0719,0.06706 z m 7.61208,-0.435512 c 0,-0.03668 -0.016,-0.07574 -0.0397,-0.08568 -0.0559,-0.02547 -0.0637,-0.0099 -0.0319,0.09395 0.0319,0.101225 0.0719,0.09646 0.0719,-0.0084 z m -3.77402,1.179903 c -0.008,-0.0112 -0.016,-0.130208 -0.016,-0.26402 0,-0.178748 0.008,-0.240012 0.0319,-0.231403 0.0399,0.01511 0.0638,0.118305 0.0719,0.283652 0.003,0.129364 -0.0479,0.252846 -0.0831,0.211771 z"
       id="path1-6"
       inkscape:export-filename="icon_shapeup_24.svg"
       inkscape:export-xdpi="96"
       inkscape:export-ydpi="96" /></g></svg>
