<?xml version="1.0" encoding="UTF-8" standalone="no"?>
<!-- Created with Inkscape (http://www.inkscape.org/) -->

<svg
   width="58.764164mm"
   height="119.3564mm"
   viewBox="0 0 58.764164 119.3564"
   version="1.1"
   id="svg1"
   xml:space="preserve"
   xmlns:inkscape="http://www.inkscape.org/namespaces/inkscape"
   xmlns:sodipodi="http://sodipodi.sourceforge.net/DTD/sodipodi-0.dtd"
   xmlns="http://www.w3.org/2000/svg"
   xmlns:svg="http://www.w3.org/2000/svg"><sodipodi:namedview
     id="namedview1"
     pagecolor="#ffffff"
     bordercolor="#111111"
     borderopacity="1"
     inkscape:showpageshadow="0"
     inkscape:pageopacity="0"
     inkscape:pagecheckerboard="1"
     inkscape:deskcolor="#d1d1d1"
     inkscape:document-units="mm"><inkscape:page
       x="0"
       y="0"
       width="58.764164"
       height="119.3564"
       id="page2"
       margin="0"
       bleed="0" /></sodipodi:namedview><defs
     id="defs1" /><g
     inkscape:label="Layer 1"
     inkscape:groupmode="layer"
     id="layer1"
     transform="translate(-77.129159,-75.418015)"><path
       style="fill:#000000"
       d="m 86.289672,194.23775 c -1.786965,-0.69882 -2.770688,-1.48305 -3.56896,-2.8452 -1.229504,-2.09799 -1.241343,-1.80777 1.104456,-27.07453 1.59165,-17.14379 2.306301,-32.77265 1.748223,-38.2323 -0.404102,-3.95332 -1.133026,-5.41822 -3.990056,-8.01871 -2.720696,-2.47641 -3.863513,-4.66029 -4.316433,-8.24853 -0.376111,-2.97973 0.03955,-12.591366 0.984207,-22.758799 0.888908,-9.56736 1.052424,-10.611908 1.749925,-11.178646 0.768899,-0.62475 1.208747,-0.583307 1.978465,0.186411 l 0.649432,0.649432 v 13.211881 c 0,12.518081 0.02602,13.244011 0.495463,13.823751 0.372889,0.4605 0.747009,0.60474 1.512251,0.58305 1.762097,-0.0499 1.853874,-0.34424 2.059723,-6.604744 0.749437,-22.792743 0.655892,-21.829087 2.155546,-22.205476 0.791482,-0.198649 1.90616,0.452617 2.217445,1.295574 0.118099,0.319812 0.358529,6.177413 0.534288,13.016891 0.175758,6.839479 0.385557,12.673545 0.466217,12.964585 0.26758,0.96548 0.919157,1.45521 1.936152,1.45521 1.93343,0 1.85208,0.62605 1.85208,-14.254217 V 76.716878 l 0.64943,-0.649432 c 0.35719,-0.357187 0.83885,-0.649431 1.07036,-0.649431 0.50513,0 1.71953,1.158766 1.72044,1.641619 3.5e-4,0.188515 0.23404,2.545412 0.51931,5.237547 0.961814,9.076632 1.346154,14.390458 1.502274,20.769789 0.22766,9.30293 -0.17411,10.64115 -4.582094,15.2621 -3.800022,3.98363 -3.659579,3.39014 -3.65127,15.42957 0.0076,11.07646 0.08777,12.32652 3.0743,47.96355 0.55508,6.62349 0.56147,7.0205 0.13485,8.3739 -1.16791,3.70505 -6.003914,5.70675 -10.006024,4.14166 z m 6.094659,-1.50955 c 1.776935,-0.88548 2.731585,-2.26246 2.877595,-4.15059 0.0584,-0.75523 -0.55334,-9.29079 -1.35943,-18.96793 -2.000737,-24.01881 -2.12256,-26.09489 -2.134765,-36.38021 -0.01028,-8.66646 0.01162,-9.06679 0.598242,-10.93378 0.564464,-1.79647 0.801941,-2.13887 3.253003,-4.69028 3.96318,-4.12544 4.473984,-5.55652 4.470234,-12.52403 -0.003,-5.803178 -1.326384,-23.195761 -2.065614,-27.149824 -0.53896,-2.882844 -0.71705,-0.240534 -0.84258,12.501368 -0.0728,7.385288 -0.23602,13.640556 -0.36279,13.900606 -0.53984,1.10732 -3.03097,1.61818 -4.539397,0.93089 -1.565173,-0.71314 -1.571359,-0.76543 -1.996852,-16.881823 -0.231882,-8.782985 -0.364411,-11.057356 -0.662287,-11.365743 -0.886581,-0.917864 -0.983171,-0.01052 -1.356673,12.744359 -0.201515,6.881605 -0.429284,12.916877 -0.506154,13.411717 -0.07687,0.49484 -0.479037,1.23898 -0.893704,1.65364 -0.641121,0.64113 -0.965931,0.75394 -2.170629,0.75394 -1.590716,0 -2.387905,-0.42387 -2.991151,-1.59042 -0.335157,-0.64812 -0.395364,-2.76097 -0.395364,-13.874562 0,-10.888089 -0.06109,-13.110014 -0.360447,-13.110014 -0.398865,0 -0.403324,0.02917 -1.213662,7.9375 -0.792139,7.730741 -1.331917,16.052086 -1.330103,20.505206 0.0026,6.42715 0.816763,8.72215 4.159765,11.72599 4.073976,3.66067 4.421423,4.90023 4.388989,15.65839 -0.03148,10.44223 -0.655353,19.60956 -2.898957,42.59792 -0.390567,4.00182 -0.721617,8.89065 -0.735666,10.86406 -0.0247,3.46925 -0.0021,3.62364 0.684293,4.66383 1.02263,1.54987 2.967548,2.46377 5.243287,2.46377 1.35622,0 2.06043,-0.1556 3.140817,-0.69398 z m 33.682129,1.64009 c -1.76218,-0.57432 -3.07413,-1.62723 -3.91239,-3.13991 -0.71087,-1.28278 -0.76072,-1.56102 -0.72094,-4.02391 0.0235,-1.45521 0.29086,-5.74146 0.59413,-9.525 1.57225,-19.61565 2.14723,-27.90136 2.16501,-31.19851 0.0168,-3.1136 -0.13862,-3.40858 -2.71199,-5.14799 -2.92316,-1.97584 -3.21179,-2.72344 -3.69036,-9.55871 -0.56037,-8.00345 -0.0136,-21.61557 1.22221,-30.42708 1.82722,-13.028537 5.37387,-22.896249 8.99129,-25.016203 2.15546,-1.263181 3.77203,-0.906808 4.85729,1.070788 0.3984,0.725985 0.43734,3.801128 0.45229,35.719375 0.0171,36.42879 -9e-5,35.72107 1.30794,53.975 1.6772,23.40593 1.67332,22.62901 0.12413,24.88069 -1.53267,2.22766 -5.67711,3.36969 -8.67861,2.39146 z m 5.81091,-1.67765 c 1.17047,-0.6033 1.55104,-0.98594 2.17098,-2.18281 0.74492,-1.43818 0.75023,-1.48232 0.58817,-4.89086 -0.0899,-1.89177 -0.33634,-5.64224 -0.54754,-8.33437 -1.89013,-24.09243 -1.97521,-26.86959 -1.9793,-64.60726 -0.002,-22.725114 -0.0937,-34.020038 -0.27865,-34.50656 -1.20485,-3.168993 -4.61759,-0.710054 -7.01502,5.054442 -2.82523,6.793113 -4.78424,16.832168 -5.68761,29.146448 -0.35102,4.78498 -0.18433,20.8994 0.24254,23.44762 0.38763,2.31391 0.99334,3.22516 3.07779,4.63032 2.41841,1.6303 3.04437,2.78472 3.03868,5.60407 -0.005,2.62834 -0.53552,10.51851 -1.87166,27.85167 -0.60269,7.81855 -1.02123,14.61305 -0.93009,15.09889 0.69991,3.73081 5.42828,5.62819 9.19171,3.6884 z"
       id="path1" /></g></svg>
