<?xml version="1.0" encoding="UTF-8" standalone="no"?>
<!-- Created with Inkscape (http://www.inkscape.org/) -->

<svg
   width="11.112484mm"
   height="10.115476mm"
   viewBox="0 0 11.112484 10.115476"
   version="1.1"
   id="svg1"
   xml:space="preserve"
   inkscape:export-filename="ビットマップ.svg"
   inkscape:export-xdpi="96"
   inkscape:export-ydpi="96"
   xmlns:inkscape="http://www.inkscape.org/namespaces/inkscape"
   xmlns:sodipodi="http://sodipodi.sourceforge.net/DTD/sodipodi-0.dtd"
   xmlns="http://www.w3.org/2000/svg"
   xmlns:svg="http://www.w3.org/2000/svg"><sodipodi:namedview
     id="namedview1"
     pagecolor="#ffffff"
     bordercolor="#111111"
     borderopacity="1"
     inkscape:showpageshadow="0"
     inkscape:pageopacity="0"
     inkscape:pagecheckerboard="1"
     inkscape:deskcolor="#d1d1d1"
     inkscape:document-units="mm"><inkscape:page
       x="0"
       y="0"
       width="11.112484"
       height="10.115476"
       id="page2"
       margin="0"
       bleed="0" /></sodipodi:namedview><defs
     id="defs1" /><g
     inkscape:label="Layer 1"
     inkscape:groupmode="layer"
     id="layer1"
     transform="translate(-158.60261,118.01663)"><path
       style="fill:#000000;stroke:#000000;stroke-width:0.163575;stroke-dasharray:none;stroke-opacity:1"
       d="m 158.69148,-108.02454 c 0,-0.0371 0.13503,-0.0425 1.06218,-0.0425 0.91863,0 1.07006,-0.006 1.12071,-0.0439 0.0548,-0.0439 0.0548,-0.0474 0.0548,-0.90594 0,-0.87759 0.006,-0.9401 0.10353,-1.01978 0.0342,-0.0254 0.3016,-0.035 1.06223,-0.0356 l 1.02037,-8e-4 0.0412,-0.0631 c 0.0342,-0.0528 0.0412,-0.17452 0.0412,-0.75788 0,-0.69006 5.9e-4,-0.69554 0.0617,-0.75652 0.0617,-0.061 0.0706,-0.0617 1.05299,-0.0617 0.86661,0 0.99719,-0.005 1.03331,-0.0445 0.0342,-0.0377 0.0412,-0.14059 0.0412,-0.68837 0,-0.60868 0.003,-0.64804 0.0548,-0.71842 l 0.0548,-0.0744 0.84852,-0.003 c 0.46679,-0.002 0.92571,-0.0117 1.02002,-0.0212 l 0.17136,-0.0178 0.0137,-0.70179 c 0.0136,-0.69557 0.0136,-0.70227 0.0754,-0.75574 0.0548,-0.0507 0.11722,-0.0542 1.03503,-0.0542 0.84721,0 0.97278,0.005 0.97278,0.0425 0,0.0371 -0.12406,0.0425 -0.96099,0.0425 h -0.96107 l -0.0412,0.0631 c -0.0342,0.0521 -0.0412,0.17054 -0.0412,0.71606 0,0.62814 -0.002,0.65535 -0.0548,0.70707 -0.0548,0.0507 -0.11448,0.0542 -1.04819,0.0617 -0.8913,0.007 -0.9961,0.0124 -1.02565,0.0548 -0.0206,0.0342 -0.0342,0.22242 -0.0342,0.70364 v 0.65646 l -0.0692,0.0583 c -0.0692,0.0569 -0.098,0.0583 -1.06271,0.0583 -0.73734,0 -1.00138,0.008 -1.02489,0.0336 -0.0206,0.0247 -0.0342,0.22442 -0.0342,0.72183 0,0.71778 -0.0137,0.82201 -0.11994,0.86534 -0.0206,0.009 -0.49352,0.0178 -1.04265,0.0178 -0.96476,0 -1.00178,0.002 -1.05271,0.0562 -0.048,0.0542 -0.0548,0.0942 -0.0548,0.90274 0,0.89584 -0.007,0.95907 -0.12269,1.0153 -0.0412,0.0212 -0.4058,0.0315 -1.131,0.0315 -0.93071,0 -1.06683,-0.005 -1.06683,-0.0425 z m 3.13587,-2.58039 c -0.096,-0.0268 -0.20495,-0.0707 -0.24334,-0.0977 -0.085,-0.0596 -0.15833,-0.20872 -0.2022,-0.41558 -0.048,-0.21852 -0.11653,-0.35246 -0.28721,-0.55666 -0.18096,-0.21653 -0.24059,-0.33011 -0.24059,-0.45993 -6e-5,-0.088 0.0274,-0.12503 0.22345,-0.32532 0.16177,-0.16335 0.24128,-0.26912 0.28858,-0.38138 0.0802,-0.19077 0.13161,-0.55844 0.18713,-1.33443 0.0617,-0.87632 0.13709,-1.12996 0.48529,-1.63769 0.24677,-0.35974 0.27076,-0.41731 0.28652,-0.69266 0.0136,-0.26684 0.048,-0.32491 0.0734,-0.13572 0.0412,0.29159 -0.0342,0.51416 -0.28789,0.8728 -0.34204,0.48003 -0.41606,0.72576 -0.47776,1.579 -0.048,0.72229 -0.10692,1.14046 -0.17616,1.34416 -0.0412,0.13043 -0.098,0.20481 -0.28926,0.40352 -0.15353,0.15957 -0.23442,0.26479 -0.23442,0.30509 0,0.0936 0.0617,0.20921 0.22757,0.40394 0.17753,0.21284 0.22894,0.31593 0.29954,0.59929 0.0617,0.25217 0.0898,0.30428 0.18576,0.36534 0.14325,0.0908 0.59565,0.17129 0.57441,0.10217 -0.005,-0.0157 -0.0692,-0.0762 -0.13778,-0.13421 -0.24813,-0.20247 -0.23991,-0.16676 -0.23923,-0.97626 l 6e-4,-0.71132 0.0863,-0.29172 c 0.27486,-0.9302 0.90835,-2.55024 1.18014,-3.0174 0.16861,-0.2896 0.1789,-0.32497 0.30228,-1.0135 0.0973,-0.5411 0.15217,-0.73741 0.19399,-0.69051 0.007,0.0105 -0.12201,0.77542 -0.22209,1.28876 -0.0136,0.0839 -0.085,0.24649 -0.16177,0.38139 -0.0734,0.12934 -0.1789,0.33278 -0.23511,0.45212 -0.2358,0.50195 -0.70553,1.74414 -0.92412,2.44314 l -0.13983,0.44767 -0.007,0.63569 c -0.0138,0.78376 -0.005,0.80974 0.22415,0.98847 0.12817,0.0998 0.16382,0.14374 0.16519,0.20214 5.9e-4,0.0432 -0.0138,0.082 -0.0412,0.0919 -0.0727,0.0301 -0.25567,0.0157 -0.43457,-0.035 z m 2.73583,-1.34615 c -0.22483,-0.0528 -0.26869,-0.0875 -0.37014,-0.29412 -0.146,-0.29666 -0.23854,-0.41415 -0.44828,-0.5655 -0.37563,-0.27157 -0.42292,-0.44787 -0.19192,-0.71198 0.34409,-0.39283 0.35505,-0.43924 0.43937,-1.87566 0.0137,-0.24862 0.048,-0.52835 0.0692,-0.62157 0.048,-0.19912 0.20907,-0.5306 0.35986,-0.74596 l 0.10763,-0.15265 -0.1556,-0.15875 c -0.085,-0.0874 -0.23786,-0.2375 -0.3393,-0.33375 -0.17136,-0.16388 -0.21386,-0.24703 -0.0952,-0.18836 0.0836,0.0418 0.66077,0.6337 0.66077,0.67847 0,0.0226 -0.0617,0.13928 -0.14188,0.25916 -0.28652,0.44027 -0.34958,0.642 -0.38728,1.23514 -0.0973,1.54632 -0.0967,1.5437 -0.41264,1.91294 -0.0761,0.0887 -0.14601,0.19281 -0.15492,0.23134 -0.0274,0.10837 0.0617,0.22969 0.26665,0.38391 0.23785,0.17596 0.34546,0.30476 0.45788,0.54645 0.10353,0.22359 0.1597,0.27082 0.38179,0.32052 0.28858,0.0645 0.45514,0.037 0.30023,-0.0501 -0.13435,-0.0755 -0.26801,-0.2129 -0.31257,-0.32264 -0.0274,-0.0645 -0.0898,-0.29947 -0.1412,-0.52265 -0.14463,-0.63219 -0.12886,-0.83195 0.12955,-1.6532 0.17342,-0.54966 0.39551,-1.15162 0.67243,-1.82097 0.11241,-0.27192 0.21317,-0.54192 0.22278,-0.59991 0.0274,-0.15149 -0.0206,-0.30832 -0.18645,-0.62458 -0.10007,-0.1896 -0.13709,-0.28727 -0.11928,-0.30695 0.0548,-0.0562 0.36262,0.55713 0.39003,0.76903 0.0206,0.15813 -0.0274,0.31503 -0.34066,1.07529 -0.5045,1.23353 -0.78218,2.13812 -0.78259,2.54718 -1.3e-4,0.22955 0.16246,0.97368 0.24677,1.13114 0.0342,0.0583 0.12132,0.15395 0.19877,0.21188 0.17411,0.12968 0.21044,0.18301 0.16246,0.24429 -0.0412,0.0548 -0.25842,0.0562 -0.4853,0.003 z"
       id="path1" /></g></svg>
