<svg version="1.1" id="Layer_1" xmlns="http://www.w3.org/2000/svg" xmlns:xlink="http://www.w3.org/1999/xlink" x="0px" y="0px"
	 width="100%" viewBox="0 0 1024 1024" xml:space="preserve">
<path fill="#8EBF9E" opacity="1.000000" stroke="none" 
	d="
M289.407349,707.567505 
	C296.097931,720.932373 302.581909,733.990662 309.320679,747.562134 
	C383.148346,607.477295 480.638855,488.257141 609.367859,395.948547 
	C617.191589,402.867096 624.770142,409.568787 630.796631,414.898041 
	C625.107544,421.412079 619.626282,428.547058 613.285339,434.811890 
	C564.875732,482.640411 522.482422,535.408997 484.377747,591.669495 
	C432.730286,667.925537 390.326874,749.210876 354.445770,833.904236 
	C338.836700,870.747742 324.655182,908.196045 309.651703,945.804871 
	C248.962204,794.583191 168.366714,655.130859 56.598675,533.962219 
	C67.987556,530.839905 78.706848,529.584229 89.719528,530.492371 
	C120.377914,533.020508 146.905319,545.950562 171.625534,563.205688 
	C211.816681,591.259888 242.096573,628.379639 267.704620,669.600098 
	C275.327087,681.869751 282.060120,694.691895 289.407349,707.567505 
z"/>
<path fill="#F5C4A0" opacity="1.000000" stroke="none" 
	d="
M634.816528,398.988190 
	C632.726624,399.033691 630.372681,399.627411 629.347778,398.719940 
	C601.274658,373.863922 582.354919,343.630219 577.072449,306.047607 
	C570.863403,261.872406 581.747314,222.014709 608.706360,186.427933 
	C645.998535,137.201157 683.118469,87.843903 720.316895,38.546127 
	C720.805603,37.898460 721.357605,37.298523 722.429626,36.021778 
	C725.554077,42.945335 728.567688,49.417225 731.413391,55.962078 
	C751.860168,102.988167 762.709534,152.037064 760.683105,203.414017 
	C758.953247,247.268311 749.031860,288.987946 724.291931,326.146423 
	C707.222046,351.784698 684.069031,370.753265 657.821228,386.239136 
	C650.383057,390.627563 642.727600,394.647736 634.816528,398.988190 
z"/>
<path fill="#F5C4A0" opacity="1.000000" stroke="none" 
	d="
M753.015869,295.970154 
	C757.106506,282.607788 761.241333,269.655701 764.955505,256.584137 
	C765.928711,253.158798 767.237244,250.799606 770.485962,249.069473 
	C802.393066,232.076828 836.304382,221.879501 872.221680,217.784729 
	C906.019653,213.931549 939.320557,216.314911 972.347717,223.992004 
	C972.993042,224.142029 973.643127,224.298187 974.259399,224.534119 
	C974.539429,224.641357 974.742004,224.950699 975.283203,225.446304 
	C968.027405,235.143570 960.791504,244.841400 953.527222,254.517944 
	C924.845398,292.724121 896.126465,330.902435 867.478088,369.133728 
	C850.835999,391.342560 831.952454,411.042786 806.754822,423.682892 
	C754.601501,449.845154 703.754639,445.872803 654.082764,416.816772 
	C649.851501,414.341644 645.879578,411.423126 641.033325,408.210938 
	C691.414185,383.163818 731.715149,349.211517 753.015869,295.970154 
z"/>
<path fill="#F5C4A0" opacity="1.000000" stroke="none" 
	d="
M794.468201,124.523537 
	C822.623413,113.570267 850.442444,102.802910 878.939270,91.773216 
	C878.939270,98.477356 879.093750,103.896347 878.913818,109.304230 
	C877.872620,140.605469 875.392090,171.757217 869.402466,202.566025 
	C868.746277,205.941360 867.550293,207.185196 864.154358,207.628586 
	C830.945435,211.964386 799.329102,221.558304 769.057068,237.231461 
	C769.804260,229.935547 770.618774,223.102707 771.185303,216.249390 
	C773.196716,191.916077 772.455078,167.666977 768.236145,143.600830 
	C767.333862,138.453812 768.090698,135.434143 773.571838,133.552307 
	C780.607910,131.136612 787.294739,127.703972 794.468201,124.523537 
z"/>
</svg>
