<?xml version="1.0" encoding="UTF-8" standalone="no"?>
<!-- Created with Inkscape (http://www.inkscape.org/) -->

<svg
   width="8.4666586mm"
   height="11.687288mm"
   viewBox="0 0 8.4666586 11.687288"
   version="1.1"
   id="svg1"
   xml:space="preserve"
   inkscape:export-filename="ビットマップ.svg"
   inkscape:export-xdpi="96"
   inkscape:export-ydpi="96"
   xmlns:inkscape="http://www.inkscape.org/namespaces/inkscape"
   xmlns:sodipodi="http://sodipodi.sourceforge.net/DTD/sodipodi-0.dtd"
   xmlns="http://www.w3.org/2000/svg"
   xmlns:svg="http://www.w3.org/2000/svg"><sodipodi:namedview
     id="namedview1"
     pagecolor="#ffffff"
     bordercolor="#111111"
     borderopacity="1"
     inkscape:showpageshadow="0"
     inkscape:pageopacity="0"
     inkscape:pagecheckerboard="1"
     inkscape:deskcolor="#d1d1d1"
     inkscape:document-units="mm"><inkscape:page
       x="0"
       y="0"
       width="8.4666586"
       height="11.687288"
       id="page2"
       margin="0"
       bleed="0" /></sodipodi:namedview><defs
     id="defs1" /><g
     inkscape:label="Layer 1"
     inkscape:groupmode="layer"
     id="layer1"
     transform="translate(-15.821734,-159.4258)"><path
       id="path1-74"
       style="fill:#000000;stroke-width:0.00761372;stroke-dasharray:none"
       d="m 18.820851,159.42652 c -0.06605,0.0275 -0.09937,0.10784 -0.144956,0.1639 -0.158398,0.22579 -0.254256,0.52032 -0.213926,0.80715 0.0526,0.31487 0.253087,0.56106 0.429605,0.80189 0.110472,0.15214 0.21451,0.32171 0.234969,0.52079 0.03507,0.27903 -0.08884,0.54925 -0.251919,0.75298 -0.03507,0.045 -0.09527,0.11923 -0.03507,0.17219 0.05904,0.0526 0.129174,-0.0152 0.164243,-0.0669 0.18295,-0.22123 0.297512,-0.51699 0.285237,-0.81942 0.0025,-0.22766 -0.100534,-0.43475 -0.225033,-0.60851 -0.146708,-0.21364 -0.333163,-0.40564 -0.413823,-0.66449 -0.04676,-0.18113 -0.03507,-0.37986 0.02922,-0.55509 0.04092,-0.13491 0.133266,-0.24117 0.20516,-0.35731 0.02338,-0.0409 0.0526,-0.12602 -0.0058,-0.14355 -0.01754,-0.004 -0.03507,-0.005 -0.04676,-0.004 z m 1.418927,0.63527 c -0.09761,0.0503 -0.15197,0.16372 -0.206913,0.26069 -0.05261,0.10866 -0.109886,0.22433 -0.101119,0.35274 1.35e-4,0.13455 -0.01169,0.27834 0.05261,0.39834 0.07832,0.18768 0.21042,0.33603 0.324395,0.49653 0.110473,0.15845 0.205744,0.35672 0.167751,0.5631 -0.01754,0.16805 -0.113976,0.30535 -0.204573,0.43551 -0.02338,0.0462 -0.06546,0.10843 -0.03507,0.15986 0.06605,0.0555 0.133849,-0.0228 0.174182,-0.0775 0.139693,-0.19061 0.25484,-0.42937 0.226199,-0.68227 -0.02923,-0.28325 -0.198144,-0.51325 -0.363557,-0.7186 -0.104041,-0.13478 -0.19113,-0.29879 -0.189378,-0.48133 -0.01169,-0.15594 0.02922,-0.31487 0.119238,-0.43726 0.04091,-0.0648 0.09878,-0.12135 0.118652,-0.19797 -0.0051,-0.0415 -0.04676,-0.0773 -0.08358,-0.0717 z m -2.707744,0.002 c -0.083,0.0269 -0.125667,0.12128 -0.17418,0.19195 -0.133852,0.20995 -0.196978,0.48683 -0.118069,0.73495 0.05903,0.19826 0.195805,0.3507 0.307444,0.51366 0.09235,0.13139 0.197561,0.26594 0.216849,0.43749 0.03507,0.22053 -0.06488,0.43218 -0.18587,0.59975 -0.02338,0.0468 -0.07657,0.0945 -0.06371,0.15221 0.02338,0.0479 0.08124,0.0731 0.118069,0.0298 0.140863,-0.1432 0.244904,-0.33591 0.281143,-0.54464 0.01169,-0.078 0.01754,-0.17388 0.0045,-0.25308 -0.02338,-0.23602 -0.168336,-0.42464 -0.301016,-0.60142 -0.11281,-0.15588 -0.242567,-0.32247 -0.25075,-0.53212 -0.01754,-0.20791 0.07832,-0.40313 0.19756,-0.55645 0.02922,-0.0438 0.0678,-0.1242 0.01169,-0.16103 -0.01169,-0.007 -0.02923,-0.0123 -0.04676,-0.0105 z m 1.074248,3.36447 c -0.649202,0.014 -1.298227,0.0514 -1.937902,0.16986 -0.24023,0.0497 -0.487473,0.0958 -0.707185,0.21924 -0.06313,0.0392 -0.139111,0.0988 -0.126835,0.19031 -0.01754,0.67278 -0.01169,1.34599 -0.01169,2.01895 0.0026,1.11437 1.35e-4,2.2288 0.01169,3.34312 0.0058,0.16454 -0.0038,0.32358 0.02922,0.48168 0.08884,0.3507 0.28465,0.68766 0.544752,0.91266 0.139696,0.12157 0.301016,0.21696 0.463508,0.27307 0.163074,0.067 0.339592,0.0497 0.510265,0.0601 0.933852,0.0205 1.867998,0.0187 2.801966,0.008 0.219772,-0.007 0.441881,-0.002 0.660541,-0.0275 0.248996,-0.0532 0.479872,-0.19067 0.662702,-0.38419 0.142034,-0.14525 0.279392,-0.30418 0.357714,-0.50261 0.102872,-0.21089 0.144955,-0.44831 0.167751,-0.68427 0.0053,-0.0456 -1.34e-4,-0.10205 0.0526,-0.0996 0.303355,-0.0873 0.603903,-0.20592 0.875051,-0.386 0.451232,-0.2978 0.833319,-0.73042 1.073372,-1.24815 0.187041,-0.4147 0.284066,-0.8806 0.246658,-1.34247 -0.03507,-0.45854 -0.226785,-0.89914 -0.54592,-1.19857 -0.272961,-0.26174 -0.636052,-0.4067 -0.988153,-0.43341 -0.221525,-0.0175 -0.438373,0.004 -0.656215,0.0468 -0.05261,0.024 -0.07657,0.0111 -0.06371,-0.0532 -0.0039,-0.2584 0.0058,-0.51763 -0.01169,-0.77546 -0.0018,-0.0836 -0.0526,-0.15443 -0.119238,-0.18652 -0.222695,-0.137 -0.479288,-0.18394 -0.726765,-0.23479 -0.647272,-0.11655 -1.299864,-0.1525 -1.955378,-0.16676 -0.203989,-0.003 -0.407979,-0.003 -0.612028,8e-5 z m 0.444219,0.17161 c 0.409732,-0.001 0.819231,0.007 1.227327,0.0473 0.441881,0.0427 0.886917,0.0908 1.314828,0.22555 0.08125,0.0316 0.170089,0.0532 0.237308,0.11532 0.03507,0.0618 -0.04092,0.10025 -0.08534,0.11871 -0.398627,0.16904 -0.82648,0.22083 -1.248312,0.26724 -0.6108,0.0691 -1.225633,0.0755 -1.83918,0.0793 -0.583329,-0.005 -1.165605,-0.052 -1.742973,-0.1391 -0.263023,-0.0456 -0.530724,-0.0868 -0.780888,-0.19079 -0.04676,-0.0251 -0.11047,-0.0427 -0.123329,-0.10404 0.01754,-0.0679 0.09118,-0.0841 0.141448,-0.11058 0.291081,-0.10907 0.598058,-0.15384 0.901295,-0.20136 0.389276,-0.0573 0.780656,-0.0919 1.173204,-0.0965 0.275299,-0.008 0.550013,-0.01 0.825018,-0.0111 z m 2.809679,0.71028 c 0.01169,0.3262 0.01169,0.65318 0.01169,0.97972 0.004,1.25547 0.0058,2.511 -0.0022,3.76645 -0.0058,0.26115 0.0019,0.52593 -0.04676,0.78304 -0.06254,0.25583 -0.196975,0.48613 -0.361218,0.67702 -0.223864,0.24309 -0.526633,0.40745 -0.843433,0.4116 -0.575145,0.0199 -1.149765,0.009 -1.724618,0.0129 -0.563455,-0.004 -1.127438,0.006 -1.690835,-0.0134 -0.265363,-0.009 -0.519034,-0.13946 -0.723082,-0.32253 -0.234383,-0.21457 -0.401551,-0.51588 -0.472275,-0.84185 -0.02338,-0.27699 -0.01754,-0.55661 -0.02338,-0.83479 -0.0056,-1.34816 -0.01169,-2.69635 -0.0058,-4.04452 0.0037,-0.18348 -0.004,-0.36841 0.01754,-0.55083 0.0033,-0.0514 0.0526,-0.0672 0.0906,-0.0433 0.330828,0.11731 0.668901,0.17296 1.01241,0.22498 0.775161,0.10591 1.557394,0.12093 2.338225,0.0994 0.609865,-0.0222 1.219613,-0.0628 1.821762,-0.1802 0.18587,-0.0345 0.365896,-0.0919 0.544752,-0.15647 0.03507,-0.006 0.06488,-0.0304 0.0602,0.0327 z m 0.758037,0.66292 c 0.201066,9.4e-4 0.404472,0.0263 0.592329,0.11082 0.351284,0.147 0.645343,0.45328 0.790241,0.83691 0.112223,0.25566 0.142618,0.54487 0.132682,0.82603 -0.04676,0.71936 -0.391615,1.3946 -0.893171,1.84774 -0.318551,0.29389 -0.70023,0.49589 -1.098915,0.61795 -0.03507,0.014 -0.08534,0.0304 -0.09703,-0.0222 -0.02338,-0.16798 -0.0052,-0.33965 -0.0058,-0.50904 -0.0037,-0.0526 -0.0041,-0.10229 0.05261,-0.10404 0.290495,-0.0967 0.566376,-0.25314 0.795852,-0.4676 0.376417,-0.34672 0.65265,-0.85461 0.672757,-1.40432 0.01168,-0.27506 -0.03507,-0.57304 -0.209835,-0.78072 -0.132681,-0.16676 -0.316797,-0.27051 -0.508514,-0.31072 -0.248995,-0.0579 -0.502667,-0.009 -0.746929,0.052 -0.0526,0.0257 -0.06897,0.002 -0.06371,-0.0567 -1.35e-4,-0.16255 -0.01169,-0.32621 0.0029,-0.48823 0.0058,-0.0857 0.09235,-0.10948 0.15723,-0.1162 0.140278,-0.0275 0.282897,-0.0327 0.42493,-0.0316 z m 0.0011,0.7881 c 0.198144,0.006 0.407396,0.0579 0.553519,0.21533 0.167167,0.1577 0.23789,0.40658 0.234969,0.6437 0.0011,0.50454 -0.237891,0.98235 -0.575145,1.31124 -0.204574,0.20978 -0.459417,0.34778 -0.717005,0.45918 -0.03507,0.002 -0.10287,0.0606 -0.08534,-0.0117 0,-0.83514 0,-1.67027 0,-2.50542 0.190548,-0.0691 0.388106,-0.11561 0.589642,-0.11222 z" /></g></svg>
