<?xml version="1.0" encoding="UTF-8" standalone="no"?>
<!-- Created with Inkscape (http://www.inkscape.org/) -->

<svg
   width="10.033229mm"
   height="13.757987mm"
   viewBox="0 0 10.033229 13.757987"
   version="1.1"
   id="svg1"
   xml:space="preserve"
   inkscape:export-filename="ビットマップ.svg"
   inkscape:export-xdpi="96"
   inkscape:export-ydpi="96"
   xmlns:inkscape="http://www.inkscape.org/namespaces/inkscape"
   xmlns:sodipodi="http://sodipodi.sourceforge.net/DTD/sodipodi-0.dtd"
   xmlns="http://www.w3.org/2000/svg"
   xmlns:svg="http://www.w3.org/2000/svg"><sodipodi:namedview
     id="namedview1"
     pagecolor="#ffffff"
     bordercolor="#111111"
     borderopacity="1"
     inkscape:showpageshadow="0"
     inkscape:pageopacity="0"
     inkscape:pagecheckerboard="1"
     inkscape:deskcolor="#d1d1d1"
     inkscape:document-units="mm"><inkscape:page
       x="0"
       y="0"
       width="10.033229"
       height="13.757987"
       id="page2"
       margin="0"
       bleed="0" /></sodipodi:namedview><defs
     id="defs1" /><g
     inkscape:label="Layer 1"
     inkscape:groupmode="layer"
     id="layer1"
     transform="translate(-96.087582,-99.485559)"><path
       id="path1-74"
       style="fill:#000000;stroke:#000000;stroke-width:0.240839;stroke-linecap:round;stroke-linejoin:round;stroke-dasharray:none;stroke-opacity:1"
       d="m 99.676737,99.607039 c -0.07639,0.03181 -0.114928,0.124725 -0.167654,0.18956 -0.1832,0.261141 -0.294066,0.601791 -0.247422,0.933541 0.06084,0.36417 0.292718,0.64891 0.496875,0.92745 0.127771,0.17596 0.248094,0.37208 0.271764,0.60233 0.0406,0.32272 -0.102756,0.63526 -0.291369,0.87089 -0.04056,0.052 -0.110187,0.1379 -0.04056,0.19915 0.06829,0.0608 0.1494,-0.0176 0.189962,-0.0774 0.211597,-0.25588 0.344097,-0.59795 0.329897,-0.94773 0.003,-0.26331 -0.11627,-0.50283 -0.260266,-0.70379 -0.169681,-0.2471 -0.385333,-0.46916 -0.478621,-0.76854 -0.05408,-0.20949 -0.04056,-0.43934 0.03379,-0.64201 0.04733,-0.15604 0.154134,-0.278934 0.237284,-0.413254 0.02703,-0.0473 0.06084,-0.145753 -0.0067,-0.166028 -0.02027,-0.0046 -0.04056,-0.0058 -0.05408,-0.0046 z m 1.641113,0.734741 c -0.11289,0.0582 -0.17577,0.18935 -0.23931,0.30151 -0.0608,0.12567 -0.1271,0.25945 -0.11696,0.40797 1.6e-4,0.15562 -0.0135,0.32192 0.0608,0.46071 0.0906,0.21707 0.24337,0.38865 0.37519,0.57428 0.12776,0.18326 0.23796,0.41258 0.19401,0.65127 -0.0202,0.19437 -0.13181,0.35317 -0.2366,0.50371 -0.0271,0.0534 -0.0758,0.1254 -0.0406,0.18489 0.0765,0.0642 0.15481,-0.0264 0.20146,-0.0896 0.16156,-0.22045 0.29474,-0.4966 0.26162,-0.7891 -0.0338,-0.3276 -0.22917,-0.59361 -0.42049,-0.83112 -0.12033,-0.15588 -0.22106,-0.34557 -0.21902,-0.5567 -0.0135,-0.18036 0.0338,-0.36417 0.1379,-0.50572 0.0473,-0.075 0.11427,-0.14036 0.13724,-0.22897 -0.006,-0.048 -0.0541,-0.0894 -0.0967,-0.0829 z m -3.131734,0.002 c -0.096,0.0311 -0.145345,0.14027 -0.201454,0.222 -0.154813,0.24283 -0.227823,0.56306 -0.136556,0.85003 0.06827,0.22931 0.226462,0.40562 0.355584,0.59409 0.106808,0.15197 0.228493,0.30759 0.250801,0.506 0.04056,0.25506 -0.07504,0.49985 -0.214973,0.69366 -0.02703,0.0541 -0.08856,0.1093 -0.07369,0.17604 0.02703,0.0554 0.09396,0.0846 0.136556,0.0345 0.16292,-0.16562 0.283253,-0.38851 0.325166,-0.62992 0.01352,-0.0902 0.02027,-0.20111 0.0052,-0.29271 -0.02703,-0.27298 -0.194696,-0.49113 -0.348151,-0.69559 -0.130474,-0.18029 -0.280546,-0.37297 -0.290011,-0.61544 -0.02027,-0.24047 0.09058,-0.46626 0.228493,-0.64359 0.0338,-0.0506 0.07842,-0.14364 0.01352,-0.18624 -0.01352,-0.008 -0.03381,-0.0142 -0.05408,-0.0122 z m 1.242457,3.89129 c -0.750856,0.0162 -1.50151,0.0594 -2.241346,0.19645 -0.277846,0.0575 -0.563803,0.1108 -0.817918,0.25357 -0.07301,0.0453 -0.160893,0.11427 -0.146695,0.22011 -0.02029,0.77813 -0.01352,1.55675 -0.01352,2.33508 0.003,1.28886 1.57e-4,2.5778 0.01352,3.8666 0.0067,0.1903 -0.0044,0.37425 0.0338,0.5571 0.102751,0.40562 0.329222,0.79534 0.630051,1.05557 0.16157,0.1406 0.34815,0.25093 0.536086,0.31583 0.18861,0.0775 0.392767,0.0575 0.590162,0.0695 1.080077,0.0237 2.160497,0.0216 3.240707,0.009 0.25418,-0.008 0.51107,-0.002 0.76397,-0.0318 0.28798,-0.0615 0.55501,-0.22053 0.76647,-0.44435 0.16428,-0.16799 0.32315,-0.35181 0.41373,-0.58131 0.11897,-0.24391 0.16765,-0.51851 0.19402,-0.79141 0.006,-0.0528 -1.6e-4,-0.11804 0.0608,-0.1152 0.35084,-0.10097 0.69845,-0.23817 1.01206,-0.44644 0.52189,-0.34443 0.96381,-0.84479 1.24144,-1.44359 0.21633,-0.47963 0.32855,-1.01849 0.28529,-1.55268 -0.0406,-0.53034 -0.26229,-1.03993 -0.6314,-1.38624 -0.3157,-0.30273 -0.73565,-0.47039 -1.14288,-0.50128 -0.25622,-0.0202 -0.50702,0.005 -0.75898,0.0541 -0.0608,0.0278 -0.0886,0.0129 -0.0737,-0.0615 -0.005,-0.29886 0.007,-0.59868 -0.0135,-0.89689 -0.002,-0.0967 -0.0608,-0.17861 -0.13792,-0.21572 -0.25756,-0.15845 -0.55432,-0.21274 -0.84056,-0.27156 -0.74862,-0.13479 -1.50339,-0.17637 -2.26156,-0.19287 -0.235925,-0.003 -0.471858,-0.003 -0.707857,1e-4 z m 0.513773,0.19847 c 0.473884,-9.9e-4 0.947504,0.008 1.419504,0.0547 0.51108,0.0494 1.0258,0.10502 1.52071,0.26087 0.0939,0.0365 0.19673,0.0615 0.27446,0.13338 0.0406,0.0715 -0.0473,0.11594 -0.0987,0.1373 -0.46103,0.1955 -0.95589,0.2554 -1.44377,0.30908 -0.70644,0.0799 -1.41754,0.0873 -2.127159,0.0917 -0.674669,-0.006 -1.348121,-0.0601 -2.015893,-0.16088 -0.304209,-0.0527 -0.613827,-0.10039 -0.903162,-0.22067 -0.05408,-0.029 -0.127768,-0.0494 -0.142641,-0.12033 0.02029,-0.0785 0.105458,-0.0973 0.163597,-0.12789 0.336659,-0.12615 0.691703,-0.17793 1.042423,-0.23289 0.45023,-0.0663 0.902892,-0.10629 1.356906,-0.11161 0.318405,-0.009 0.636138,-0.0116 0.954201,-0.0128 z m 3.249624,0.8215 c 0.0136,0.37728 0.0136,0.75546 0.0136,1.13313 0.005,1.45206 0.007,2.90418 -0.002,4.35621 -0.007,0.30204 0.002,0.60828 -0.0541,0.90565 -0.0723,0.29589 -0.22781,0.56225 -0.41778,0.78303 -0.25891,0.28116 -0.60909,0.47125 -0.97549,0.47605 -0.66521,0.023 -1.32981,0.0104 -1.994667,0.0149 -0.651684,-0.005 -1.303975,0.007 -1.95559,-0.0155 -0.306916,-0.0104 -0.600307,-0.1613 -0.836306,-0.37304 -0.271083,-0.24816 -0.464427,-0.59665 -0.546225,-0.97366 -0.02704,-0.32037 -0.02029,-0.64377 -0.02704,-0.96551 -0.0065,-1.55926 -0.01352,-3.11855 -0.0067,-4.67782 0.0043,-0.21221 -0.0046,-0.4261 0.02029,-0.63708 0.0038,-0.0594 0.06084,-0.0777 0.104786,-0.0501 0.38263,0.13568 0.77364,0.20004 1.170938,0.26021 0.896539,0.12249 1.801253,0.13986 2.704344,0.11496 0.70536,-0.0257 1.41059,-0.0726 2.10703,-0.20841 0.21497,-0.0399 0.42318,-0.1063 0.63004,-0.18098 0.0406,-0.007 0.0751,-0.0351 0.0696,0.0378 z m 0.87674,0.76673 c 0.23254,9.9e-4 0.4678,0.0304 0.68508,0.12817 0.40628,0.17002 0.74639,0.52425 0.91398,0.96795 0.12979,0.2957 0.16495,0.63019 0.15345,0.95537 -0.0541,0.832 -0.45294,1.61298 -1.03302,2.13707 -0.36843,0.33991 -0.80988,0.57354 -1.271,0.71471 -0.0406,0.0162 -0.0987,0.0352 -0.11218,-0.0257 -0.0271,-0.19428 -0.006,-0.39283 -0.007,-0.58874 -0.005,-0.0608 -0.005,-0.11831 0.0608,-0.12033 0.33599,-0.11185 0.65507,-0.29278 0.92048,-0.54082 0.43535,-0.40101 0.75484,-0.98843 0.77809,-1.62421 0.0135,-0.31813 -0.0406,-0.66277 -0.24269,-0.90297 -0.15345,-0.19287 -0.3664,-0.31287 -0.58814,-0.35937 -0.28798,-0.067 -0.58137,-0.0104 -0.86389,0.0601 -0.0608,0.0297 -0.0798,0.002 -0.0737,-0.0656 -1.5e-4,-0.188 -0.0136,-0.37729 0.003,-0.56468 0.007,-0.0991 0.10676,-0.12662 0.18185,-0.13439 0.16225,-0.0318 0.3272,-0.0378 0.49147,-0.0365 z m 9.9e-4,0.9115 c 0.22917,0.007 0.47118,0.067 0.6402,0.24904 0.19333,0.1824 0.27513,0.47025 0.27176,0.7445 9.9e-4,0.58354 -0.27515,1.13617 -0.66521,1.51656 -0.2366,0.24262 -0.53136,0.40223 -0.82927,0.53108 -0.0406,0.002 -0.11898,0.0701 -0.0987,-0.0136 0,-0.96591 0,-1.93181 0,-2.89773 0.22038,-0.0799 0.44887,-0.13371 0.68197,-0.12979 z"
       inkscape:export-filename="icon_hotwater_24.svg"
       inkscape:export-xdpi="30.57955"
       inkscape:export-ydpi="30.57955" /></g></svg>
