<?xml version="1.0" encoding="UTF-8" standalone="no"?>
<!-- Created with Inkscape (http://www.inkscape.org/) -->

<svg
   width="13.229118mm"
   height="11.059823mm"
   viewBox="0 0 13.229118 11.059823"
   version="1.1"
   id="svg1"
   xml:space="preserve"
   inkscape:export-filename="ビットマップ.svg"
   inkscape:export-xdpi="96"
   inkscape:export-ydpi="96"
   xmlns:inkscape="http://www.inkscape.org/namespaces/inkscape"
   xmlns:sodipodi="http://sodipodi.sourceforge.net/DTD/sodipodi-0.dtd"
   xmlns="http://www.w3.org/2000/svg"
   xmlns:svg="http://www.w3.org/2000/svg"><sodipodi:namedview
     id="namedview1"
     pagecolor="#ffffff"
     bordercolor="#111111"
     borderopacity="1"
     inkscape:showpageshadow="0"
     inkscape:pageopacity="0"
     inkscape:pagecheckerboard="1"
     inkscape:deskcolor="#d1d1d1"
     inkscape:document-units="mm"><inkscape:page
       x="0"
       y="0"
       width="13.229118"
       height="11.059823"
       id="page2"
       margin="0"
       bleed="0" /></sodipodi:namedview><defs
     id="defs1" /><g
     inkscape:label="Layer 1"
     inkscape:groupmode="layer"
     id="layer1"
     transform="translate(-184.38677,-70.074907)"><path
       style="fill:#000000;stroke:#000000;stroke-width:0.187744;stroke-dasharray:none;stroke-opacity:1"
       d="m 184.71717,80.971026 c -0.0612,-0.03954 -0.13761,-0.129717 -0.17532,-0.212929 -0.0612,-0.13913 -0.0612,-0.264327 -0.0612,-3.553658 0,-2.204825 0.0102,-3.463666 0.0306,-3.562884 0.0816,-0.362131 0.3425,-0.577224 0.73495,-0.605934 l 0.23138,-0.01696 v -0.619398 c 0,-0.65554 0.0101,-0.701195 0.15698,-0.701195 0.0714,0 0.0714,-0.01696 0.0714,-0.137434 0,-0.140636 0.0204,-0.158803 0.16717,-0.180829 0.0816,-0.01225 0.0816,-0.01696 0.0917,-0.370791 l 0.009,-0.358554 -0.12742,-0.02164 c -0.21916,-0.03671 -0.71965,-0.02259 -0.94595,0.0273 l -0.21712,0.04801 -0.0713,-0.09131 c -0.10295,-0.122185 -0.12538,-0.212644 -0.0713,-0.248135 0.0917,-0.06119 0.527,-0.143646 0.83178,-0.159552 0.21406,-0.01128 0.44545,0.0034 0.70946,0.04424 0.3904,0.06119 0.39244,0.06119 0.68703,-0.01225 0.35167,-0.08848 0.32517,-0.0866 0.38939,-0.0207 0.0612,0.06401 0.0713,0.306121 0.0102,0.343865 -0.0204,0.01413 -0.10295,0.03483 -0.17532,0.04424 l -0.13455,0.0179 -0.009,0.361284 -0.01,0.361281 0.10907,0.03201 c 0.0917,0.02729 0.11416,0.05271 0.14168,0.175745 0.0204,0.117666 0.0408,0.144025 0.10703,0.144025 0.0408,0 0.0917,0.03012 0.11009,0.06589 0.0204,0.0386 0.0306,0.31591 0.0306,0.660721 v 0.594828 l 0.19673,0.01413 c 0.43016,0.032 0.7115,0.313651 0.75635,0.755323 0.0102,0.115503 0.0204,1.721998 0.0102,3.569907 -0.009,3.170967 -0.0102,3.36511 -0.0714,3.453707 -0.0306,0.05177 -0.10804,0.123784 -0.16717,0.16031 -0.10295,0.06307 -0.1794,0.06683 -1.67803,0.06683 -1.51668,0 -1.57498,-0.0024 -1.68171,-0.06872 z m 3.29114,-0.0546 c 0.22527,-0.109004 0.21202,0.112491 0.21202,-3.718549 -1e-4,-2.282315 -0.0102,-3.514226 -0.0306,-3.597609 -0.0408,-0.16351 -0.17431,-0.319018 -0.33638,-0.403174 -0.12028,-0.06307 -0.20285,-0.06684 -1.45827,-0.06589 -1.31586,4.38e-4 -1.33156,0.0013 -1.46244,0.07719 -0.0714,0.04236 -0.17839,0.1428 -0.23445,0.223944 l -0.10295,0.147507 -0.009,3.548177 c -0.01,3.921464 -0.0204,3.636064 0.20284,3.777799 0.10296,0.06307 0.17941,0.06683 1.60597,0.06683 1.31851,1.14e-4 1.51321,-0.0066 1.61443,-0.05554 z m -2.81286,-0.383027 c -0.16208,-0.07719 -0.26401,-0.185161 -0.33333,-0.353281 -0.0408,-0.110701 -0.051,-0.493636 -0.051,-3.105283 v -2.979004 l 1.56276,-0.0207 c 0.86031,-0.0113 1.57436,-0.0088 1.58853,0.0054 0.0102,0.01413 0.0204,1.391307 0.0204,3.060381 l -0.009,3.034676 -0.0815,0.119926 c -0.0408,0.06589 -0.13252,0.156919 -0.19775,0.202011 l -0.11723,0.0819 -1.12229,0.0085 c -1.03585,0.0078 -1.13269,0.0035 -1.25623,-0.05554 z m 2.33387,-0.05365 c 0.16718,-0.06025 0.2528,-0.141483 0.32823,-0.308571 0.0612,-0.128961 0.0612,-0.296612 0.0612,-3.077033 l 6.6e-4,-2.940662 h -1.52105 -1.52096 l 0.001,2.923618 c 0.001,3.07789 0.002,3.081559 0.14984,3.248045 0.0306,0.03577 0.11926,0.09564 0.19571,0.134137 0.13149,0.0659 0.19571,0.06966 1.15797,0.06872 0.77266,-0.0011 1.05053,-0.01319 1.14716,-0.04801 z m -0.27216,-8.039547 c 0.006,-0.323441 -0.002,-0.607344 -0.0204,-0.630787 -0.0204,-0.032 -0.22221,-0.04236 -0.80833,-0.04236 -0.42812,0 -0.80222,0.0093 -0.83178,0.0207 -0.0408,0.0179 -0.051,0.105901 -0.051,0.630787 v 0.610079 h 0.85013 0.85013 z m -0.24056,-0.861693 v -0.120112 l -0.61059,0.0093 -0.61058,0.0093 -0.0102,0.110795 -0.0102,0.110793 h 0.62077 0.62078 z m -0.25076,-0.612903 v -0.409102 l 0.15086,-0.0179 c 0.18858,-0.02259 0.23445,-0.05083 0.23445,-0.147693 0,-0.130656 -0.0612,-0.15852 -0.21202,-0.102041 -0.23445,0.08472 -0.55147,0.09498 -0.94493,0.02918 -0.40672,-0.06777 -0.77266,-0.05648 -1.12066,0.03483 -0.26401,0.06872 -0.29663,0.09884 -0.20999,0.187703 0.0612,0.06213 0.0815,0.06495 0.24974,0.03106 0.20897,-0.04236 0.78693,-0.05177 0.99386,-0.01599 l 0.14169,0.02447 v 0.383404 c 0,0.210858 0.0102,0.394136 0.0204,0.407219 0.0102,0.01319 0.17431,0.01974 0.35983,0.01413 l 0.33638,-0.0094 z m 2.38678,9.997555 c -0.24056,-0.16398 -0.23037,-0.04801 -0.23139,-2.635467 0,-1.980419 0.007,-2.346428 0.051,-2.495808 0.0917,-0.316664 0.30682,-0.494105 0.65543,-0.538815 0.27421,-0.03577 0.40366,-0.189869 0.19674,-0.236087 l -0.10296,-0.02259 v -0.608571 c 0,-0.675687 0.0102,-0.715693 0.21101,-0.715788 0.0917,-4.8e-5 0.11212,-0.01507 0.1845,-0.19608 0.0713,-0.170098 0.0815,-0.271479 0.0917,-0.766243 0.0204,-0.63267 0.0408,-0.717201 0.25075,-0.844845 0.21203,-0.131881 0.49948,-0.05742 0.63505,0.165767 0.0714,0.113056 0.0816,0.178101 0.0917,0.720874 0.0204,0.542675 0.0204,0.611299 0.10296,0.758618 0.0713,0.13508 0.0917,0.161909 0.1743,0.161909 0.051,0 0.12334,0.03106 0.16106,0.06778 0.0612,0.06024 0.0612,0.113619 0.0612,0.455322 0,0.212927 -0.009,0.479889 -0.0204,0.593318 -0.0204,0.192975 -0.0306,0.207471 -0.1162,0.225733 -0.20897,0.04236 -0.0612,0.201163 0.22119,0.242394 0.28848,0.04142 0.47298,0.171415 0.60753,0.426611 0.0612,0.112771 0.0612,0.251522 0.0713,2.523002 0.01,2.683405 0.0204,2.552686 -0.22323,2.71836 l -0.11315,0.07719 h -1.42748 -1.42758 z m 3.00002,-0.04613 c 0.22221,-0.107124 0.21202,0.0015 0.21202,-2.633828 0,-1.602982 -0.0102,-2.417593 -0.0306,-2.482074 -0.0713,-0.208129 -0.3639,-0.417386 -0.57593,-0.419176 -0.15902,-0.0013 -0.30988,-0.0866 -0.35677,-0.20116 -0.0408,-0.100534 -0.051,-0.106467 -0.22221,-0.106467 h -0.17941 v 0.613749 0.613748 h 0.56777 c 0.51681,0 0.56982,0.0054 0.57389,0.05931 0.003,0.03295 0.001,0.888146 -0.003,1.900773 -0.008,1.771709 -0.0102,1.846647 -0.0714,1.988264 -0.0408,0.08943 -0.12028,0.182992 -0.20284,0.238623 l -0.13558,0.09131 -0.96735,0.01036 -0.96735,0.01036 -0.17125,-0.0866 c -0.10295,-0.05177 -0.20387,-0.136304 -0.25381,-0.210672 -0.0714,-0.112958 -0.0815,-0.17019 -0.105,-0.623157 -0.0102,-0.274306 -0.0204,-1.143126 -0.0204,-1.930712 l 0.004,-1.431969 0.57695,-0.0093 0.57694,-0.0094 v -0.612903 -0.6129 h -0.17635 c -0.16615,0 -0.1794,0.0063 -0.21507,0.102887 -0.0408,0.114559 -0.20795,0.203986 -0.37818,0.203986 -0.12232,0 -0.32313,0.09893 -0.42404,0.210295 -0.18043,0.197583 -0.17737,0.142515 -0.17737,2.705443 0,2.085687 0.006,2.384824 0.051,2.475522 0.0917,0.192785 0.13659,0.197491 1.61412,0.198998 1.181,0.0011 1.36316,-0.0056 1.46407,-0.0546 z m -0.47807,-0.43687 c 0.16717,-0.06025 0.25279,-0.141485 0.32823,-0.308571 0.0611,-0.12689 0.0611,-0.263856 0.0611,-1.969829 l 6.6e-4,-1.833443 -0.527,0.0094 -0.52597,0.0094 -0.0204,1.483116 c -0.0102,1.340813 -0.0204,1.491199 -0.0713,1.567407 -0.0306,0.04613 -0.0612,0.125292 -0.0612,0.175371 0,0.0947 -0.051,0.132447 -0.17941,0.132447 -0.0917,0 -0.15493,-0.06119 -0.15493,-0.163417 0,-0.04518 -0.0306,-0.120583 -0.0612,-0.168214 -0.0612,-0.08378 -0.0612,-0.138284 -0.0612,-1.565201 v -1.47852 h -0.53515 -0.53515 l 6.6e-4,1.832583 c 6.5e-4,1.713441 0.004,1.841678 0.0611,1.972335 0.0612,0.145908 0.20897,0.273456 0.36391,0.3209 0.16207,0.04989 1.77895,0.03671 1.92308,-0.01599 z m -0.88479,-0.921191 c 0.006,-0.05553 0.0408,-0.142422 0.0713,-0.192783 0.0612,-0.0866 0.0612,-0.168404 0.0612,-1.543849 v -1.452287 h -0.23445 -0.23445 l 4.4e-4,1.45755 c 6.6e-4,1.394082 0.004,1.461256 0.0612,1.542777 0.0306,0.04707 0.0612,0.110793 0.0612,0.14214 0.001,0.111453 0.0408,0.168403 0.11315,0.158047 0.051,-0.0074 0.0713,-0.03859 0.0815,-0.111547 z m 0.13965,-3.87081 v -0.613746 h -0.23445 -0.23445 v 0.613746 0.613748 h 0.23445 0.23445 z m 0.66869,-1.296147 V 73.81187 l -0.89396,0.0091 -0.89396,0.0091 -0.009,0.571106 -0.009,0.571106 h 0.90313 0.90314 z m -0.33435,-0.694045 c 0,-0.007 -0.0306,-0.08754 -0.0713,-0.178946 -0.0612,-0.143176 -0.0713,-0.2455 -0.0917,-0.735464 -0.0102,-0.480829 -0.0204,-0.5856 -0.0815,-0.675404 -0.14271,-0.238534 -0.47807,-0.251522 -0.63708,-0.02447 -0.0714,0.101665 -0.0816,0.154849 -0.0917,0.706563 -0.0204,0.510484 -0.0306,0.620055 -0.0917,0.75862 l -0.0713,0.161909 h 0.56573 c 0.31192,0 0.56676,-0.0057 0.56676,-0.01319 z m 2.01371,7.275043 c -0.0612,-0.03765 -0.13965,-0.11776 -0.17533,-0.178853 -0.0612,-0.103923 -0.0612,-0.1733 -0.0612,-1.076536 -1e-4,-0.598308 0.0102,-0.9904 0.0306,-1.031132 0.0204,-0.04048 0.0815,-0.07437 0.16717,-0.08754 0.0917,-0.01601 0.13354,-0.03765 0.13354,-0.08284 0,-0.04424 -0.0306,-0.06495 -0.10805,-0.07248 l -0.10805,-0.01036 v -0.346979 c 0,-0.298969 0.01,-0.360342 0.0713,-0.443273 0.13455,-0.183937 0.0917,-0.180454 2.04591,-0.181019 1.99159,-4.38e-4 1.95724,-0.0039 2.06213,0.20295 0.0306,0.06966 0.051,0.203046 0.051,0.442616 v 0.342643 h -0.11621 c -0.0917,0 -0.1162,0.01319 -0.1162,0.06778 0,0.05366 0.0204,0.06778 0.10295,0.06778 0.0612,0 0.13353,0.03106 0.18348,0.08378 l 0.0815,0.08378 v 0.933802 c 0,0.905653 -0.003,0.938224 -0.0714,1.080469 -0.1478,0.284563 -0.051,0.273176 -2.17995,0.27308 -1.80954,-1.23e-4 -1.8761,-0.0024 -1.9814,-0.06778 z m 3.87919,-0.04707 c 0.0612,-0.02541 0.13864,-0.08095 0.17431,-0.122842 0.0612,-0.07154 0.0713,-0.132448 0.0713,-1.01891 0.006,-0.518391 0.001,-0.977063 -0.009,-1.019317 l -0.0204,-0.07719 h -2.10412 c -2.04622,0 -2.10524,0.0018 -2.13898,0.06589 -0.0204,0.04048 -0.0306,0.403079 -0.0306,0.946132 4.4e-4,0.781586 0.008,0.895676 0.0612,1.018615 0.11518,0.259336 0.051,0.251995 2.08577,0.252841 1.44359,6.57e-4 1.81901,-0.0084 1.90545,-0.04613 z m -3.36483,-0.276374 c -0.16106,-0.05836 -0.34352,-0.234958 -0.38633,-0.373615 -0.0306,-0.08378 -0.10296,-1.043025 -0.10296,-1.289529 0,-0.05648 0.11519,-0.05931 1.96019,-0.05931 h 1.96029 l -0.0204,0.588143 c -0.0102,0.323444 -0.0408,0.649521 -0.0612,0.724544 -0.0408,0.170383 -0.23649,0.36326 -0.41895,0.418891 -0.20489,0.06307 -2.75548,0.05554 -2.93132,-0.0088 z m 3.03885,-0.136306 c 0.23547,-0.140727 0.25891,-0.229777 0.29765,-1.134803 l 0.0204,-0.383594 h -1.86916 c -1.02831,0 -1.87497,0.0113 -1.88201,0.02542 -0.007,0.01413 0.005,0.286352 0.0204,0.60518 0.0306,0.415504 0.051,0.610171 0.0917,0.687738 0.051,0.102792 0.18144,0.217636 0.29051,0.259336 0.0306,0.01036 0.68806,0.0207 1.46805,0.02165 l 1.4177,0.0027 z m 0.2161,-1.995697 c 0,-0.06778 -0.0204,-0.06778 -1.78864,-0.06778 -1.766,0 -1.78832,8.76e-4 -1.78832,0.06778 0,0.06778 0.0204,0.06778 1.78832,0.06778 1.76632,0 1.78864,-8.77e-4 1.78864,-0.06778 z m 0.25076,-0.468125 c 0,-0.298592 -0.004,-0.319487 -0.0917,-0.409102 l -0.0917,-0.09442 -1.79597,0.0089 c -0.98774,0.0049 -1.82288,0.0087 -1.85591,0.0085 -0.0306,-1.22e-4 -0.0917,0.03765 -0.14271,0.08378 -0.0713,0.07719 -0.0815,0.109005 -0.0815,0.409385 v 0.3257 l 2.03072,-0.0088 2.03083,-0.0088 z"
       id="path1-84" /></g></svg>
